<svg width="500" height="500" viewBox="0 0 500 500" fill="none" xmlns="http://www.w3.org/2000/svg">
<mask id="mask0" mask-type="alpha" maskUnits="userSpaceOnUse" x="57" y="58" width="385" height="384">
<path d="M57.6923 441.443H441.85V58.1533H57.6923V441.443Z" fill="white"/>
</mask>
<g mask="url(#mask0)">
<path d="M390.858 118.483C354.89 80.1345 302.523 58.1455 247.164 58.1455C242.433 58.1455 237.677 58.2974 232.972 58.6263C143.648 64.674 100.463 127.984 95.9863 134.955C89.404 143.306 32.7125 219.672 70.6844 325.202L71.3946 327.479C71.7624 328.618 108.732 441.448 240.911 441.448H240.936C248.013 441.448 255.382 441.118 262.801 440.461C361.51 431.819 434.943 359.046 441.386 263.549C445.051 208.678 427.105 157.159 390.858 118.483Z" fill="#FEFEFE"/>
</g>
<path d="M351.967 293.09C365.372 263.687 358.625 231.716 336.037 206.488C329.759 199.492 321.934 194.722 314.363 190.104C309.442 187.105 304.343 184.006 299.778 180.324C297.634 178.591 295.871 176.263 294.007 173.783C291.686 170.709 289.061 167.217 285.294 164.497C264.355 149.39 239.725 143.861 215.4 136.688C203.909 133.31 192.723 130.805 182.197 127.072C195.184 118.064 211.899 112.244 230.124 110.473C235.857 109.916 241.577 109.625 247.157 109.625C300.894 109.625 347.819 136.624 372.703 181.842C397.612 227.149 395.976 282.121 368.391 325.327C340.058 369.71 289.796 393.319 232.915 388.638C198.887 385.854 162.627 367.838 151.467 348.771C158.379 344.533 220.511 311.676 263.023 324.91C275.211 324.948 255.718 354.389 255.718 354.389C255.718 354.389 326.665 348.544 351.967 293.09ZM381.416 126.984C344.383 87.5097 289.543 67.2414 233.574 71.0243C144.732 77.0593 105.327 142.963 105.327 142.963C105.327 142.963 175.716 164.244 185.418 167.242C192 169.292 235.946 180.122 255.756 191.002C259.891 193.267 263.949 197.809 267.944 202.047C270.912 205.185 273.702 208.158 276.606 210.537C281.806 214.788 286.905 218.469 291.826 222.025C304.039 230.83 314.578 238.422 319.474 249.985C323.722 260.031 323.887 270.444 319.943 280.122C316.519 288.548 310.076 296.051 302.073 301.188C302.885 296.924 303.976 290.826 298.205 287.03C295.744 285.423 282.453 282.298 273.563 281.413C269.314 280.97 221.754 278.756 155.715 314.32C175.526 287.979 189.705 283.589 189.705 283.589C189.172 280.413 82.8788 323.366 82.8788 323.366C82.8788 323.366 119.544 440.536 261.463 428.086C353.793 419.976 422.584 352.618 428.621 262.701C432.07 211.334 415.304 163.13 381.416 126.984Z" fill="#E0393D"/>
<path d="M246.801 203.98C223.985 204.879 203.008 177.525 185.404 195.44C188.816 196.301 195.753 193.657 196.831 196.857C187.789 232.219 246.408 241.329 246.801 203.98Z" fill="#E0393D"/>
</svg>