<svg width="500" height="500" viewBox="0 0 500 500" fill="none" xmlns="http://www.w3.org/2000/svg">
<path d="M435.813 117.995L435.845 101.091L425.866 96.0502C422.841 94.5328 350.762 58.6973 251.179 58.6973H246.678C146.712 58.6973 74.9943 94.5433 72.0219 96.0396L62.0116 101.08L62.0434 117.645C61.2366 160.102 66.5231 267.948 132.774 352.066C186.849 420.776 238.674 437.076 244.395 438.699L249.374 440.121L254.331 438.731C256.561 438.105 309.51 422.644 365.061 352.066C431.376 267.927 436.641 160.441 435.813 117.995Z" fill="#FEFEFE"/>
<path d="M425.2 118.075C425.232 114.329 425.232 112.217 425.232 112.217V107.622L421.07 105.521C418.151 104.046 348.248 69.3142 251.181 69.3142H246.68C149.676 69.3142 79.699 104.046 76.7904 105.521L72.6185 107.622V112.217C72.6185 112.217 72.6185 114.329 72.661 117.852C71.8754 159.152 76.939 264.027 141.109 345.503C193.157 411.634 241.924 426.968 247.306 428.496L249.397 429.101L251.467 428.507C253.58 427.923 303.26 413.417 356.73 345.503C420.964 263.995 426.017 159.258 425.2 118.075Z" fill="#2D2925"/>
<path d="M249.395 417.878C245.446 416.743 199.014 402.47 149.132 339.066C83.3797 255.605 83.0931 146.316 83.592 120.572C83.5602 116.954 83.5602 114.916 83.5602 114.916C83.5602 114.916 83.6238 114.885 83.7619 114.81V114.598L85.2268 113.908C88.7193 112.317 96.5004 108.91 107.774 104.867C135.788 94.6163 185.967 80.2269 246.698 80.2269H251.125C311.75 80.2269 361.791 94.542 389.847 104.782C401.248 108.868 409.125 112.306 412.639 113.908L414.104 114.577V114.81C414.22 114.885 414.305 114.916 414.305 114.916C414.305 114.916 414.305 116.954 414.263 120.572C414.772 146.316 414.507 255.605 348.734 339.066C298.724 402.597 253.195 416.827 249.394 417.878L249.395 417.878ZM352.131 341.878C414.974 262.1 419.921 159.347 419.093 118.885C419.125 115.118 419.125 113.038 419.125 113.027V111.499L417.755 110.81C414.9 109.356 346.451 75.3562 251.167 75.3562H246.677C151.467 75.3562 82.9762 109.356 80.0889 110.81L78.6982 111.499V113.027C78.6982 113.038 78.6982 115.118 78.7512 118.652C77.9763 159.262 82.9444 262.131 145.735 341.878C196.487 406.364 243.524 421.178 248.715 422.643L249.416 422.834L250.095 422.643C252.112 422.091 299.956 408.105 352.131 341.878" fill="#FEFEFE"/>
<path d="M370.465 166.502C347.111 142.35 344.415 138.434 344.415 128.501C344.415 118.664 348.714 117.349 352.939 117.349C355.126 117.349 357.832 117.794 360.943 118.686C377.843 123.546 377.843 132.767 377.843 139.601V149.406C377.843 150.181 378.352 150.881 379.085 151.136C383.161 152.526 385.21 153.248 389.488 154.829C390.04 155.03 390.677 154.956 391.165 154.627C391.664 154.266 391.951 153.715 391.951 153.11V144.918C391.951 134.571 391.951 117.243 361.728 108.573C340.593 102.514 329.808 108.997 329.808 127.334C329.808 142.562 339.139 151.677 354.616 166.778L357.737 169.834C376.091 187.82 379.806 193.752 379.806 205.16C379.806 209.245 379.191 212.11 377.927 213.904C376.622 215.729 374.552 216.567 371.399 216.567C368.947 216.567 365.847 216.026 362.185 214.976C354.138 212.662 348.3 209.511 344.839 205.595C340.614 200.841 340.614 196.808 340.614 188.765V180.063C340.614 179.65 340.475 179.25 340.219 178.926C339.962 178.602 339.604 178.375 339.202 178.281C334.68 177.262 332.515 176.816 328.184 175.957C327.653 175.861 327.09 175.999 326.666 176.339C326.241 176.689 326.007 177.209 326.007 177.75V193.158C326.007 207.643 337.844 218.679 360.285 225.078C366.611 226.892 372.078 227.794 376.548 227.794C394.116 227.794 394.116 213.649 394.116 207.611C394.116 191.683 386.006 182.557 370.465 166.502ZM323.428 100.996C301.114 96.9107 278.312 94.7035 255.659 94.4488C255.16 94.4276 254.693 94.6292 254.353 94.9688C254.003 95.3296 253.812 95.7859 253.812 96.274V103.278C253.812 104.275 254.608 105.092 255.616 105.113C266.232 105.23 271.699 105.464 281.752 106.259V207.569C281.752 208.524 282.463 209.32 283.418 209.404C287.856 209.755 290.01 209.967 294.48 210.444C294.533 210.466 294.618 210.476 294.671 210.476C295.127 210.476 295.552 210.306 295.891 209.999C296.274 209.648 296.507 209.16 296.507 208.63V107.681C306.592 108.817 312.122 109.645 322.759 111.597C323.3 111.703 323.863 111.544 324.266 111.194C324.67 110.854 324.914 110.334 324.914 109.793V102.8C324.914 101.909 324.298 101.155 323.428 100.996ZM244.47 94.6292C225.49 94.937 206.34 96.6242 187.561 99.6379C186.669 99.7759 186.022 100.55 186.022 101.442V211.283C186.022 211.824 186.266 212.333 186.669 212.683C187.009 212.959 187.433 213.108 187.858 213.108C187.943 213.108 188.049 213.108 188.134 213.097C206.658 210.126 225.553 208.449 244.311 208.131C245.298 208.12 246.105 207.303 246.105 206.306V199.461C246.105 198.973 245.914 198.485 245.553 198.156C245.213 197.817 244.693 197.626 244.237 197.636C226.679 197.933 217.295 198.591 200.512 200.777V157.312C214.439 155.508 221.806 154.903 236.381 154.373C237.358 154.33 238.154 153.513 238.154 152.537V145.841C238.154 145.342 237.952 144.865 237.581 144.525C237.23 144.185 236.753 143.984 236.243 144.016C221.987 144.546 214.301 145.162 200.745 146.913V108.286C217.825 106.047 226.753 105.421 244.534 105.135C245.532 105.124 246.328 104.307 246.328 103.309V96.465C246.328 95.9663 246.126 95.4888 245.787 95.1598C245.436 94.8096 244.948 94.6186 244.47 94.6292ZM171.733 102.503C167.349 103.384 165.237 103.84 160.948 104.827C160.109 105.018 159.525 105.771 159.536 106.642L160.417 186.536C160.417 191.842 160.555 196.713 160.767 201.074C149.972 173.473 138.698 144.896 127.254 115.969C126.883 115.067 125.885 114.59 124.951 114.908C118.582 117.02 115.493 118.113 109.219 120.479C108.518 120.734 108.041 121.434 108.041 122.177V232.028C108.041 232.633 108.327 233.196 108.826 233.535C109.123 233.747 109.495 233.864 109.877 233.864C110.079 233.864 110.312 233.822 110.514 233.737C114.389 232.272 116.342 231.572 120.471 230.129C121.204 229.874 121.703 229.184 121.692 228.41C121.543 202.411 121.395 176.424 121.267 150.457C121.267 143.612 121.182 139.792 120.96 134.953C132.233 163.626 143.21 191.694 153.623 218.552C153.974 219.411 154.876 219.899 155.778 219.655C162.466 218.01 165.746 217.278 172.455 215.931C173.294 215.75 173.92 215.007 173.92 214.137V104.296C173.92 103.745 173.665 103.225 173.251 102.874C172.816 102.535 172.253 102.397 171.733 102.503ZM310.515 351.141C309.454 351.873 308.403 352.647 307.224 353.454C304.146 355.597 301.152 357.412 297.947 359.322C296.471 360.235 294.932 361.137 293.35 362.124C282.416 368.894 269.317 376.386 255.272 380.683C251.207 381.946 247.459 382.859 243.818 383.442C240.432 383.931 237.269 384.185 234.116 384.185H233.511C229.36 384.153 225.337 383.761 221.473 383.05C236.165 388.26 252.481 389.385 268.733 385.353C278.032 383.05 286.577 379.229 294.125 374.232C301.375 368.565 307.235 360.511 310.993 350.79C310.834 350.907 310.685 351.024 310.515 351.141ZM236.133 380.078C245.464 378.975 253.192 376.619 261.992 372.205C263.277 371.579 264.54 370.921 265.792 370.263C266.865 369.711 267.926 369.148 268.998 368.607C276.472 364.702 284.486 360.458 294.178 355.258C297.586 353.433 300.993 351.48 304.295 349.602L308.169 347.448C309.666 346.641 311.067 345.888 312.49 345.028C312.617 344.943 312.787 344.837 312.957 344.731C314.199 340.2 315.006 335.276 315.377 330.077C305.855 334.841 291.545 339.022 270.559 343.235C243.68 348.573 217.386 346.185 193.905 336.284C178.13 329.641 170.678 320.441 167.546 315.369C167.95 318.977 168.576 322.585 169.489 326.203C174.669 346.662 187.228 363.376 203.681 374.2L203.607 374.062L205.921 375.42C207.79 376.534 210.114 377.5 212.843 378.285C217.97 379.813 223.012 380.567 228.299 380.567C230.783 380.567 233.373 380.397 236.133 380.078ZM319.899 345.644C319.836 345.315 319.761 345.304 319.591 345.304C319.337 345.304 318.774 345.421 317.628 346.153C317.426 346.312 317.203 346.45 316.969 346.609C316.778 346.737 316.577 346.864 316.407 346.991C314.369 352.393 311.662 357.497 308.562 362.049C313.063 357.274 316.948 351.968 320.143 346.291H320.037L319.899 345.644ZM323.031 325.365C322.744 325.567 322.479 325.768 322.192 325.98C321.746 326.309 321.29 326.649 320.802 326.978C320.419 332.167 319.453 337.303 317.989 342.269C320.557 341.367 321.439 342.407 321.704 343.001C321.725 343.086 321.746 343.182 321.768 343.267C326.003 334.958 328.795 325.927 329.952 316.525C328.646 319.667 326.523 322.935 323.031 325.365ZM321.056 320.919C321.258 320.77 321.46 320.622 321.64 320.494C328.519 315.719 330.292 307.962 330.536 306.689C330.536 300.184 329.74 293.583 328.052 286.993C327.988 286.728 327.925 286.473 327.84 286.208C327.213 292.257 324.23 297.86 318.965 302.868C320.366 308.906 321.056 314.966 321.056 320.919ZM198.565 330.809C217.949 337.197 228.713 339.245 242.863 339.245C248.012 339.245 253.871 338.937 261.334 338.322C282.002 336.539 303.796 329.716 315.504 324.038C315.483 318.351 314.963 312.589 313.955 306.858C310.483 308.959 306.556 309.946 301.715 309.946C296.853 309.946 290.972 309.023 281.429 306.731C270.155 304.057 254.02 294.453 239.795 285.996C231.993 281.337 224.626 276.944 218.522 273.941C195.295 262.459 182.111 264.072 178.597 264.826C170.306 278.61 166.135 294.825 167.207 311.527C168.767 313.756 176.718 323.614 198.565 330.809L198.565 330.809ZM210.412 264.369C218.31 267.67 228.67 273.219 239.615 279.109C256.886 288.383 274.752 297.987 286.843 300.99C297.617 303.654 306.46 303.42 312.67 300.3C312.649 300.184 312.628 300.056 312.596 299.95C312.522 299.494 312.437 299.069 312.299 298.624C307.055 276.615 279.497 228.428 231.77 228.428C229.764 228.428 227.704 228.534 225.666 228.714C207.216 234.063 192.026 245.385 181.739 260.04C183.48 259.488 185.763 258.989 188.862 258.989C194.69 258.989 201.941 260.793 210.412 264.369ZM317.383 296.841C318.636 295.546 319.613 294.124 320.366 292.639C326.13 281.56 320.961 269.145 318.795 264.826C302.745 238.36 272.448 222.772 240.857 225.807C273.563 227.568 305.25 256.825 317.383 296.841Z" fill="#FEFEFE"/>
<path d="M281.146 323.199C281.146 317.246 281.146 308.396 274.098 301.53C274.885 300.154 275.525 298.7 276.008 297.19C277.187 293.646 277.282 289.762 277.218 287.236L277.187 270.852V270.597C276.996 264.506 276.072 258.065 271.093 252.473C266.624 247.443 259.905 244.801 251.646 244.801L229.396 244.854C226.976 244.854 224.566 245.798 222.793 247.57C221.084 249.3 220.065 251.656 220.065 254.149L220.277 361.751C220.277 364.945 221.912 367.916 224.651 369.561C226.158 370.474 227.878 370.983 229.693 370.983L252.315 370.941C260.489 370.92 267.325 368.596 272.664 364.001L272.739 363.958C280.201 357.262 280.998 349.378 281.189 341.833V341.748L281.146 323.199Z" fill="#FEFEFE"/>
<path d="M251.171 296.615C249.261 297.156 248.337 297.315 244.186 297.464L240.057 297.475C239.346 297.496 239.155 297.156 239.155 296.615C239.155 296.286 239.112 262.032 239.112 262.032C239.112 261.48 239.303 261.151 239.887 261.087H246.798C249.855 261.183 253.252 261.278 255.439 262.626C256.458 263.241 257.063 263.984 257.435 264.971C257.732 266 258.029 267.783 258.199 270.829L258.241 284.221C258.199 284.443 258.199 284.794 258.199 285.239C258.093 288.699 258.029 294.567 251.171 296.615ZM258.984 352.485C257.318 353.663 255.301 354.353 250.12 354.544C250.12 354.544 241.235 354.565 240.545 354.565C239.749 354.565 239.431 354.077 239.431 353.313C239.431 346.765 239.346 310.686 239.346 310.378C239.346 310.039 239.431 309.582 240.121 309.582C240.79 309.582 244.59 309.54 244.59 309.54C249.303 309.773 254.229 310.134 257.435 312.161C259.282 313.286 260.534 314.856 261.33 316.968C262.042 319.133 262.18 321.52 262.18 323.749L262.211 339.666C262.211 346.925 261.755 350.342 258.984 352.485ZM275.375 323.94C275.375 317.913 275.375 310.559 269.112 305.37C267.806 304.277 266.235 303.332 264.377 302.579C267.275 300.626 269.26 297.941 270.354 294.567C271.362 291.543 271.309 287.807 271.277 286.343L271.235 269.258C271.065 264.525 270.555 259.135 266.723 254.763C263.337 251.006 258.199 249.075 251.681 249.096L228.486 249.16C227.796 249.16 227.149 249.425 226.618 249.945C226.098 250.433 225.864 251.091 225.864 251.77L226.066 364.052C226.066 364.943 226.522 365.835 227.308 366.291C227.752 366.562 228.263 366.705 228.783 366.705L252.392 366.641C254.887 366.641 262.583 366.62 268.995 361.155C274.674 356.019 275.247 349.96 275.417 343.147L275.375 323.94V323.94Z" fill="#2D2925"/>
</svg>