<svg width="500" height="500" viewBox="0 0 500 500" fill="none" xmlns="http://www.w3.org/2000/svg">
<path d="M441.811 238.668C441.811 187.401 421.832 139.197 385.554 102.925C354.968 72.3519 316.403 53.4766 273.838 48.1915C273.217 47.7207 272.578 47.2738 271.923 46.8515C253.135 34.7607 236.666 42.8745 227.836 47.245L225.911 48.1808C212.751 49.8185 199.782 52.8278 187.229 57.1559C186.611 56.4859 185.973 55.816 185.324 55.1674C174.547 44.3844 160.228 38.4614 144.982 38.4614C113.524 38.4614 87.9275 64.0468 87.9275 95.4915C87.9275 105.775 90.5765 115.558 95.6617 124.214C71.129 157.179 57.6924 197.514 57.6924 238.668C57.6924 289.945 77.6718 338.16 113.95 374.422C129.748 390.213 147.823 402.953 167.739 412.353C167.749 415.862 168.09 419.116 168.749 422.03C167.951 423.296 167.26 424.742 166.76 426.411C162.036 435.067 166.462 444.627 180.462 455.272C188.984 461.791 195.612 462.907 201.091 462.907C202.57 462.907 203.974 462.822 205.304 462.748L207.293 462.641C216.91 462.248 224.762 455.697 230.698 448.785L239.975 447.392C243.762 446.829 248.454 445.904 254.582 443.319C263.901 439.395 267.699 434.078 269.146 429.676C291.508 427.475 312.913 421.467 333.02 411.768C333.584 414.863 334.169 419.18 334.648 424.752C335.297 432.356 336.616 437.566 339.999 448.445C342.872 457.697 347.691 461.95 354.426 461.131C357.511 460.749 364.755 458.484 365.447 445.095C365.628 441.469 366.107 431.824 365.692 424.487C365.107 414.501 365.553 407.664 366.053 406.005C367.053 402.825 367.936 397.242 364.777 392.436C372.128 386.927 379.086 380.887 385.554 374.422C421.832 338.149 441.811 289.945 441.811 238.668" fill="#FEFEFE"/>
<mask id="mask0" mask-type="alpha" maskUnits="userSpaceOnUse" x="69" y="50" width="361" height="400">
<path d="M69.2321 50.0005H429.054V450H69.2319L69.2321 50.0005Z" fill="white"/>
</mask>
<g mask="url(#mask0)">
<path d="M429.055 238.081C429.055 190.027 410.336 144.85 376.355 110.87C347.009 81.5159 309.309 63.5697 268.617 59.2236C267.674 58.2851 266.617 57.4197 265.417 56.6505C251.013 47.3851 238.99 54.2659 230.655 58.3159C230.055 58.6082 229.355 58.9543 228.567 59.3582C212.878 61.1505 197.801 64.9774 183.593 70.5543C181.896 68.0119 179.952 65.6428 177.79 63.4813C169.097 54.7889 157.54 50.0005 145.243 50.0005C119.863 50.0005 99.2164 70.6505 99.2164 96.0313C99.2164 106.666 102.805 116.75 109.401 124.904C84.2972 155.839 69.2319 195.227 69.2319 238.081C69.2319 286.139 87.9472 331.32 121.924 365.301C138.52 381.893 157.801 394.839 178.767 403.75C177.597 413.258 179.14 419.708 180.878 422.354C178.232 424.581 177.12 425.97 176.701 428.47C172.532 434.174 182.682 441.404 186.851 444.6C195.42 451.17 199.924 450.027 206.597 449.75C214.836 449.404 222.586 439.731 227.043 433.477C235.94 432.227 237.609 433.616 237.886 434.727C240.667 434.312 244.559 433.616 249.843 431.389C261.859 426.331 258.463 420.131 257.216 419.016C256.89 418.731 256.628 418.327 256.374 417.843C284.897 416.72 312.236 408.985 336.632 395.37C337.49 396.331 338.382 397.431 339.255 398.716C341.897 402.612 343.286 415.262 343.843 421.797C344.401 428.331 345.513 432.789 348.709 443.07C351.905 453.362 353.159 445.854 353.301 443.07C353.44 440.293 353.993 430.281 353.578 423.047C353.159 415.816 353.02 405.389 354.413 400.939C355.805 396.493 353.301 395.377 352.605 394.547C351.905 393.708 352.605 393.431 350.793 387.731C350.693 387.416 350.613 387.081 350.547 386.743C359.697 380.466 368.343 373.316 376.355 365.301C410.336 331.32 429.055 286.139 429.055 238.081Z" fill="white"/>
</g>
<mask id="mask1" mask-type="alpha" maskUnits="userSpaceOnUse" x="69" y="50" width="361" height="400">
<path d="M69.2321 50.0005H429.054V450H69.2319L69.2321 50.0005Z" fill="white"/>
</mask>
<g mask="url(#mask1)">
<path d="M429.055 238.081C429.055 190.027 410.336 144.85 376.355 110.87C347.009 81.5159 309.309 63.5697 268.617 59.2236C267.674 58.2851 266.617 57.4197 265.417 56.6505C251.013 47.3851 238.99 54.2659 230.655 58.3159C230.055 58.6082 229.355 58.9543 228.567 59.3582C212.878 61.1505 197.801 64.9774 183.593 70.5543C181.896 68.0119 179.952 65.6428 177.79 63.4813C169.097 54.7889 157.54 50.0005 145.243 50.0005C119.863 50.0005 99.2164 70.6505 99.2164 96.0313C99.2164 106.666 102.805 116.75 109.401 124.904C84.2972 155.839 69.2319 195.227 69.2319 238.081C69.2319 286.139 87.9472 331.32 121.924 365.301C138.52 381.893 157.801 394.839 178.767 403.75C177.597 413.258 179.14 419.708 180.878 422.354C178.232 424.581 177.12 425.97 176.701 428.47C172.532 434.174 182.682 441.404 186.851 444.6C195.42 451.17 199.924 450.027 206.597 449.75C214.836 449.404 222.586 439.731 227.043 433.477C235.94 432.227 237.609 433.616 237.886 434.727C240.667 434.312 244.559 433.616 249.843 431.389C261.859 426.331 258.463 420.131 257.216 419.016C256.89 418.731 256.628 418.327 256.374 417.843C284.897 416.72 312.236 408.985 336.632 395.37C337.49 396.331 338.382 397.431 339.255 398.716C341.897 402.612 343.286 415.262 343.843 421.797C344.401 428.331 345.513 432.789 348.709 443.07C351.905 453.362 353.159 445.854 353.301 443.07C353.44 440.293 353.993 430.281 353.578 423.047C353.159 415.816 353.02 405.389 354.413 400.939C355.805 396.493 353.301 395.377 352.605 394.547C351.905 393.708 352.605 393.431 350.793 387.731C350.693 387.416 350.613 387.081 350.547 386.743C359.697 380.466 368.343 373.316 376.355 365.301C410.336 331.32 429.055 286.139 429.055 238.081Z" fill="#061922"/>
</g>
<path d="M206.596 405.946C213.277 405.666 222.588 403.585 226.831 401.773C227.388 401.916 228.292 402.47 229.684 403.023C230.234 398.577 227.388 389.331 225.788 385.085C224.727 382.273 223.7 380.362 222.45 377.443C218.696 376.743 214.038 374.731 210.7 373.339C210.7 375.981 211.188 382.866 211.746 387.45C210.358 387.593 208.408 387.731 206.038 387.731C206.319 392.735 206.881 401.773 206.596 405.946ZM332.443 391.208C331.189 389.954 333.97 386.058 335.224 378.831C336.47 371.6 336.608 359.5 331.328 352.685C328.755 349.37 327.508 347.281 327.074 345.789C310.604 357.77 291.735 365.723 271.674 369.135C271.435 369.558 271.197 369.927 270.981 370.208C268.058 373.966 262.358 379.389 258.181 381.612C254.012 383.835 249.147 385.508 246.504 386.343C245.951 390.789 245.227 400.72 246.37 404.135C246.789 405.389 251.928 408.45 253.735 411.789C253.924 412.131 254.093 412.47 254.258 412.808C282.631 411.989 309.335 404.381 332.789 391.539C332.67 391.427 332.543 391.304 332.443 391.208L332.443 391.208ZM372.749 114.475C345.337 87.063 310.418 69.8861 272.633 64.8438C275.66 70.8323 276.129 77.713 276.403 82.0976C281.826 79.7322 285.995 78.4784 288.222 74.8668C290.449 71.2476 293.506 71.9438 295.453 74.5861C297.403 77.2245 297.403 80.5668 292.256 83.763C287.11 86.963 283.36 88.4937 282.245 89.0514C281.129 89.6014 282.106 90.5784 283.36 92.663C284.606 94.7476 287.791 99.9014 288.364 110.74C288.368 110.844 288.376 110.951 288.376 111.055C308.818 117.348 327.553 128.571 343.103 144.121C368.21 169.225 382.037 202.609 382.037 238.113C382.037 258.501 377.464 278.19 368.829 296.017C369.979 296.609 371.541 300.648 372.072 305.967C372.349 308.748 372.206 311.809 371.379 313.751C370.545 315.701 363.979 325.548 360.668 328.494C359.418 329.609 356.491 329.471 355.245 327.663C353.995 325.851 353.856 326.825 352.879 327.794C351.906 328.771 348.568 333.636 347.741 334.89C346.903 336.144 344.122 337.39 345.926 342.398C347.741 347.409 349.818 351.159 349.129 353.94C348.429 356.725 348.152 357.559 351.906 360.759C355.668 363.951 355.526 367.844 353.856 370.348C352.81 371.917 351.168 376.098 350.529 380.409C394.941 348.678 423.952 296.701 423.952 238.082C423.952 191.39 405.764 147.49 372.749 114.475ZM171.973 367.147C171.484 362.435 170.769 353.924 174.061 347.851C167.354 343.235 161.008 337.985 155.123 332.101C130.019 306.989 116.192 273.616 116.192 238.112C116.192 200.093 132.238 165.755 157.908 141.508C158.15 140.993 158.458 140.501 158.835 140.024C154.488 141.362 149.923 142.058 145.242 142.058C132.996 142.058 121.481 137.301 112.8 128.674C87.8807 159.601 74.3345 197.801 74.3345 238.081C74.3345 284.774 92.5153 328.674 125.534 361.689C141.361 377.516 159.696 389.928 179.634 398.566C180.404 394.843 181.557 390.77 183.238 386.343C184.769 382.305 182.404 372.993 178.508 368.124C176.423 367.562 173.785 367.289 171.973 367.147L171.973 367.147ZM218.326 65.9729C207.342 67.9128 196.572 70.9101 186.164 74.9229C189.495 81.3729 191.272 88.5614 191.272 96.0307C191.272 105.931 188.164 115.354 182.414 123.185C192.034 117.581 202.414 113.142 213.361 110.081C214.072 109.385 214.784 108.715 215.499 108.1C211.464 101.419 206.041 90.7153 210.772 76.2499C212.103 72.1769 215.034 68.7499 218.326 65.9729Z" fill="#008348"/>
<path d="M288.224 118.664C292.116 120.61 296.47 124.845 294.754 132.706C294.062 135.906 291.389 138.983 291.147 140.222C290.727 142.303 286.347 145.849 284.954 148.63C283.574 151.387 283.358 153.737 283.762 154.926C283.766 154.941 283.774 154.949 283.777 154.956C285.997 157.045 291.004 159.826 293.781 160.795C295.958 161.556 295.804 162.145 294.893 163.58C296.427 163.718 297.212 164.66 298.654 166.36C300.177 168.172 304.212 167.056 306.716 165.803C309.22 164.553 312.416 164.133 314.924 167.195C317.424 170.253 321.181 175.956 322.985 181.241C324.797 186.522 326.743 190.833 327.301 191.664C327.854 192.503 325.35 207.799 324.65 213.918C323.958 220.033 323.401 222.676 323.262 223.649C323.124 224.622 327.158 220.176 327.301 225.456C327.404 229.672 329.374 243.187 331.65 253.199C332.227 255.745 332.824 258.06 333.416 259.941C335.089 260.222 336.47 263.56 337.447 268.703C338.42 273.849 340.504 277.049 340.647 279.549C340.785 282.049 341.481 282.468 342.312 282.883C343.147 283.306 342.87 284.556 340.37 287.472C340.924 287.891 341.758 288.73 342.312 289.276C343.012 288.583 344.954 286.368 344.954 286.368C344.954 286.368 352.604 289.422 354.274 289.976C355.943 290.533 357.927 286.414 362.893 288.583C364.254 289.18 365.758 291.06 366.827 292.918C374.612 276.256 378.977 257.687 378.977 238.11C378.977 203.426 365.466 170.814 340.939 146.287C325.97 131.322 307.997 120.468 288.377 114.268C288.32 116.18 288.224 117.991 288.224 118.664ZM328.406 337.392C326.463 336.419 325.194 337.83 324.236 330.165C323.959 327.942 322.156 325.015 320.763 323.63C319.371 322.238 319.202 319.634 319.925 317.369C321.036 313.892 321.321 310.7 321.182 307.919C321.036 305.134 321.594 301.661 325.486 299.984C324.098 298.461 323.402 296.511 322.986 294.984C317.286 293.103 316.148 292.942 314.99 290.184C313.048 285.553 311.848 278.792 311.271 275.107C310.986 273.288 310.794 271.607 310.752 270.092C308.925 266.638 304.871 258.965 301.732 253.2C300.776 251.401 299.796 249.615 298.794 247.842C296.009 242.976 298.794 236.58 300.179 232.826C301.571 229.073 302.686 225.734 301.432 221.98C300.179 218.226 300.179 217.388 299.905 215.861C299.629 214.33 298.371 212.384 296.709 217.673C295.036 222.953 291.84 230.742 290.029 238.807C289.006 243.388 288.29 248.373 288.529 253.2C288.709 256.877 289.444 260.453 291.002 263.696C294.617 271.203 298.929 278.157 298.371 282.33C297.817 286.5 296.906 286.646 296.844 287.334C296.148 295.4 292.671 310.838 290.863 315.284C289.056 319.73 281.967 335.861 280.436 342.676C279.267 347.896 276.052 359.073 273.302 365.7C294.109 361.765 313.186 352.857 329.229 340.25C329.698 339.08 329.613 337.996 328.406 337.392V337.392ZM173.868 154.925C175.403 156.925 177.414 158.76 180.037 160.106C186.853 163.579 188.245 166.083 188.245 172.06C188.245 178.037 189.357 190.279 191.307 192.363C192.553 191.113 193.949 189.302 194.222 188.748C196.168 192.363 200.091 199.056 206.318 203.21C206.737 203.49 206.549 205.021 207.572 205.294C209.657 205.852 223.145 207.936 223.564 210.721C226.349 207.936 230.795 200.986 231.63 198.617C232.461 196.26 237.33 188.748 240.945 184.579C240.945 182.906 240.945 181.933 241.087 181.517C240.11 182.352 238.584 184.436 236.357 185.41C234.13 186.383 226.349 189.721 220.784 192.502C218.837 193.475 215.361 194.59 213.968 184.436C212.576 174.286 213.968 169.002 214.941 166.64C215.914 164.275 217.722 162.186 221.203 163.163C224.676 164.136 230.234 166.221 231.768 166.221C232.045 165.11 233.022 163.021 229.268 162.606C226.595 162.306 219.626 160.321 215.68 154.925C214.084 152.763 212.976 150.025 212.857 146.613C204.934 147.867 186.714 150.233 182.684 151.202C178.653 152.179 175.234 153.002 173.926 143.833C173.368 139.94 172.395 134.517 175.176 136.463C177.399 134.794 180.48 132.833 185.88 133.686C186.868 133.84 188.103 134.667 188.491 135.44C188.787 136.79 188.211 138.994 187.549 141.052C186.353 144.779 184.007 147.448 191.584 145.71C199.514 143.89 209.587 142.375 212.23 141.817C212.576 139.11 214.803 134.933 217.445 131.875C220.095 128.802 220.507 126.313 220.645 125.34C220.784 124.367 219.868 124.152 218.561 125.34C217.03 126.729 212.438 129.513 208.126 128.398C206.461 127.971 204.376 124.783 203.264 122.979C204.176 121.067 206.48 117.767 209.318 114.44C194.511 119.186 180.653 126.598 168.334 136.425C168.253 137.967 168.457 141.552 169.472 145.502C170.153 148.152 171.418 151.74 173.868 154.925H173.868ZM183.519 344.9C189.215 342.677 193.712 342.781 198.119 348.658C199.369 350.323 200.342 355.196 211.05 350.881C205.35 344.069 201.931 335.996 198.816 325.154C193.889 308.042 182.754 288.581 186.854 279.688C184.492 277.458 181.712 268.842 178.789 269.815C176.827 270.469 174.066 270.508 176.285 263.973C177.289 261.035 178.939 257.477 182.058 253.2C185.866 247.988 191.881 241.715 201.592 234.215C202.431 233.519 202.569 232.969 202.012 232.408C201.039 231.438 200.066 230.327 199.092 229.769C198.119 229.211 197.142 229.488 196.308 230.327C195.473 231.161 194.085 232.135 193.25 232.688C192.416 233.242 185.742 226.708 182.266 221.981C178.789 217.254 175.177 215.727 174.066 215.169C175.454 213.638 178.592 210.319 177.4 210.719C175.316 211.411 171.662 211.877 167.942 207.935C163.354 203.073 165.165 200.565 164.189 199.873C163.216 199.177 158.208 200.288 154.458 194.45C150.7 188.608 149.196 186.065 152.227 181.931C153.762 179.846 154.316 178.873 153.9 176.231C153.481 173.588 153.9 171.923 157.377 168.585C160.854 165.25 162.939 162.188 164.465 162.465C165.681 162.688 162.166 158.269 160.039 154.923C159.481 154.031 159.023 153.227 158.762 152.592C158.216 151.246 157.342 148.931 157.142 146.438C132.708 170.95 119.254 203.496 119.254 238.111C119.254 272.792 132.762 305.404 157.289 329.931C162.978 335.621 169.178 340.776 175.812 345.331C178.662 342.238 182.05 343.435 183.519 344.9Z" fill="white"/>
<path d="M109.625 70.657C121.025 73.5762 129.572 82.7915 133.318 87.9338C134.279 89.2454 135.268 89.0492 135.683 88.0762C136.568 86.0108 138.187 79.3146 138.187 74.1685C138.187 62.4915 139.787 57.8685 142.71 52.4492C129.068 53.1954 117.098 60.2108 109.625 70.6569V70.657ZM102.742 106.435C124.154 108.381 130.815 96.4192 132.208 94.6076C133.592 92.8038 131.927 91.6885 131.231 90.7154C127.531 85.5308 119.242 76.3615 107.839 73.4424C103.842 80.0346 101.5 87.7424 101.5 96.0192C101.5 99.6115 101.923 103.096 102.742 106.435Z" fill="#A73832"/>
<path d="M187.705 105.599C178.666 101.841 167.943 105.314 160.297 111.991C152.647 118.664 148.759 123.791 146.116 139.645C145.789 139.653 145.462 139.653 145.139 139.653C133.809 139.653 123.524 135.341 115.762 128.256C128.839 124.918 139.859 118.945 152.228 107.264C164.609 95.5835 170.724 81.9565 172.393 75.5604C174.062 69.1642 171.693 72.9181 170.447 75.8334C168.509 80.3527 162.101 92.5219 149.451 104.341C136.793 116.164 127.066 121.995 113.862 126.445C109.451 121.918 106.055 116.426 103.939 110.326C108.389 110.603 122.409 108.987 129.424 103.23C138.651 95.6642 139.716 86.6835 140.966 73.8873C142.216 61.0988 144.097 57.2912 147.155 52.4258C170.316 53.4796 188.774 72.5912 188.774 96.0181C188.774 99.3104 188.397 102.514 187.705 105.599Z" fill="#A73832"/>
<path d="M186.498 109.973C184.409 107.054 176.975 105.65 165.163 113.031C164.052 113.731 163.282 114.215 164.609 115.534C167.109 118.042 170.871 122.777 173.513 129.173C179.417 124.111 183.955 117.504 186.498 109.973V109.973ZM170.026 131.87C167.526 125.751 165.441 121.305 163.08 118.247C161.803 116.597 161.549 115.886 159.184 117.97C152.61 123.77 150.076 132.562 148.684 139.512C156.576 138.878 163.88 136.147 170.026 131.87Z" fill="#A73832"/>
<path d="M158.073 180.684C156.265 180.126 154.873 182.207 154.038 183.88C153.203 185.553 152.226 187.357 154.873 191.111C157.515 194.868 159.157 197.103 163.773 196.811C166 196.672 167.942 195.003 168.638 194.034C169.334 193.057 169.473 194.726 168.361 196.395C167.249 198.061 166.415 201.957 168.499 204.599C170.588 207.241 174.896 209.464 180.596 206.13C186.296 202.795 188.665 198.761 189.634 196.949C190.607 195.145 190.607 194.311 189.634 193.199C188.665 192.084 185.465 186.791 184.769 176.372C184.353 170.111 185.465 166.084 181.569 163.857C177.676 161.63 168.769 156.368 167.665 146.057C167.249 142.164 167.526 136.187 163.634 139.384C159.738 142.584 159.738 144.807 159.323 147.168C158.903 149.537 160.853 152.73 162.523 154.957C164.188 157.184 166.134 162.049 167.665 163.299C169.196 164.553 170.169 165.526 171.423 165.664C172.669 165.803 177.676 165.803 178.926 166.222C180.18 166.641 180.876 168.172 177.815 168.172C174.757 168.172 170.03 168.999 167.942 169.28C165.861 169.557 163.915 169.695 162.938 173.868C161.965 178.037 160.573 182.907 160.434 184.437C160.296 185.964 159.461 186.799 159.461 187.634C159.461 188.468 161.13 192.503 164.884 188.468C168.638 184.437 170.169 180.407 170.865 178.457C171.557 176.511 172.396 176.787 171.696 179.849C171.003 182.907 170.796 190.557 172.253 193.199C173.826 196.037 176.996 198.961 181.015 196.949C181.849 196.534 183.238 195.837 184.353 195.976C185.465 196.114 184.142 198.061 183.169 198.899C182.196 199.734 178.999 203.272 173.369 198.203C171.973 196.949 170.046 194.168 169.611 190.695C169.473 189.58 167.942 189.164 167.249 190.137C166.553 191.11 162.799 194.587 160.157 192.084C157.515 189.58 156.419 188.195 157.934 182.907C158.207 181.934 158.749 180.891 158.073 180.684Z" fill="#FAB383"/>
<path d="M160.853 172.893C160.253 174.69 159.738 177.063 159.461 177.901C159.18 178.736 157.934 180.543 156.819 178.182C155.711 175.816 155.765 173.951 157.515 172.201C158.073 171.643 158.903 170.532 159.461 171.086C160.019 171.643 160.992 172.478 160.853 172.893ZM167.109 166.499C165.963 167.072 163.517 167.068 162.659 168.999C162.101 170.253 159.878 168.868 160.99 167.333C162.101 165.803 162.94 165.941 163.632 165.526C164.328 165.11 164.609 163.856 165.998 164.553C167.386 165.249 167.663 166.222 167.109 166.499ZM258.743 97.668C254.85 98.0835 251.235 100.453 247.62 102.953C244 105.453 230.935 116.441 227.873 118.664C231.07 120.333 231.904 123.672 230.793 129.233C230.543 130.468 230.793 130.903 231.631 130.068C232.462 129.233 236.354 125.064 236.22 121.726C236.077 118.387 234.55 116.441 234.27 116.022C233.993 115.606 235.385 113.937 236.916 117.414C238.443 120.891 238.023 125.756 233.439 131.18C228.85 136.603 225.231 136.46 223.285 137.437C221.339 138.41 219.396 139.937 221.204 142.86C223.008 145.783 226.485 144.668 227.873 143.695C229.266 142.718 231.212 141.606 235.662 142.026C240.108 142.441 241.593 139.614 238.581 136.603C237.608 135.63 235.104 133.403 238.162 133.403C239.973 133.403 242.196 137.437 243.446 138.549C244.7 139.66 247.481 140.076 251.235 140.356C254.989 140.633 260.831 142.022 260.831 145.641C260.831 147.864 259.631 148.514 258.046 146.756C257.423 146.056 256.531 147.156 255.823 147.864C253.458 150.233 247.408 156.626 243.1 157.737C238.793 158.849 237.189 157.599 231.489 154.541C225.789 151.483 220.504 148.422 218.977 147.449C217.446 146.476 214.246 144.249 215.777 148.703C217.308 153.149 221.062 157.737 228.57 160.245C236.077 162.741 237.189 163.58 238.858 164.414C240.527 165.249 239.558 166.083 237.331 165.803C235.396 165.564 233.296 163.856 234.97 167.614C236.631 171.368 239.139 175.395 246.789 174.426C254.431 173.453 254.658 171.833 259.439 163.856C260.27 162.464 261.112 163.441 260.554 167.056C264.304 165.249 266.389 164.691 268.612 164.133C270.843 163.58 276.623 161.614 280.439 154.541C282.381 150.926 283.431 149.683 283.077 145.922C282.943 144.518 285.023 141.749 287.112 139.799C289.196 137.856 294.893 130.483 291.981 125.199C289.054 119.914 284.189 122.56 281.827 126.453C279.462 130.349 276.82 134.656 276.681 141.33C275.012 140.776 273.308 141.387 272.512 142.718C272.093 143.418 265.973 142.583 263.885 143.137C261.804 143.695 261.112 142.441 263.331 139.522C265.558 136.603 273.393 126.022 272.927 118.106C272.789 115.745 273.104 115.306 273.481 113.522C273.97 111.226 274.185 111.191 271.327 109.626C269.47 108.61 269.358 105.714 269.035 103.506C268.685 101.145 268.235 101.133 265.558 101.699C263.577 102.118 260.27 100.168 258.743 97.6681" fill="#FAB383"/>
<path d="M242.476 141.191C241.714 142.93 239.61 144.595 234.756 144.041C232.325 143.764 229.949 143.734 229.545 145.641C229.268 146.964 228.16 146.887 226.625 146.826C225.022 146.757 223.287 146.337 223.214 146.895C223.145 147.449 230.033 151.549 232.325 152.591C234.622 153.637 237.964 156.122 240.668 155.861C244.283 155.514 247.433 153.726 252.768 148.072C254.968 145.745 256.729 144.53 254.645 143.553C253.225 142.895 251.791 142.718 249.918 142.718C248.037 142.718 244.002 142.441 242.476 141.191V141.191ZM216.54 141.262C214.663 141.189 214.455 139.801 215.705 137.716C216.955 135.628 218.144 133.686 219.809 132.432C220.086 133.336 220.644 134.447 221.479 134.932C220.367 136.116 218.898 137.597 219.175 140.52L216.54 141.262Z" fill="#FAB383"/>
<path d="M258.87 132.626C256.482 132.626 252.936 131.849 250.397 130.114C247.828 128.36 246.97 127.514 247.424 124.918C247.701 123.314 247.843 122.449 247.943 121.856C248.013 121.426 248.063 121.141 248.12 120.818C248.336 119.595 248.266 118.791 247.901 118.36C247.709 118.126 247.432 118.006 247.109 118.006C246.578 118.006 245.874 118.345 244.97 119.037C243.501 117.937 242.113 116.702 241.082 115.791C240.282 115.079 239.705 114.568 239.343 114.329C239.055 114.137 238.705 113.829 238.666 113.452C238.636 113.164 238.79 112.856 239.116 112.525C239.316 112.325 239.578 112.283 239.932 112.283L240.093 112.287H240.259C240.509 112.287 240.974 112.287 241.278 111.933C241.578 111.591 241.651 111.014 241.516 110.064C241.52 110.01 241.624 109.906 242.251 109.906C242.42 109.906 242.597 109.91 242.766 109.918C242.951 109.926 243.124 109.933 243.278 109.933C243.64 109.933 243.863 109.895 244.028 109.814C244.34 109.66 244.42 109.356 244.474 109.137C244.555 108.829 244.59 108.702 245.066 108.702C245.336 108.702 245.697 108.76 246.14 108.872C246.215 108.891 246.292 108.902 246.37 108.902C246.824 108.902 247.043 108.545 247.201 108.283L247.286 108.152C247.463 107.879 247.632 107.733 248.02 107.733C248.113 107.733 248.213 107.741 248.324 107.76C248.701 107.822 249.036 107.906 249.332 107.976C249.736 108.076 250.082 108.16 250.39 108.16C251.209 108.16 251.467 107.545 251.586 107.076C251.836 106.137 252.028 105.853 252.409 105.853C252.743 105.853 253.243 106.056 253.893 106.46C254.463 106.814 254.943 106.983 255.366 106.983C256.005 106.983 256.459 106.583 256.601 105.876C256.605 105.86 256.616 105.814 256.793 105.814C257.205 105.814 257.94 106.091 258.697 106.537L259.074 106.749C260.378 107.491 263.09 109.033 266.182 112.645C266.89 113.468 267.093 114.099 267.04 114.241C267.028 114.237 267.009 114.237 266.993 114.237C266.94 114.237 266.87 114.249 266.801 114.26C266.328 114.333 265.62 114.441 265.474 115.629C265.39 116.283 265.186 116.668 265.086 116.729C265.086 116.71 264.986 116.633 264.84 116.345C264.651 115.972 264.401 115.591 263.978 115.591C263.905 115.591 263.833 115.602 263.763 115.622C263.736 115.568 263.678 115.472 263.605 115.272C263.54 115.087 263.332 114.529 262.813 114.529C262.566 114.529 262.363 114.672 262.216 114.772C262.188 114.789 262.161 114.808 262.136 114.829C262.055 114.622 261.836 114.11 261.34 114.11C261.209 114.11 261.101 114.141 261.017 114.168C260.983 114.18 260.948 114.189 260.913 114.195C260.913 114.183 260.874 114.133 260.817 114.002C260.72 113.779 260.517 113.652 260.247 113.652C260.055 113.652 259.843 113.718 259.62 113.787C259.382 113.86 259.182 113.918 259.036 113.918C258.913 113.918 258.882 113.883 258.855 113.833C258.663 113.479 258.378 113.426 258.224 113.426C257.978 113.426 257.751 113.549 257.532 113.664C257.359 113.752 257.166 113.86 257.032 113.86C256.997 113.86 256.92 113.86 256.813 113.714C256.736 113.618 256.509 113.322 256.174 113.322C255.843 113.322 255.643 113.591 255.482 113.806L255.416 113.899C255.255 114.11 255.143 114.191 255.02 114.191C254.966 114.191 254.909 114.176 254.843 114.149C254.659 114.083 254.501 114.052 254.355 114.052C253.874 114.052 253.659 114.402 253.54 114.591C253.424 114.776 253.405 114.783 253.363 114.783C253.332 114.783 253.255 114.776 253.117 114.718C252.947 114.641 252.79 114.602 252.64 114.602C252.082 114.602 251.847 115.087 251.693 115.406C251.532 115.737 251.463 115.826 251.359 115.826C251.325 115.825 251.291 115.82 251.259 115.81C251.028 115.749 250.851 115.722 250.693 115.722C249.905 115.722 249.801 116.387 249.686 117.095C249.666 117.218 249.647 117.345 249.62 117.483C249.424 118.61 248.92 123.264 248.997 124.46C249.066 125.576 250.52 125.576 251.07 125.576C252.101 125.576 253.509 125.387 255.255 125.145C258.678 124.668 264.974 122.768 268.224 120.056C269.055 119.364 269.701 119.287 269.94 119.287C270.143 119.287 270.24 119.337 270.259 119.356C270.286 119.522 269.893 120.406 269.074 121.095C268.997 121.168 268.901 121.245 268.801 121.337C267.786 122.229 265.413 124.326 260.62 125.256C256.036 126.149 251.801 126.952 250.378 126.952C250.193 126.952 250.101 126.937 250.063 126.929C249.978 126.91 249.905 126.899 249.832 126.899C249.597 126.899 249.413 127.018 249.34 127.214C249.247 127.472 249.39 127.776 249.736 128.068C250.193 128.452 250.836 128.679 251.451 128.679C251.64 128.679 251.824 128.66 252.005 128.618C252.166 128.622 252.67 129.091 253.036 129.433C254.024 130.36 255.52 131.756 257.493 131.756C259.974 131.756 263.563 129.087 264.597 128.272C265.074 127.899 266.163 127.341 266.786 127.164C266.682 127.295 266.524 127.476 266.274 127.726L266.093 127.906C263.809 130.195 261.447 132.56 259.151 132.622C259.059 132.626 258.966 132.626 258.87 132.626ZM288.223 129.512C286.612 130.65 285.72 131.042 285.581 132.985C285.443 134.931 285.058 138.254 284.327 138.55C283.381 138.935 283.512 136.746 283.22 137.439C282.8 138.412 281.616 137.992 281.273 137.092C281.116 136.7 277.658 136.739 280.439 132.708C282.954 129.058 284.885 127.146 286.693 126.312C288.5 125.477 291.562 127.146 288.223 129.512Z" fill="#061922"/>
<path d="M356.286 294.776C355.644 293.142 356.774 290.392 360.251 292.338C363.732 294.288 366.371 295.961 363.871 303.603C361.359 311.249 359.559 315.699 358.582 318.899C357.613 322.099 353.855 326.13 355.105 320.707C356.363 315.284 357.021 308.73 356.494 305.411C355.528 299.296 357.49 299.657 356.848 296.861C356.648 295.999 356.525 295.361 356.286 294.776ZM369.432 301.379C370.432 304.383 371.517 311.249 369.848 314.029C368.178 316.814 363.032 324.46 361.09 326.41C359.14 328.356 357.613 327.522 358.859 325.433C360.113 323.349 361.782 320.568 361.782 319.595C361.782 318.622 361.648 317.51 363.313 314.31C364.978 311.114 367.901 300.402 368.178 299.572C368.455 298.737 369.151 300.545 369.432 301.379ZM333.551 327.104C332.72 324.604 332.301 320.985 330.913 318.901C332.024 315.839 335.69 307.62 341.897 305.135C342.589 304.854 343.013 304.158 342.732 303.604C342.447 303.047 343.566 302.635 344.12 304.581C344.682 306.52 345.651 312.085 345.651 312.085C345.928 313.339 345.374 314.312 345.097 315.981C344.816 317.651 344.12 321.404 344.539 323.347C344.955 325.293 345.651 326.689 349.539 325.854C351.493 325.431 351.355 324.881 351.905 323.208C352.463 321.543 353.993 316.812 354.551 314.17C355.105 311.527 354.624 305.066 354.066 303.397C353.505 301.727 354.274 296.093 353.855 294.981C353.439 293.87 353.159 292.208 349.686 291.093C346.209 289.977 345.236 289.697 342.87 292.062C340.505 294.431 339.678 295.401 338.563 296.512C337.447 297.624 334.666 296.647 337.028 294.431C339.397 292.208 341.624 289.977 342.309 289.277L341.624 287.47H340.366C336.609 291.231 331.605 293.454 328.266 294.147C327.013 294.408 324.651 294.562 326.32 296.789C326.739 297.351 326.878 298.877 327.855 298.324C328.824 297.762 330.351 295.262 331.743 296.374C333.139 297.481 331.47 300.131 329.797 301.381C328.136 302.635 326.32 303.881 325.074 304.581C323.82 305.274 323.124 305.966 323.263 308.193C323.401 310.416 323.54 314.454 322.286 317.512C321.036 320.57 321.736 321.404 322.843 323.489C323.959 325.577 325.766 327.381 326.32 330.72C326.878 334.054 327.159 334.889 329.382 334.612C331.605 334.335 332.443 333.358 333.278 331.97L333.551 327.104H333.551Z" fill="#FAB383"/>
<path d="M334.385 333.497C333.416 335.17 331.743 337.808 331.743 340.174C331.743 342.539 329.381 345.043 329.658 346.154C329.939 347.262 333.001 350.185 334.804 353.247C336.608 356.304 338.97 360.889 338.97 368.539C338.97 376.193 336.47 386.616 336.197 388.008C335.912 389.397 335.224 390.512 337.308 392.458C339.397 394.408 342.731 398.02 343.985 406.22C345.235 414.428 346.07 418.739 346.627 419.154C347.185 419.574 347.043 420.266 347.043 421.797C347.043 423.324 348.428 432.089 349.408 433.754C350.378 435.427 350.239 424.301 350.097 421.101C349.958 417.904 350.239 402.612 350.797 400.389C351.354 398.158 351.908 395.654 349.958 392.874C348.02 390.093 344.681 385.224 347.185 377.166C349.689 369.093 353.716 369.239 352.462 366.039C351.212 362.839 348.989 360.616 347.324 358.812C345.654 357.001 346.978 352.693 346.904 350.881C346.766 347.539 344.12 346.989 343.843 343.231C343.566 339.478 343.285 336.42 346.07 332.666C348.851 328.916 345.097 329.051 343.843 326.685C342.589 324.324 341.924 321.162 343.012 316.258C343.566 313.751 343.285 313.062 342.589 312.781C341.897 312.504 338.97 311.947 338.97 311.947L334.666 320.57C335.366 322.235 335.639 324.743 335.639 326.408L334.385 333.497V333.497Z" fill="#A73832"/>
<path d="M294.203 164.275C290.776 168.841 285.446 180.406 282.938 187.633C280.438 194.868 274.734 212.11 278.772 223.51C282.799 234.91 290.73 227.683 292.53 223.371C294.342 219.064 297.126 211.691 297.961 209.744C298.792 207.798 299.211 206.683 300.738 211.271C302.269 215.864 304.492 226.848 304.492 227.821C304.492 228.794 302.957 231.579 301.296 235.887C299.626 240.194 298.653 243.256 300.319 245.902C301.988 248.541 308.526 259.802 310.611 264.671C311.861 267.591 312.972 268.144 316.311 267.31C319.649 266.479 327.715 263.694 330.076 262.583C332.442 261.471 331.326 259.521 330.63 257.164C329.576 253.564 325.353 233.518 325.353 230.879C325.353 228.237 326.057 224.775 322.565 228.656C321.322 230.048 319.649 228.656 320.065 226.706C320.484 224.76 324.649 197.644 324.934 194.31C322.565 189.164 315.615 172.894 313.672 169.975C311.722 167.056 311.03 166.918 308.107 168.448C305.188 169.975 298.665 172.321 296.288 166.779C295.872 165.802 295.18 163.579 296.846 163.302L295.592 162.883C295.592 162.883 294.615 163.718 294.203 164.275H294.203ZM330.629 264.251C328.044 265.736 319.233 269.532 315.617 270.093C311.906 270.666 312.837 271.624 313.533 274.409C314.221 277.182 316.31 285.524 317.421 288.447C318.537 291.37 320.064 291.316 322.987 291.232C327.437 291.093 334.944 289.143 340.367 284.136C338.833 282.328 336.156 273.663 335.364 269.951C334.525 266.063 334.525 262.028 330.629 264.251ZM250.953 184.019C250.676 184.58 249.703 186.246 247.484 186.246C245.261 186.246 243.449 185.549 242.057 187.496C240.668 189.442 233.022 198.761 231.349 204.457C233.022 207.934 235.249 214.192 236.914 218.642C242.337 214.057 259.649 197.161 262.914 193.892C264.172 192.642 264.307 191.53 262.499 190.28C260.691 189.023 254.014 184.853 252.903 184.161C251.791 183.461 251.234 183.461 250.953 184.019ZM207.156 208.493C206.087 212.778 203.96 220.312 200.483 226.154C201.871 228.377 202.983 230.327 204.652 231.02C208.544 228.239 215.914 221.42 217.998 218.92C220.087 216.42 222.729 212.662 222.729 211.831C222.729 210.993 221.756 210.72 220.506 210.993C219.252 211.274 214.106 209.216 209.102 208.216C207.714 207.935 207.294 207.935 207.156 208.493V208.493ZM204.101 204.322C202.57 204.018 197.285 198.341 195.474 195.283C193.67 192.222 193.385 192.503 192.697 194.726C192.001 196.949 189.358 201.818 187.551 204.183C185.743 206.545 181.016 212.664 179.762 214.056C178.508 215.445 179.762 216.003 180.877 217.114C181.989 218.226 187.689 225.176 188.939 226.706C190.193 228.237 191.585 231.022 194.916 227.96C198.258 224.899 202.289 219.337 204.101 213.637C205.904 207.933 206.039 204.945 207.57 205.291L207.639 204.11L207.224 203.418L206.389 202.722C206.597 203.206 206.597 203.626 206.254 204.183C205.904 204.737 204.793 204.456 204.101 204.322V204.322ZM289.197 76.3961C285.451 80.8191 277.927 84.7345 265.281 87.9345C252.627 91.1345 240.527 100.034 235.385 104.342C230.235 108.654 217.27 119.269 211.051 121.861C209.385 122.558 205.835 124.915 210.354 125.477C213.693 125.896 216.054 123.95 223.285 118.665C230.52 113.381 236.131 109.569 241.643 104.204C246.789 99.196 256.104 94.4691 266.112 91.6884C276.127 88.9037 289.277 84.5345 293.089 80.423C294.893 78.4807 295.039 77.5037 293.37 75.8345C291.701 74.1691 290.727 74.5884 289.197 76.3961H289.197ZM225.371 120.125C224.282 120.725 223.844 121.375 222.586 125.41C221.34 129.441 221.478 131.802 222.521 132.779C223.278 133.483 224.394 133.544 224.955 133.544C225.371 133.544 225.79 133.687 225.724 132.502C225.647 131.321 225.571 126.279 229.336 124.021C230.032 123.602 229.244 120.687 226.763 121.098C225.928 121.241 226.763 119.36 225.371 120.125ZM182.404 136.047C184.354 136.047 185.604 136.047 185.465 138.27C185.327 140.497 184.354 143.555 184.215 145.643C184.073 147.728 184.073 148.559 185.327 148.559C186.573 148.559 183.519 149.813 181.846 150.093C180.181 150.37 177.611 151.328 176.284 144.251C175.869 142.024 176.007 138.551 175.731 137.716C177.538 136.882 180.023 136.047 182.404 136.047H182.404ZM219.367 141.985C219.882 144.789 220.647 144.735 220.086 145.154C219.528 145.574 218.947 144.093 216.678 144.462C214.524 144.808 197.005 147.52 195.755 147.662C191.863 148.074 191.651 147.447 195.267 146.685C198.882 145.92 212.109 143.508 216.055 142.716L219.367 141.985ZM198.258 354.636C200.066 355.747 204.373 357.001 211.746 353.939C219.116 350.878 227.319 352.962 228.569 358.247C229.823 363.536 229.866 370.347 227.596 373.27C225.65 375.77 223.842 375.493 221.619 374.801C217.589 373.536 208.269 369.239 205.627 367.986C202.985 366.732 198.535 365.343 195.335 365.343C194.085 362.701 194.223 358.109 195.058 356.443C195.892 354.774 195.892 353.105 196.585 353.524C197.285 353.939 198.258 354.636 198.258 354.636H198.258ZM227.459 379.245C229.267 379.245 232.54 380.006 233.574 383.283C234.405 385.922 239.832 386.614 242.197 386.476C244.559 386.345 244.144 387.591 244.001 388.983C243.867 390.372 243.447 394.549 243.447 396.214C243.447 397.883 243.867 403.718 244.144 404.833C244.421 405.945 243.447 406.503 242.197 407.056C240.947 407.614 236.355 409.003 233.44 406.918C231.901 405.822 230.097 404.279 231.905 404.137C233.713 404.003 229.686 388.287 228.571 385.506C227.459 382.722 224.255 379.245 227.459 379.245ZM179.622 346.432C180.372 346.678 180.738 347.409 181.292 348.378C181.849 349.351 182.038 350.194 181.153 351.159C179.622 352.828 177.815 360.474 178.096 365.901C177.123 365.621 175.038 365.205 173.926 365.482C173.507 362.421 173.784 352.828 175.176 349.767C176.569 346.713 177.953 345.874 179.622 346.432ZM179.9 431.251C183.366 435.151 189.912 441.128 194.777 443.212C199.646 445.297 202.846 445.993 207.154 445.578C210.642 445.239 209.935 446.689 207.154 447.108C204.373 447.524 197.977 447.524 193.812 445.297C189.635 443.07 183.019 438.958 178.789 432.924C177.816 431.528 178.789 430.004 179.9 431.251ZM252.344 421.519C249.521 422.803 244.283 425.415 239.279 426.665C239.833 429.169 239.975 430.28 239.975 430.973C243.029 430.973 248.925 428.838 253.737 425.83C254.852 425.13 255.267 424.303 254.852 423.326C254.429 422.353 253.875 420.823 252.344 421.519ZM219.395 410.116C218.699 409.423 222.656 408.593 223.491 408.593C224.468 409.216 226.241 410.781 226.902 411.443C227.322 411.854 227.114 412.131 226.691 412.416C226.279 412.689 223.845 413.32 222.729 413.389C221.479 412.277 219.741 410.466 219.395 410.116ZM226.764 352.273C225.649 351.434 225.791 351.023 226.349 350.184C226.902 349.35 227.46 348.796 228.014 348.515C228.568 348.238 229.406 348.1 230.376 349.488C231.349 350.881 236.633 359.646 237.745 362.004C238.86 364.369 240.252 362.838 239.695 361.45C239.141 360.058 238.026 357.696 237.606 357C239.141 352.273 240.668 345.042 240.668 340.315C240.668 335.581 239.556 330.861 238.718 329.188C242.476 329.327 250.676 329.188 253.876 328.215C257.079 327.238 254.429 326.965 253.179 327.104C251.929 327.238 242.937 327.208 236.356 326.408C224.956 325.015 213.756 318.604 210.218 314.169C209.656 313.477 206.318 313.75 209.102 315.981C211.887 318.204 218.979 324.846 229.406 326.688C231.768 327.104 235.518 327.796 236.079 336.419C236.633 345.042 235.802 350.6 235.802 351.434C235.802 352.273 235.249 352.55 234.549 351.573C233.852 350.6 231.491 347.408 230.233 346.715C228.987 346.015 228.156 346.154 227.041 346.988C225.929 347.823 224.256 349.488 223.564 350.323L226.764 352.273V352.273ZM204.374 379.455C203.332 379.455 197.074 379.944 195.755 379.455C194.432 378.971 193.578 377.451 194.505 376.813C195.613 376.048 197.771 377.024 199.924 377.024C202.082 377.024 204.374 376.471 204.932 376.813C205.486 377.163 206.255 377.024 206.255 379.667L204.374 379.455ZM189.217 417.624C187.409 416.516 185.317 411.362 184.906 401.078C184.771 397.601 186.163 391.758 187.271 388.985C188.382 386.201 186.575 387.312 186.163 388.285C185.74 389.258 184.352 393.154 183.932 396.07C183.521 398.993 182.821 403.301 183.932 409.558C185.048 415.816 185.605 417.762 185.879 418.878L189.217 417.624H189.217Z" fill="white"/>
<path d="M252.833 85.57C254.713 85.7777 256.798 85.6392 257.286 84.32C257.771 83.0008 257.352 82.1623 256.729 81.8854C256.102 81.6084 255.825 81.6777 256.102 80.4238C256.379 79.1738 257.286 79.3162 257.217 77.3662C257.144 75.42 255.686 75.3508 254.363 75.7738C253.044 76.1854 252.556 76.8085 251.302 78.4777C250.056 80.1469 250.609 77.3662 250.817 76.8777C251.013 76.4277 251.513 73.2238 249.798 72.6469C248.833 73.1315 247.879 73.6123 246.963 74.0854C246.663 74.6969 246.429 75.4124 246.159 76.1162C245.463 77.9238 244.617 76.5662 244.002 75.6969C244.002 75.6931 243.994 75.6892 243.99 75.6854C242.136 76.7124 240.513 77.6738 239.279 78.4777C239.144 78.5662 238.998 78.6662 238.863 78.7547C239.029 79.8507 240.348 81.2392 241.086 81.7469C241.99 82.3739 241.429 83.5546 240.321 83.5546C239.206 83.5546 237.817 82.7931 236.425 84.4546C235.033 86.1276 235.936 87.7276 237.263 87.7276C238.583 87.7276 239.694 88.2123 240.183 89.7392C240.667 91.27 241.086 91.9008 242.894 92.1046C244.698 92.3123 245.74 90.9238 246.229 90.0892C246.717 89.2546 247.344 88.0738 248.106 88.3546C249.24 88.7662 249.098 89.9585 248.752 91.2276C250.059 90.4585 251.394 89.7354 252.817 89.0431C252.59 87.8661 251.89 86.7815 251.375 86.2661C250.748 85.6392 250.952 85.3623 252.833 85.57ZM268.339 65.4077C267.697 65.5577 267.012 65.7385 266.328 65.9347C266.658 67.5231 267.301 69.5654 266.951 69.8577C266.531 70.2038 264.931 70.4847 263.681 70.8269C262.431 71.1769 259.439 73.9615 260.97 75.9731C262.497 77.9923 262.985 79.1731 263.266 80.2192C263.539 81.2615 266.043 82.5115 267.778 80.4231C269.52 78.3423 270.839 76.0461 271.262 77.5038C271.612 78.7308 271.516 81.6962 271.274 83.2885C271.635 83.2154 272.001 83.1385 272.37 83.0654C273.066 75.2846 271.128 69.7192 268.339 65.4077ZM230.167 102.743C229.198 101.981 228.917 100.797 230.094 100.45C231.282 100.1 232.882 99.8234 235.801 98.5734C238.717 97.3196 237.19 95.1658 235.874 94.6081C234.551 94.0504 234.405 92.8042 234.551 91.4773C234.69 90.1581 234.34 88.2158 231.767 89.1888C229.198 90.1581 230.094 92.6619 229.336 93.4965C228.567 94.3312 228.155 94.0504 228.29 92.8042C228.432 91.5504 227.321 90.7158 226.694 90.435C226.201 90.2235 225.136 89.9696 224.224 89.8965C221.563 92.2965 219.128 94.8081 217.282 97.3004C217.698 98.1581 218.671 99.1119 219.182 99.2658C219.882 99.4773 220.924 99.9658 220.848 101.354C220.79 102.527 218.144 102.608 216.405 102.65C217.632 105.973 218.882 108.331 220.624 110.216C221.013 110.104 221.532 109.927 222.244 109.627C224.398 108.724 225.09 105.454 225.44 104.481C225.79 103.508 226.694 103.716 227.321 104.97C227.759 105.847 227.917 106.654 227.978 107.443C229.205 106.216 230.394 105.07 231.563 103.989C231.209 103.639 230.774 103.224 230.167 102.743H230.167ZM267.084 185.824C267.5 185.754 266.388 180.824 267.3 180.612C268.2 180.404 268.611 183.324 270.561 182.974C272.511 182.627 272.996 180.685 272.719 178.527C272.442 176.37 273.692 177.554 274.669 176.024C275.634 174.497 273.55 172.412 271.184 173.87C268.823 175.327 269.242 173.381 270.496 172.62C271.75 171.85 270.842 169.074 268.2 169.974C266.288 170.631 265.323 169.393 264.408 168.87C263.7 169.143 263.004 169.439 262.304 169.75C262.15 170.289 262.273 170.943 262.431 171.643C262.631 172.535 263.054 174.843 261.596 173.87C260.323 173.024 258.604 172.547 258.119 174.147C257.631 175.747 258.604 175.889 258.465 176.858C258.323 177.831 255.823 178.039 257.004 180.054C258.184 182.07 259.927 180.962 261.111 180.197C262.292 179.431 263.404 180.335 262.988 181.377C262.658 182.189 262.004 184.927 261.958 186.731C262.511 187.097 263.092 187.489 263.7 187.92C264.396 187.22 265.708 186.062 267.084 185.824ZM229.198 181.031C230.236 180.754 232.255 182.904 234.063 181.654C235.874 180.404 233.298 179.154 233.648 178.108C233.994 177.066 234.828 175.05 233.575 174.077C232.325 173.104 231.001 174.008 229.686 175.47C228.359 176.927 228.848 174.143 229.544 172.966C230.448 171.435 229.544 170.389 228.013 170.112C226.482 169.835 225.998 171.989 224.955 171.016C223.298 169.474 220.713 170.112 221.34 172.27C221.967 174.427 222.655 175.12 221.34 175.397C220.021 175.674 218.767 172.2 217.24 174.985C215.705 177.758 218.14 178.597 217.932 180.685C217.724 182.77 218.559 184.993 219.809 185.2C221.063 185.412 222.378 184.02 223.074 183.189C223.774 182.354 225.44 181.727 225.232 183.324C225.086 184.427 225.013 186.72 224.971 188.039C227.532 186.793 230.274 185.493 231.767 184.993C231.829 184.971 231.89 184.948 231.951 184.924C231.255 184.643 230.267 184.181 229.336 183.531C227.944 182.558 228.155 181.312 229.198 181.031ZM198.395 244.369C201.595 243.395 201.733 245.899 201.314 247.984C200.899 250.069 200.899 254.518 201.037 256.742L206.318 257.026C206.041 255.63 206.318 251.595 206.46 249.238C206.595 246.869 208.964 243.253 209.799 246.869C210.633 250.488 214.245 250.626 216.749 249.095C219.253 247.565 221.064 244.23 223.703 239.499C226.349 234.772 222.872 233.519 220.783 233.799C218.699 234.076 216.61 234.353 221.341 230.465C225.737 226.842 218.337 225.022 214.937 224.342C209.333 230.226 202.445 236.892 196.31 242.142C195.526 242.811 194.795 243.453 194.095 244.076C194.829 244.499 196.272 245.011 198.395 244.369ZM192.832 279.41C195.474 278.572 197.144 284.276 201.036 280.937C204.932 277.603 202.148 274.822 202.013 272.041C201.871 269.253 205.071 268.145 204.101 264.672C202.613 259.372 197.698 264.391 194.64 267.31C191.582 270.23 191.444 267.864 194.505 263.145C197.563 258.414 192.555 256.884 189.498 258.137C186.778 259.245 184.282 258.16 182.686 256.734C181.509 258.614 180.648 260.353 179.763 262.168C177.121 267.591 178.928 267.726 180.878 267.726C182.821 267.726 186.994 275.934 187.548 277.457C187.744 278.003 189.171 280.087 191.063 282.753C190.951 281.437 191.205 279.922 192.832 279.41ZM268.895 224.622C266.391 224.068 263.141 223.649 262.776 228.795C262.637 230.741 264.579 232.275 266.391 232.968C268.199 233.66 267.918 234.91 265.972 234.218C264.029 233.518 262.499 233.106 261.114 237.137C259.714 241.168 262.222 241.729 263.476 242.006C264.726 242.283 265.695 242.56 265.418 244.233C265.137 245.902 264.306 250.764 267.503 251.183C270.703 251.599 273.48 247.706 274.456 245.76C275.433 243.814 276.537 241.864 276.822 244.091C277.099 246.318 276.679 247.425 275.572 249.929C274.456 252.433 274.456 253.549 276.126 253.41C277.795 253.264 280.576 253.41 281.41 251.456C282.245 249.514 283.499 245.76 283.637 243.118C283.718 241.464 285.168 241.279 286.241 241.375C286.556 238.702 286.939 236.037 287.391 233.383C281.933 234.199 277.287 227.533 275.672 221.764C273.814 223.783 271.083 225.11 268.895 224.622ZM242.894 223.65C241.917 225.316 239.14 230.047 240.386 231.577C241.64 233.104 243.029 230.047 244.144 231.162C245.259 232.274 247.759 233.52 247.759 232.689C247.759 231.854 248.036 230.185 248.456 227.962C248.875 225.735 249.844 224.485 250.817 226.293C251.79 228.097 253.179 229.627 256.656 228.793C260.133 227.962 259.717 224.343 259.021 221.704C258.321 219.062 260.833 217.808 262.083 217.116C263.333 216.42 266.533 213.916 264.171 211.693C261.806 209.466 259.717 212.666 257.633 213.077C255.544 213.5 256.379 211.693 260.69 208.354C264.413 205.474 261.298 202.593 259.033 201.597C253.044 207.62 242.44 217.397 240.11 219.62C239.275 220.42 238.556 221.354 237.883 222.481C243.479 219.877 243.813 222.07 242.894 223.65ZM277.376 279.549C279.184 281.222 283.499 283.584 286.553 280.799C289.618 278.019 285.857 274.957 285.445 272.738C285.022 270.507 287.668 269.115 286.276 265.507C283.861 259.211 280.299 266.757 278.207 268.842C276.126 270.926 276.472 267.384 278.349 265.507C279.326 264.53 283.638 261.888 281.13 258.969C278.626 256.049 275.014 257.715 273.207 258.969C271.395 260.222 270.007 261.749 267.226 260.915C264.445 260.08 262.08 259.803 260.414 263.838C258.741 267.865 261.941 266.757 264.58 269.672C267.226 272.592 265.561 272.738 263.476 272.042C261.384 271.345 260.414 268.703 257.353 269.115C254.291 269.534 254.291 274.407 255.268 275.657C256.245 276.907 258.184 277.603 256.795 279.965C255.411 282.33 257.491 285.111 259.991 286.222C262.499 287.334 266.245 282.884 267.645 281.076C269.034 279.269 270.418 279.688 270.141 281.076C269.911 282.272 269.257 285.419 269.164 288.045C271.284 287.368 273.38 286.742 275.391 286.192C275.387 284.73 275.072 282.38 274.457 280.111C273.622 277.049 275.572 277.88 277.376 279.549ZM241.224 294.43C237.886 295.4 237.328 293.869 235.105 293.038C232.882 292.207 232.736 294.146 234.267 296.511C235.801 298.877 237.467 301.1 235.659 301.1C233.851 301.1 232.463 301.38 232.182 302.773C231.905 304.157 228.986 302.496 228.29 299.573C227.598 296.646 226.901 291.092 225.371 293.869C223.844 296.646 222.451 301.242 218.559 299.157C214.663 297.073 217.305 294.288 215.359 292.338C213.413 290.392 211.605 287.892 213.551 284.415C215.501 280.938 217.167 283.857 218.974 283.857C220.782 283.857 221.063 282.188 219.394 280.938C217.724 279.688 215.636 273.707 223.286 274.127C226.232 274.288 229.405 273.292 231.905 271.484C234.405 269.673 240.948 270.646 238.305 275.242C235.659 279.827 236.498 280.8 238.024 279.13C239.555 277.457 241.501 274.407 244.421 275.242C247.344 276.073 246.09 278.296 244.282 280.8C242.474 283.304 243.586 284.973 244.974 285.942C246.367 286.919 248.928 292.176 241.224 294.43ZM255.411 261.61C252.903 261.749 249.842 261.053 249.842 261.053C249.565 263.695 246.999 267.48 244.423 271.345C244.142 271.764 242.615 271.764 241.915 271.203C241.226 270.649 239.28 269.672 240.803 268.003C242.338 266.341 244.838 262.86 244.423 261.334C244.003 259.803 242.896 258.414 241.226 260.499C239.557 262.584 236.915 266.895 233.996 267.037C231.069 267.172 228.157 264.53 229.542 261.887C230.934 259.249 231.349 257.857 229.403 255.487C227.457 253.126 228.184 250.103 232.326 248.26C233.576 247.707 235.799 248.26 237.33 249.51C238.857 250.764 239.696 249.51 237.607 248.26C235.519 247.01 233.853 245.48 233.576 242.699C233.311 240.057 234.969 237.28 238.584 238.807C242.196 240.334 244.423 239.084 245.953 237.834C247.48 236.58 254.003 235.018 253.046 240.757C252.346 244.922 250.407 245.064 249.842 247.287C249.292 249.51 250.953 248.122 251.93 246.457C252.903 244.784 255.13 237.957 259.715 243.114C260.83 244.368 260.415 246.457 259.019 248.818C257.63 251.184 258.742 252.572 259.576 253.822C260.415 255.076 262.349 261.222 255.411 261.61Z" fill="#008348"/>
<path d="M370.112 151.024L374.358 148.013L383.562 161.682L388.981 157.84L379.504 144.447L383.623 141.536L393.708 155.674L399.135 151.828L384.158 130.836L359.519 148.297L373.108 167.617L378.531 163.774L370.112 151.024ZM387.919 198.493L395.977 194.766L390.427 182.708L409.3 174.847L405.873 167.293L379.215 178.889L387.919 198.493ZM392.719 211.242L393.558 218.677L411.45 216.573L412.15 224.327L420.158 223.735L417.931 197.731L409.916 198.323L410.608 209.139L392.719 211.242ZM393.621 236.603L393.732 245.465L420.032 245.384L419.924 236.526L393.621 236.603ZM405.974 257.99C401.567 257.144 396.347 257.871 392.694 260.64C389.413 263.132 387.886 265.632 387.017 270.171C386.471 273.048 386.913 276.824 387.867 280.132L394.817 277.801C394.148 276.201 393.867 273.771 394.59 271.309C395.998 266.555 399.859 264.413 404.574 265.109C409.578 265.844 412.428 270.432 411.524 275.894C411.174 278.071 410.09 279.955 407.613 281.436L411.917 286.621C415.421 284.474 418.074 280.248 418.644 277.278C419.609 272.274 418.417 268.821 416.098 264.759C413.84 260.797 410.021 258.763 405.975 257.99H405.974ZM401.152 294.731C397.479 293.789 392.475 297.824 390.063 300.143C388.671 301.481 383.813 306.377 381.571 305.62C379.563 304.947 380.175 301.881 380.856 299.877C381.84 296.954 383.352 294.497 385.702 292.916L381.348 290.985C379.233 292.754 376.875 295.608 375.906 298.481C374.786 301.797 374.325 305.678 374.798 308.147C375.406 311.327 376.517 313.354 380.113 313.027C382.883 312.77 389.836 308.254 393.848 304.466C395.883 302.551 397.617 302.343 398.521 302.847C399.99 303.658 399.898 306.162 399.371 307.731C398.663 309.827 397.656 313.031 395.986 314.216L401.929 318.204C404.356 315.766 405.613 312.101 406.325 308.674C408.052 300.397 403.567 295.354 401.152 294.731ZM368.125 120.167C367.609 116.094 365.359 111.409 363.071 109.428C359.533 106.355 355.344 105.532 350.89 106.109C346.371 106.701 342.167 109.601 339.794 112.974C337.209 116.64 335.725 121.697 336.752 126.171C337.667 130.182 339.321 132.605 343.102 135.263C345.498 136.951 349.121 138.097 352.529 138.586L353.263 131.294C351.529 131.247 349.194 130.501 347.256 128.828C343.498 125.586 343.321 120.463 345.706 117.182C348.675 113.086 353.856 112.209 358.463 115.278C360.302 116.494 361.029 118.463 361.356 121.34L368.125 120.167V120.167ZM99.1271 271.684C99.3156 269.696 99.2041 266.061 101.358 265.607C103.435 265.169 104.804 267.184 105.243 269.254C105.881 272.273 106.731 274.623 105.516 277.184L111.116 276.596C112.035 274 111.75 270.527 111.123 267.565C110.396 264.134 109.304 261.727 106.781 259.488C104.354 257.334 102.527 256.773 98.9886 257.519C96.831 257.977 92.981 261.834 92.8463 269.592C92.8233 271.065 92.4733 273.877 91.1502 273.942C89.4656 274.031 88.2232 272.027 87.8848 270.407C87.4233 268.242 88.0463 263.5 88.8733 261.63L83.0117 261.604C82.1617 264.934 81.8348 269.604 82.5579 273.031C84.154 280.581 88.7309 283.05 92.4463 282.642C96.4194 282.204 98.504 278.057 99.1271 271.684ZM87.4006 239.83L108.166 239.572L108.066 233.049L87.3006 233.307L87.216 224.457L80.5698 224.53L80.8352 249.311L87.4813 249.238L87.4006 239.83ZM124.903 174.65L108.872 165.404L108.914 165.327L130.145 164.973L135.21 157.154L109.049 142.069L105.095 148.219L122.945 159.431L98.6025 160.123L95.2063 166.692L120.949 181.634L124.903 174.65ZM98.9375 189.824C103.557 189.824 107.311 193.57 107.311 198.193C107.311 202.816 103.557 206.566 98.9375 206.566C94.3105 206.566 90.5645 202.816 90.5645 198.193C90.5645 193.57 94.3105 189.824 98.9375 189.824ZM98.9375 214.266C107.815 214.266 115.011 207.07 115.011 198.193C115.011 189.32 107.815 182.12 98.9375 182.12C90.0567 182.12 82.8645 189.32 82.8645 198.193C82.8645 207.07 90.0567 214.266 98.9375 214.266ZM109.296 312.317C104.673 312.317 100.923 308.563 100.923 303.94C100.923 299.317 104.673 295.571 109.296 295.571C113.916 295.571 117.666 299.317 117.666 303.94C117.666 308.563 113.916 312.317 109.296 312.317V312.317ZM125.369 303.94C125.369 295.063 118.173 287.871 109.296 287.871C100.416 287.871 93.2233 295.063 93.2233 303.94C93.2233 312.821 100.416 320.017 109.296 320.017C118.173 320.017 125.369 312.821 125.369 303.94ZM139.483 341.418L138.929 340.753C137.156 338.626 131.168 332.287 133.641 329.961C135.899 327.838 141.591 335.064 143.203 336.991L143.891 337.83L139.483 341.418V341.418ZM129.61 350.334C127.487 347.791 121.156 342.814 123.86 340.268C126.437 337.845 132.787 345.587 133.576 346.534L129.61 350.334ZM128.633 322.299C126.168 324.487 124.976 329.684 127.303 333.203C124.768 331.968 119.656 331.545 117.31 333.584C111.526 338.607 118.541 345.864 124.303 351.618L132.333 359.549L153.676 341.895L145.033 331.845C142.003 328.037 133.626 317.884 128.633 322.299H128.633Z" fill="white"/>
<path d="M223.633 405.387C224.537 404.972 225.791 404.414 226.349 404.833C226.903 405.249 230.233 407.614 232.326 409.425C234.406 411.229 235.103 411.787 233.437 412.76C231.768 413.729 230.233 414.706 230.518 413.868C230.795 413.041 231.21 411.787 230.095 410.675C228.987 409.56 226.256 407.452 225.091 406.502C224.329 405.875 223.633 405.387 223.633 405.387V405.387ZM215.776 407.685C215.079 408.312 214.941 409.355 215.776 410.185C216.61 411.02 221.268 414.912 222.033 415.682C222.799 416.443 223.91 416.728 225.16 416.443C226.414 416.162 223.703 417.974 222.656 418.182C221.622 418.385 220.437 418.385 219.326 417.347C218.206 416.305 211.953 410.393 210.703 409.212C209.449 408.032 211.049 408.032 212.16 407.897C213.276 407.759 214.245 407.824 215.776 407.685ZM246.16 76.1163C246.421 75.4393 246.644 74.697 246.933 74.1009C245.955 74.6106 244.983 75.1325 244.018 75.6663C244.633 76.5355 245.468 77.9124 246.16 76.1163ZM271.261 77.5043C270.842 76.0466 269.519 78.3428 267.781 80.4236C266.046 82.512 263.538 81.262 263.265 80.2197C262.988 79.1736 262.5 77.9927 260.969 75.9736C259.438 73.962 262.431 71.1774 263.681 70.8274C264.931 70.4851 266.534 70.2044 266.95 69.8582C267.304 69.5659 266.673 67.5159 266.334 65.9312C261.334 67.3582 255.238 69.9697 249.857 72.6236C251.496 73.2505 251.011 76.4312 250.819 76.8773C250.608 77.3658 250.054 80.1466 251.304 78.4774C252.558 76.8082 253.046 76.1851 254.361 75.7736C255.684 75.3505 257.142 75.4197 257.219 77.3659C257.284 79.3159 256.381 79.1736 256.104 80.4236C255.823 81.6774 256.104 81.6082 256.731 81.8851C257.354 82.1621 257.769 83.0005 257.284 84.3197C256.796 85.6389 254.711 85.7774 252.831 85.5697C250.954 85.362 250.746 85.6389 251.377 86.2659C251.881 86.7774 252.565 87.8889 252.811 89.0505C257.334 86.862 262.808 85.0313 271.284 83.2889C271.515 81.6851 271.604 78.7159 271.261 77.5043H271.261ZM227.32 104.97C226.693 103.716 225.789 103.509 225.443 104.482C225.089 105.455 224.397 108.724 222.243 109.624C221.712 109.852 221.168 110.046 220.612 110.205C221.358 111.012 222.189 111.735 223.147 112.409C224.847 110.612 226.439 108.974 227.966 107.447C227.908 106.674 227.747 105.828 227.32 104.97ZM248.104 88.3536C247.342 88.0766 246.715 89.2574 246.227 90.0882C245.742 90.9228 244.7 92.3151 242.896 92.1074C241.084 91.8997 240.665 91.2728 240.181 89.742C239.692 88.2151 238.581 87.7266 237.261 87.7266C235.938 87.7266 235.034 86.1266 236.427 84.4574C237.819 82.792 239.208 83.5536 240.319 83.5536C241.427 83.5536 241.988 82.3727 241.084 81.7458C240.365 81.2497 239.104 79.8305 238.884 78.7382C234.919 81.3459 229.234 85.3805 224.277 89.8497C225.173 89.9267 226.219 90.2267 226.692 90.4382C227.319 90.7151 228.431 91.5497 228.292 92.8036C228.154 94.0497 228.569 94.3342 229.334 93.4958C230.096 92.6651 229.196 90.1574 231.765 89.1882C234.342 88.2151 234.692 90.1574 234.55 91.4766C234.404 92.8036 234.55 94.0497 235.873 94.6074C237.188 95.1651 238.719 97.3189 235.8 98.5728C232.881 99.8228 231.281 100.104 230.096 100.454C228.915 100.796 229.196 101.98 230.165 102.742C230.761 103.211 231.188 103.665 231.534 104.015C235.211 100.6 238.688 97.8074 242.615 95.1651C244.765 93.7228 246.727 92.4189 248.769 91.2189C249.104 89.9689 249.223 88.7574 248.104 88.3536ZM220.848 101.353C220.925 99.9643 219.883 99.4757 219.183 99.2682C218.675 99.1105 217.721 98.1259 217.302 97.2797C216.609 98.2067 215.998 99.1259 215.498 100.034C215.802 100.968 216.106 101.834 216.402 102.649C218.144 102.607 220.79 102.518 220.848 101.353H220.848ZM279.603 166.221C275.049 165.933 269.63 166.856 264.453 168.852C265.357 169.39 266.323 170.617 268.199 169.975C270.842 169.071 271.749 171.852 270.496 172.621C269.242 173.383 268.823 175.325 271.188 173.867C273.549 172.41 275.634 174.494 274.669 176.025C273.692 177.552 272.442 176.371 272.719 178.525C272.996 180.683 272.511 182.629 270.561 182.975C268.615 183.325 268.199 180.406 267.299 180.614C266.388 180.821 267.503 185.756 267.084 185.825C265.726 186.056 264.43 187.233 263.73 187.94C263.788 187.979 263.834 188.013 263.884 188.052C271.542 193.548 273.48 190.556 274.596 187.914C275.707 185.271 278.18 177.44 278.903 173.314C279.326 170.948 279.88 168.448 279.603 166.221ZM262.987 181.379C263.402 180.336 262.291 179.432 261.114 180.194C259.925 180.963 258.183 182.071 257.002 180.055C255.825 178.036 258.321 177.832 258.464 176.859C258.602 175.886 257.629 175.748 258.118 174.148C258.602 172.548 260.325 173.025 261.598 173.867C263.056 174.844 262.629 172.536 262.429 171.644C262.275 170.967 262.168 170.282 262.291 169.755C260.794 170.436 259.314 171.202 257.91 172.059C250.764 176.432 250.541 180.125 252.206 181.517C253.702 182.759 256.76 183.344 261.956 186.736C262.01 184.932 262.664 182.182 262.987 181.379H262.987ZM240.252 177.204C237.294 175.73 234.406 172.477 232.463 168.723C232.463 168.723 232.602 168.169 231.767 168.169C230.936 168.169 227.871 167.888 222.729 166.08C217.583 164.277 216.89 165.388 216.198 167.611C215.498 169.834 214.94 173.869 214.802 180.546C214.663 187.219 217.583 191.388 219.394 190.692C220.271 190.35 222.544 189.223 224.979 188.038C225.013 186.711 225.086 184.415 225.233 183.323C225.44 181.727 223.775 182.354 223.075 183.188C222.379 184.019 221.063 185.411 219.809 185.2C218.559 184.992 217.725 182.769 217.932 180.684C218.14 178.596 215.706 177.761 217.24 174.984C218.767 172.2 220.021 175.677 221.34 175.396C222.656 175.119 221.967 174.427 221.34 172.269C220.713 170.111 223.298 169.473 224.956 171.015C225.998 171.992 226.483 169.834 228.013 170.111C229.544 170.392 230.448 171.434 229.544 172.965C228.848 174.146 228.359 176.927 229.686 175.469C231.002 174.007 232.325 173.104 233.575 174.08C234.829 175.05 233.994 177.065 233.648 178.107C233.298 179.153 235.875 180.407 234.063 181.653C232.256 182.903 230.236 180.753 229.198 181.03C228.156 181.311 227.944 182.561 229.336 183.534C230.244 184.169 231.194 184.665 231.894 184.946C234.79 183.961 238.179 182.061 239.279 181.377L241.086 181.519C241.225 179.154 241.086 177.623 240.252 177.204H240.252ZM229.96 207.798C228.849 205.294 228.46 207.217 225.372 212.11C223.81 214.583 219.864 219.167 214.926 224.348C218.349 225.04 225.722 226.852 221.341 230.467C216.61 234.356 218.699 234.079 220.783 233.798C222.872 233.517 226.349 234.771 223.703 239.502C221.064 244.233 219.253 247.564 216.749 249.098C214.245 250.625 210.633 250.487 209.799 246.871C208.964 243.256 206.595 246.871 206.46 249.237C206.318 251.598 206.041 255.633 206.318 257.025L201.037 256.744C200.899 254.517 200.899 250.067 201.314 247.983C201.733 245.902 201.595 243.394 198.395 244.367C196.306 245.006 194.876 244.467 194.133 244.04C187.918 249.571 184.776 253.39 182.668 256.76C184.264 258.175 186.795 259.24 189.495 258.137C192.553 256.883 197.564 258.414 194.503 263.144C191.441 267.864 191.583 270.229 194.637 267.31C197.699 264.39 202.614 259.371 204.099 264.671C205.068 268.144 201.872 269.256 202.01 272.04C202.149 274.821 204.933 277.602 201.037 280.94C197.145 284.275 195.476 278.571 192.833 279.41C191.241 279.917 190.918 281.383 191.006 282.683C194.468 287.579 199.506 294.502 201.314 297.479C204.099 302.075 204.099 307.64 205.206 306.802C206.318 305.964 208.964 303.46 209.799 302.771C210.633 302.075 211.464 301.24 211.049 299.71C210.633 298.183 209.033 289.979 209.522 284.275C210.076 277.74 213.133 270.579 215.36 266.479C217.499 262.533 223.979 249.929 225.51 246.59C227.041 243.256 229.822 239.363 230.518 236.302C231.21 233.24 233.853 226.152 234.968 222.814C234.691 220.033 232.895 214.406 229.96 207.798V207.798ZM250.817 176.787C249.983 179.014 248.875 181.794 248.317 183.187C247.759 184.579 245.198 184.037 245.394 183.044C245.813 180.96 242.84 182.34 243.171 180.683C243.448 179.29 242.894 177.064 244.421 177.064C245.952 177.064 248.875 176.787 250.817 176.787Z" fill="#BB9753"/>
<path d="M246.16 76.116C246.421 75.439 246.644 74.6967 246.933 74.1006C245.955 74.6104 244.983 75.1322 244.017 75.666C244.633 76.5352 245.467 77.9121 246.16 76.116ZM255.411 261.61C252.903 261.749 249.842 261.052 249.842 261.052C249.565 263.695 246.999 267.479 244.422 271.345C244.142 271.764 242.615 271.764 241.915 271.202C241.226 270.649 239.28 269.672 240.803 268.002C242.338 266.341 244.838 262.86 244.422 261.333C244.003 259.802 242.895 258.414 241.226 260.499C239.557 262.583 236.915 266.895 233.996 267.037C231.069 267.172 228.157 264.529 229.542 261.887C230.934 259.249 231.349 257.856 229.403 255.487C227.457 253.126 228.184 250.102 232.326 248.26C233.576 247.706 235.799 248.26 237.33 249.51C238.857 250.764 239.696 249.51 237.607 248.26C235.519 247.01 233.853 245.479 233.576 242.699C233.311 240.056 234.969 237.279 238.584 238.806C242.196 240.333 244.422 239.083 245.953 237.833C247.48 236.579 254.003 235.018 253.046 240.756C252.346 244.922 250.407 245.064 249.842 247.287C249.292 249.51 250.953 248.122 251.93 246.456C252.903 244.783 255.13 237.956 259.715 243.114C260.83 244.368 260.415 246.456 259.019 248.818C257.63 251.183 258.742 252.572 259.576 253.822C260.415 255.076 262.349 261.222 255.411 261.61ZM241.226 294.429C237.884 295.399 237.33 293.872 235.103 293.037C232.88 292.206 232.738 294.145 234.269 296.51C235.799 298.876 237.469 301.102 235.661 301.102C233.853 301.102 232.461 301.38 232.184 302.772C231.907 304.16 228.988 302.495 228.292 299.572C227.596 296.645 226.903 291.091 225.369 293.872C223.842 296.645 222.449 301.241 218.557 299.156C214.665 297.072 217.307 294.287 215.357 292.337C213.415 290.391 211.607 287.891 213.553 284.414C215.499 280.937 217.169 283.856 218.976 283.856C220.784 283.856 221.061 282.191 219.396 280.937C217.722 279.687 215.638 273.71 223.284 274.126C226.234 274.287 229.403 273.291 231.907 271.483C234.407 269.672 240.946 270.649 238.303 275.241C235.661 279.826 236.496 280.799 238.022 279.133C239.557 277.456 241.499 274.406 244.422 275.241C247.342 276.072 246.092 278.295 244.284 280.799C242.476 283.306 243.588 284.972 244.976 285.941C246.369 286.918 248.926 292.176 241.226 294.429ZM290.588 269.533C286.972 263.56 286.276 261.195 285.719 255.076C285.369 251.214 285.684 246.195 286.242 241.372C285.173 241.287 283.719 241.491 283.638 243.114C283.499 245.76 282.246 249.51 281.411 251.456C280.576 253.41 277.796 253.264 276.126 253.41C274.457 253.549 274.457 252.433 275.572 249.929C276.68 247.426 277.099 246.314 276.819 244.091C276.538 241.864 275.434 243.814 274.457 245.76C273.48 247.706 270.703 251.595 267.503 251.183C264.307 250.764 265.138 245.902 265.419 244.229C265.696 242.56 264.726 242.283 263.476 242.002C262.222 241.729 259.715 241.168 261.111 237.137C262.499 233.102 264.03 233.518 265.972 234.214C267.919 234.91 268.199 233.66 266.388 232.968C264.58 232.276 262.638 230.741 262.776 228.795C263.142 223.645 266.388 224.068 268.896 224.622C271.073 225.102 273.819 223.795 275.684 221.802C275.646 221.675 275.599 221.549 275.572 221.418C271.861 207.268 278.903 189.856 280.849 184.991C282.799 180.126 290.307 166.429 292.88 162.326C291.492 161.629 287.807 159.756 285.788 158.71C283.776 157.672 282.661 157.183 282.103 157.949C281.546 158.71 280.849 159.126 279.88 160.518C277.926 163.306 279.603 162.883 280.157 162.883C280.715 162.883 283.076 165.941 283.499 166.641C283.915 167.333 283.499 167.887 282.522 170.11C281.246 173.022 280.438 179.71 279.326 183.741C275.957 195.952 270.703 194.726 268.338 193.199C265.972 191.664 265.28 194.033 262.915 197.368C262.349 198.16 260.934 199.679 259.065 201.56C261.33 202.572 264.396 205.487 260.692 208.352C256.38 211.691 255.542 213.499 257.63 213.079C259.715 212.664 261.803 209.464 264.169 211.691C266.534 213.918 263.334 216.418 262.08 217.114C260.83 217.81 258.322 219.06 259.019 221.702C259.715 224.341 260.134 227.96 256.653 228.795C253.18 229.629 251.792 228.099 250.819 226.291C249.842 224.483 248.872 225.733 248.453 227.96C248.038 230.183 247.761 231.852 247.761 232.687C247.761 233.518 245.257 232.276 244.142 231.16C243.03 230.045 241.642 233.102 240.384 231.576C239.142 230.045 241.915 225.314 242.896 223.649C243.811 222.076 243.426 219.895 237.899 222.452C236.111 225.449 234.692 229.791 232.461 236.579C229.403 245.902 222.476 258.591 219.599 263.21C212.111 275.249 210.772 286.641 211.888 293.733C212.992 300.787 213.969 300.264 215.499 300.264C217.03 300.264 220.784 304.991 223.284 307.918C225.788 310.837 226.765 309.583 228.015 308.606C232.034 305.483 240.107 300.264 251.511 294.845C256.376 292.533 262.853 290.068 269.172 288.045C269.269 285.426 269.911 282.268 270.142 281.079C270.419 279.687 269.034 279.268 267.646 281.079C266.246 282.883 262.499 287.333 259.992 286.222C257.492 285.11 255.411 282.329 256.796 279.964C258.184 277.602 256.246 276.906 255.269 275.656C254.292 274.406 254.292 269.533 257.353 269.114C260.415 268.702 261.384 271.345 263.476 272.041C265.561 272.737 267.226 272.591 264.58 269.672C261.942 266.756 258.742 267.864 260.415 263.837C262.08 259.802 264.446 260.083 267.226 260.914C270.007 261.749 271.396 260.222 273.207 258.968C275.015 257.714 278.626 256.049 281.13 258.968C283.638 261.887 279.326 264.529 278.349 265.506C276.472 267.383 276.126 270.926 278.207 268.841C280.299 266.756 283.857 259.21 286.276 265.506C287.669 269.114 285.022 270.506 285.446 272.737C285.857 274.956 289.619 278.018 286.553 280.799C283.499 283.583 279.184 281.222 277.376 279.549C275.572 277.879 273.622 277.049 274.457 280.11C275.069 282.36 275.38 284.729 275.388 286.191C281.472 284.506 286.772 283.483 289.469 283.722C293.442 284.076 296.426 285.249 296.288 281.633C296.149 278.018 294.203 275.514 290.588 269.533ZM208.187 380.492C207.575 380.492 206.248 380.276 206.248 379.711L204.644 379.534C205.614 379.73 206.498 380.842 205.475 381.538C204.364 382.315 200.817 382.734 197.071 382.515C193.317 382.315 192.402 380.276 192.337 378.799C192.291 377.822 192.402 376.969 192.402 375.561C192.402 374.161 192.067 372.892 192.898 372.33C193.725 371.772 193.521 373.169 194.071 373.169C196.444 373.169 204.644 373.946 206.594 374.23C208.552 374.503 208.414 373.342 207.979 372.038C207.848 371.615 207.298 371.772 207.091 372.33C206.875 372.892 205.067 372.684 205.067 372.684C205.067 372.684 201.452 372.33 199.102 372.184C196.729 372.038 194.906 371.772 193.46 371.488C191.991 371.196 190.175 371.276 190.329 371.98C190.444 372.684 190.875 381.465 190.956 382.734C191.017 383.996 191.091 384.496 191.714 384.496C193.317 384.496 204.106 384.634 206.594 384.634C209.102 384.634 208.971 384.349 209.029 382.949C209.102 381.538 208.829 380.492 208.187 380.492" fill="#BB9753"/>
</svg>