<svg width="500" height="500" viewBox="0 0 500 500" fill="none" xmlns="http://www.w3.org/2000/svg">
<mask id="mask0" mask-type="alpha" maskUnits="userSpaceOnUse" x="34" y="30" width="432" height="439">
<path d="M34.6184 468.423H465.044V30.8213H34.6184V468.423Z" fill="white"/>
</mask>
<g mask="url(#mask0)">
<path d="M454.732 73.6069C454.732 73.6069 451.26 75.2736 447.34 77.1599C452.767 58.1375 456.049 42.8876 456.089 42.6979L458.633 30.8314L448.477 37.4882C447.599 38.0572 362.433 94.0066 297.389 145.345L297.339 145.235C296.83 143.778 295.962 141.982 294.456 140.135C294.925 139.806 295.394 139.477 295.853 139.137C302.327 134.527 303.494 133.648 303.803 133.279C311.266 126.792 313.041 118.927 312.303 114.167L309.969 99.0866L270.144 128.748C259.659 126.063 246.76 124.317 229.661 128.738L189.846 99.0866L187.502 114.157C186.754 118.927 188.539 126.792 195.583 132.87C196.301 133.658 197.498 134.547 204.122 139.267C204.521 139.557 204.93 139.856 205.339 140.135C204.072 141.702 203.095 143.419 202.446 145.255L202.416 145.335C138.669 95.0246 52.2262 38.0771 51.3284 37.4883L41.1927 30.8213L43.7067 42.6879C43.8963 43.5562 47.4877 60.4129 52.3061 77.0799C48.4254 75.2136 45.0734 73.6069 45.0734 73.6069L34.6184 68.5967L38.17 79.6349C38.3795 80.3036 43.4473 96.0325 47.5774 106.502C53.6728 123.239 65.2451 149.716 75.6402 168.03C81.0272 177.152 89.4472 185.526 100.002 192.262C106.027 196.095 112.492 199.259 119.256 201.664C120.483 204.458 122.847 209.638 125.67 214.628H105.229V250.008L75.4806 264.26L105.249 279.261L105.289 307.126L131.895 323.393L133.621 323.184C133.621 323.184 149.653 321.198 158.861 320.2L227.626 359.911C241.513 423.616 244.975 441.73 245.004 441.899L250.022 468.427L254.811 441.86C254.851 441.67 258.323 422.558 272.179 359.921L340.945 320.2C350.153 321.198 366.174 323.184 366.184 323.184L367.91 323.393L394.516 307.126L394.546 279.271L424.325 264.26L394.576 250.008V214.628H374.095C376.948 209.588 379.313 204.448 380.54 201.664C388.89 198.65 412.074 188.739 424.175 168.01C430.001 158.02 442.551 132.361 452.198 106.572C452.537 105.693 457.715 92.26 461.655 79.595L465.047 68.6666L454.732 73.6068L454.732 73.6069Z" fill="#FEFEFE"/>
</g>
<path d="M143.771 223.902H114.431V255.759L96.7934 264.402L114.431 273.614V301.928L133.915 313.854C141.097 312.916 150.255 311.808 160.86 310.731L236.169 354.155L249.897 417.33C249.986 417.18 263.763 354.155 263.763 354.155L338.943 310.731C349.558 311.808 358.716 312.916 365.889 313.854L385.352 301.928V273.614L403.03 264.602L385.352 255.759V223.902H356.032C356.032 223.902 360.571 219.511 366.328 209.61C368.732 205.468 370.996 200.309 373.78 194.191C395.159 187.684 410.931 174.031 417.694 160.717C436.001 127.183 449.778 86.184 449.778 86.184C449.778 86.184 441.877 89.9765 432.339 94.6872C440.081 71.0638 444.73 51.0134 444.73 51.0134C444.73 51.0134 360.282 106.903 294.5 159.409L288.803 155.986C288.823 155.447 288.983 150.647 288.983 150.248C288.983 150.248 289.621 144.669 279.805 141.335C279.196 141.126 278.628 140.936 278.059 140.746C282.818 137.173 290.22 131.704 295.617 128.001C304.226 122.093 303.209 115.596 303.209 115.596L272.004 138.83C247.891 131.006 227.8 138.83 227.8 138.83L196.604 115.596C196.604 115.596 195.577 122.093 204.186 128.001C209.593 131.704 216.985 137.173 221.754 140.746C221.185 140.936 220.607 141.126 220.008 141.335C210.182 144.669 210.84 150.248 210.84 150.248C210.84 150.647 210.98 155.447 211.01 155.986L205.303 159.409C139.531 106.903 55.0934 51.0134 55.0934 51.0134C55.0934 51.0134 59.7222 71.0638 67.4637 94.6872C57.2581 89.6372 50.0255 86.184 50.0255 86.184C50.0255 86.184 63.8025 127.183 82.1185 160.717C88.8724 174.031 104.645 187.684 126.023 194.191C126.023 194.191 129.635 202.474 132.757 208.423C136.608 215.778 143.771 223.902 143.771 223.902Z" fill="#1C1060"/>
<path d="M285.317 176.158C285.037 177.087 284.708 177.975 284.399 178.863C313.968 159.541 365.624 125.828 423.506 88.2121C423.506 88.2121 423.575 89.4696 428.703 74.589C367.55 111.536 313.389 153.413 285.317 176.158ZM214.486 176.161C186.414 153.416 132.263 111.539 71.1099 74.582C76.2277 89.4726 76.2975 88.205 76.2975 88.205C134.179 125.821 185.835 159.534 215.404 178.856C215.085 177.978 214.776 177.08 214.486 176.161ZM160.798 225.549C160.778 225.539 146.273 215.169 138.083 196.187L143.879 197.913C162.803 202.924 198.987 207.914 198.987 207.914C181.558 208.303 166.824 209.67 158.414 210.608C156.668 208.443 154.663 205.678 153.895 203.622C153.895 203.622 154.543 210.259 156.03 214.411C157.915 220.479 160.778 225.529 160.798 225.549V225.549ZM249.875 206.027C244.817 204.091 232.077 197.734 224.436 181.107C230.701 186.506 238.721 188.233 245.136 182.025C237.305 178.652 236.337 164.679 234.821 161.016C231.758 153.591 226.91 149.838 223.079 148.262C224.843 147.664 226.616 147.092 228.396 146.545C232.057 148.531 238.173 153.102 240.088 162.214C240.088 162.214 240.886 151.815 235.739 144.519C245.725 142.114 255.801 142.443 264.021 144.509C258.863 151.805 259.651 162.214 259.651 162.214C261.577 153.092 267.712 148.511 271.383 146.535C273.029 147.044 274.805 147.623 276.72 148.262C272.88 149.838 268.031 153.591 264.978 161.016C263.472 164.679 262.494 178.652 254.683 182.025C256.479 192.664 254.264 202.584 249.875 206.027ZM343.732 214.407C345.218 210.255 345.867 203.618 345.867 203.618C345.098 205.674 343.093 208.439 341.338 210.604C332.938 209.676 318.193 208.309 300.775 207.92C300.775 207.92 336.948 202.92 355.873 197.909L361.669 196.193C353.488 215.175 338.983 225.545 338.963 225.545C338.983 225.535 341.836 220.485 343.732 214.407V214.407ZM204.844 315.394L167.992 294.116C165.338 294.366 162.734 294.615 160.23 294.875L211.398 324.427C208.904 321.672 206.709 318.638 204.844 315.394ZM294.951 315.394L331.802 294.116C334.446 294.366 337.05 294.615 339.554 294.875L288.396 324.427C290.89 321.672 293.085 318.638 294.951 315.394ZM233.513 320.363C217.242 316.83 210.508 308.805 210.508 308.805C213.84 315.592 218.878 321.401 225.053 325.662C225.053 325.662 231.907 323.676 233.513 320.363ZM223.552 302.976C222.377 301.832 221.22 300.671 220.08 299.493C214.892 301.299 211.94 303.315 210.383 304.683C213.985 308.116 220.848 312.677 233.169 315.242C231.672 311.01 227.841 307.218 223.552 302.976" fill="#008CA8"/>
<path d="M249.577 341.378C244.18 341.468 240.33 343.554 239.043 344.033C237.696 341.488 236.12 338.903 234.633 336.618C239.272 337.186 243.352 336.318 243.352 336.318C241.407 335.68 236.399 333.983 229.815 329.641C229.805 329.641 229.795 329.631 229.795 329.631C230.363 329.392 230.942 329.132 231.531 328.843C231.531 328.843 231.541 328.833 231.541 328.823C233.276 327.955 235.022 326.827 236.399 325.41C238.045 323.713 239.172 321.607 239.172 318.992C239.172 310.908 233.735 308.184 227.62 302.146C226.393 300.938 225.076 299.69 223.739 298.373C229.346 296.866 236.968 295.688 247.223 295.509L249.677 329.811H250.036L252.57 295.509C262.826 295.688 270.437 296.866 276.054 298.373C274.717 299.69 273.4 300.938 272.173 302.146C266.058 308.184 260.621 310.908 260.621 318.992C260.621 321.607 261.748 323.713 263.394 325.41C264.771 326.827 266.507 327.955 268.243 328.823L268.263 328.843C268.851 329.132 269.43 329.392 269.988 329.631C269.988 329.631 269.988 329.641 269.978 329.641C263.394 333.983 258.386 335.679 256.441 336.318C256.441 336.318 260.511 337.186 265.16 336.618C263.674 338.903 262.097 341.488 260.741 344.033C259.464 343.554 255.613 341.468 250.216 341.378H249.577Z" fill="#008CA8"/>
<path d="M274.744 325.66C280.919 321.399 285.947 315.59 289.289 308.813C289.289 308.813 282.555 316.828 266.284 320.361C267.88 323.674 274.744 325.66 274.744 325.66ZM266.623 315.243C278.944 312.678 285.807 308.117 289.409 304.684C287.853 303.306 284.9 301.29 279.712 299.494C278.555 300.692 277.378 301.859 276.24 302.977C271.941 307.219 268.12 311.011 266.623 315.243" fill="#008CA8"/>
<path d="M238.869 182.957C238.869 182.957 232.903 179.015 231.946 170.631C231.946 170.631 224.214 183.586 238.869 182.957ZM261.357 182.957C261.357 182.957 267.323 179.015 268.28 170.631C268.28 170.631 276.022 183.586 261.357 182.957H261.357ZM256.973 353.922C255.905 352.815 254.349 351.527 249.59 351.517C245.101 351.507 243.535 352.655 242.228 353.723L249.899 384.063L256.973 353.922ZM307.684 220.643V231.751H303.953V220.643H300.86V217.469H310.767V220.643H307.684ZM290.319 220.643V231.751H286.578V220.643H283.485V217.469H293.411V220.643H290.319Z" fill="#FEFEFE"/>
<mask id="mask1" mask-type="alpha" maskUnits="userSpaceOnUse" x="34" y="30" width="432" height="439">
<path d="M34.6154 468.423H465.044V30.8174H34.6154V468.423Z" fill="white"/>
</mask>
<g mask="url(#mask1)">
<path d="M231.703 223.477H235.684V220.653H231.703V223.477ZM237.848 226.691H239.185V219.006L237.629 217.469H228.182V231.751H231.703V226.691H234.347L236.382 231.751H239.874L237.848 226.691Z" fill="#FEFEFE"/>
</g>
<mask id="mask2" mask-type="alpha" maskUnits="userSpaceOnUse" x="34" y="30" width="432" height="439">
<path d="M34.6154 468.423H465.044V30.8174H34.6154V468.423Z" fill="white"/>
</mask>
<g mask="url(#mask2)">
<path d="M329.182 220.646V217.473H318.707V231.754H329.182V228.541H322.358V226.195H329.182V222.992H322.358V220.646H329.182Z" fill="#FEFEFE"/>
</g>
<mask id="mask3" mask-type="alpha" maskUnits="userSpaceOnUse" x="34" y="30" width="432" height="439">
<path d="M34.6154 468.423H465.044V30.8174H34.6154V468.423Z" fill="white"/>
</mask>
<g mask="url(#mask3)">
<path d="M251.821 228.545V217.467H248.16V231.749H257.088V228.545H251.821Z" fill="#FEFEFE"/>
</g>
<mask id="mask4" mask-type="alpha" maskUnits="userSpaceOnUse" x="34" y="30" width="432" height="439">
<path d="M34.6154 468.423H465.044V30.8174H34.6154V468.423Z" fill="white"/>
</mask>
<g mask="url(#mask4)">
<path d="M267.537 228.547H271.588V220.652H267.537V228.547ZM273.513 217.469H264.036V230.144L265.632 231.751H275.089V219.056L273.513 217.469Z" fill="#FEFEFE"/>
</g>
<mask id="mask5" mask-type="alpha" maskUnits="userSpaceOnUse" x="34" y="30" width="432" height="439">
<path d="M34.6154 468.423H465.044V30.8174H34.6154V468.423Z" fill="white"/>
</mask>
<g mask="url(#mask5)">
<path d="M212.09 223.886H216.15V220.642H212.09V223.886V223.886ZM219.762 231.751L219.742 219.066L218.166 217.469H208.499V231.751H212.09V227.11H216.141V231.751H219.762Z" fill="#FEFEFE"/>
</g>
<mask id="mask6" mask-type="alpha" maskUnits="userSpaceOnUse" x="34" y="30" width="432" height="439">
<path d="M34.6154 468.423H465.044V30.8174H34.6154V468.423Z" fill="white"/>
</mask>
<g mask="url(#mask6)">
<path d="M197.1 217.469V223.886H193.07V217.469H189.478V231.751H193.07V227.11H197.1V231.751H200.682V217.469H197.1Z" fill="#FEFEFE"/>
</g>
<mask id="mask7" mask-type="alpha" maskUnits="userSpaceOnUse" x="34" y="30" width="432" height="439">
<path d="M34.6154 468.423H465.044V30.8174H34.6154V468.423Z" fill="white"/>
</mask>
<g mask="url(#mask7)">
<path d="M411.336 116.088C418.279 99.7601 423.507 88.2029 423.507 88.2029C365.625 125.819 313.959 159.542 284.4 178.864C283.273 182.008 281.986 184.872 280.579 187.497L397.17 123.952L306.158 189.712L310.358 188.954L358.452 184.303C358.452 184.303 390.955 181.159 409.041 156.837C417.551 143.773 432.046 105.599 432.046 105.599L411.336 116.088Z" fill="#FEFEFE"/>
</g>
<mask id="mask8" mask-type="alpha" maskUnits="userSpaceOnUse" x="34" y="30" width="432" height="439">
<path d="M34.6154 468.423H465.044V30.8174H34.6154V468.423Z" fill="white"/>
</mask>
<g mask="url(#mask8)">
<path d="M132.762 268.26L143.975 263.429V288.889C147.178 288.45 150.49 288.04 153.842 287.641L153.832 231.752H143.985C143.965 231.682 143.965 251.782 143.975 251.882L132.762 256.613L132.772 231.752H122.856V260.685C122.856 260.685 114.696 264.597 114.735 264.677L122.856 268.739V292.202C126.038 291.623 129.4 291.074 132.762 290.536V268.26H132.762Z" fill="#FEFEFE"/>
</g>
<mask id="mask9" mask-type="alpha" maskUnits="userSpaceOnUse" x="34" y="30" width="432" height="439">
<path d="M34.6154 468.423H465.044V30.8174H34.6154V468.423Z" fill="white"/>
</mask>
<g mask="url(#mask9)">
<path d="M209.647 249.53H220.82C220.82 252.275 220.8 255.808 220.8 258.293C217.069 258.343 213.378 258.413 209.657 258.473L209.647 249.53ZM209.657 268.094C212.121 268.024 214.525 267.954 216.999 267.894C218.815 272.625 220.69 277.994 222.506 282.735C225.768 282.645 229.061 282.565 232.373 282.505C230.557 277.745 228.711 272.405 226.906 267.694C228.153 267.674 229.41 267.644 230.677 267.635L230.667 244.78L226.297 240.468H196.03L199.771 244.929V283.713C203.033 283.533 206.315 283.363 209.657 283.214V268.094Z" fill="#FEFEFE"/>
</g>
<mask id="mask10" mask-type="alpha" maskUnits="userSpaceOnUse" x="34" y="30" width="432" height="439">
<path d="M34.6154 468.423H465.044V30.8174H34.6154V468.423Z" fill="white"/>
</mask>
<g mask="url(#mask10)">
<path d="M248.195 249.53H259.518V282.375C262.919 282.405 266.451 282.455 269.813 282.525V244.949L265.304 240.468H234.368L238.089 244.929V282.415C241.441 282.375 244.793 282.346 248.195 282.336V249.53Z" fill="#FEFEFE"/>
</g>
<mask id="mask11" mask-type="alpha" maskUnits="userSpaceOnUse" x="34" y="30" width="432" height="439">
<path d="M34.6154 468.423H465.044V30.8174H34.6154V468.423Z" fill="white"/>
</mask>
<g mask="url(#mask11)">
<path d="M306.761 274.508C300.367 274.169 294.072 273.879 287.677 273.66C287.647 271.314 287.647 268.979 287.647 266.644C294.02 266.822 300.392 267.044 306.761 267.312V257.452C300.357 257.282 294.012 257.132 287.627 257.023C287.617 255.126 287.617 251.913 287.617 249.528H306.761V240.475H273.551L277.232 244.907V282.722C287.338 283.011 297.224 283.461 306.761 284.059V274.508L306.761 274.508Z" fill="#FEFEFE"/>
</g>
<mask id="mask12" mask-type="alpha" maskUnits="userSpaceOnUse" x="34" y="30" width="432" height="439">
<path d="M34.6154 468.423H465.044V30.8174H34.6154V468.423Z" fill="white"/>
</mask>
<g mask="url(#mask12)">
<path d="M331.638 249.53H340.147V240.468H312.244V249.53H320.923V285.09C324.485 285.38 328.196 285.679 331.638 286.008V249.53V249.53Z" fill="#FEFEFE"/>
</g>
<mask id="mask13" mask-type="alpha" maskUnits="userSpaceOnUse" x="34" y="30" width="432" height="439">
<path d="M34.6154 468.423H465.044V30.8174H34.6154V468.423Z" fill="white"/>
</mask>
<g mask="url(#mask13)">
<path d="M182.533 274.993C178.732 275.233 175.011 275.472 171.21 275.752V249.534H182.543L182.533 274.993ZM192.459 244.933L187.99 240.471H157.623L161.214 244.793L161.224 281.7L165.145 286.371C173.854 285.492 183.052 284.744 192.449 284.135L192.459 244.933Z" fill="#FEFEFE"/>
</g>
<mask id="mask14" mask-type="alpha" maskUnits="userSpaceOnUse" x="34" y="30" width="432" height="439">
<path d="M34.6154 468.423H465.044V30.8174H34.6154V468.423Z" fill="white"/>
</mask>
<g mask="url(#mask14)">
<path d="M375.902 268.541C378.954 267.174 382.027 265.776 385.09 264.339C375.243 259.778 365.387 255.626 355.53 251.794L355.51 240.586H365.965V244.658H375.902V231.754H341.883L345.664 236.135V259.239L365.965 268.062V280.976C365.965 280.976 361.257 280.378 355.52 279.639V275.497L345.664 274.32V287.504C356.448 288.761 366.574 290.238 375.902 291.885C375.892 284.859 375.902 273.771 375.902 268.541Z" fill="#FEFEFE"/>
</g>
<mask id="mask15" mask-type="alpha" maskUnits="userSpaceOnUse" x="34" y="30" width="432" height="439">
<path d="M34.6154 468.423H465.044V30.8174H34.6154V468.423Z" fill="white"/>
</mask>
<g mask="url(#mask15)">
<path d="M177.867 227.314V228.542H174.675V220.648H177.867V221.825H181.449V217.474H171.153V230.149L172.759 231.746H181.449V227.314H177.867Z" fill="#FEFEFE"/>
</g>
<mask id="mask16" mask-type="alpha" maskUnits="userSpaceOnUse" x="34" y="30" width="432" height="439">
<path d="M34.6154 468.423H465.044V30.8174H34.6154V468.423Z" fill="white"/>
</mask>
<g mask="url(#mask16)">
<path d="M88.4724 116.088C81.529 99.7601 76.3014 88.2029 76.3014 88.2029C134.183 125.819 185.849 159.542 215.408 178.864C216.535 182.008 217.822 184.872 219.229 187.497L102.638 123.952L193.65 189.712L189.45 188.954L141.356 184.303C141.356 184.303 108.854 181.159 90.7669 156.837C82.2572 143.773 67.7619 105.599 67.7619 105.599L88.4724 116.088Z" fill="#FEFEFE"/>
</g>
<mask id="mask17" mask-type="alpha" maskUnits="userSpaceOnUse" x="34" y="30" width="432" height="439">
<path d="M34.6154 468.423H465.044V30.8174H34.6154V468.423Z" fill="white"/>
</mask>
<g mask="url(#mask17)">
<path d="M143.771 223.902H114.431V255.759L96.7934 264.402L114.431 273.614V301.928L133.915 313.854C141.097 312.916 150.255 311.808 160.86 310.731L236.17 354.155L249.897 417.33C249.986 417.181 263.763 354.155 263.763 354.155L338.943 310.731C349.558 311.809 358.716 312.916 365.889 313.854L385.352 301.928V273.614L403.03 264.602L385.352 255.759V223.902H356.032C356.032 223.902 360.571 219.511 366.328 209.61C368.732 205.469 370.997 200.309 373.78 194.191C395.159 187.684 410.931 174.031 417.695 160.717C436.001 127.183 449.778 86.1842 449.778 86.1842C449.778 86.1842 441.877 89.9767 432.34 94.6874C440.081 71.064 444.73 51.0136 444.73 51.0136C444.73 51.0136 360.282 106.903 294.5 159.41L288.803 155.986C288.823 155.447 288.983 150.647 288.983 150.248C288.983 150.248 289.622 144.669 279.805 141.335C279.197 141.126 278.628 140.936 278.059 140.746C282.818 137.173 290.22 131.704 295.617 128.002C304.227 122.093 303.209 115.596 303.209 115.596L272.004 138.83C247.892 131.006 227.8 138.83 227.8 138.83L196.604 115.596C196.604 115.596 195.577 122.093 204.186 128.002C209.593 131.704 216.986 137.174 221.754 140.746C221.186 140.936 220.607 141.126 220.008 141.335C210.182 144.669 210.84 150.248 210.84 150.248C210.84 150.647 210.98 155.447 211.01 155.986L205.304 159.41C139.531 106.903 55.0934 51.0136 55.0934 51.0136C55.0934 51.0136 59.7222 71.064 67.4637 94.6874C57.2581 89.6373 50.0254 86.1842 50.0254 86.1842C50.0254 86.1842 63.8024 127.183 82.1184 160.717C88.8723 174.031 104.645 187.684 126.023 194.191C126.023 194.191 129.635 202.475 132.757 208.423C136.608 215.778 143.771 223.902 143.771 223.902H143.771ZM447.533 104.797C438.285 129.538 426.005 154.978 419.869 165.497C409.524 183.202 388.923 193.762 376.842 197.654C376.842 197.654 370.976 211.816 364.931 219.611H389.592V253.154L413.016 264.372L389.562 276.199L389.532 304.333L366.797 318.226C366.797 318.226 348.68 315.98 339.861 315.062L267.784 356.7C253.328 421.971 249.907 440.973 249.907 440.973C249.907 440.973 246.515 423.049 232.029 356.7L159.942 315.062C151.123 315.98 133.007 318.226 133.007 318.226L110.271 304.333L110.231 276.199L86.7974 264.372L110.211 253.154V219.611H134.872C128.936 212.185 122.961 197.654 122.961 197.654C115.708 195.279 108.855 191.985 102.689 188.043C92.9526 181.845 84.9717 174.021 79.9338 165.497C70.1173 148.182 58.575 122.113 52.2701 104.797C48.1001 94.2382 42.9125 78.1101 42.9125 78.1101C42.9125 78.1101 56.3304 84.5274 60.4505 86.5434C54.0259 67.2914 48.5889 41.6621 48.5889 41.6621V41.6521C48.5889 41.6521 140.898 102.362 205.643 154.29L206.67 153.661C206.64 152.583 206.61 151.495 206.61 150.367C206.59 149.719 206.63 148.441 207.169 146.864C207.917 144.729 209.593 142.054 213.354 139.758C208.596 136.265 200.026 130.347 199.278 129.519C193.013 124.079 191.955 117.951 192.434 114.937L193.502 108.031L228.628 134.199C247.732 128.73 261.23 131.435 271.176 134.199L306.302 108.031L307.369 114.937C307.848 117.951 306.79 124.079 300.535 129.519C299.807 130.297 291.198 136.265 286.459 139.758C290.2 142.054 291.886 144.729 292.634 146.864C293.173 148.441 293.223 149.719 293.183 150.367C293.183 151.495 293.173 152.583 293.133 153.661L294.161 154.29C360.452 101.175 451.214 41.6521 451.214 41.6521V41.6621C451.214 41.6621 446.695 62.7604 439.353 86.5434C442.844 84.8468 456.891 78.1101 456.891 78.1101C452.91 90.9248 447.533 104.797 447.533 104.797" fill="#A0A0A4"/>
</g>
</svg>