<svg width="500" height="500" viewBox="0 0 500 500" fill="none" xmlns="http://www.w3.org/2000/svg">
<mask id="mask0" mask-type="alpha" maskUnits="userSpaceOnUse" x="38" y="20" width="424" height="426">
<path d="M461.434 20.106H38.4639V445.72H461.434V20.106Z" fill="white"/>
</mask>
<g mask="url(#mask0)">
<path d="M427.962 229.809L411.1 224.156C436.864 213.729 463.754 192.907 461.275 149.379C459.564 119.257 446.431 92.9356 438.574 77.1835L410.035 20.105L415.71 81.608C417.472 100.883 416.837 126.283 409.584 140.069C399.903 160.195 367.799 157.982 356.305 157.214C336.001 155.862 269.876 153.609 249.819 153.609C223.02 153.722 193.62 155.883 169.7 157.644C158.319 158.484 148.495 159.211 141.888 159.457C141.202 159.478 140.208 159.57 138.876 159.693C96.9474 163.564 89.8176 143.92 87.4613 137.457C83.1179 125.546 83.2305 98.8452 83.2817 87.3435L83.4661 37.2295L61.4621 77.9107C54.9264 90.0064 42.7668 112.498 38.6281 150.485C35.8316 203.979 69.5139 219.557 80.5774 224.668C82.0731 225.364 83.5686 226.009 85.0643 226.614C84.1525 226.9 83.292 227.177 82.4725 227.464C75.2607 229.922 67.7723 233.343 65.5085 234.398L52.939 240.379L61.1445 251.788C62.1791 253.192 64.9143 256.797 67.926 259.757C75.527 267.233 94.7038 279.104 118.152 276.195C126.358 275.181 132.842 273.706 137.852 272.201C138.722 274.741 139.685 277.404 140.669 279.841C147.86 297.703 164.199 331.707 170.346 343.526C174.392 351.31 178.428 358.407 181.552 363.805L181.276 364.04C180.589 364.655 179.995 365.188 179.166 366.027L176.379 369.346L176.205 373.268C176.031 376.966 175.191 410.058 198.086 434.7L199.992 436.543L202.194 437.383C212.95 441.5 226.964 445.72 249.398 445.72C272.519 445.72 291.89 440.169 299.328 436.41L301.489 435.253L302.903 433.583C318.443 415.199 325.276 388.263 325.583 377.017L325.829 376.699L325.593 376.515L325.286 371.998L320.983 367.635C320.041 366.734 319.324 366.048 318.74 365.106C320.348 361.931 322.315 357.844 324.456 353.368L324.897 352.447C326.157 349.825 327.222 347.592 327.847 346.373C333.788 334.81 351.121 297.632 357.995 280.067C359.45 276.369 360.669 273.317 361.703 270.818C366.651 272.313 373.166 273.747 381.505 274.608C404.933 277.045 427.121 262.563 434.794 252.014C435.204 251.461 435.778 250.764 436.177 250.283L446.739 237.89L432.356 231.397C432.161 231.315 431.27 230.936 427.961 229.809" fill="#FEFEFE"/>
</g>
<path d="M451.051 149.959C449.453 121.916 436.894 96.7618 429.395 81.7266L428.504 79.9342L425.236 73.4102L425.902 80.6819C426.824 90.7293 429.047 125.06 418.813 144.51C406.131 170.893 368.822 168.343 356.56 167.493L355.628 167.431C335.478 166.09 269.937 163.765 249.859 163.847C223.307 163.959 194.009 166.12 170.458 167.851C158.933 168.701 148.966 169.439 142.256 169.695C141.713 169.715 140.914 169.787 139.828 169.889C106.812 172.962 85.955 163.232 77.8316 140.966C72.853 127.303 72.9861 100.295 73.0374 87.3187L73.0476 83.437L73.0681 77.9883L70.4764 82.7815C64.2685 94.2525 52.7338 115.607 48.8513 151.024C46.6796 192.77 68.3661 207.744 84.8794 215.374C102.12 223.353 119.74 224.5 125.528 224.879L125.948 224.909L125.784 224.889C126.972 225.104 128.334 225.165 129.769 225.227C131.551 225.309 133.477 225.411 135.454 225.78C132.33 226.384 128.222 227.091 124.616 227.705C120.774 228.361 117.148 228.986 115.263 229.385C111.35 230.215 94.7341 234.096 85.7809 237.148C78.1799 239.75 69.9949 243.611 69.9129 243.642L68.4173 244.349L69.3905 245.69C69.5032 245.844 72.2485 249.654 75.1067 252.46C80.956 258.216 97.2337 268.479 116.892 266.031C132.606 264.085 141.027 260.439 144.274 258.718C145.288 262.098 147.726 269.923 150.175 276.017C157.253 293.612 173.367 327.134 179.432 338.79C184.338 348.223 189.204 356.601 192.431 362.141L193.589 364.139C192.533 367.754 190.014 370.007 188.129 371.656C187.627 372.097 187.196 372.476 186.828 372.855L186.459 373.223L186.438 373.746C186.285 376.992 185.527 406.131 205.349 427.475L205.564 427.711L205.861 427.823C215.736 431.602 228.633 435.484 249.398 435.484C270.583 435.484 288.397 430.455 294.646 427.301L294.902 427.178L295.086 426.963C308.916 410.606 315.205 386.005 315.359 377.064V376.49L314.96 376.081C314.621 375.733 314.263 375.384 313.884 375.026C311.733 372.957 309.069 370.396 307.543 364.343C309.233 361.455 312.532 354.562 315.216 348.95C316.721 345.805 318.012 343.091 318.729 341.698C324.589 330.299 341.676 293.653 348.457 276.334C352.75 265.386 355.157 259.906 356.202 257.643C359.203 259.261 367.286 262.846 382.56 264.423C402.371 266.471 421.261 253.208 426.517 245.987C427.398 244.768 428.903 243.017 428.914 243.007L430.102 241.614L428.443 240.866C428.33 240.815 427.654 240.528 424.703 239.514L413.742 235.848L402.812 232.181C399.831 231.167 386.452 228.269 376.7 226.149L369.304 224.541L371.721 224.1C394.34 220.096 454.431 209.454 451.051 149.959Z" fill="#2D2925"/>
<path d="M53.9778 137.907C57.2764 120.854 62.7262 104.907 70.1633 89.5956L70.2453 89.4112H70.6038V89.739V89.4112H70.9316L70.9214 89.7492C70.7165 94.3274 70.5834 99.0387 70.5834 103.791C70.5834 115.088 71.3619 126.579 73.8819 136.903L74.1278 137.907L73.3595 137.221C70.0711 134.281 66.8033 130.912 63.4023 127.993C60.411 131.342 57.5427 134.978 54.5207 138.184L53.7627 138.993L53.9778 137.907ZM445.233 130.912L444.926 130.983L445.223 130.891C440.859 116.491 436.956 101.906 429.815 88.6943L429.211 88.8582C429.498 93.4363 429.641 97.9838 429.641 102.501C429.641 113.552 428.781 124.388 426.988 134.906L426.886 135.521L427.449 135.244C430.953 133.554 434.272 131.28 437.857 129.754L446.483 135.992L445.233 130.912ZM304.214 284.93L303.548 285.227C298.641 287.389 293.611 289.539 288.295 290.594C284.853 291.475 281.36 291.936 277.907 291.936C267.12 291.926 256.815 287.471 250.443 277.71L250.238 277.392L249.962 277.648C248.681 278.775 247.903 280.178 246.571 281.376C239.779 289.191 229.924 292.192 219.855 292.192C212.038 292.192 204.099 290.379 197.461 287.614L196.775 287.337L197.031 288.034C202.133 301.522 205.257 316.496 205.257 331.542C205.257 338.291 204.632 345.041 203.27 351.688C202.337 356.348 200.78 361.182 199.541 365.729L199.336 366.436L199.992 366.098C214.364 358.488 231.912 354.627 249.409 354.627C265.973 354.627 282.497 358.079 296.244 365.053C298.508 365.985 300.629 367.563 302.698 368.228L303.312 368.423L303.108 367.819C299.102 355.948 296.736 343.34 296.736 330.139V329.575C296.715 328.739 296.705 327.902 296.705 327.066C296.705 312.635 299.727 298.429 303.978 285.617L304.214 284.93ZM163.683 298.885C162.146 296.98 160.896 294.901 160.435 292.474L160.292 291.736L160.927 292.136C163.509 293.805 166.346 294.491 169.255 294.491C175.258 294.491 181.569 291.542 186.291 288.223L186.506 288.07L186.691 288.264L186.855 288.418L186.619 288.643L186.855 288.418L186.957 288.52L186.947 288.674C186.291 294.809 184.109 301.825 177.604 304.231C176.631 304.477 175.689 304.59 174.767 304.59C170.403 304.59 166.613 302.05 163.683 298.885H163.683ZM316.361 296.551C314.968 294.472 314.2 292.229 313.749 289.699L313.595 288.859L314.261 289.382C317.488 291.932 321.555 293.038 325.714 293.038C330.6 293.038 335.599 291.512 339.441 289.033L340.209 288.542L339.922 289.412C338.017 294.964 333.202 300.638 327.353 301.908C326.851 301.979 326.339 302.02 325.837 302.02C322.006 302.02 318.553 299.951 316.361 296.551Z" fill="#C21F32"/>
<path d="M323.84 304.698C324.598 304.862 325.366 304.923 326.134 304.923C328.337 304.923 330.549 304.34 332.711 303.664L333.356 303.459L333.1 304.084C325.038 324.24 315.306 343.73 305.257 363.077L304.919 363.723L304.673 363.036C302.645 357.475 302.071 351.565 302.071 345.523C302.071 341.088 302.378 336.581 302.665 332.075C304.11 319.078 307.244 306.562 311.127 294.528L311.362 293.79L311.721 294.477C314.108 299.126 318.636 303.92 323.819 304.698H323.84ZM196.53 363.153C184.371 344.605 175.131 324.992 166.208 305.091L165.819 304.231L166.649 304.671C169.066 305.972 172.314 306.996 175.397 306.996C177.487 306.996 179.484 306.535 181.154 305.399C185.057 302.664 187.352 298.363 188.899 294.02L189.144 293.303L189.482 293.989C196.192 307.549 199.409 323.978 199.409 340.221C199.409 347.913 198.682 355.574 197.268 362.877L197.247 362.969L197.186 363.04L196.745 363.481L196.53 363.153ZM207.218 425.256L207.156 425.226L207.105 425.174C194.72 411.583 190.049 394.11 189.373 375.624V375.45L189.516 375.347C205.804 363.487 227.583 357.219 249.054 357.219C263.15 357.219 277.123 359.923 289.323 365.525C297.119 369.007 304.628 372.817 311.512 378.348L311.317 378.604L311.512 378.348L311.655 378.461L311.635 378.635C309.545 396.036 303.327 411.542 292.345 424.99L292.294 425.062L292.223 425.092C279.151 430.183 263.744 432.938 248.409 432.938C233.955 432.938 219.562 430.5 207.218 425.256H207.218ZM425.107 242.482C425.107 242.482 417.444 239.543 415.477 238.805C394.477 230.899 367.474 226.075 344.527 225.522C342.335 199.968 339.395 183.99 334.417 169.549L334.345 169.355L334.14 169.334C322.308 168.648 269.838 166.538 249.555 166.538C229.262 166.538 177.735 169.734 165.913 170.42L165.708 170.43L165.636 170.635C160.873 184.4 155.454 201.555 152.934 226.822C129.742 228.246 98.528 234.883 77.5176 242.79C75.9912 243.363 74.8849 243.906 74.1268 244.305C73.758 244.51 73.4712 244.674 73.2663 244.787C73.2151 244.807 73.1741 244.838 73.1332 244.858L72.498 244.131L72.7234 245.289C72.7315 245.351 72.7604 245.409 72.8055 245.452C76.0221 249.099 87.8538 263.284 109.827 263.775C110.186 263.786 110.555 263.786 110.944 263.786C118.125 263.786 130.284 262.393 138.418 258.839C140.395 257.958 144.237 256.381 145.282 255.961C145.671 256.698 146.828 258.941 147.402 260.549C149.758 267.094 152.565 276.496 154.634 280.603C157.687 286.697 162.666 291.592 170.738 291.777H171.056C178.349 291.756 183.379 285.939 184.26 284.7L184.598 284.229L184.014 284.198C163.7 283.174 155.392 272.389 154.01 256.094L153.989 255.848L153.753 255.807C151.356 255.377 149.83 255.039 148.887 254.527C147.945 254.015 147.525 253.38 147.207 252.13C147.074 251.577 147.013 251.024 147.013 250.461C147.013 248.464 147.822 246.292 149.328 243.783C150.895 241.683 153.211 239.615 157.82 239.604C159.726 239.604 162.02 239.963 164.817 240.854C171.137 242.851 176.208 246.927 179.732 250.02C183.953 253.707 196.205 266.479 203.631 270.945C207.995 273.556 214.623 275.994 221.374 275.994C226.773 275.994 232.253 274.427 236.648 270.115C246.093 260.856 247.24 252.888 248.48 247.962L248.572 247.573L248.172 247.562C231.874 247.101 216.436 245.504 202.218 243.537C200.568 243.302 200.077 242.605 200.077 242.021C200.087 241.304 200.876 240.454 202.187 240.454C202.433 240.454 202.699 240.485 202.986 240.557C203.027 240.567 229.866 244.121 248.664 244.234H248.961L248.982 243.937C249.135 241.745 249.166 237.904 249.299 233.582L249.309 233.254L248.982 233.244C237.846 232.998 219.131 231.82 201.398 228.246C199.862 227.928 199.257 227.007 199.257 226.238C199.278 225.491 199.78 224.835 200.886 224.825C201.132 224.825 201.408 224.856 201.716 224.938C204.359 225.634 233.237 229.721 248.961 229.721H249.084L249.412 229.731V229.413C249.484 226.054 249.514 221.322 249.535 216.775V216.457H248.223C238.061 216.457 223.351 215.433 202.433 212.248C200.722 211.982 200.118 211.152 200.118 210.517C200.118 209.862 200.732 209.155 202.044 209.145C202.156 209.145 202.269 209.155 202.402 209.165C202.392 209.165 227.93 212.965 247.844 212.965C248.305 212.965 248.756 212.965 249.217 212.955H249.535V212.637C249.535 209.554 249.514 205.959 249.483 202.334V202.272C249.494 200.316 250.364 199.527 251 199.527C251.594 199.527 252.362 200.214 252.372 202.016C252.372 203.389 252.454 207.291 252.454 212.166V212.77L252.782 212.76C272.03 212.176 288.964 209.923 296.913 208.499C297.374 208.417 297.774 208.376 298.122 208.376C299.7 208.407 300.109 209.042 300.13 209.657C300.13 210.281 299.597 211.009 298.798 211.152C296.196 211.623 273.885 215.935 252.659 216.396H252.342L252.352 216.713C252.352 220.462 252.495 225.327 252.557 229.291L252.567 229.618L252.884 229.608C267.154 229.096 283.678 228.563 297.866 225.429C298.532 225.286 299.105 225.214 299.607 225.214C301.257 225.235 301.871 225.89 301.871 226.443C301.902 227.089 301.041 228.072 299.013 228.41C285.102 230.724 265.044 233.111 252.987 233.203H252.659L252.669 233.531C252.751 237.003 252.782 241.212 252.956 243.967L252.977 244.275H253.284C276.046 243.732 297.599 240.495 301.267 239.86C301.533 239.819 301.779 239.799 302.015 239.799C303.439 239.809 304.094 240.577 304.094 241.294C304.094 242.001 303.469 242.861 301.748 243.107C297.743 243.66 271.037 247.101 253.94 247.532L253.52 247.542L253.632 247.941C255.323 253.728 255.65 262.157 264.05 269.378C268.158 272.911 273.68 274.499 279.375 274.499C284.989 274.499 290.777 272.952 295.571 270.187C303.08 265.844 314.943 252.847 319.153 249.16C322.656 246.087 330.647 238.703 341.321 238.703C341.475 238.703 341.618 238.703 341.772 238.713C347.252 238.826 349.926 240.27 351.329 241.837C352.743 243.414 352.897 245.155 353.235 246.098C353.48 246.763 353.685 247.665 353.685 248.576C353.675 249.908 353.265 251.219 351.934 252.038C350.069 253.195 348.307 252.888 346.33 253.789L346.177 253.861L346.146 254.025C344.753 262.935 341.956 273.065 334.97 278.36C331.2 281.228 326.334 282.836 322.41 283.727C318.497 284.618 315.537 284.771 315.537 284.771L314.861 284.812L315.311 285.314C315.311 285.314 316.971 287.127 317.524 287.66C318.764 288.827 322.277 290.527 326.877 290.538C327.369 290.538 327.87 290.517 328.383 290.486C333.412 290.056 339.211 286.236 341.679 283.696C345.418 278.841 348.85 268.763 351.391 262.28C352.282 259.965 354.32 255.961 355.15 253.902C357.22 254.875 358.428 255.52 362.383 257.118C370.598 260.406 381.016 261.85 388.013 261.85C388.412 261.85 388.802 261.85 389.181 261.84C400.613 261.543 413.541 254.629 421.337 247.409C422.699 246.139 425.229 242.994 425.24 242.984L425.516 242.636L425.106 242.482H425.107Z" fill="#C21F32"/>
<path d="M261.69 382.874C260.482 384.902 259.949 387.227 259.949 389.593C259.949 393.424 261.362 397.346 263.575 400.204C263.708 400.388 263.893 400.47 264.108 400.48C264.354 400.48 264.63 400.347 264.835 400.122V399.917C264.856 397.654 263.391 395.687 263.37 393.198C263.37 392.625 263.452 392.01 263.667 391.385L263.883 390.72L264.241 391.314C266.474 395.001 270.06 397.326 273.809 398.575C275.274 398.954 276.739 399.149 278.163 399.149C283.162 399.139 287.802 396.885 291.08 392.85C292.637 390.668 293.826 387.903 293.826 385.199C293.826 383.929 293.57 382.67 292.955 381.471C290.599 376.883 285.815 374.23 281.01 373.441C280.191 373.349 279.371 373.308 278.552 373.308C271.596 373.308 265.091 376.422 261.69 382.874ZM234.45 402.02C234.85 402.04 235.331 401.579 235.659 401.016C237.483 398.148 238.722 394.42 238.722 390.784C238.722 388.398 238.19 386.052 236.96 384.004L237.237 383.84L236.95 383.984C235.034 380.317 231.121 377.357 227.392 376.108C225.262 375.421 223.008 375.063 220.775 375.063C215.427 375.063 210.203 377.111 206.904 381.515C205.634 383.185 204.999 385.335 204.999 387.476C204.999 388.592 205.173 389.709 205.532 390.753C207.283 395.649 211.934 399.521 216.862 400.453C217.968 400.647 219.054 400.75 220.109 400.75C225.846 400.75 230.896 397.943 234.481 393.017L234.84 392.525L235.045 393.099C235.198 393.529 235.26 393.99 235.26 394.441C235.25 395.455 234.993 396.479 234.891 397.298C234.717 398.742 233.58 399.859 233.621 400.852C233.621 401.18 233.713 401.497 234 401.876C234.174 401.979 234.317 402.02 234.45 402.02ZM208.516 420.924C221.034 415.67 236 412.628 250.864 412.628C262.082 412.628 273.227 414.359 283.235 418.19C285.745 419.255 288.398 420.125 290.929 420.914C291.564 420.084 291.871 419.9 292.301 419.173C280.091 413.181 265.749 410.396 251.336 410.396C235.959 410.396 220.501 413.571 207.471 419.368C207.727 420.023 208.055 420.443 208.516 420.924ZM219.434 328.377C226.922 337.707 238.109 341.835 249.541 341.845C253.741 341.845 257.972 341.282 262.059 340.217C281.123 334.932 292.627 314.161 296.561 295.992C296.008 295.48 295.516 295.367 294.799 295.152C292.412 305.844 287.853 316.343 281.103 325.181C273.03 335.014 261.117 339.981 249.387 339.981C245.218 339.981 241.069 339.356 237.115 338.096C219.669 332.658 210.604 313.526 208.913 296.207C208.196 296.217 207.715 296.258 207.151 296.647C208.34 308.579 211.915 319.21 219.434 328.377Z" fill="#2D2925"/>
<path d="M77.6475 148.879C87.6456 168.165 107.806 174.382 128.314 173.398C139.787 173.296 150.81 172.108 162.14 171.381L162.13 172.169C156.362 188.413 152.633 204.954 150.247 221.986C120.56 223.072 90.1247 220.726 68.1923 200.908C53.3385 185.801 49.5483 165.082 52.7751 144.618C56.3195 140.419 59.9561 136.896 63.6541 132.697C68.5201 137.726 76.3055 141.833 77.6475 148.879V148.879ZM446.833 140.222C447.581 143.202 447.724 146.019 448.011 149.142C449.424 171.982 439.56 193.039 420.065 204.664C398.727 217.528 374.07 221.932 347.907 222.577C347.466 220.232 347.179 217.251 346.882 214.599C344.813 199.574 341.985 184.385 337.775 169.974C365.782 169.657 399.854 177.041 418.344 151.334C420.813 147.749 423.282 144.472 425.443 140.58C429.582 138.726 433.567 136.084 437.562 133.912C440.922 135.654 443.473 138.327 446.833 140.221V140.222ZM340.397 255.843C340.509 264.6 337.713 273.654 329.876 277.833C326.198 279.85 321.916 280.608 317.778 280.424C317.634 279.656 317.327 278.703 317.645 277.771C324.068 277.966 330.204 275.651 333.595 270.356C335.91 266.454 336.842 262.08 336.873 257.236C337.948 256.611 339.167 256.15 340.397 255.843H340.397ZM182.337 279.622C181.179 279.816 180.626 280.113 178.454 279.632C168.149 279.632 157.372 271.377 157.997 257.387C159.216 256.915 160.589 257.1 161.849 257.51C161.849 265.447 165.055 276.293 181.917 276.293C183.064 278.137 181.958 278.321 182.337 279.622" fill="#FEFEFE"/>
</svg>