<svg width="500" height="500" viewBox="0 0 500 500" fill="none" xmlns="http://www.w3.org/2000/svg">
<path d="M335.837 152.867C330.347 152.301 318.604 155.366 300.423 163.01C273.287 174.415 241.208 198.498 220.793 220.415C198.907 243.92 155.436 298.254 156.02 323.519C156.02 324.405 156.679 327.71 160.323 329.126L161.923 329.624C175.149 332.678 193.705 330.634 234.118 318.054C234.118 318.054 295.832 299.356 372.556 265.708L394.652 253.417L383.333 310.502L382.01 311.647C325.128 361.051 237.109 407.494 162.588 410.984C145.36 411.784 125.24 410.904 107.515 403.82C84.1637 394.508 69.7617 380.315 63.4596 362.584C60.9362 357.468 39.5172 308.2 99.4586 232.964L60.4252 242.615L91.8082 194.036C155.344 141.481 342.361 32.4003 429.702 115.471L436.498 122.383V150.19C436.498 150.19 297.222 231.432 297.949 230.133C299.204 227.838 328.298 170.439 328.298 170.439C331.898 163.373 334.353 157.569 335.837 152.867Z" fill="#FCB61A"/>
<path d="M335.837 152.867C330.347 152.301 318.604 155.366 300.423 163.01C273.287 174.415 241.208 198.498 220.793 220.415C198.907 243.92 155.436 298.254 156.02 323.519C156.02 324.405 156.679 327.71 160.323 329.126L161.923 329.624C175.149 332.678 193.705 330.634 234.118 318.054C234.118 318.054 295.832 299.356 372.556 265.708L394.652 253.417L383.333 310.502L382.01 311.647C325.128 361.051 237.109 407.494 162.588 410.984C145.36 411.784 125.24 410.904 107.515 403.82C84.1637 394.508 69.7617 380.315 63.4596 362.584C60.9362 357.468 39.5172 308.2 99.4586 232.964L60.4252 242.615L91.8082 194.036C155.344 141.481 342.361 32.4003 429.702 115.471L436.498 122.383V150.19C436.498 150.19 297.222 231.432 297.949 230.133C299.204 227.838 328.298 170.439 328.298 170.439C331.898 163.373 334.353 157.569 335.837 152.867" stroke="white" stroke-width="3.8462" stroke-linecap="round"/>
<path d="M340.586 143.504C331.631 140.624 315.432 145.664 296.506 153.653C267.8 165.716 234.546 190.711 213.349 213.477C192.743 235.64 145.112 293.421 145.851 323.769C145.899 325.05 145.985 326.312 146.17 327.53C141.579 323.727 138.784 318.193 138.563 310.223C137.843 279.88 185.45 222.118 206.037 199.979C227.253 177.208 260.531 152.219 289.213 140.131C318.915 127.606 341.885 122.27 340.586 143.504ZM427.185 126.9L427.406 144.829L322.117 208.531C323.237 207.386 335.116 184.429 335.836 182.792L427.185 126.9ZM116.739 218.296C105.6 220.973 94.3301 223.761 84.2977 226.235C85.6892 224.371 96.0163 210.172 98.3799 207.094C110.683 204.214 123.307 201.376 134.736 198.723C129.197 204.232 123.042 210.842 116.739 218.296ZM375.369 303.969C319.459 352.523 233.551 397.478 162.12 400.856C145.385 401.619 127.001 400.647 111.312 394.345C89.8752 385.802 77.9968 373.406 72.9316 358.875C79.5291 367.603 89.6043 375.068 104 380.854C119.732 387.088 138.116 388.098 154.851 387.285C231.933 383.709 325.823 331.646 380.723 278.888L375.369 303.969Z" fill="#000840"/>
<path d="M422.595 122.784L337.345 175.057C373.947 103.348 308.031 120.176 264 146.093C238.956 159.252 210.25 185.89 201.246 195.484C127.992 273.483 76.6858 377.726 237.085 327.799C237.085 327.799 299.433 308.922 376.828 274.899C157.738 459.978 -49.0546 382.582 154.426 188.007C135.907 192.241 117.209 196.266 98.917 201.381C164.071 147.465 342.811 46.8786 422.595 122.784Z" fill="#690031"/>
</svg>