<svg width="500" height="500" viewBox="0 0 500 500" fill="none" xmlns="http://www.w3.org/2000/svg">
<path d="M64.0002 317.093C60.768 312.29 50.001 294.024 50.001 264.582C50.001 253.531 51.5288 240.92 55.4988 226.885C55.5404 226.792 55.5508 226.719 55.5612 226.615L57.2968 219.816L57.7229 220.242L58.5543 217.747C59.947 213.557 61.402 209.149 61.7449 208.12C61.9736 207.216 63.2415 202.174 64.2496 198.66C64.551 197.61 64.8108 196.747 65.081 195.998L65.1434 195.499C65.4656 192.89 65.8813 190.374 66.3697 187.941C66.5464 186.642 66.7647 185.394 66.9413 184.323L67.0245 183.855L67.2115 183.429C67.3259 183.138 67.4298 182.92 67.5129 182.733C72.5327 162.211 81.9382 150.068 87.2281 144.547L87.3009 144.485L87.3632 144.423C88.3922 143.466 91.3022 140.742 94.6486 138.663C96.1867 136.646 101.186 130.169 105.769 125.023C107.328 123.298 108.824 121.728 110.227 120.449C110.986 118.713 112.805 115.001 116.234 110.718C120.766 105.052 128.176 98.3571 139.483 94.209C148.161 88.3247 157.359 83.0954 166.91 78.5939C168.729 76.7122 175.661 69.8611 186.417 62.9684C198.93 54.9737 216.712 46.8751 237.737 46.8647C238.537 46.8647 239.348 46.8751 240.148 46.8959L247.808 47.1142L238.329 59.8703C243.37 59.4961 248.473 59.2882 253.628 59.2882C280.815 59.2882 306.766 64.611 330.389 74.2067L330.503 74.2483L330.607 74.2899C331.532 74.7369 333.164 75.5582 334.847 76.5874C336.282 77.5127 337.737 78.4379 339.015 79.8518C340.636 80.0286 344.097 80.6004 347.974 82.3365L348.088 82.3885L348.192 82.4405C373.769 95.8515 396.04 114.513 413.428 136.979L413.584 137.166L413.708 137.395C413.978 137.852 414.664 139.235 415.246 142.146C415.537 142.323 415.953 142.593 416.421 142.884C417.356 143.529 418.406 144.236 419.435 145.275L419.663 145.514L419.861 145.774C441.249 176.848 453.752 214.264 453.752 254.508C453.752 292.641 442.517 328.269 423.103 358.335L423.031 358.439L422.958 358.532C422.646 358.938 422.511 359.073 422.22 359.333C421.97 359.593 421.659 359.853 421.253 360.164C420.671 360.611 419.902 361.131 418.925 361.724C418.842 362.098 418.738 362.597 418.593 363.148C418.271 364.365 417.907 365.778 416.94 367.348L416.888 367.431L416.816 367.535C380.555 417.302 320.942 449.717 253.628 449.717C165.58 449.717 90.7721 394.264 64.0002 317.093Z" fill="#FEFEFE"/>
<path d="M416.574 148.053C415.421 146.868 412.719 145.267 412.719 145.267C411.721 144.892 411.524 143.988 411.524 143.988C410.983 140.62 410.276 139.424 410.276 139.424C393.232 117.415 371.407 99.1285 346.34 85.9669C341.86 83.9604 337.828 83.7421 337.828 83.7421C336.924 83.7629 336.498 83.0559 336.498 83.0559C335.022 80.9663 330.563 78.6999 328.89 77.9099C305.725 68.5013 280.293 63.2928 253.625 63.2928C245.529 63.2928 237.579 63.7814 229.753 64.7066L240.032 50.8797C198.897 49.653 169.371 81.8084 169.371 81.8084L169.392 81.85C159.529 86.4347 150.082 91.7991 141.185 97.8913L141.206 97.8393C119.766 105.532 113.572 122.832 113.572 122.832C108.136 127.385 97.3693 141.68 97.3693 141.68C94.2827 143.458 91.0817 146.4 90.1152 147.325C85.1786 152.461 76.1264 164.053 71.3042 184.013C71.1794 184.336 71.0235 184.658 70.878 185.001C70.691 186.103 70.4727 187.361 70.3064 188.598C69.8388 190.979 69.423 193.432 69.1009 195.99L69.2983 195.719C69.2256 196.26 69.1633 196.582 69.1633 196.582C68.6643 196.915 65.5777 209.224 65.5777 209.224C65.0788 210.773 59.4771 227.625 59.4771 227.625L59.4355 227.594C59.4251 227.625 59.4251 227.667 59.4251 227.698C44.6777 279.232 64.2682 310.483 67.6043 315.286C93.6487 391.095 167.095 445.727 253.625 445.727C319.651 445.727 378.059 413.925 413.592 365.188C414.6 363.587 415.109 360.364 415.109 360.364C415.14 359.293 415.94 358.815 415.94 358.815C418.684 357.339 419.63 356.32 419.744 356.174C438.773 326.722 449.759 291.874 449.759 254.5C449.759 215.088 437.526 178.483 416.574 148.053" fill="#051821"/>
<path d="M171.308 111.017C171.817 110.476 172.285 109.987 172.69 109.54C173.355 108.865 173.605 108.688 173.688 108.74C173.736 108.697 173.784 108.655 173.834 108.615C174 98.8011 176.224 90.9208 176.224 90.9208C194.048 66.0115 223.47 59.3995 223.47 59.3995C227.128 58.3599 224.769 59.9713 224.769 59.9713C206.238 80.7325 208.171 97.8758 208.171 97.8758L225.85 162.405C225.85 162.405 211.518 157.373 200.481 134.689C195.378 179.933 238.02 216.6 238.02 216.6C239.88 218.201 236.96 216.476 236.96 216.476C226.276 211.142 213.981 199.894 210.624 196.733C211.518 200.226 232.283 304.614 232.335 304.906C232.439 305.394 232.719 306.413 232.938 307.068L240.129 289.207L246.074 341.916C219.042 367.085 190.244 357.115 188.467 356.45C189.163 357.594 189.703 358.415 189.703 358.415C189.703 358.415 213.098 404.356 308.337 399.48C308.337 399.48 310.613 399.459 310.271 399.75C310.302 399.833 310.177 399.948 309.751 400.104C307.953 400.748 305.157 401.206 305.157 401.206C190.171 431.916 130.589 333.901 128.012 329.534C127.284 328.536 121.703 320.666 118.585 312.734C118.492 312.516 118.357 311.736 118.897 312.328C118.897 312.328 131.109 325.064 165.623 328.214C165.883 328.193 166.029 328.151 166.029 328.151C139.329 298.387 127.991 276.815 126.318 273.519C126.318 273.509 126.307 273.509 126.276 273.509C126.276 273.509 123.075 268.685 119.271 255.014C119.271 255.014 119.375 254.318 119.697 255.014C120.996 257.717 129.83 270.754 140.577 273.675H140.597C131.483 258.954 125.819 235.646 125.091 232.247C137.521 249.66 159.533 250.918 159.533 250.918C159.502 250.845 159.471 250.804 159.419 250.731C159.471 250.814 159.491 250.856 159.491 250.856C123.272 214.729 131.077 175.379 145.773 146.977C154.43 130.208 165.488 117.244 171.308 111.017Z" fill="#FEFEFE"/>
<path d="M279.672 350.231L255.914 375.244L255.966 375.192L285.294 352.674L270.111 300.308L276.741 237.328L265.153 297.481L279.672 350.231ZM284.949 196.125C282.881 206.885 279.493 217.905 273.632 222.812C274.058 222.594 274.588 222.323 275.191 221.96C276.957 220.92 279.296 219.257 281.655 216.813C286.342 211.938 291.06 203.964 291.06 191.426C291.06 185.833 290.115 179.304 287.807 171.746C287.579 176.071 286.872 185.989 284.949 196.125V196.125ZM284.701 115.768C292.984 103.251 306.588 102.159 312.356 102.117C307.368 100.651 302.743 100.121 298.607 100.121C289.866 100.121 283.36 102.523 280.679 103.718C280.284 103.885 279.972 104.041 279.744 104.155C281.874 107.128 283.974 113.46 284.701 115.768H284.701ZM284.566 116.734L284.971 116.62L284.566 116.734ZM263.905 148.835L264.269 148.627L263.905 148.835L263.905 148.835ZM274.235 142.046C274.443 142.067 274.599 142.233 274.61 142.441C274.63 143.606 274.641 144.749 274.641 145.934C274.63 172.86 267.48 202.365 264.757 212.626C275.077 189.016 277.852 166.976 277.852 150.051C277.852 140.133 276.896 131.983 275.94 126.306C275.441 123.354 274.942 121.087 274.589 119.58C271.97 139.852 264.258 149.043 264.217 149.095C264.134 149.209 263.988 149.261 263.863 149.251C263.718 149.23 263.604 149.147 263.531 149.022C250.852 125.61 232.145 111.325 223.591 105.659C222.466 104.906 221.323 104.182 220.162 103.487C244.294 155.935 251.35 196.408 253.169 209.736C253.221 208.207 253.252 206.648 253.252 205.068C253.252 181.105 247.131 152.214 244.055 139.281C243.036 134.966 242.361 132.44 242.361 132.44V132.43C242.319 132.253 242.381 132.076 242.537 131.983C242.672 131.879 242.87 131.889 243.026 132.003C253.866 140.424 261.483 164.367 262.824 168.806C264.851 166.3 267.511 160.021 269.663 154.251C272.001 148.024 273.789 142.337 273.789 142.327C273.851 142.14 274.007 142.036 274.184 142.036C274.204 142.036 274.225 142.046 274.236 142.046H274.235Z" fill="#C4CDD3"/>
<path d="M71.2119 250.817C71.2223 275.758 75.5146 301.863 96.9654 335.172L96.9965 335.214C117.263 377.932 154.625 400.918 172.043 409.723C177.842 412.665 181.407 414.027 181.438 414.038C209.114 427.085 235.148 431.888 258.47 431.888C307.327 431.888 344.356 410.836 359.8 400.294C364.965 396.79 367.709 394.462 367.709 394.462L367.979 394.774L367.709 394.451C368.738 393.609 369.507 392.933 370.068 392.434C369.767 392.601 369.455 392.788 369.153 392.975C368.041 393.63 367.023 394.295 367.023 394.295C329.058 416.585 294.065 423.394 265.516 423.394C220.775 423.394 191.821 406.708 191.8 406.698C96.9446 356.931 95.5519 270.685 95.5519 270.622C95.5519 270.435 95.6767 270.269 95.8741 270.217C96.0611 270.175 96.2483 270.258 96.3418 270.435C108.574 294.149 123.415 302.237 130.025 304.805C130.783 305.102 131.553 305.369 132.332 305.605C104.75 270.83 96.8512 241.575 96.8512 219.504C96.8512 190.291 110.684 173.751 110.715 173.709C110.83 173.563 111.037 173.511 111.204 173.595C111.391 173.678 111.474 173.875 111.443 174.052C109.468 184.344 108.709 193.441 108.699 201.311C108.709 220.554 113.22 232.541 115.465 237.302C115.527 237.448 115.589 237.583 115.662 237.708C114.852 230.974 114.446 224.197 114.446 217.415C114.446 152.376 152.546 112.299 160.59 104.574C154.563 107.09 147.256 113.557 141.301 119.659C134.702 126.406 129.724 132.675 129.713 132.686C129.609 132.821 129.422 132.873 129.256 132.821C129.1 132.769 128.975 132.602 128.986 132.426C129.048 127.259 131.989 120.761 133.59 117.621C128.684 122.081 124.621 129.068 121.721 135.17C118.51 141.938 116.743 147.594 116.743 147.614L116.66 147.76C101.57 164.841 94.2633 183.086 91.5612 191.123C90.657 193.815 90.2725 195.333 90.2725 195.333C89.9295 196.716 89.7321 197.402 89.545 197.745C89.4618 197.849 89.4618 198.036 89.067 198.088C88.7551 198.078 88.672 197.849 88.6304 197.776C88.5888 197.683 88.5784 197.61 88.5681 197.527C88.5473 197.36 88.5369 197.163 88.5369 196.944C88.5369 196.144 88.6304 195.052 88.6304 195.052C88.9214 182.774 94.0243 168.968 96.0821 163.864C81.6153 179.427 78.0713 200.521 78.0713 217.383C78.0713 225.357 78.8716 232.385 79.6614 237.386C80.4513 242.407 81.2307 245.411 81.2307 245.422L81.2411 245.526C81.2827 255.444 83.2365 267.691 85.1696 277.463C87.1131 287.235 89.0253 294.492 89.0253 294.482C89.6697 296.374 89.9087 297.247 89.9295 297.715C89.9191 297.808 89.9191 297.881 89.8775 298.006C89.836 298.12 89.6385 298.297 89.4411 298.287C89.1189 298.245 89.0773 298.12 88.9734 298.037C88.8727 297.924 88.7823 297.802 88.7032 297.673C88.5161 297.403 88.3082 297.049 88.1108 296.696C87.8611 296.249 87.6186 295.799 87.3833 295.344C77.2815 279.864 72.3553 254.331 71.2328 247.896C71.2224 248.873 71.212 249.84 71.212 250.818" fill="#C4CDD3"/>
<path d="M293.719 128.997L293.511 128.81L293.615 128.539C298.25 116.147 320.044 105.127 324.274 103.058C314.131 97.3612 304.413 95.6562 296.338 95.6562C290.227 95.6562 285.083 96.6439 281.466 97.6211C277.849 98.6087 275.781 99.586 275.781 99.586L275.49 99.7315L275.293 99.4716C271.541 94.7829 266.656 90.115 262.707 86.6323C258.924 83.2951 256.024 81.0392 255.775 80.852C255.224 80.4986 254.871 80.2802 254.829 79.7604C254.829 79.4589 255.047 79.251 255.214 79.1679C255.39 79.0743 255.567 79.0223 255.775 78.9807C256.18 78.908 256.658 78.8872 257.084 78.8872C257.604 78.8872 258.051 78.9287 258.155 78.9392C345.06 78.9495 391.256 141.056 391.266 141.077C391.869 141.774 392.17 142.45 392.17 143.094C392.098 144.965 389.977 145.859 388.055 146.462C386.111 147.055 384.178 147.273 384.178 147.273C375.781 148.438 367.997 148.947 360.805 148.947C315.627 148.947 293.771 129.038 293.719 128.997H293.719ZM264.098 380.11C263.953 380.058 263.849 379.943 263.818 379.787C263.787 379.642 263.849 379.486 263.963 379.382L293.115 355.918L278.326 301.119V300.963L282.411 264.223C282.421 264.088 282.483 263.974 282.587 263.911C282.691 263.839 282.816 263.818 282.93 263.859C289.571 265.897 292.679 274.921 294.279 283.342C295.412 289.382 295.734 295.162 295.828 297.99C303.57 281.221 306.096 267.758 306.096 257.32C306.096 242.547 301.034 233.814 298.53 230.384C297.698 229.25 297.158 228.71 297.158 228.71C297.002 228.554 297.002 228.294 297.158 228.128C297.314 227.961 297.574 227.961 297.74 228.117C332.462 261.021 339.436 307.087 339.436 338.837C339.436 360.284 336.256 375.234 336.256 375.244L336.245 375.296C335.102 378.685 331.6 379.538 331.537 379.559C317.403 382.688 304.942 383.717 294.705 383.717C275.499 383.717 264.13 380.12 264.098 380.11" fill="#007DC5"/>
<path d="M345.743 376.13C345.203 375.704 344.86 374.976 344.87 373.957C344.87 373.5 344.933 372.959 345.078 372.346C345.078 372.335 346.211 367.99 347.344 360.494C348.456 352.988 349.589 342.384 349.589 329.908C349.589 296.828 341.659 250.679 304.816 214.791C304.671 214.708 304.151 214.344 303.819 213.97C303.694 213.825 303.559 213.689 303.538 213.388C303.528 213.19 303.684 212.951 303.85 212.889C304.016 212.806 304.162 212.795 304.338 212.795C304.702 212.795 305.201 212.878 306.001 213.076C306.032 213.097 315.822 216.07 322.702 223.794C322.64 223.316 322.557 222.713 322.463 221.996C322.152 220.021 321.632 217.266 320.707 214.053C318.878 207.618 315.459 199.384 309.223 192.2C309.213 192.19 308.35 191.286 307.882 190.662C307.737 190.412 307.602 190.329 307.56 189.976C307.56 189.903 307.581 189.747 307.695 189.633C307.809 189.529 307.955 189.508 308.028 189.508C308.329 189.529 308.454 189.633 308.755 189.809C309.036 189.986 309.41 190.246 309.919 190.62C312.123 191.691 404.671 236.478 407.913 326.935C407.913 326.956 407.955 327.465 407.955 328.276C407.944 330.48 407.601 334.899 404.681 337.404C403.787 338.527 381.858 365.817 349.589 376.296C349.568 376.296 348.612 376.671 347.541 376.671C346.938 376.671 346.273 376.556 345.743 376.13Z" fill="#007DC5"/>
<path d="M415.358 312.453C415.108 311.809 414.973 310.904 414.942 309.688C412.832 222.651 317.447 167.873 293.595 155.554C290.197 153.797 288.274 152.903 288.274 152.903L286.601 152.134L288.441 152.113H288.669C301.172 152.123 308.831 159.681 311.107 162.291V162.28C311.107 159.993 310.65 157.592 310.203 155.762C309.735 153.922 309.278 152.685 309.278 152.685L308.977 151.832L309.819 152.144C319.806 155.949 332.672 157.207 345.289 157.207C357.48 157.207 369.453 156.032 378.359 154.857C387.276 153.672 393.117 152.497 393.127 152.497L393.148 152.487H393.169C393.637 152.445 394.084 152.425 394.499 152.425C399.571 152.414 401.192 155.284 401.411 155.772C413.331 169.079 428.099 199.914 430.573 236.935C430.874 241.593 431.02 246.094 431.02 250.45C430.989 282.938 423.225 306.621 418.652 312.235C417.987 313.046 417.384 313.534 416.667 313.555C416.054 313.555 415.597 313.087 415.358 312.453Z" fill="#007DC5"/>
<path d="M212.296 68.498C212.348 68.4253 212.431 68.3525 212.462 68.2693L212.431 68.2797C211.371 68.5812 192.373 74.1847 186.74 103.18C186.74 103.18 186.699 103.71 187.01 103.221C188.715 100.404 194.649 91.4113 200.116 94.0727C200.116 94.0727 200.147 93.844 200.188 93.4801C200.49 91.0266 202.267 80.9527 212.296 68.4981V68.498ZM197.721 330.534C193.616 322.28 167.239 264.633 167.239 264.633C159.029 267.252 148.844 260.568 148.844 260.568V260.599C161.835 295.073 192.379 325.222 197.254 330.7C197.295 330.742 197.306 330.742 197.326 330.773C198.158 331.678 198.158 331.355 198.158 331.355C198.033 331.179 197.919 330.888 197.721 330.534ZM171.572 142.814C147.752 197.259 201.347 219.704 202.054 219.985L202.075 219.996L199.238 207.458L197.616 200.274C196.255 199.837 195.028 199.349 193.802 198.798C193.386 198.621 192.991 198.423 192.586 198.236C192.087 198.008 191.588 197.758 191.121 197.519C167.706 185.064 169.971 155.238 171.416 145.559C171.416 145.476 171.416 145.424 171.426 145.351C171.489 145.07 171.53 144.8 171.572 144.54C171.717 143.635 171.832 143.012 171.904 142.689C171.936 142.544 171.956 142.44 171.956 142.44V142.409C172.019 141.691 171.676 142.502 171.572 142.814Z" fill="#051821"/>
<path d="M206.825 296.077L202.97 227.66L225.969 303.947C225.969 303.947 218.424 285.92 206.825 296.077ZM208.216 99.3717L213.308 140.281C213.308 140.281 215.803 151.457 200.484 134.698C211.521 157.372 225.853 162.414 225.853 162.414L208.309 98.384C208.278 98.488 208.154 98.6023 208.216 99.3716V99.3717ZM183.776 173.993C182.342 170.624 181.77 167.547 181.77 164.792C181.77 154.853 189.087 149.26 189.118 149.229L189.336 149.062C189.336 149.156 188.962 142.752 189.565 132.501C183.683 141.161 171.222 161.673 186.135 177.714C185.896 177.392 185.688 177.091 185.481 176.8C184.712 175.687 184.182 174.783 183.776 173.993Z" fill="#C4CDD3"/>
<path d="M199.366 182.318C196.83 177.879 190.365 163.709 189.357 149.362C189.347 149.268 189.337 149.154 189.337 149.071L189.118 149.227C189.087 149.258 181.771 154.841 181.771 164.79C181.771 167.545 182.353 170.632 183.776 173.99C184.182 174.781 184.722 175.685 185.481 176.797C185.689 177.088 185.907 177.39 186.146 177.733C186.416 178.087 186.738 178.409 187.092 178.783C189.596 181.528 193.837 184.355 200.8 184.657C200.8 184.657 200.228 183.825 199.366 182.318Z" fill="#051821"/>
<path d="M220.172 312.249C222.552 312.281 224.361 314.443 225.847 317.468C227.333 320.504 228.528 324.527 229.453 328.53C230.607 333.499 231.345 338.489 231.74 341.525C231.729 342.897 231.719 343.906 231.688 344.498V344.55C232.186 341.244 237.03 309.266 220.786 304.764C220.786 304.764 209.478 301.874 210.206 325.442C210.278 324.891 210.341 324.423 210.382 323.987C214.093 315.649 217.2 312.312 220.172 312.249Z" fill="#C4CDD3"/>
<path d="M231.681 344.545V344.556V344.545ZM231.743 341.529C231.68 340.531 230.599 333.503 229.446 328.523C228.521 324.521 227.336 320.508 225.839 317.472C224.364 314.447 222.545 312.285 220.175 312.253C217.193 312.305 214.096 315.653 210.385 323.991C210.157 324.594 210.209 324.677 210.209 325.436L215.8 337.766C215.8 337.766 219.022 304.747 231.659 344.44C231.67 344.523 231.67 344.586 231.68 344.606V344.534V344.555V344.492C231.722 343.91 231.857 343.182 231.743 341.529" fill="#051821"/>
</svg>