<svg width="500" height="500" viewBox="0 0 500 500" fill="none" xmlns="http://www.w3.org/2000/svg">
<path d="M251.972 65.3846C301.676 65.3846 348.472 84.8 383.776 120.112C419.018 155.346 438.461 202.219 438.461 251.881C438.461 354.789 354.842 438.462 251.972 438.462C202.149 438.462 155.295 419.085 120.011 383.758C84.8492 348.508 65.3838 301.669 65.3838 251.881C65.3838 202.219 84.8492 155.346 120.011 120.112C155.295 84.8 202.149 65.3846 251.972 65.3846" fill="#FFC627"/>
<path d="M251.972 65.3846C301.676 65.3846 348.472 84.8 383.776 120.112C419.018 155.346 438.461 202.219 438.461 251.881C438.461 354.789 354.842 438.462 251.972 438.462C202.149 438.462 155.295 419.085 120.011 383.758C84.8492 348.508 65.3838 301.669 65.3838 251.881C65.3838 202.219 84.8492 155.346 120.011 120.112C155.295 84.8 202.149 65.3846 251.972 65.3846" stroke="white" stroke-width="3.8462"/>
<path d="M251.999 423.539C346.595 423.539 423.541 346.589 423.541 251.874C423.541 157.331 346.595 80.3081 251.999 80.3081C157.291 80.3081 80.3066 157.331 80.3066 251.874C80.3066 346.589 157.291 423.539 251.999 423.539" fill="#8B2332"/>
<path d="M93.3652 251.878C93.3652 164.494 164.519 93.3666 251.981 93.3666C339.423 93.3666 410.481 164.494 410.481 251.878C410.481 339.332 339.423 410.478 251.981 410.478C164.519 410.478 93.3652 339.332 93.3652 251.878" fill="#0D2240"/>
<path d="M377.043 185.382L380.586 183.401L369.17 165.693L365.974 168.001C346.555 143.505 312.086 116.189 279.278 112.055C303.978 123.332 331.766 152.135 348.736 174.339L330.909 187.297L333.051 190.589L252.52 242.909L171.99 190.589L174.147 187.297L156.216 174.339C173.297 152.135 201.016 123.332 225.747 112.055C192.978 116.185 158.478 143.439 139.216 167.912L135.874 165.505L124.455 183.174L128.016 185.235L127.924 185.382C113.743 213.235 103.324 256.293 113.474 287.793C113.209 260.578 127.832 223.143 140.966 198.224L160.201 209.062L162.19 206.024L236.974 253.032L138.332 317.128L138.182 316.932L124.959 320.497L125.101 320.824C124.455 323.282 125.666 327.835 128.478 332.182C131.282 336.651 134.824 339.593 137.478 340.082L137.705 340.447L146.486 329.835L146.409 329.639L342.89 206.024L344.809 209.062L364.097 198.224C377.213 223.143 391.855 260.578 391.686 287.793C401.828 256.293 391.282 213.235 377.043 185.382Z" fill="#FFC627"/>
<path d="M366.903 316.932L366.753 317.128L275.983 258.166L260.087 267.578L358.653 329.64L358.545 329.832L367.303 340.447L367.568 340.082C370.218 339.593 373.764 336.651 376.572 332.182C379.299 327.832 380.591 323.278 379.945 320.824L380.107 320.497L366.903 316.932L366.903 316.932ZM268.09 127.931L261.267 136.847L251.82 114.301V218.431L283.543 177.828L315.459 186.055L268.09 127.931Z" fill="#FFC627"/>
<path d="M268.089 152.342V127.93L261.266 136.85L268.089 152.342ZM251.82 114.299L194.251 184.476L219.659 178.015L251.82 218.434V114.299Z" fill="white"/>
<path d="M218.03 376.915C226.176 369.085 236.553 364.304 247.745 363.25V347.642H204.741C205.764 359.008 210.537 369.192 218.03 376.915V376.915ZM247.747 391.38V372.919C239.397 373.938 231.67 377.445 225.317 383.207C231.928 387.615 239.547 390.499 247.747 391.38Z" fill="#FFC627"/>
<path d="M257.295 295.752V314.16C265.625 313.152 273.41 309.694 279.633 303.94C273.114 299.498 265.541 296.59 257.295 295.752V295.752ZM286.975 310.235C278.813 317.97 268.467 322.847 257.298 323.835V338.031H300.225C298.921 327.274 294.094 317.566 286.975 310.235H286.975ZM247.747 314.157V295.753C239.547 296.591 231.928 299.495 225.424 303.945C231.67 309.695 239.397 313.149 247.747 314.157Z" fill="white"/>
<path d="M257.295 347.645V363.253C268.464 364.303 278.887 369.084 286.972 376.918C294.483 369.195 299.43 359.007 300.322 347.645H257.295Z" fill="#FFC627"/>
<path d="M204.84 338.034H247.748V323.837C236.551 322.849 226.251 317.964 218.028 310.234C210.928 317.564 206.101 327.272 204.84 338.034Z" fill="white"/>
<path d="M257.295 391.38C265.541 390.499 273.114 387.615 279.633 383.207C273.41 377.445 265.626 373.938 257.295 372.918V391.38Z" fill="#FFC627"/>
</svg>