<svg width="500" height="500" viewBox="0 0 500 500" fill="none" xmlns="http://www.w3.org/2000/svg">
<mask id="mask0" mask-type="alpha" maskUnits="userSpaceOnUse" x="57" y="57" width="386" height="386">
<path d="M442.309 57.6926V442.308H57.6934V57.6926H442.309Z" fill="white"/>
</mask>
<g mask="url(#mask0)">
<path d="M434.617 250C434.617 351.958 351.959 434.616 250.001 434.616C148.036 434.616 65.3857 351.958 65.3857 250C65.3857 148.039 148.036 65.3848 250.001 65.3848C351.959 65.3848 434.616 148.039 434.616 250" fill="#B4B2B2"/>
<path d="M434.617 250C434.617 351.958 351.959 434.616 250.001 434.616C148.036 434.616 65.3857 351.958 65.3857 250C65.3857 148.039 148.036 65.3848 250.001 65.3848C351.959 65.3848 434.616 148.039 434.616 250" stroke="white" stroke-width="3.8462"/>
</g>
<path d="M429.316 250C429.316 349.035 349.032 429.32 250.001 429.32C150.962 429.32 70.6816 349.035 70.6816 250C70.6816 150.962 150.962 70.6812 250.001 70.6812C349.032 70.6812 429.316 150.962 429.316 250Z" fill="#1D428A"/>
<path d="M250 402.904C165.547 402.904 97.0889 334.447 97.0889 250C97.0889 165.547 165.547 97.0928 250 97.0928C334.45 97.0928 402.912 165.547 402.912 250C402.912 334.447 334.45 402.904 250 402.904Z" fill="#C8102E"/>
<path d="M249.998 394.135C188.925 394.135 136.641 355.939 115.683 302.201C141.31 337.274 191.898 361.201 249.998 361.201C308.102 361.201 358.687 337.274 384.318 302.201C363.36 355.939 311.071 394.135 249.998 394.135ZM249.998 105.858C311.071 105.858 363.364 144.058 384.318 197.805C358.687 162.732 308.106 138.801 249.998 138.801C191.895 138.801 141.31 162.731 115.683 197.805C136.637 144.058 188.925 105.858 249.998 105.858V105.858ZM105.972 254.497H134.114V245.501H105.972C106.079 242.097 106.26 238.708 106.599 235.37C116.572 185.162 177.06 146.416 249.999 146.416C322.933 146.416 383.425 185.162 393.402 235.374C393.741 238.712 393.925 242.097 394.029 245.501H365.883V254.497H394.029C393.925 257.905 393.741 261.289 393.402 264.631C383.425 314.839 322.933 353.581 249.998 353.581C177.06 353.581 116.572 314.843 106.598 264.631C106.26 261.289 106.079 257.905 105.972 254.497ZM249.999 97.0891C165.687 97.0891 97.0908 165.685 97.0908 250.001C97.0908 334.312 165.687 402.905 249.998 402.905C334.314 402.905 402.91 334.312 402.91 250.001C402.91 165.685 334.314 97.0891 249.998 97.0891" fill="#FEFEFE"/>
<path d="M185.386 302.571H196.205V253.994H185.39L185.386 302.571ZM226.828 254.017H226.501C223.463 253.994 212.42 253.952 210.301 253.994L209.751 254.025C206.486 254.025 204.413 255.575 203.905 258.386C203.816 258.844 203.813 259.194 203.816 259.194C203.805 259.294 203.066 268.398 203.963 270.967C205.413 275.148 208.786 276.694 211.89 277.656C211.993 277.683 212.097 277.717 212.213 277.748C212.409 277.798 212.616 277.852 212.813 277.936C213.155 278.075 213.393 278.259 213.536 278.49L213.582 295.983L204.655 296.01L204.69 302.483L216.428 302.494H216.436C220.513 302.317 223.32 300.533 224.363 297.452C224.659 295.079 224.697 278.79 224.463 275.39C224.39 274.106 223.801 273.075 222.616 272.14C222.155 271.783 221.586 271.413 220.859 271.01C220.216 270.675 219.524 270.333 218.855 270.025C216.32 268.786 213.443 267.379 213.443 264.144L213.451 261.379H221.943C223.686 261.379 225.074 260.525 225.978 258.917C226.663 257.686 226.847 256.456 226.843 256.386C226.916 255.583 226.878 254.836 226.847 254.344L226.828 254.017H226.828ZM272.695 264.928C272.745 263.648 272.852 262.686 273.029 261.928L273.221 261.74C273.706 261.663 274.175 261.632 274.748 261.632L274.968 261.636C278.633 261.678 278.737 262.778 278.737 269.413V289.698C278.737 290.305 278.737 290.875 278.698 291.475C278.671 292.055 278.606 292.605 278.498 293.117L278.302 293.309C277.66 293.401 277.041 293.451 276.371 293.451C275.025 293.451 274.091 293.159 273.51 292.563C272.648 291.675 272.622 290.19 272.675 288.478V267.994C272.675 267.994 272.656 265.717 272.695 264.928ZM276.26 253.975C273.825 253.975 271.287 254.055 269.245 254.632C263.948 255.909 261.372 259.448 261.372 265.451V294.348C261.372 301.751 266.668 303.271 274.618 303.271C284.252 303.271 289.775 299.867 289.775 293.94L289.791 263.821C289.791 253.975 283.518 253.975 276.26 253.975ZM314.852 274.638C309.687 255.934 301.398 253.846 297.964 253.846C297.071 253.846 296.533 253.988 296.514 253.996L296.256 254.065L296.252 302.603L307.202 302.619V283.092L314.829 302.619H325.96V254.042H314.852V274.638V274.638ZM167.855 275.547L161.77 275.555V261.447C161.77 261.447 165.078 261.382 165.57 261.447C166.77 261.601 167.882 262.066 167.882 263.509C167.882 263.978 167.855 275.547 167.855 275.547ZM172.224 253.978L144.932 254.012L144.597 254.016L144.582 254.347C144.578 254.405 144.347 260.128 150.732 261.458V302.585H161.924V281.916H171.34C176.309 281.916 179.159 278.647 179.159 272.947L179.186 271.208C179.186 257.447 178.628 254.689 172.224 253.978ZM258.012 254.053H232.697V261.691H239.912V302.657L251.039 302.649L251.047 261.645C251.185 261.653 251.32 261.657 251.451 261.657C253.439 261.657 255.024 261.049 256.159 259.849C258.178 257.726 258.035 254.522 258.032 254.384L258.012 254.053L258.012 254.053ZM355.44 254.017H355.113C352.07 253.994 341.032 253.952 338.909 253.994L338.363 254.025C335.097 254.025 333.024 255.575 332.516 258.386C332.428 258.844 332.428 259.194 332.428 259.194C332.416 259.294 331.674 268.398 332.574 270.967C334.024 275.148 337.397 276.694 340.497 277.656C340.605 277.683 340.709 277.717 340.82 277.748C341.02 277.798 341.224 277.852 341.42 277.936C341.763 278.075 342.005 278.259 342.147 278.49L342.193 295.983L333.266 296.01L333.297 302.483L345.04 302.494H345.051C349.12 302.317 351.932 300.533 352.974 297.452C353.27 295.079 353.309 278.79 353.078 275.39C352.997 274.106 352.413 273.075 351.224 272.14C350.763 271.783 350.197 271.413 349.47 271.01C348.824 270.675 348.136 270.333 347.47 270.025C344.928 268.786 342.059 267.379 342.059 264.144L342.063 261.379H350.551C352.297 261.379 353.686 260.525 354.586 258.917C355.27 257.686 355.459 256.456 355.455 256.386C355.528 255.583 355.493 254.836 355.459 254.344L355.44 254.017ZM256.146 204.192L257.988 204.188L258.28 204.192C261.111 204.238 262.165 204.253 262.092 209.238C262.1 213.215 262.092 213.465 262.011 215.426L262.003 215.8C262.011 216.373 261.769 217.003 261.403 217.38C261.146 217.642 260.842 217.773 260.5 217.773H256.146V204.192V204.192ZM256.115 224.019H257.992C259.8 224.057 262.83 224.611 262.83 227.857C262.83 229.407 262.969 234.265 263.023 236.088L263.046 236.819C263.057 237.088 263.176 239.465 263.292 239.915C264.069 242.746 266.269 244.442 269.703 244.811H272.873V227.523C272.873 226.038 272.065 223.961 270.9 222.476L270.669 222.161C272.407 220.211 273.08 218.246 273.08 215.246L273.092 213.557C273.092 200.126 272.557 197.438 266.323 196.746H245.307V244.157H256.115V224.019ZM323.221 196.746H312.678L312.644 244.13L323.221 244.138V196.746ZM221.99 244.201L232.84 244.186L232.856 204.136C232.99 204.14 233.121 204.143 233.252 204.143C235.198 204.143 236.748 203.551 237.856 202.378C239.821 200.309 239.679 197.19 239.671 197.063L239.656 196.743H214.952V204.186H221.99V244.201ZM335.811 244.201L346.668 244.186V204.136C346.803 204.14 346.941 204.143 347.068 204.143C349.022 204.143 350.572 203.547 351.684 202.378C353.649 200.305 353.511 197.19 353.503 197.063L353.484 196.743H328.776V204.186H335.811V244.201ZM209.271 236.535H197.909V225.016H205.698V214.696H197.909V204.027H209.271V196.746H187.367L187.328 244.131H209.271V236.535ZM169.836 236.535H163.833V204.177C167.552 204.023 168.34 204.35 168.402 204.381C169.802 204.931 169.775 207.527 169.775 207.596C170.167 211.343 169.879 233.554 169.836 236.535ZM173.583 196.746H146.56L146.521 197.035C146.502 197.15 146.179 199.873 147.933 201.946C149.044 203.27 150.74 204.008 152.994 204.154V244.073H173.117C177.706 244.073 180.786 240.173 180.786 234.373L180.794 212.381C180.802 200.246 180.806 196.985 173.583 196.746ZM289.912 207.467C289.966 206.213 290.074 205.275 290.247 204.525L290.443 204.344C290.916 204.271 291.385 204.24 291.951 204.24H292.166C295.808 204.286 295.912 205.367 295.912 211.856V231.706C295.912 232.302 295.912 232.86 295.874 233.448C295.843 234.013 295.778 234.552 295.678 235.052L295.478 235.24C294.843 235.336 294.228 235.383 293.562 235.383C292.235 235.383 291.305 235.094 290.728 234.51C289.87 233.64 289.843 232.19 289.897 230.513V210.463C289.897 210.463 289.878 208.236 289.912 207.467ZM293.455 196.748C291.039 196.748 288.52 196.821 286.489 197.39C281.231 198.64 278.678 202.102 278.678 207.975V236.26C278.678 243.506 283.935 244.987 291.824 244.987C301.381 244.987 306.866 241.66 306.866 235.86L306.881 206.379C306.881 196.748 300.658 196.748 293.455 196.748Z" fill="#FEFEFE"/>
</svg>