<svg width="500" height="500" viewBox="0 0 500 500" fill="none" xmlns="http://www.w3.org/2000/svg">
<path d="M115.141 264.769C126.016 258.863 155.184 254.282 182.088 250.226C182.02 260.44 181.861 271.361 181.565 283.3C134.036 278.079 116.79 268.859 115.141 264.769H115.141ZM230.527 108.242C258.819 112.07 275.007 119.587 276.349 129.629C277.737 140.002 275.314 148.514 269.308 155.231C259.593 164.097 244.815 168.746 232.29 171.168C232.427 147.063 231.858 126.75 230.527 108.242ZM231.335 220.545C231.585 210.971 231.847 201.101 232.029 191.024C255.156 194.44 268.602 200.849 268.375 208.618L267.647 286.59C255.475 286.899 242.643 286.842 230.573 286.51L230.743 281.255C230.22 263.616 230.766 242.697 231.335 220.545ZM316.996 283.666L317.382 250.58C370.042 257.766 383.329 263.444 384.978 266.609C384.978 266.609 384.933 266.849 384.603 267.374C375.104 274.297 350.202 280.272 316.996 283.666ZM435.215 268.837C434.998 264.255 432.746 259.971 428.514 256.087C412.645 241.566 367.539 232.964 317.576 234.403L318.008 197.593C317.997 189.95 315.494 183.633 310.591 178.811C307.144 175.43 302.628 172.894 297.076 171.214C302.275 168.095 307.372 164.245 311.694 159.527C323.924 148.148 329.543 133.81 328.417 116.925C327.689 106.22 323.048 97.1491 314.607 89.9745C297.907 75.7395 267.579 70.1759 226.807 73.8203C223.713 52.2851 219.367 33.6175 213.554 16.8692L207.98 0.817749L206.057 6.78135L205.011 3.75385L199.801 19.9538C192.566 42.5172 187.754 61.5961 184.796 79.6125C151.294 85.6675 128.314 93.1619 127.313 93.4818L79.5341 109.168L87.8842 108.402L76.6789 112.081L126.642 107.545C126.915 107.511 152.238 105.489 181.69 105.363C180.041 126.83 180.564 148.457 181.224 175.236C181.633 192.292 182.1 211.451 182.134 234.494C137.005 233.9 87.3153 240.709 72.7541 257.812C66.4518 263.181 65.2687 268.608 65.3938 272.252C66.3835 300.619 149.428 311.221 182.327 314.306L185.057 401.898L196.411 402.149L196.638 399.122L197.412 399.144L197.969 421.388L209.334 421.673L209.561 418.646L210.847 418.68L211.415 439.781L222.791 439.816L222.894 436.857H225.726L229.594 317.025C242.153 317.368 255.224 317.356 267.772 316.979L271.708 442.146L283.073 442.26L283.22 439.279L284.631 469.188L295.996 469.222L296.132 466.252L297.258 466.263L298.055 496.127L309.431 496.104L309.499 493.145H312.388L316.552 314.066C375.013 308.491 416.569 296.632 427.479 282.854C432.609 278.513 435.214 273.886 435.214 269.099V268.837H435.215Z" fill="#FEFEFE"/>
<path d="M426.586 272.055C426.586 292.905 345.646 311.572 247.961 311.572C150.264 311.572 71.8043 292.893 71.0762 272.055C70.4164 253.262 125.738 240.946 189.147 243.379C147.955 249.594 106.364 255.466 106.364 266.651C106.364 283.536 168.818 295.452 247.961 295.452C327.08 295.452 390.661 283.536 390.661 266.651C390.661 255.752 352.506 249.263 306.638 243.391C370.832 239.963 425.767 253.924 426.586 272.055" fill="#2D2925"/>
<path d="M214.764 353.41L217.107 439.631L222.112 284.383C220.099 216.167 233.898 104.207 205.219 21.7109C174.777 116.546 191.159 137.887 187.154 286.908L190.738 401.724L195.504 338.924C195.663 331.132 201.568 331.852 201.568 338.535L203.661 421.237L208.734 353.935C208.655 344.864 215.003 345.276 214.764 353.41Z" fill="#2D2925"/>
<path d="M308.099 309.262L303.742 495.973L300.807 386.023C300.647 378.22 294.152 377.866 293.89 386.023L290.318 468.977L286.803 372.942C286.814 365.219 280.933 364.774 280.876 373.491L277.384 441.969L273.14 306.737L274.062 208.669C274.835 182.45 198.059 182.781 198.059 182.781C198.059 182.781 289.476 184.689 281.991 128.869C276.542 88.1752 126.129 101.862 126.129 101.862C126.129 101.862 168.652 87.8895 221.983 82.6914C281.763 76.8764 317.825 91.3054 319.782 120.255C323.229 171.483 257.168 178.943 257.168 178.943C257.168 178.943 309.293 168.786 309.384 200.558L308.099 309.262Z" fill="#2D2925"/>
<path d="M429.529 269.098C429.529 289.948 348.6 308.627 250.915 308.627C153.207 308.627 74.7472 289.936 74.0305 269.098C73.3594 250.316 128.692 237.978 192.09 240.423C150.898 246.649 109.307 252.521 109.307 263.694C109.307 280.591 171.773 292.518 250.915 292.518C330.035 292.518 393.603 280.591 393.603 263.694C393.603 252.807 355.46 246.318 309.581 240.423C373.764 236.995 428.698 250.956 429.529 269.098Z" fill="#C21F32"/>
<path d="M217.713 350.453L220.045 436.674L225.051 281.426C223.037 213.199 236.836 101.251 208.18 18.7543C177.715 113.589 194.097 134.93 190.104 283.94L193.687 398.756L198.454 335.955C198.602 328.175 204.506 328.884 204.506 335.59L206.622 418.28L211.684 350.979C211.604 341.896 217.929 342.319 217.713 350.453Z" fill="#C21F32"/>
<path d="M311.043 306.307L306.697 493.017L303.751 383.068C303.603 375.265 297.107 374.899 296.834 383.068L293.262 466.01L289.747 369.987C289.758 362.264 283.877 361.807 283.831 370.535L280.328 439.014L276.084 303.782L277.006 205.714C277.779 179.483 201.015 179.849 201.015 179.849C201.015 179.849 292.42 181.745 284.935 125.914C279.474 85.2197 129.084 98.9177 129.084 98.9177C129.084 98.9177 171.608 84.9226 224.927 79.7359C284.719 73.9094 320.78 88.3385 322.737 117.311C326.173 168.527 260.124 175.999 260.124 175.999C260.124 175.999 312.237 165.82 312.328 197.602L311.043 306.307Z" fill="#C21F32"/>
</svg>