<svg width="500" height="500" viewBox="0 0 500 500" fill="none" xmlns="http://www.w3.org/2000/svg">
<mask id="mask0" mask-type="alpha" maskUnits="userSpaceOnUse" x="57" y="69" width="386" height="358">
<path d="M442.3 69.6084H57.6963V426.886H442.3V69.6084Z" fill="white"/>
</mask>
<g mask="url(#mask0)">
<path d="M411.839 119.448C385.278 87.3777 347.178 69.679 304.534 69.605L136.211 69.6172L57.6963 426.8L209.678 426.886L229.688 343.445L292.725 343.457H294.177C342.104 343.457 381.559 326.892 408.158 295.66C457.377 242.009 448.684 163.941 411.84 119.448" fill="#FEFEFE"/>
</g>
<path d="M407.103 123.384C381.798 92.83 345.36 75.8336 304.526 75.772L141.154 75.7843L65.3604 420.629L204.818 420.728L224.829 337.274C243.559 337.274 292.815 337.287 292.754 337.287C339.486 337.62 377.808 321.794 403.618 291.487C450.486 240.411 442.248 165.832 407.103 123.384" fill="#B3B1B1"/>
<path d="M217.694 328.185L197.683 411.626L76.6348 411.675L148.463 84.8618L304.496 84.9728C343.347 85.0344 376.632 100.811 400.116 129.183C434.731 170.978 438.105 240.454 396.705 285.601C371.313 315.404 334.087 328.493 292.835 328.197L217.694 328.185Z" fill="#081E3F"/>
<path d="M132.379 157.461L200.772 157.522C208.629 157.522 216.99 164.116 213.357 174.112C211.129 180.287 209.405 187.448 208.616 194.165C207.988 199.416 213.85 202.731 217.199 202.731L356.596 202.83C359.219 202.83 360.598 202.09 360.598 200.833C360.598 199.588 360.475 194.966 359.982 191.725C359.49 188.631 358.985 188.101 356.485 188.101C339.11 188.076 332.029 180.336 313.816 168.578C295.604 156.82 268.894 150.066 245.941 150.041L134.042 149.979L132.379 157.461ZM216.82 247.813C214.407 242.648 212.178 236.498 210.811 230.841C209.087 223.594 202.967 217.702 192.5 217.702L119.132 217.653L120.954 209.42L358.704 209.58C361.081 209.58 360.576 210.578 360.453 213.204C360.317 215.829 359.714 220.697 359.332 223.569C358.95 226.429 356.586 225.751 354.32 225.8C348.976 225.923 339.026 227.193 333.226 231.543C323.375 238.951 302.367 251.966 290.557 255.75C277.886 259.793 230.538 274.287 216.672 247.578" fill="#FCB424"/>
<path d="M105.986 277.598L230.138 277.684C235.618 277.684 240.334 278.99 243.991 282.035C254.483 290.699 268.09 296.985 282.522 301.163C289 303.037 300.144 300.621 310.106 294.976C334.956 280.913 350.94 254.155 356.198 236.925C357.565 232.426 354.942 232.796 351.469 233.042C340.99 233.794 329.981 243.272 315.512 252.516C301.018 261.735 271.563 270.474 243.609 270.437L107.575 270.351L105.986 277.598ZM288.11 111.182C289.859 110.874 296.139 110.492 299.636 111.86C323.218 121.153 345.531 145.742 354.865 171.859C356.663 176.875 357.107 180.092 354.865 180.351C344.054 181.547 339.005 176.21 326.297 167.582C313.576 158.967 301.853 153.076 285.746 147.948C269.873 142.895 240.959 142.168 237.216 142.045C233.485 141.921 233.953 140.356 235.591 138.729C249.444 124.888 268.063 114.843 288.11 111.182H288.11ZM401.262 200.732C401.336 201.73 400.264 202.864 399.008 202.864C398.897 202.864 371.818 202.84 371.818 202.84C368.333 202.84 368.272 201.213 368.149 199.216C368.013 197.219 367.459 193.226 367.336 190.847C367.213 188.542 366.376 185.905 369.454 184.611C377.027 181.406 384.182 173.999 387.445 167.639C388.541 165.494 390.179 161.945 392.038 164.952C398.479 175.256 400.498 187.963 401.262 200.732V200.732ZM391.527 249.639C391.059 250.564 389.323 251.242 388.757 249.75C384.791 239.126 375.359 231.817 368.869 228.194C366.911 227.097 366.739 225.815 366.985 223.88C367.256 221.945 368.069 215.758 368.192 213.145C368.29 211.074 369.128 209.583 370.679 209.583L399.014 209.595C400.024 209.607 401.28 210.507 401.28 211.259C401.28 224.78 397.167 238.14 391.527 249.639" fill="#FCB424"/>
<path d="M317.834 302.865C315.839 303.149 311.48 302.458 318.351 298.477C338.941 286.497 357.289 258.384 362.19 242.238C364.049 236.075 364.246 235.755 366.611 236.433C369.763 237.332 374.726 241.622 378.518 246.872C382.336 252.11 383.974 262.328 381.782 265.261C366.98 285.142 343.46 299.106 317.834 302.865ZM370.219 175.617C365.429 178.193 364.493 177.712 363.471 174.113C354.531 142.696 328.141 119.439 317.354 112.561C315.298 111.267 315.827 110.392 317.317 110.589C343.14 114.028 368.445 128.128 381.191 147.429C388.456 158.497 374.837 173.115 370.219 175.617" fill="#FCB424"/>
</svg>