<svg version="1.1" id="Layer_1" xmlns="http://www.w3.org/2000/svg" xmlns:xlink="http://www.w3.org/1999/xlink" x="0px" y="0px"
	 width="400px" height="400px" viewBox="0 0 400 400" enable-background="new 0 0 400 400" xml:space="preserve">
<g>
	<path d="M23.341,178.375c-3.52,3.212-5.281,7.39-5.275,12.456v91.746c0.002,5.169,1.757,9.388,5.275,12.602
		c3.508,3.223,7.846,4.563,12.979,4.13c8.208-0.688,16.424-1.328,24.649-1.912v-17.342c-8.225,0.419-16.441,0.873-24.649,1.367
		c0-29.811,0-59.624,0-89.434c8.208,0.494,16.424,0.949,24.649,1.368v-17.342c-8.225-0.585-16.441-1.224-24.649-1.912
		C31.189,173.667,26.856,175.061,23.341,178.375"/>
	<path d="M82.955,177.455c-6.109-0.366-12.218-0.761-18.323-1.184V297.14c13.326-0.925,26.668-1.714,40.024-2.366v-16.592
		c-7.238,0.256-14.473,0.534-21.701,0.843V177.455z"/>
	<path d="M108.331,294.599c6.227-0.292,12.459-0.556,18.693-0.789c0-38.07,0-76.142,0-114.208
		c-6.234-0.234-12.466-0.498-18.693-0.791V294.599z"/>
	<path d="M161.564,180.59c-10.292-0.205-20.584-0.491-30.865-0.857v113.942c6.127-0.219,12.257-0.407,18.386-0.569v-48.345
		c4.161-0.016,8.317-0.027,12.479-0.042c5.082-0.014,9.392-1.567,12.938-4.646c3.635-3.078,5.471-6.858,5.465-11.346v-31.905
		c0-4.4-1.83-8.151-5.465-11.276C170.958,182.345,166.641,180.69,161.564,180.59 M161.564,228.688
		c-4.161-0.013-8.321-0.025-12.479-0.042v-32.23c4.161,0.079,8.317,0.146,12.479,0.208V228.688z"/>
	<path d="M323.719,240.292c3.627-3.265,5.438-7.321,5.441-12.142v-34.217c0.002-4.726-1.811-8.653-5.441-11.712
		c-3.533-3.169-7.824-4.571-12.892-4.292c-10.265,0.573-20.536,1.064-30.817,1.474v114.601c6.125,0.244,12.248,0.52,18.367,0.819
		v-49.321c5.086,16.481,10.166,33.174,15.246,50.133c6.114,0.35,12.226,0.729,18.331,1.134c-5.334-17.763-10.67-35.17-16.011-52.326
		C318.838,243.717,321.451,242.387,323.719,240.292 M298.377,195.191c4.151-0.146,8.304-0.304,12.45-0.465
		c-0.002,11.191-0.002,22.389,0,33.583c-4.146,0.033-8.299,0.064-12.45,0.092V195.191z"/>
	<path d="M214.54,180.936c-10.3,0.07-20.596,0.059-30.894-0.03v111.599c6.136-0.054,12.27-0.081,18.406-0.076v-47.764
		c4.163,0,8.324,0.002,12.487,0.008c5.079,0.003,9.392-1.523,12.94-4.599c3.646-3.073,5.461-6.865,5.461-11.366
		c0-10.663,0-21.325,0-31.988c0-4.416-1.822-8.14-5.461-11.171C223.93,182.426,219.621,180.898,214.54,180.936 M214.54,228.738
		c-4.163,0.002-8.322,0.006-12.487,0.006v-31.843c4.163-0.002,8.324-0.009,12.487-0.032V228.738z"/>
	<path d="M236.621,292.748c13.389,0.242,26.771,0.616,40.141,1.131v-16.335c-7.243-0.202-14.491-0.37-21.743-0.512v-32.261
		c4.158,0.018,11.58,0.034,15.732,0.052c0.002-5.412,0.002-10.826,0-16.239c-4.152,0.021-11.574,0.038-15.732,0.055v-32.261
		c7.254-0.142,14.5-0.312,21.743-0.511v-16.336c-13.369,0.512-26.754,0.889-40.141,1.131
		C236.621,218.024,236.621,255.385,236.621,292.748"/>
	<path d="M383.935,209.182v-18.351c-0.003-5.07-1.806-9.244-5.417-12.444c-3.515-3.317-7.796-4.706-12.834-4.285
		c-5.14,0.429-10.279,0.841-15.425,1.231c-5.149,0.391-9.484,2.432-13.011,6.073c-3.53,3.548-5.293,7.664-5.295,12.395v34.323
		c0,4.83,1.767,8.877,5.295,12.223c3.526,3.343,7.867,5.069,13.011,5.123c5.146,0.056,10.287,0.117,15.425,0.177
		c0,11.926,0,23.849,0,35.774c-5.14-0.311-10.279-0.601-15.425-0.88v-17.535c-6.096-0.198-12.198-0.385-18.306-0.561v17.162
		c0,4.829,1.767,8.981,5.295,12.532c3.526,3.553,7.867,5.544,13.011,5.934c5.146,0.392,10.287,0.802,15.425,1.234
		c5.045,0.424,9.322-0.92,12.834-4.144c3.609-3.204,5.417-7.418,5.417-12.587V245.88c-0.003-5.07-1.806-9.388-5.417-12.872
		c-3.515-3.59-7.796-5.307-12.834-5.246c-5.14,0.063-10.279,0.12-15.425,0.177V192.87c5.146-0.281,10.287-0.574,15.425-0.88
		c0,5.959,0,11.922,0,17.885C371.773,209.653,377.855,209.423,383.935,209.182"/>
	<g>
		<path fill="#BDBFC1" d="M37.327,176.135c7.226,0.608,14.769,1.196,22.418,1.751v-0.735c-7.817-0.56-15.732-1.177-23.528-1.831
			c-0.573-0.051-1.14-0.075-1.683-0.075c-4.1,0-7.487,1.315-10.354,4.018c-3.253,2.969-4.896,6.858-4.893,11.567v91.746
			c0.002,3.879,1.069,7.189,3.182,9.876c-1.57-2.493-2.364-5.438-2.367-8.788v-91.746c-0.005-4.787,1.668-8.744,4.979-11.768
			c2.92-2.751,6.367-4.09,10.541-4.09C36.176,176.061,36.749,176.087,37.327,176.135"/>
		<path fill="#BDBFC1" d="M81.732,179.353v-0.747c-5.296-0.321-10.638-0.666-15.879-1.025v118.25l0.816-0.055v-117.4l0.146,0.012
			C71.63,178.717,76.648,179.042,81.732,179.353"/>
		<path fill="#BDBFC1" d="M125.802,181.549v-0.772c-5.324-0.203-10.789-0.431-16.249-0.685v113.225l0.815-0.034V180.895l0.142,0.006
			C115.466,181.13,120.61,181.348,125.802,181.549"/>
		<path fill="#BDBFC1" d="M162.632,182.627c3.699,0.075,7.003,1.028,9.859,2.842c-3.085-2.344-6.76-3.574-10.951-3.657
			c-9.834-0.197-19.799-0.469-29.62-0.813v111.414l0.817-0.029V181.805l0.139,0.004C142.739,182.156,152.75,182.431,162.632,182.627
			"/>
		<path fill="#BDBFC1" d="M313.161,179.933c3.318,0,6.207,0.782,8.76,2.384c-2.805-2.152-6.039-3.2-9.846-3.2
			c-0.389,0-0.783,0.011-1.181,0.033c-9.728,0.543-19.704,1.023-29.661,1.428v112.253l0.815,0.035V181.405l0.131-0.005
			c10.044-0.408,20.066-0.892,29.785-1.435C312.372,179.943,312.772,179.933,313.161,179.933"/>
		<path fill="#BDBFC1" d="M202.109,183.019c4.514,0,9.065-0.015,13.524-0.045h0.166c3.774,0,7.034,0.88,9.887,2.684
			c-3.095-2.353-6.697-3.5-10.974-3.5h-0.165c-4.536,0.031-9.087,0.046-13.526,0.046c-5.303,0-10.738-0.022-16.151-0.065v109.132
			l0.815-0.004V182.952l0.136,0.002C191.239,182.998,196.72,183.019,202.109,183.019"/>
		<path fill="#BDBFC1" d="M275.539,180.801c-12.463,0.471-25.146,0.826-37.696,1.062V291.55l0.816,0.015V182.683l0.134-0.002
			c12.143-0.227,24.506-0.572,36.746-1.027V180.801z"/>
		<path fill="#BDBFC1" d="M366.849,176.136c0.55-0.045,1.102-0.07,1.638-0.07c3,0,5.637,0.717,7.985,2.178
			c-2.607-2.013-5.591-2.994-9.073-2.994c-0.523,0-1.067,0.021-1.613,0.067c-5.116,0.43-10.309,0.846-15.433,1.234
			c-4.797,0.362-8.91,2.282-12.226,5.704c-3.332,3.348-4.95,7.122-4.95,11.547v34.322c0,3.601,1.034,6.702,3.148,9.405
			c-1.567-2.45-2.334-5.195-2.334-8.318v-34.324c0-4.496,1.647-8.336,5.026-11.735c3.365-3.47,7.536-5.417,12.402-5.783
			C356.524,176.981,361.716,176.567,366.849,176.136"/>
	</g>
	<path fill="#006BB5" d="M18.065,319.177c121.202-15.13,244.668-15.13,365.869,0v-6.354c-121.201-14.011-244.667-14.011-365.869,0
		V319.177z"/>
	<path fill="#EC174C" d="M62.213,336.079c91.625-23.738,185.953-23.738,277.574,0v-5.995c-91.625-23.093-185.949-23.097-277.574,0
		C62.216,332.083,62.216,334.079,62.213,336.079"/>
	<path fill="#006BB5" d="M164.668,162.955c-49.036-1.202-98.003-4.831-146.603-10.896v6.352
		c51.68,5.975,103.771,9.391,155.921,10.271C170.701,167.045,167.582,165.133,164.668,162.955"/>
	<path fill="#006BB5" d="M237.332,162.955c-2.913,2.178-6.034,4.09-9.317,5.726c52.148-0.879,104.24-4.295,155.92-10.271v-6.352
		C335.335,158.125,286.368,161.753,237.332,162.955"/>
	<path fill="#EC174C" d="M152.467,150.782c-30.247-2.693-60.393-7.892-90.253-15.626c0.002,2.002,0.002,3.997,0,5.997
		c31.564,7.956,63.448,13.168,95.434,15.642C155.794,154.906,154.062,152.899,152.467,150.782"/>
	<path fill="#EC174C" d="M249.531,150.784c-1.594,2.117-3.328,4.122-5.18,6.01c31.985-2.473,63.872-7.687,95.436-15.642v-5.996
		C309.927,142.892,279.778,148.091,249.531,150.784"/>
	<path fill="#FFFFFF" d="M144.605,114.317c0-31.147,25.249-56.396,56.396-56.396c31.145,0,56.393,25.249,56.393,56.396
		s-25.248,56.396-56.393,56.396C169.854,170.713,144.605,145.464,144.605,114.317"/>
	<path d="M200.999,57.923c-31.094,0-56.393,25.299-56.393,56.396c0,31.094,25.299,56.393,56.393,56.393
		c31.098,0,56.396-25.299,56.396-56.393C257.395,83.222,232.097,57.923,200.999,57.923 M241.766,82.984
		c6.451,8.371,10.114,18.333,10.617,28.862h-21.251C231.631,101.329,235.304,91.364,241.766,82.984 M160.236,82.984
		c6.461,8.379,10.131,18.344,10.632,28.862h-21.25C150.118,101.318,153.784,91.355,160.236,82.984 M160.236,145.65
		c-6.453-8.371-10.118-18.333-10.617-28.861h21.25C170.367,127.308,166.695,137.271,160.236,145.65 M203.472,165.699v-14.736h-4.943
		v14.736c-13.387-0.637-25.801-6.378-35.02-16.195c7.534-9.406,11.784-20.707,12.305-32.715v-4.943
		c-0.521-12.009-4.771-23.308-12.305-32.715c9.219-9.816,21.632-15.558,35.02-16.194v14.602h4.943V62.937
		c13.387,0.636,25.802,6.375,35.021,16.194c-7.535,9.407-11.784,20.707-12.305,32.715v4.943c0.521,12.008,4.77,23.309,12.305,32.715
		C229.273,159.323,216.858,165.063,203.472,165.699 M241.766,145.65c-6.462-8.379-10.135-18.344-10.634-28.861h21.251
		C251.88,127.317,248.217,137.28,241.766,145.65"/>
	<polygon fill="#EC174C" points="188.437,90.697 188.437,137.747 213.573,137.747 213.573,131.278 195.164,131.278 195.164,90.697 	
		"/>
	<path fill="#006BB5" d="M222.12,106.46V87.072c0-2.904-1.17-4.088-4.035-4.088h-34.218c-2.831,0-3.986,1.184-3.986,4.088v54.49
		c0,2.905,1.156,4.088,3.986,4.088h34.218c2.865,0,4.035-1.184,4.035-4.088v-19.409h-6.78v17.547h-28.73V88.935h28.73v17.526H222.12
		z"/>
	<path fill="#EC174C" d="M213.563,129.457l0.01-38.76h-16.332l-0.16,38.76h6.542l0.105-12.081h3.325l-0.048,12.081H213.563z
		 M207.008,110.928h-3.277V97.165h3.277V110.928z"/>
</g>
</svg>