<svg width="500" height="500" viewBox="0 0 500 500" fill="none" xmlns="http://www.w3.org/2000/svg">
<path d="M108.758 162.919C108.758 162.919 151.314 93.4703 238.448 93.4703C325.583 93.4703 366.116 160.9 366.116 160.9H484.329L479.593 189.876C479.593 189.876 476.214 201.348 470.812 202.694H478.919C478.919 202.694 481.624 212.812 465.411 247.868H499.86C499.86 247.868 501.208 309.209 426.908 338.201C426.908 338.201 388.405 350.338 368.813 329.445C368.813 329.445 329.636 402.258 238.448 402.258C147.26 402.258 106.053 327.426 106.053 327.426H0L16.8958 297.088H5.4099L18.9183 272.142H41.8818L45.9351 262.688H35.1317L61.4743 214.149H76.3311L82.4152 199.321H69.581L89.1653 162.919H108.758Z" fill="#FEFEFE"/>
<path d="M239.72 386.015C314.275 386.015 374.706 324.789 374.706 249.244C374.706 173.715 314.275 112.481 239.72 112.481C165.173 112.481 104.735 173.715 104.735 249.244C104.735 324.789 165.173 386.015 239.72 386.015Z" fill="#FEC42F"/>
<path d="M254.615 248.57L248.728 248.521C248.309 248.521 247.972 248.857 247.972 249.267C247.972 249.678 248.309 250.014 248.728 250.014L254.697 249.957C256.711 249.957 258.57 250.211 258.06 251.106L242.586 280.598C240.662 284.119 236.593 283.224 235.943 280.418L228.28 240.889L255.231 220.013C257.912 217.715 263.059 213.973 265.698 214.022L271.576 213.989C275.153 213.965 276.419 215.639 275.58 217.789L274.544 219.791C273.87 220.907 271.749 221.047 269.957 221.047H266.561C266.15 221.047 265.813 221.383 265.813 221.81C265.813 222.22 266.15 222.557 266.561 222.557H269.907C271.354 222.557 273.171 222.589 272.505 223.673L260 247.47C259.425 248.398 256.827 248.57 254.615 248.57ZM301.249 263.251C288.637 278.514 281.492 283.741 268.682 283.741C264.325 283.741 262.056 282.765 263.272 280.656L278.466 250.17H284.263C290.733 250.17 289.837 255.603 288.078 262.963C287.757 263.997 288.546 264.063 289.319 263.16L303.765 237.828C304.464 236.236 302.647 235.916 301.75 237.139C294.515 246.929 286.902 246.207 283.695 246.207H281.081L297.294 215.294H303.839C312.077 215.811 315.916 222.794 313.532 239.617H316.961L328.882 216.148C329.844 214.17 327.805 212.356 325.561 212.356L244.609 212.389C239.931 212.389 239.725 215.967 244.206 215.967C247.848 215.967 247.659 221.186 244.387 223.705L210.028 250.933L216.959 283.093C217.477 285.522 219.031 286.679 221.728 286.679H288.661C291.424 286.679 292.558 285.555 293.455 284.406L305.582 263.505C307.251 260.502 303.37 260.69 301.249 263.251" fill="#542582"/>
<path d="M153.155 254.477H131.852L158.795 219.018L153.155 254.477ZM148.222 276.502C147.58 280.145 143.913 282.566 139.301 283.772L134.54 284.962L138.446 277.938C139.474 276.018 137.221 274.885 134.762 277.749C118.204 296.976 112.934 306.192 87.405 306.249L80.548 306.265C78.4761 306.265 76.1987 305.461 77.6046 303.475L86.6404 286.694H120.933C125.612 286.694 124.411 283.182 121.657 283.083C119.848 283.026 117.859 281.983 116.453 279.768C116.066 279.152 115.211 276.715 116.551 274.836L129.681 257.423H151.518L148.221 276.502H148.222ZM199.04 283.083C197.232 283.026 196.064 281.778 195.661 280.588C195.086 278.857 195.127 275.812 195.834 274.467L227.06 219.182C227.57 218.165 228.836 216.015 230.39 216.031C233.144 216.039 234.337 212.42 229.667 212.42H204.656C199.978 212.42 199.928 215.965 204.409 215.965C206.243 215.965 206.958 217.754 206.448 218.846L199.534 231.344C198.671 232.722 196.755 232.821 194.74 232.821L188.78 232.804C188.369 232.804 188.031 233.141 188.031 233.559C188.031 233.97 188.368 234.306 188.78 234.306H194.691C196.294 234.306 197.569 234.782 196.64 236.645L173.586 278.553C171.925 280.859 168.62 281.368 168.809 276.961L177.006 215.571C177.327 213.651 176.817 212.355 174.77 212.355L162.404 212.371C160.933 212.371 160.02 213.093 159.313 214.045L154.889 219.592C154.314 220.167 153.064 220.167 151.691 220.167L141.315 220.15C140.904 220.15 140.567 220.487 140.567 220.897C140.567 221.308 140.904 221.644 141.315 221.644H149.784C151.288 221.644 153.048 221.997 152.415 222.703L140.526 237.63C140.164 238.048 139.005 238.163 138.298 238.163L134.943 238.146C134.532 238.146 134.187 238.483 134.187 238.885C134.187 239.312 134.532 239.648 134.943 239.648H137.747C138.61 239.648 138.618 240.075 138.265 240.461L127.092 254.477C126.516 255.018 125.398 255.133 124.304 255.133L114.446 255.125C114.027 255.125 113.698 255.453 113.698 255.872C113.698 255.97 113.717 256.067 113.755 256.158C113.792 256.249 113.847 256.331 113.917 256.401C113.987 256.47 114.069 256.525 114.16 256.562C114.251 256.6 114.348 256.619 114.447 256.618H122.915C124.198 256.618 125.192 256.856 124.518 257.718L108.625 277.61C105.641 281.401 91.2528 283.329 88.4574 283.329L142.187 182.977C142.705 181.82 144.694 180.064 146.766 180.064H158.17C163.555 180.064 163.399 176.486 158.721 176.486H101.366C96.6875 176.486 96.4984 180.064 101.884 180.064H112.498C115.507 180.064 116.486 181.885 115.704 183.362L114.192 186.128C113.674 187.031 112.967 187.392 110.056 187.392L91.2858 187.375C90.8747 187.375 90.5376 187.712 90.5376 188.122C90.5376 188.532 90.8747 188.869 91.2858 188.869H110.007C111.026 188.869 112.547 189.14 111.585 190.961L108.963 195.836C108.51 196.566 107.359 196.919 106.052 196.919L97.5343 196.903C97.115 196.903 96.7779 197.231 96.7779 197.649C96.7779 198.06 97.115 198.396 97.5343 198.396H106.003C107.22 198.396 107.244 199.2 106.545 200.316L100.502 211.526C99.9844 212.486 99.006 212.601 97.0821 212.601L93.6865 212.584C93.2755 212.584 92.9384 212.921 92.9384 213.339C92.9384 213.758 93.2754 214.094 93.6865 214.094H97.0328C98.3154 214.094 98.6525 214.808 98.077 216.015L93.111 225.214C92.371 226.535 91.3187 227.06 88.0135 227.06L69.2514 227.044C69.1532 227.043 69.0558 227.062 68.9649 227.1C68.8741 227.137 68.7915 227.192 68.7219 227.261C68.6524 227.331 68.5973 227.413 68.5597 227.504C68.5222 227.595 68.503 227.692 68.5032 227.79C68.5032 228.209 68.8321 228.545 69.2514 228.545H87.9642C90.0854 228.578 90.8665 229.514 90.0279 231.015L80.3426 249.192C79.7671 249.988 78.1803 250.111 75.4917 250.111L56.7297 250.095C56.3103 250.095 55.9732 250.431 55.9732 250.841C55.9732 251.252 56.3103 251.58 56.7296 251.58L75.4424 251.596C77.687 251.596 79.0518 251.687 78.3858 252.868L72.8032 263.347C71.7755 264.948 68.8979 264.948 67.7715 264.948L61.8189 264.931C61.4079 264.931 61.0707 265.251 61.0707 265.67C61.0707 266.088 61.4078 266.425 61.8189 266.425H67.7221C69.8023 266.425 70.9122 266.786 70.3613 267.91L62.9124 281.893C62.2382 283.141 59.3194 283.198 57.0749 283.198L28.0602 283.182C27.6492 283.182 27.3121 283.518 27.3121 283.928C27.3121 284.339 27.6491 284.675 28.0602 284.675L57.0256 284.683C58.9495 284.683 61.3749 284.921 60.487 286.448L55.7266 295.384C55.2744 296.123 53.6464 296.18 51.3115 296.18L45.3589 296.172C44.9396 296.172 44.6025 296.508 44.6025 296.919C44.6025 297.329 44.9395 297.665 45.3589 297.665H51.2621C52.7091 297.665 54.4604 297.829 53.8438 298.921L50.8757 304.624C49.9137 306.036 48.9518 307.291 46.6497 307.291H32.0888C26.7118 307.291 26.8926 310.885 31.5708 310.885L117.069 310.926C119.569 310.926 119.651 310.59 120.827 308.76L133.505 286.694H198.317C202.995 286.694 201.795 283.182 199.04 283.083ZM364.537 242.616C362.185 244.544 358.486 246.76 357.77 246.054C356.767 245.061 353.659 242.919 351.99 242.156L365.943 216.684C366.518 215.782 367.184 215.297 368.722 215.297C374.156 215.297 375.94 221.181 373.383 228.509C371.599 233.646 368.697 239.202 364.537 242.616ZM477.258 265.453C476.904 263.705 476.263 264.764 475.112 266.971C474.758 267.636 473.632 267.652 472.514 267.652L469.085 267.669C468.674 267.669 468.337 268.005 468.337 268.416C468.337 268.826 468.674 269.162 469.085 269.162H472.456C473.739 269.162 473.755 270.016 473.155 271.296C470.803 276.318 468.37 279.683 465.147 283.695C464.637 284.344 463.338 284.877 462.31 284.877L458.874 284.902C458.454 284.902 458.117 285.221 458.117 285.648C458.117 286.059 458.454 286.395 458.874 286.395H462.236C463.938 286.395 462.22 287.437 461.932 287.823C455.955 295.783 451.836 299.336 447.437 302.898C446.927 303.308 444.444 303.168 442.71 303.16L439.322 303.177C438.903 303.177 438.566 303.505 438.566 303.923C438.566 304.334 438.903 304.67 439.322 304.67H442.668C445.225 304.67 443.31 306.139 442.923 306.459C433.608 314.206 419.721 316.708 413.382 315.912C392.754 313.336 388.512 297.719 386.991 291.475C386.67 290.17 385.683 287.503 385.354 285.845C384.721 282.579 394.02 281.652 396.585 283.367C400.491 285.968 409.568 288.627 416.712 288.66C423.323 288.685 436.847 283.892 440.761 272.551C444.765 260.973 434.702 248.105 430.245 243.666C424.572 237.995 419.22 228.977 421.473 222.355C423.175 217.374 426.028 215.109 432.128 215.109C440.013 215.109 445.752 220.164 445.752 227.344C445.752 227.984 445.357 228.747 444.839 228.747L442.052 228.764C441.641 228.764 441.304 229.1 441.304 229.51C441.304 229.921 441.641 230.257 442.052 230.257H444.675C445.406 230.257 445.867 230.815 445.678 231.71C445.16 234.114 444.995 235.804 444.469 238.217C444.165 239.612 446.22 240.58 446.927 239.555L459.318 217.472C460.214 215.806 458.224 215.363 456.752 215.872C453.365 217.053 447.84 217.858 445.891 216.454C441.254 213.147 437.036 211.006 430.558 211.006C419.549 211.006 411.828 213.714 406.879 222.765C406.501 223.471 405.415 223.462 404.487 223.462L402.374 223.454C402.274 223.454 402.176 223.473 402.084 223.511C401.992 223.549 401.909 223.604 401.838 223.674C401.768 223.745 401.712 223.828 401.674 223.92C401.636 224.012 401.617 224.11 401.617 224.209C401.617 224.62 401.954 224.956 402.374 224.956L404.174 224.94C404.939 224.94 405.457 225.153 405.07 226.039C404.725 226.86 404.429 227.721 404.141 228.608C402.883 232.522 403.294 238.012 405.251 242.919C405.383 243.239 404.972 243.395 404.215 243.387L400.836 243.403C400.425 243.403 400.088 243.74 400.088 244.15C400.088 244.569 400.425 244.905 400.836 244.905H404.199C405.736 244.905 406.09 245.061 406.731 245.955C408.466 248.393 410.25 250.206 412.495 253.045C413.193 253.948 410.184 254.194 408.581 254.178H395.229C395.13 254.178 395.033 254.197 394.942 254.234C394.851 254.271 394.769 254.326 394.699 254.396C394.63 254.465 394.575 254.547 394.537 254.638C394.5 254.729 394.48 254.826 394.481 254.925C394.481 255.343 394.809 255.671 395.229 255.671L408.754 255.655C410.932 255.655 414.657 255.622 415.076 256.098C418.348 259.865 422.303 265.675 422.969 270.557C423.166 271.969 422.632 272.551 420.897 272.551H419.088C418.677 272.551 418.34 272.888 418.34 273.306C418.34 273.725 418.677 274.053 419.088 274.053H420.683C422.056 274.053 422.813 274.266 422.492 275.292C420.741 280.897 418.11 284.943 407.405 284.877C396.183 284.828 393.897 273.848 397.185 262.392C397.835 260.111 397.153 259.134 396.133 260.915L388.322 273.175C388.125 273.462 387.369 274.16 386.185 274.16L385.075 274.152C384.664 274.152 384.327 274.488 384.327 274.907C384.327 275.317 384.672 275.645 385.083 275.645C386.078 275.645 386.464 276.178 386.086 276.72L383.208 281.184C378.497 270.41 370.588 257.14 366.37 252.307L366.444 252.077C376.845 251.445 392.203 241.721 394.711 233.023C399.076 217.932 384.392 212.351 376.393 212.351L341.212 212.368C336.542 212.368 336.196 215.896 340.685 215.896C343.103 215.896 345.224 218.014 344.147 220.155L336.353 234.171C335.711 235.328 333.302 235.255 330.161 235.255H326.75C326.338 235.255 326.001 235.591 326.001 236.001C326.001 236.412 326.338 236.748 326.75 236.748H330.104C332.349 236.748 334.815 236.888 333.985 238.488L324.776 255.081C324.324 255.852 323.132 255.926 319.991 255.926L316.596 255.934C316.185 255.934 315.847 256.27 315.847 256.681C315.847 257.099 316.184 257.436 316.596 257.436L319.917 257.428C322.392 257.428 323.313 257.756 322.606 259.036L310.298 281.25C308.826 282.85 307.075 283.145 304.066 283.145C299.585 283.145 299.634 286.69 304.312 286.69H334.437C339.115 286.69 337.923 283.08 335.169 283.08C333.549 283.088 331.831 280.109 332.908 278.328L348.291 249.246H349.853C356.693 249.246 358.346 260.447 359.637 272.683C359.727 273.553 358.05 273.594 354.646 273.594L346.095 273.602C345.684 273.602 345.347 273.938 345.347 274.365C345.347 274.775 345.684 275.103 346.095 275.103H354.556C356.8 275.103 359.941 275.128 360.015 275.85C360.607 281.217 361.051 285.936 362.07 290.236C362.399 291.581 359.998 291.368 357.433 291.368L346.547 291.393C346.128 291.393 345.799 291.729 345.799 292.131C345.799 292.55 346.128 292.886 346.547 292.886L357.425 292.903C360.845 292.903 362.605 292.894 362.802 293.6C367.488 310.751 387.582 324.25 407.126 323.503C423.89 322.863 438.048 313.762 445.299 307.961C454.952 300.231 469.118 284.056 474.881 272.297C475.942 270.139 477.644 267.373 477.258 265.453" fill="#542582"/>
<path d="M194.886 189.717C192.066 193.369 188.317 194.296 184.115 194.296H182.923L190.339 179.648C190.693 178.976 191.474 178.459 192.436 178.459C193.365 178.459 193.258 176.604 192.041 176.604H180.358C179.363 176.604 179.01 178.459 179.939 178.459C180.934 178.459 181.123 179.558 180.638 180.477L174.003 193.55C173.559 194.255 172.819 194.436 172.005 194.641C171.026 194.895 170.344 196.66 171.462 196.66H190.117C191.556 196.66 191.893 196.126 192.271 195.617L196.021 189.824C196.563 189.118 195.429 189.012 194.886 189.717ZM251.065 177.119C250.498 177.423 249.166 177.603 248.591 177.119C247.103 175.88 244.176 174.928 242.646 174.928C238.248 174.928 235.058 175.798 233.15 179.942C231.514 183.463 233.191 186.425 237.072 188.214C238.749 188.985 240.977 190.003 240.122 192.022C239.497 193.499 237.779 193.655 236.225 193.638C234.145 193.622 231.013 192.054 230.527 189.125C230.363 188.165 229.245 188.378 228.924 188.903L226.277 194.172C225.857 194.877 226.951 195.665 227.387 195.197C228.283 194.245 230.231 194.016 231.193 194.656C232.517 195.526 235.913 197.077 237.943 197.06C242.4 197.027 245.335 195.878 247.769 192.063C250.005 188.591 248.632 185.137 244.57 183.216C242.416 182.207 240.583 180.418 241.545 178.457C242.161 177.177 244.077 177.448 245.031 177.62C246.848 177.923 249.174 179.63 249.446 181.124C249.561 181.764 250.375 181.887 250.728 181.321L252.126 178.055C252.447 177.423 251.419 176.931 251.065 177.119ZM380.479 182.368L382.099 179.381C382.806 178.068 381.646 176.583 379.788 176.583H358.009C356.438 176.583 356.899 178.216 357.54 178.216C358.938 178.216 359.357 179.914 358.51 181.35L351.957 193.381C350.979 194.521 350.354 195.022 348.957 195.022C347.838 195.022 347.436 196.655 349.006 196.655H371.081C371.969 196.655 372.364 196.335 372.685 195.892L375.686 191.912C376.417 190.952 374.839 190.952 374.354 191.428C370.547 195.235 366.469 195.12 363.509 195.12H360.936L363.961 188.391H364.603C366.543 188.391 368.779 188.367 369.371 189.844C369.527 190.188 370.489 190.476 370.868 189.844L373.441 184.698C373.86 183.935 372.701 183.796 372.389 184.346C371.369 186.159 366.896 185.675 365.721 185.675H365.079L368.845 178.265H373.038C375.644 178.265 377.889 180.103 378.621 182.114C378.802 182.59 380.191 182.975 380.479 182.368ZM272.809 186.183L280.069 180.258L280.102 186.183H272.809ZM324.762 176.582H317.009C315.439 176.582 315.907 178.215 316.549 178.215C318.201 178.215 319.706 180.151 318.802 181.94L315.595 187.8L308.516 177.468C308.039 176.828 306.921 176.516 305.967 176.516H298.337C296.767 176.516 297.137 178.141 297.778 178.141C299.39 178.141 298.979 179.347 298.576 180.209L292.5 191.886C292.114 192.83 290.461 192.953 289.943 191.771L285.24 176.475C285.043 175.868 282.297 175.901 281.598 176.475L269.808 186.175L263.707 186.183C262.49 186.183 262.014 186.684 262.014 187.324C262.014 187.964 262.474 188.546 263.757 188.546L266.947 188.538L263.757 191.164C261.981 192.485 260.164 194.299 258.955 194.299H258.215C257.056 194.299 256.414 194.479 256.414 195.407C256.414 196.334 256.9 196.654 257.985 196.654H267.498C269.282 196.654 268.936 194.323 268.04 194.323C267.062 194.323 265.434 193.076 266.938 191.312L269.841 188.546H275.563C278.951 188.546 281.327 192.477 279.304 193.683L277.734 194.553C277.002 194.931 276.673 196.654 277.734 196.654H296.315C297.688 196.654 297.408 194.84 296.767 194.84C294.868 194.84 295.764 192.108 296.126 191.377L301.009 182.154L307.866 195.407C308.31 196.252 308.713 196.654 309.519 196.654H312.142C312.98 196.654 313.252 196.178 313.646 195.538L321.449 181.464C322.707 178.953 323.669 178.223 325.247 178.223C325.889 178.223 326.333 176.582 324.762 176.582ZM216.589 188.243C214.517 192.37 211.048 194.816 208.844 193.716C206.632 192.608 206.526 188.366 208.589 184.246C210.661 180.119 214.131 177.673 216.342 178.773C218.546 179.872 218.661 184.115 216.589 188.243ZM214.739 175.696C208.211 175.696 201.477 178.912 200.137 185.756C198.97 191.706 203.089 197.885 210.39 197.885C217.329 197.885 223.742 193.347 225.033 186.774C226.324 180.176 221.399 175.696 214.739 175.696ZM346.849 185.678H338.454C336.884 185.678 337.344 187.311 337.985 187.311C338.651 187.311 339.268 187.664 339.268 188.715C339.268 192.104 337.821 193.408 334.91 193.408C331.712 193.408 330.561 189.543 332.715 184.8C334.088 181.764 337.722 178.933 342.039 178.933C344.678 178.933 346.898 179.499 347.235 181.977C347.317 182.576 348.23 182.576 348.55 182.01L350.54 178.44C350.762 178.063 350.417 177.612 349.808 177.579C349.298 177.546 348.148 178.194 347.391 177.644C345.714 176.389 342.055 175.191 339.301 175.191C334.795 175.191 328.506 176.208 324.255 183.561C320.415 190.224 326.006 197.265 331.194 197.273C334.08 197.282 337.426 195.148 339.342 194.352L341.48 195.788C341.8 196.174 342.475 196.65 343.116 196.65H343.913C344.653 196.65 344.941 195.657 345.229 195.017L348.517 187.057C348.937 186.261 348.707 185.678 346.849 185.678ZM461.817 177.119C461.25 177.423 459.918 177.603 459.342 177.119C457.854 175.88 454.927 174.928 453.398 174.928C449.007 174.928 445.809 175.798 443.902 179.942C442.266 183.463 443.943 186.425 447.823 188.214C449.501 188.985 451.737 190.003 450.874 192.022C450.249 193.499 448.531 193.655 446.977 193.638C444.897 193.622 441.772 192.054 441.279 189.125C441.123 188.165 440.005 188.378 439.684 188.903L437.02 194.172C436.609 194.877 437.703 195.665 438.138 195.197C439.034 194.245 440.991 194.016 441.945 194.656C443.269 195.526 446.664 197.077 448.695 197.06C453.151 197.027 456.086 195.878 458.528 192.063C460.756 188.591 459.383 185.137 455.322 183.216C453.168 182.207 451.334 180.418 452.296 178.457C452.921 177.177 454.837 177.448 455.79 177.62C457.599 177.923 459.926 179.63 460.197 181.124C460.312 181.764 461.126 181.887 461.48 181.321L462.886 178.055C463.198 177.423 462.17 176.931 461.817 177.119ZM403.462 189.717C400.642 193.369 396.893 194.296 392.691 194.296H391.499L398.915 179.648C399.269 178.976 400.05 178.459 401.012 178.459C401.941 178.459 401.826 176.604 400.609 176.604H388.934C387.939 176.604 387.586 178.459 388.515 178.459C389.51 178.459 389.691 179.558 389.214 180.477L382.579 193.55C382.127 194.255 381.395 194.436 380.581 194.641C379.594 194.895 378.92 196.66 380.038 196.66H398.685C400.132 196.66 400.461 196.126 400.848 195.617L404.597 189.824C405.139 189.118 404.005 189.012 403.462 189.717ZM431.588 178.265C434.194 178.265 436.439 180.103 437.171 182.114C437.352 182.59 438.741 182.967 439.029 182.368L440.657 179.381C441.355 178.076 440.196 176.583 438.338 176.583H416.559C414.988 176.583 415.457 178.207 416.09 178.207C417.488 178.207 417.907 179.914 417.06 181.35L410.516 193.38C409.537 194.521 408.904 195.022 407.506 195.022C406.388 195.022 405.985 196.655 407.564 196.655H429.623C430.527 196.655 430.914 196.335 431.243 195.883L434.235 191.903C434.975 190.96 433.389 190.96 432.912 191.427C429.097 195.235 425.019 195.128 422.059 195.128H419.486L422.511 188.383H423.152C425.093 188.383 427.329 188.367 427.913 189.835C428.077 190.188 429.031 190.476 429.417 189.835L431.999 184.69C432.41 183.927 431.243 183.804 430.938 184.346C429.919 186.167 425.446 185.675 424.271 185.675H423.629L427.387 178.265H431.588L431.588 178.265Z" fill="#542582"/>
<path d="M254.615 248.57L248.728 248.521C248.309 248.521 247.972 248.857 247.972 249.267C247.972 249.678 248.309 250.014 248.728 250.014L254.697 249.957C256.711 249.957 258.57 250.211 258.06 251.106L242.586 280.598C240.662 284.119 236.593 283.224 235.943 280.418L228.28 240.889L255.231 220.013C257.912 217.715 263.059 213.973 265.698 214.022L271.576 213.989C275.153 213.965 276.419 215.639 275.58 217.789L274.544 219.791C273.87 220.907 271.749 221.047 269.957 221.047H266.561C266.15 221.047 265.813 221.383 265.813 221.81C265.813 222.22 266.15 222.557 266.561 222.557H269.907C271.354 222.557 273.171 222.589 272.505 223.673L260 247.47C259.425 248.398 256.827 248.57 254.615 248.57ZM301.249 263.251C288.637 278.514 281.492 283.741 268.682 283.741C264.325 283.741 262.056 282.765 263.272 280.656L278.466 250.17H284.263C290.733 250.17 289.837 255.603 288.078 262.963C287.757 263.997 288.546 264.063 289.319 263.16L303.765 237.828C304.464 236.236 302.647 235.916 301.75 237.139C294.515 246.929 286.902 246.207 283.695 246.207H281.081L297.294 215.294H303.839C312.077 215.811 315.916 222.794 313.532 239.617H316.961L328.882 216.148C329.844 214.17 327.805 212.356 325.561 212.356L244.609 212.389C239.931 212.389 239.725 215.967 244.206 215.967C247.848 215.967 247.659 221.186 244.387 223.705L210.028 250.933L216.959 283.093C217.477 285.522 219.031 286.679 221.728 286.679H288.661C291.424 286.679 292.558 285.555 293.455 284.406L305.582 263.505C307.251 260.502 303.37 260.69 301.249 263.251" fill="#542582"/>
<mask id="mask0" mask-type="alpha" maskUnits="userSpaceOnUse" x="104" y="176" width="129" height="135">
<path d="M119.207 310.926C109.952 292.396 104.737 271.443 104.737 249.255C104.737 222.512 112.313 197.561 125.408 176.486H232.815V310.926H119.207Z" fill="white"/>
</mask>
<g mask="url(#mask0)">
<path d="M153.155 254.477H131.852L158.795 219.018L153.155 254.477ZM148.222 276.502C147.58 280.145 143.913 282.566 139.301 283.772L134.541 284.962L138.446 277.938C139.474 276.018 137.221 274.885 134.763 277.749C118.204 296.976 112.934 306.192 87.405 306.249L80.548 306.265C78.4762 306.265 76.1987 305.461 77.6047 303.475L86.6404 286.694H120.933C125.612 286.694 124.411 283.182 121.657 283.083C119.848 283.026 117.859 281.983 116.453 279.768C116.066 279.152 115.211 276.715 116.551 274.836L129.682 257.423H151.519L148.222 276.502H148.222ZM199.041 283.083C197.232 283.026 196.064 281.778 195.661 280.588C195.086 278.857 195.127 275.812 195.834 274.467L227.06 219.182C227.57 218.165 228.836 216.015 230.39 216.031C233.144 216.039 234.337 212.42 229.667 212.42H204.656C199.978 212.42 199.928 215.965 204.409 215.965C206.243 215.965 206.958 217.754 206.448 218.846L199.534 231.344C198.671 232.722 196.755 232.821 194.741 232.821L188.78 232.804C188.369 232.804 188.032 233.141 188.032 233.559C188.032 233.97 188.369 234.306 188.78 234.306H194.691C196.294 234.306 197.569 234.782 196.64 236.645L173.586 278.553C171.925 280.859 168.62 281.368 168.809 276.961L177.006 215.571C177.327 213.651 176.817 212.355 174.77 212.355L162.404 212.371C160.933 212.371 160.02 213.093 159.313 214.045L154.89 219.592C154.314 220.167 153.064 220.167 151.691 220.167L141.315 220.15C140.904 220.15 140.567 220.487 140.567 220.897C140.567 221.308 140.904 221.644 141.315 221.644H149.784C151.288 221.644 153.048 221.997 152.415 222.703L140.526 237.63C140.164 238.048 139.005 238.163 138.298 238.163L134.943 238.147C134.532 238.147 134.187 238.483 134.187 238.885C134.187 239.312 134.532 239.648 134.943 239.648H137.747C138.61 239.648 138.619 240.075 138.265 240.461L127.092 254.477C126.516 255.018 125.398 255.133 124.304 255.133L114.446 255.125C114.027 255.125 113.698 255.453 113.698 255.872C113.698 255.97 113.717 256.067 113.755 256.158C113.792 256.249 113.847 256.331 113.917 256.401C113.987 256.47 114.069 256.525 114.16 256.563C114.251 256.6 114.348 256.619 114.447 256.619H122.915C124.198 256.619 125.192 256.857 124.518 257.718L108.626 277.61C105.641 281.401 91.2528 283.329 88.4575 283.329L142.187 182.977C142.705 181.82 144.694 180.064 146.766 180.064H158.17C163.555 180.064 163.399 176.486 158.721 176.486H101.366C96.6874 176.486 96.4983 180.064 101.884 180.064H112.498C115.507 180.064 116.486 181.885 115.704 183.362L114.192 186.128C113.674 187.031 112.967 187.392 110.056 187.392L91.2857 187.375C90.8747 187.375 90.5375 187.712 90.5375 188.122C90.5375 188.532 90.8746 188.869 91.2857 188.869H110.007C111.026 188.869 112.547 189.14 111.585 190.961L108.963 195.836C108.51 196.566 107.359 196.919 106.052 196.919L97.5343 196.903C97.115 196.903 96.7779 197.231 96.7779 197.649C96.7779 198.06 97.1149 198.396 97.5343 198.396H106.003C107.22 198.396 107.244 199.2 106.545 200.316L100.502 211.526C99.9843 212.486 99.006 212.601 97.0821 212.601L93.6865 212.584C93.2754 212.584 92.9383 212.921 92.9383 213.339C92.9383 213.758 93.2753 214.094 93.6865 214.094H97.0327C98.3153 214.094 98.6524 214.808 98.0769 216.015L93.1109 225.214C92.3709 226.535 91.3186 227.06 88.0134 227.06L69.2514 227.044C69.1532 227.043 69.0558 227.062 68.9649 227.1C68.874 227.137 68.7914 227.192 68.7219 227.261C68.6523 227.331 68.5972 227.413 68.5596 227.504C68.5221 227.595 68.5029 227.692 68.5031 227.79C68.5031 228.209 68.8321 228.545 69.2513 228.545H87.9641C90.0853 228.578 90.8664 229.514 90.0278 231.015L80.3425 249.192C79.767 249.988 78.1802 250.111 75.4917 250.111L56.7295 250.095C56.3102 250.095 55.9731 250.431 55.9731 250.841C55.9731 251.252 56.3102 251.58 56.7295 251.58L75.4423 251.596C77.6869 251.596 79.0517 251.687 78.3857 252.868L72.8031 263.347C71.7754 264.948 68.8978 264.948 67.7714 264.948L61.8188 264.931C61.4078 264.931 61.0706 265.251 61.0706 265.67C61.0706 266.088 61.4077 266.425 61.8188 266.425H67.7221C69.8021 266.425 70.9121 266.786 70.3613 267.91L62.9123 281.893C62.2381 283.141 59.3194 283.198 57.0748 283.198L28.0602 283.182C27.6491 283.182 27.312 283.518 27.312 283.928C27.312 284.339 27.649 284.675 28.0602 284.675L57.0255 284.683C58.9495 284.683 61.3748 284.921 60.4869 286.448L55.7265 295.384C55.2743 296.123 53.6464 296.18 51.3114 296.18L45.3588 296.172C44.9395 296.172 44.6024 296.508 44.6024 296.919C44.6024 297.329 44.9394 297.665 45.3588 297.665H51.262C52.709 297.665 54.4603 297.83 53.8437 298.921L50.8757 304.624C49.9137 306.036 48.9517 307.291 46.6497 307.291H32.0888C26.7118 307.291 26.8927 310.886 31.5708 310.886L117.069 310.927C119.569 310.927 119.651 310.59 120.827 308.76L133.505 286.694H198.317C202.995 286.694 201.795 283.182 199.041 283.083V283.083Z" fill="#542582"/>
</g>
<mask id="mask1" mask-type="alpha" maskUnits="userSpaceOnUse" x="300" y="211" width="75" height="113">
<path d="M353.087 323.533C366.766 302.144 374.708 276.639 374.708 249.255C374.708 235.978 372.841 223.144 369.359 211.005H300.753V323.533H353.087Z" fill="white"/>
</mask>
<g mask="url(#mask1)">
<path d="M364.537 242.615C362.185 244.544 358.486 246.759 357.77 246.054C356.767 245.061 353.659 242.919 351.99 242.156L365.943 216.684C366.518 215.781 367.184 215.297 368.722 215.297C374.156 215.297 375.94 221.181 373.383 228.509C371.599 233.646 368.697 239.202 364.537 242.615ZM477.257 265.453C476.904 263.705 476.263 264.764 475.112 266.971C474.758 267.636 473.632 267.652 472.514 267.652L469.085 267.669C468.674 267.669 468.337 268.005 468.337 268.415C468.337 268.826 468.674 269.162 469.085 269.162H472.456C473.739 269.162 473.755 270.016 473.155 271.296C470.803 276.318 468.37 279.682 465.147 283.695C464.637 284.343 463.338 284.877 462.31 284.877L458.874 284.901C458.454 284.901 458.117 285.221 458.117 285.648C458.117 286.059 458.454 286.395 458.874 286.395H462.236C463.938 286.395 462.22 287.437 461.932 287.823C455.955 295.783 451.836 299.336 447.437 302.897C446.927 303.308 444.444 303.168 442.709 303.16L439.322 303.176C438.903 303.176 438.566 303.505 438.566 303.923C438.566 304.334 438.903 304.67 439.322 304.67H442.668C445.225 304.67 443.31 306.139 442.923 306.459C433.608 314.205 419.721 316.708 413.382 315.912C392.754 313.336 388.511 297.719 386.99 291.475C386.67 290.17 385.683 287.503 385.354 285.845C384.721 282.579 394.02 281.652 396.585 283.367C400.491 285.968 409.567 288.627 416.712 288.66C423.323 288.684 436.847 283.892 440.761 272.551C444.765 260.972 434.701 248.105 430.245 243.666C424.572 237.995 419.22 228.977 421.473 222.355C423.175 217.373 426.027 215.109 432.128 215.109C440.013 215.109 445.752 220.164 445.752 227.344C445.752 227.984 445.357 228.747 444.839 228.747L442.052 228.763C441.641 228.763 441.304 229.1 441.304 229.51C441.304 229.921 441.641 230.257 442.052 230.257H444.675C445.406 230.257 445.867 230.815 445.678 231.709C445.16 234.114 444.995 235.804 444.469 238.217C444.165 239.612 446.22 240.58 446.927 239.555L459.318 217.472C460.214 215.806 458.224 215.363 456.752 215.872C453.365 217.053 447.84 217.858 445.891 216.454C441.254 213.147 437.036 211.005 430.558 211.005C419.549 211.005 411.828 213.713 406.879 222.765C406.501 223.471 405.415 223.462 404.486 223.462L402.373 223.454C402.274 223.454 402.176 223.473 402.084 223.511C401.992 223.549 401.909 223.604 401.838 223.674C401.768 223.745 401.712 223.828 401.674 223.92C401.636 224.012 401.617 224.11 401.617 224.209C401.617 224.619 401.954 224.956 402.373 224.956L404.174 224.939C404.939 224.939 405.457 225.153 405.07 226.039C404.725 226.86 404.429 227.721 404.141 228.608C402.883 232.522 403.294 238.012 405.251 242.919C405.383 243.239 404.971 243.395 404.215 243.387L400.836 243.403C400.425 243.403 400.088 243.74 400.088 244.15C400.088 244.568 400.425 244.905 400.836 244.905H404.199C405.736 244.905 406.09 245.061 406.731 245.955C408.466 248.392 410.25 250.206 412.494 253.045C413.193 253.948 410.184 254.194 408.581 254.178H395.229C395.13 254.177 395.033 254.196 394.942 254.234C394.851 254.271 394.769 254.326 394.699 254.396C394.63 254.465 394.575 254.547 394.537 254.638C394.499 254.729 394.48 254.826 394.48 254.925C394.48 255.343 394.809 255.671 395.229 255.671L408.754 255.655C410.932 255.655 414.657 255.622 415.076 256.098C418.348 259.865 422.303 265.675 422.969 270.557C423.166 271.969 422.632 272.551 420.897 272.551H419.088C418.677 272.551 418.34 272.888 418.34 273.306C418.34 273.725 418.677 274.053 419.088 274.053H420.683C422.056 274.053 422.813 274.266 422.492 275.292C420.741 280.897 418.11 284.942 407.405 284.877C396.182 284.828 393.897 273.848 397.185 262.392C397.835 260.111 397.153 259.134 396.133 260.915L388.322 273.175C388.125 273.462 387.369 274.16 386.185 274.16L385.075 274.151C384.664 274.151 384.327 274.488 384.327 274.906C384.327 275.317 384.672 275.645 385.083 275.645C386.078 275.645 386.464 276.178 386.086 276.72L383.209 281.184C378.497 270.409 370.588 257.14 366.37 252.307L366.444 252.077C376.845 251.445 392.203 241.721 394.711 233.023C399.076 217.931 384.392 212.351 376.393 212.351L341.211 212.368C336.541 212.368 336.196 215.896 340.685 215.896C343.102 215.896 345.224 218.013 344.147 220.155L336.352 234.171C335.711 235.328 333.302 235.255 330.161 235.255H326.749C326.338 235.255 326.001 235.591 326.001 236.001C326.001 236.412 326.338 236.748 326.749 236.748H330.104C332.348 236.748 334.815 236.888 333.984 238.488L324.776 255.08C324.324 255.852 323.132 255.926 319.991 255.926L316.595 255.934C316.184 255.934 315.847 256.27 315.847 256.681C315.847 257.099 316.184 257.436 316.595 257.436L319.917 257.427C322.392 257.427 323.313 257.756 322.606 259.036L310.298 281.25C308.826 282.85 307.075 283.145 304.065 283.145C299.585 283.145 299.634 286.69 304.312 286.69H334.437C339.115 286.69 337.923 283.08 335.169 283.08C333.549 283.088 331.831 280.109 332.908 278.328L348.29 249.246H349.852C356.693 249.246 358.346 260.447 359.636 272.683C359.727 273.552 358.05 273.593 354.646 273.593L346.095 273.602C345.684 273.602 345.347 273.938 345.347 274.365C345.347 274.775 345.684 275.103 346.095 275.103H354.555C356.8 275.103 359.941 275.128 360.015 275.85C360.607 281.217 361.051 285.935 362.07 290.235C362.399 291.581 359.998 291.368 357.433 291.368L346.547 291.392C346.128 291.392 345.799 291.729 345.799 292.131C345.799 292.55 346.128 292.886 346.547 292.886L357.425 292.902C360.845 292.902 362.605 292.894 362.802 293.6C367.488 310.751 387.582 324.25 407.125 323.503C423.89 322.863 438.048 313.762 445.299 307.961C454.952 300.23 469.118 284.056 474.881 272.297C475.942 270.139 477.644 267.373 477.257 265.453" fill="#542582"/>
</g>
<path d="M194.886 189.717C192.066 193.369 188.317 194.296 184.115 194.296H182.923L190.339 179.648C190.693 178.976 191.474 178.459 192.436 178.459C193.365 178.459 193.258 176.604 192.041 176.604H180.358C179.363 176.604 179.01 178.459 179.939 178.459C180.934 178.459 181.123 179.558 180.638 180.477L174.003 193.55C173.559 194.255 172.819 194.436 172.005 194.641C171.026 194.895 170.344 196.66 171.462 196.66H190.117C191.556 196.66 191.893 196.126 192.271 195.618L196.021 189.824C196.563 189.118 195.429 189.012 194.886 189.717ZM251.065 177.119C250.498 177.423 249.166 177.603 248.591 177.119C247.103 175.88 244.176 174.928 242.646 174.928C238.248 174.928 235.058 175.798 233.15 179.942C231.514 183.463 233.191 186.425 237.072 188.214C238.749 188.985 240.977 190.003 240.122 192.022C239.497 193.499 237.779 193.655 236.225 193.638C234.145 193.622 231.013 192.054 230.527 189.125C230.363 188.165 229.245 188.378 228.924 188.903L226.277 194.172C225.857 194.877 226.951 195.665 227.387 195.197C228.283 194.245 230.231 194.016 231.193 194.656C232.517 195.526 235.913 197.077 237.943 197.06C242.4 197.027 245.335 195.878 247.769 192.063C250.005 188.591 248.632 185.137 244.57 183.216C242.416 182.207 240.583 180.418 241.545 178.457C242.161 177.177 244.077 177.448 245.031 177.62C246.848 177.923 249.174 179.63 249.446 181.124C249.561 181.764 250.375 181.887 250.728 181.321L252.126 178.055C252.447 177.423 251.419 176.931 251.065 177.119Z" fill="#542582"/>
<mask id="mask2" mask-type="alpha" maskUnits="userSpaceOnUse" x="347" y="176" width="18" height="21">
<path d="M364.365 196.655C361.5 189.693 358.066 182.98 354.098 176.583H347.969V196.655H364.365V196.655Z" fill="white"/>
</mask>
<g mask="url(#mask2)">
<path d="M380.479 182.368L382.099 179.381C382.806 178.068 381.646 176.583 379.788 176.583H358.009C356.438 176.583 356.899 178.216 357.54 178.216C358.938 178.216 359.357 179.914 358.51 181.35L351.958 193.381C350.979 194.521 350.354 195.022 348.957 195.022C347.838 195.022 347.436 196.655 349.006 196.655H371.081C371.969 196.655 372.364 196.335 372.685 195.892L375.686 191.912C376.417 190.952 374.839 190.952 374.354 191.428C370.547 195.235 366.469 195.12 363.509 195.12H360.936L363.961 188.391H364.603C366.543 188.391 368.779 188.367 369.371 189.844C369.527 190.188 370.489 190.476 370.868 189.844L373.441 184.699C373.86 183.935 372.701 183.796 372.389 184.346C371.369 186.159 366.896 185.675 365.721 185.675H365.079L368.845 178.265H373.038C375.644 178.265 377.889 180.103 378.621 182.114C378.802 182.59 380.191 182.975 380.479 182.368" fill="#542582"/>
</g>
<path d="M272.809 186.183L280.069 180.258L280.102 186.183H272.809ZM324.762 176.582H317.009C315.439 176.582 315.907 178.215 316.549 178.215C318.201 178.215 319.706 180.151 318.802 181.94L315.595 187.8L308.516 177.468C308.039 176.828 306.921 176.516 305.967 176.516H298.337C296.767 176.516 297.137 178.141 297.778 178.141C299.39 178.141 298.979 179.347 298.576 180.209L292.5 191.886C292.114 192.83 290.461 192.953 289.943 191.771L285.24 176.475C285.043 175.868 282.297 175.901 281.598 176.475L269.808 186.175L263.707 186.183C262.49 186.183 262.014 186.684 262.014 187.324C262.014 187.964 262.474 188.546 263.757 188.546L266.947 188.538L263.757 191.164C261.981 192.485 260.164 194.299 258.955 194.299H258.215C257.056 194.299 256.415 194.479 256.415 195.407C256.415 196.334 256.9 196.654 257.985 196.654H267.498C269.282 196.654 268.936 194.323 268.04 194.323C267.062 194.323 265.434 193.076 266.938 191.312L269.841 188.546H275.563C278.951 188.546 281.327 192.477 279.304 193.683L277.734 194.553C277.002 194.931 276.673 196.654 277.734 196.654H296.315C297.688 196.654 297.408 194.84 296.767 194.84C294.868 194.84 295.764 192.108 296.126 191.377L301.01 182.154L307.867 195.407C308.311 196.252 308.713 196.654 309.519 196.654H312.142C312.98 196.654 313.252 196.178 313.646 195.538L321.449 181.464C322.707 178.953 323.669 178.223 325.247 178.223C325.889 178.223 326.333 176.582 324.762 176.582ZM216.589 188.243C214.517 192.37 211.048 194.816 208.844 193.716C206.632 192.608 206.526 188.366 208.589 184.246C210.661 180.119 214.131 177.673 216.342 178.773C218.546 179.872 218.661 184.115 216.589 188.243ZM214.739 175.696C208.211 175.696 201.477 178.912 200.137 185.756C198.97 191.706 203.089 197.885 210.39 197.885C217.329 197.885 223.742 193.347 225.033 186.774C226.324 180.176 221.399 175.696 214.739 175.696ZM346.848 185.678H338.454C336.884 185.678 337.344 187.311 337.985 187.311C338.651 187.311 339.268 187.664 339.268 188.715C339.268 192.104 337.821 193.408 334.91 193.408C331.712 193.408 330.561 189.543 332.715 184.8C334.088 181.764 337.722 178.933 342.039 178.933C344.678 178.933 346.898 179.499 347.235 181.977C347.317 182.576 348.23 182.576 348.55 182.01L350.54 178.44C350.762 178.063 350.417 177.612 349.808 177.579C349.299 177.546 348.148 178.194 347.391 177.644C345.714 176.389 342.055 175.191 339.301 175.191C334.795 175.191 328.506 176.208 324.255 183.561C320.415 190.224 326.006 197.265 331.194 197.273C334.08 197.282 337.426 195.148 339.342 194.352L341.48 195.788C341.8 196.174 342.475 196.65 343.116 196.65H343.913C344.653 196.65 344.941 195.657 345.229 195.017L348.518 187.057C348.937 186.261 348.707 185.678 346.849 185.678H346.848ZM461.817 177.119C461.25 177.423 459.918 177.603 459.342 177.119C457.854 175.88 454.927 174.928 453.398 174.928C449.007 174.928 445.809 175.798 443.902 179.942C442.266 183.463 443.943 186.425 447.824 188.214C449.501 188.985 451.737 190.003 450.874 192.022C450.249 193.499 448.531 193.655 446.977 193.638C444.897 193.622 441.772 192.054 441.279 189.125C441.123 188.165 440.005 188.378 439.684 188.903L437.02 194.172C436.609 194.877 437.703 195.665 438.138 195.197C439.034 194.245 440.991 194.016 441.945 194.656C443.269 195.526 446.664 197.077 448.695 197.06C453.151 197.027 456.086 195.878 458.528 192.063C460.756 188.591 459.383 185.137 455.322 183.216C453.168 182.207 451.334 180.418 452.296 178.457C452.921 177.177 454.837 177.448 455.79 177.62C457.599 177.923 459.926 179.63 460.197 181.124C460.312 181.764 461.126 181.887 461.48 181.321L462.886 178.055C463.198 177.423 462.171 176.931 461.817 177.119H461.817ZM403.462 189.717C400.642 193.369 396.893 194.296 392.692 194.296H391.499L398.915 179.648C399.269 178.976 400.05 178.459 401.012 178.459C401.941 178.459 401.826 176.604 400.609 176.604H388.934C387.939 176.604 387.586 178.459 388.515 178.459C389.51 178.459 389.691 179.558 389.214 180.477L382.579 193.55C382.127 194.255 381.395 194.436 380.581 194.641C379.594 194.895 378.92 196.66 380.038 196.66H398.685C400.132 196.66 400.461 196.126 400.848 195.618L404.597 189.824C405.139 189.118 404.005 189.012 403.462 189.717ZM431.588 178.265C434.194 178.265 436.439 180.103 437.171 182.114C437.352 182.59 438.741 182.967 439.029 182.368L440.657 179.381C441.355 178.076 440.196 176.583 438.338 176.583H416.559C414.988 176.583 415.457 178.207 416.09 178.207C417.488 178.207 417.907 179.914 417.06 181.35L410.516 193.38C409.537 194.521 408.904 195.022 407.506 195.022C406.388 195.022 405.985 196.655 407.564 196.655H429.623C430.527 196.655 430.914 196.335 431.243 195.883L434.235 191.903C434.975 190.96 433.389 190.96 432.912 191.427C429.097 195.235 425.019 195.128 422.059 195.128H419.486L422.511 188.383H423.152C425.093 188.383 427.329 188.367 427.913 189.835C428.077 190.188 429.031 190.476 429.417 189.835L431.999 184.69C432.41 183.927 431.243 183.804 430.938 184.346C429.919 186.167 425.446 185.675 424.271 185.675H423.629L427.387 178.265H431.588L431.588 178.265Z" fill="#542582"/>
<path d="M263.17 126.408C252.892 125.678 244.498 125.382 237.156 126.154C239.285 120.803 243.536 115.806 246.816 113.615C253.813 113.902 261.048 114.919 266.771 116.052C285.105 119.662 313.594 130.806 325.869 147.251C309.508 136.345 282.318 127.77 263.17 126.408ZM232.395 126.794C226.213 127.171 215.015 129.6 211.019 130.757C209.991 128.066 207.163 119.753 206.258 117.069C217.629 113.853 230.85 112.728 241.02 113.615C238.192 115.789 233.423 124.356 232.395 126.794ZM180.631 142.008C179.365 139.874 173.338 134.392 170.074 133.309C177.671 127.688 195.315 119.63 202.008 118.226C203.167 120.138 206.258 128.328 207.286 131.775C201.366 133.055 185.655 138.684 180.631 142.008H180.631ZM345.831 160.677C344.154 158.756 341.836 154.67 325.228 140.219C300.809 118.973 268.448 109.274 238.06 109.274C215.656 109.274 196.047 114.288 174.325 126.236C146.642 141.433 135.181 158.912 132.353 162.466C130.264 165.083 129.968 166.61 131.317 167.389C132.287 167.947 134.145 165.912 135.888 163.614C144.118 152.766 154.946 142.008 166.342 135.681C169.885 136.19 174.843 141.113 176.767 143.731C169.474 147.703 157.396 156.877 152.825 160.422C148.87 163.475 147.505 165.19 148.574 166.429C149.454 167.463 152.48 165.428 155.012 163.36C159.386 159.782 172.393 150.575 178.831 147.12C183.213 152.241 181.79 161.694 180.245 163.746C179.414 164.845 179.299 166.019 180.245 166.56C181.149 167.069 182.127 165.773 183.402 163.934C186.386 159.634 185.194 149.213 182.629 145.462C190.481 140.596 201.753 137.338 208.577 135.804C209.152 136.895 217.424 161.021 219.002 165.403C219.865 167.808 220.721 170.68 222.48 170.138C223.647 169.777 222.875 167.151 221.896 164.509C220.696 161.243 214.431 140.982 212.499 134.975C214.76 133.761 228.35 131.003 231.754 131.135C230.077 139.964 236.334 143.583 243.404 148.212C247.162 150.673 271.054 164.369 276.045 167.455C278.89 169.211 281.101 170.343 281.71 169.498C282.408 168.554 280.468 166.56 277.845 165.026C275.749 163.803 253.525 150.928 244.235 145.077C237.592 140.883 234.015 136.395 235.61 130.495C237.805 129.863 244.498 129.805 251.454 129.863C298.836 130.24 336.82 157.353 341.071 161.694C343.217 163.902 346.218 165.789 347.377 164.895C348.109 164.328 346.843 161.834 345.831 160.677V160.677ZM356.082 322.577C357.834 319.361 359.256 317.531 357.76 316.702C356.387 315.939 355.046 318.926 353.377 321.814C347.844 331.399 341.801 339.318 328.145 351.742C313.017 365.487 295.628 373.472 289.585 375.523C284.43 361.072 264.796 299.526 264.278 297.77C263.505 295.153 262.847 294.389 261.959 294.709C260.964 295.062 261.573 296.49 262.091 298.796C262.601 301.094 285.975 373.923 286.748 376.475C282.111 378.789 263.275 384.033 250.112 384.468C238.404 384.854 224.624 384.468 217.669 382.876C209.521 376.303 190.981 350.175 183.943 336.265C175.647 319.869 170.155 304.787 168.741 298.402C168.058 295.341 167.187 293.134 165.649 293.421C163.989 293.741 164.942 296.162 165.912 299.444C168.404 307.864 172.473 319.804 181.106 336.84C190.257 354.877 206.594 376.032 211.354 381.784C196.432 378.658 178.286 371.683 161.045 358.857C146.197 347.803 133.436 333.73 127.023 323.48C125.922 321.716 124.631 319.221 123.036 320.28C122.312 320.756 123.2 322.75 124.318 324.76C133.634 341.46 156.359 365.11 185.48 378.083C219.42 393.199 256.426 392.395 289.519 379.61C318.459 368.425 343.643 345.415 356.082 322.577Z" fill="#2D2925"/>
<mask id="mask3" mask-type="alpha" maskUnits="userSpaceOnUse" x="130" y="112" width="218" height="59">
<path d="M347.595 167.021C322.96 133.898 283.809 112.484 239.714 112.484C194.818 112.484 155.037 134.699 130.497 168.874V170.205H347.595V167.021H347.595Z" fill="white"/>
</mask>
<g mask="url(#mask3)">
<path d="M263.17 126.408C252.892 125.678 244.498 125.382 237.156 126.153C239.285 120.803 243.536 115.806 246.816 113.615C253.813 113.902 261.048 114.919 266.771 116.052C285.105 119.662 313.594 130.806 325.869 147.251C309.508 136.345 282.318 127.77 263.17 126.408ZM232.395 126.794C226.213 127.171 215.015 129.6 211.019 130.757C209.991 128.066 207.163 119.753 206.258 117.069C217.629 113.853 230.85 112.728 241.02 113.615C238.192 115.789 233.423 124.356 232.395 126.794ZM180.631 142.008C179.365 139.874 173.338 134.392 170.074 133.309C177.671 127.688 195.315 119.63 202.008 118.226C203.167 120.138 206.258 128.328 207.286 131.775C201.366 133.055 185.654 138.684 180.631 142.008ZM345.831 160.677C344.154 158.756 341.835 154.67 325.227 140.219C300.809 118.973 268.448 109.274 238.06 109.274C215.656 109.274 196.047 114.288 174.325 126.236C146.642 141.433 135.181 158.912 132.353 162.466C130.264 165.083 129.968 166.61 131.317 167.389C132.287 167.947 134.145 165.912 135.888 163.614C144.118 152.766 154.946 142.008 166.342 135.681C169.885 136.19 174.843 141.113 176.767 143.731C169.474 147.703 157.396 156.877 152.825 160.422C148.87 163.475 147.505 165.19 148.574 166.429C149.454 167.463 152.48 165.428 155.012 163.36C159.386 159.782 172.393 150.575 178.83 147.12C183.213 152.241 181.79 161.694 180.245 163.746C179.414 164.845 179.299 166.019 180.245 166.56C181.149 167.069 182.127 165.773 183.402 163.934C186.386 159.634 185.194 149.213 182.629 145.463C190.481 140.596 201.753 137.339 208.577 135.804C209.152 136.895 217.424 161.021 219.002 165.403C219.865 167.808 220.721 170.68 222.48 170.138C223.647 169.777 222.875 167.151 221.896 164.509C220.696 161.243 214.431 140.982 212.499 134.975C214.76 133.761 228.35 131.003 231.754 131.135C230.077 139.964 236.334 143.583 243.404 148.212C247.162 150.673 271.054 164.369 276.045 167.455C278.89 169.211 281.101 170.343 281.71 169.498C282.409 168.555 280.468 166.56 277.846 165.026C275.749 163.803 253.526 150.928 244.235 145.077C237.592 140.884 234.015 136.395 235.61 130.495C237.805 129.863 244.498 129.805 251.453 129.863C298.836 130.24 336.82 157.353 341.071 161.694C343.217 163.902 346.218 165.789 347.377 164.895C348.109 164.328 346.843 161.834 345.831 160.677" fill="#2D2925"/>
</g>
<mask id="mask4" mask-type="alpha" maskUnits="userSpaceOnUse" x="122" y="293" width="237" height="94">
<path d="M122.774 317.601C146.108 358.504 189.742 386.026 239.714 386.026C290.956 386.026 335.522 357.107 358.388 314.501V293.396H122.774V317.601Z" fill="white"/>
</mask>
<g mask="url(#mask4)">
<path d="M356.082 322.577C357.834 319.361 359.256 317.531 357.76 316.702C356.387 315.939 355.046 318.926 353.377 321.814C347.844 331.399 341.801 339.318 328.145 351.742C313.017 365.487 295.627 373.472 289.584 375.523C284.429 361.072 264.796 299.526 264.278 297.77C263.505 295.153 262.847 294.389 261.959 294.709C260.964 295.062 261.573 296.49 262.091 298.796C262.601 301.094 285.975 373.923 286.748 376.475C282.111 378.789 263.275 384.033 250.112 384.468C238.404 384.854 224.624 384.468 217.669 382.876C209.521 376.303 190.981 350.175 183.943 336.265C175.647 319.869 170.155 304.787 168.741 298.402C168.058 295.341 167.187 293.134 165.649 293.421C163.988 293.741 164.942 296.162 165.912 299.444C168.404 307.864 172.473 319.804 181.106 336.84C190.257 354.877 206.594 376.032 211.354 381.784C196.432 378.658 178.286 371.683 161.045 358.857C146.197 347.803 133.436 333.73 127.023 323.48C125.922 321.716 124.631 319.221 123.036 320.28C122.312 320.756 123.2 322.75 124.318 324.76C133.634 341.46 156.359 365.11 185.48 378.083C219.42 393.199 256.426 392.395 289.519 379.61C318.459 368.425 343.643 345.415 356.082 322.577" fill="#2D2925"/>
</g>
</svg>