<svg width="500" height="500" viewBox="0 0 500 500" fill="none" xmlns="http://www.w3.org/2000/svg">
<path d="M423.697 145.793C428.643 136.458 431 127.1 431 118.15C431 97.7542 419.624 79.5042 403.635 68.6234C381.401 53.4888 347.989 51.4004 324.374 79.6427C289.897 74.9312 260.989 84.4157 250 88.9312C239.012 84.4158 210.1 74.9312 175.627 79.6427C152.012 51.4004 118.6 53.4888 96.3659 68.6235C80.3736 79.5042 69.0005 97.7542 69.0005 118.15C69.0005 127.1 71.3582 136.458 76.3043 145.793C58.4851 171.512 46.1543 202.012 46.1543 233.074C46.1543 270.485 62.1274 289.743 68.1505 298.027C68.1505 298.027 70.7389 295.439 72.9735 293.208C89.8889 336.266 118.858 359.435 153.823 380.554C153.823 380.554 154.597 376.296 155.289 372.485C192.935 405.112 210.874 397.089 250 441.346C288.985 397.254 307.397 404.831 344.712 372.485C345.203 375.174 345.691 377.864 346.177 380.554C361.743 371.154 405.658 347.6 427.031 293.208C429.258 295.439 431.847 298.027 431.847 298.027C435.539 292.954 453.847 272.527 453.847 233.074C453.847 202.02 441.52 171.516 423.697 145.793Z" fill="#707271"/>
<path d="M412.925 146.324C448.836 91.205 367.398 33.8127 327.94 89.3358C288.082 82.2742 254.505 96.8012 250.001 98.8973C245.501 96.8012 211.917 82.2743 172.059 89.3358C132.601 33.8127 51.1669 91.205 87.0746 146.324C46.1592 202.509 50.2823 257.909 69.2554 283.97L77.1015 276.12C77.1015 276.12 88.2515 330.274 147.182 365.843L149.305 354.163C185.582 392.913 218.725 392.04 250.001 427.428C281.275 392.04 314.421 392.913 350.694 354.163L352.817 365.844C411.748 330.274 422.901 276.12 422.901 276.12L430.748 283.97C449.775 257.832 453.875 202.555 412.925 146.324" fill="#12173F"/>
<path d="M250.364 352.424C250.364 352.424 222.068 352.851 217.887 355.466C217.887 355.466 213.026 363.881 250.364 363.724C285.88 363.562 280.641 357.089 280.899 356.131C280.899 356.131 268.879 352.424 250.364 352.424ZM225.832 319.544C225.832 319.544 230.243 306.763 234.955 310.805C241.497 316.405 250.001 327.798 250.001 329.017V344.236L239.686 344.775C233.763 344.944 214.651 349.509 214.651 349.509C188.339 284.355 202.928 235.051 209.955 217.459C183.87 223.113 179.663 191.805 179.663 191.805C182.37 191.251 186.363 192.436 190.863 194.59C197.836 197.925 206.036 203.586 212.574 208.663H212.578C214.371 210.057 216.138 211.484 217.878 212.944C235.613 227.867 250.001 224.84 250.001 224.84V288.609C250.001 288.609 198.255 284.601 225.832 319.544H225.832ZM274.328 319.555C307.258 286.143 253.524 288.093 250.124 288.616C255.639 288.928 297.297 289.159 274.328 319.555Z" fill="#5D76A9"/>
<path d="M296.21 218.471C325.849 298.283 288.275 349.637 288.064 349.921C311.391 288.845 296.399 238.048 286.191 219.183C280.949 219.706 274.656 219.402 274.656 219.402C274.656 219.402 282.533 214.537 287.637 209.898C287.991 209.575 288.391 209.214 288.833 208.821C293.072 205.06 301.164 198.441 310.987 194.614C314.575 193.214 318.402 192.183 322.352 191.806C322.352 191.806 319.525 218.11 296.21 218.471Z" fill="#5D76A9"/>
<path d="M112.806 140.726C111.737 130.637 124.483 120.637 124.483 120.637C119.225 115.21 110.052 119.914 110.052 119.914C118.379 103.63 137.029 111.591 137.029 111.591C129.96 102.93 114.987 103.476 114.987 103.476C133.514 85.1142 155.879 113.18 155.879 113.18C135.964 117.691 112.806 140.726 112.806 140.726ZM343.133 115.195C343.133 115.195 355.225 84.9642 392.275 92.2642C392.275 92.2642 358.26 69.8796 334.591 110.345C334.591 110.345 300.633 94.4142 249.998 116.307C249.998 116.307 202.414 99.5835 166.248 109.053C166.248 109.053 145.156 72.4565 115.448 87.5297C85.7483 102.595 101.244 137.464 106.418 146.503C106.418 146.503 57.1983 196.645 75.7021 258.649L85.606 246.295C85.606 246.295 99.7444 313.814 136.225 335.095L138.414 318.495C138.414 318.495 176.498 364.449 221.283 383.964C225.544 385.96 249.268 397.753 249.998 403.572V371.418C249.998 371.418 218.933 374.003 210.737 359.664C205.168 349.91 169.448 286.191 187.098 219.457C187.098 219.457 169.914 216.887 166.675 187.899C166.675 187.899 153.864 181.66 137.937 182.953C137.937 182.953 166.421 174.01 193.118 184.349C219.806 194.68 226.956 220.987 245.041 209.36L249.998 135.249L255.456 209.36C273.541 220.987 280.694 194.68 307.383 184.349C334.079 174.01 362.571 182.953 362.571 182.953C362.571 182.953 351.175 174.918 332.864 171.257C317.579 168.199 295.114 178.022 295.114 178.022C295.114 178.022 298.221 156.995 308.418 145.787C317.175 136.149 337.006 134.022 343.133 115.195Z" fill="#5D76A9"/>
<path d="M212.573 208.663C209.712 207.77 204.989 210.724 202.354 215.851C193.512 213.297 190.485 203.747 190.858 194.594L190.862 194.59C197.835 197.924 206.035 203.586 212.573 208.663L212.573 208.663ZM299.489 215.854C296.716 210.457 291.624 207.45 288.832 208.823C293.07 205.061 301.166 198.442 310.986 194.615C311.386 203.769 308.282 213.315 299.489 215.854Z" fill="#FFBB22"/>
</svg>