<svg width="500" height="500" viewBox="0 0 500 500" fill="none" xmlns="http://www.w3.org/2000/svg">
<path d="M117.753 210.93C117.652 210.874 117.538 210.817 117.425 210.76C110.502 206.952 108.523 203.993 108.376 203.427C108.907 197.306 141.792 180.711 212.459 176.324C208.33 181.992 204.88 189.303 203.602 198.564L202.833 204.141C202.414 207.02 201.871 210.352 200.695 213.447C198.805 218.389 193.353 223.558 184.88 228.443C155.253 224.578 131.464 218.366 117.753 210.93ZM346.792 190.652C348.851 189.904 350.265 188.045 350.48 185.925C370.106 190.777 384.518 196.898 389.869 202.803C390.796 203.835 391.034 204.435 391.079 204.447C390.842 205.274 388.647 208.335 381.407 212.132C370.423 217.924 353.545 222.81 332.595 226.369C335.977 222.152 338.33 216.451 338.59 208.425C338.805 201.182 339.303 198.972 339.563 198.36C341.079 195.345 344.79 191.377 346.792 190.652ZM431.362 175.349C417.527 160.058 388.839 147.238 350.118 138.964C350.729 138.522 351.452 138.012 352.301 137.422C354.959 135.586 358.262 133.285 361.566 130.145C375.061 117.302 366.373 98.9619 359.111 90.1659L350.672 79.8509C349.054 77.8786 346.317 77.2212 343.998 78.2639C341.667 79.3069 340.321 81.7779 340.706 84.3056L342.731 97.4997C343.353 101.558 343.206 103.36 339.156 106.772C338.93 103.473 338.443 99.9368 337.504 96.0602C335.095 86.0626 330.004 81.6532 329.439 81.1772C327.799 79.8622 325.593 79.5109 323.658 80.3383C322.991 80.6103 322.391 81.0184 321.882 81.5058L321.679 80.3383C319.993 70.5221 322.301 65.0813 322.312 64.7638C322.878 64.4238 323.387 63.9931 323.794 63.483C325.74 61.1026 329.609 57.1806 329.631 57.1466C330.932 55.8091 331.509 53.9275 331.158 52.1138C330.808 50.2888 329.597 48.7473 327.9 47.9878C326.803 47.5118 323.511 46.4803 316.566 47.3644C303.477 49.178 290.457 56.8293 290.876 69.8307C291.045 75.4189 292.799 80.5764 294.224 84.759C294.801 86.482 295.615 88.885 295.887 90.3472C295.163 90.6646 293.862 91.1067 291.667 91.5034C271.419 95.1874 255.796 104.879 247.663 118.764C245.74 122.052 244.258 125.532 243.228 129.159C198.206 129.646 155.434 135.518 122.323 145.787C81.9729 158.29 59.6765 176.03 57.8213 197.045C56.8371 208.029 61.181 224.125 87.1199 239.03C87.5837 239.518 88.1267 239.926 88.7602 240.22L99.3484 245.287C99.6312 245.435 99.9367 245.548 100.242 245.627C108.33 249.198 117.391 252.44 127.312 255.33C125.796 256.509 124.348 257.699 122.968 258.923C98.0023 279.474 83.681 309.841 83.681 342.237C83.681 371.073 94.88 398.187 115.219 418.556C135.559 438.937 162.606 450.158 191.373 450.158C242.256 450.158 286.622 413.977 296.69 364.76C305.265 339.074 304.269 311.825 303.896 301.589C303.217 282.478 311.939 271.539 317.98 266.28C350.152 262.075 378.183 254.979 399.213 245.707C399.518 245.627 399.824 245.514 400.106 245.367L403.432 243.78C403.477 243.757 403.523 243.746 403.568 243.723L410.921 240.209C411.52 239.926 412.052 239.506 412.493 239.03C430.366 228.659 440.423 216.088 441.622 202.61C442.471 192.998 439.02 183.828 431.362 175.349" fill="#FEFEFE"/>
<path d="M102.739 202.925C103.881 189.879 150.804 172.649 226.641 169.963C219.605 175.245 211.257 184.483 209.198 199.344L208.429 204.966C207.92 208.434 207.309 211.971 205.974 215.473C203.055 223.147 194.82 229.472 186.008 234.301C155.476 230.447 129.956 224.009 115.058 215.916H115.035C106.879 211.484 102.399 206.757 102.739 202.926V202.925ZM394.062 199.004C396.958 202.2 396.766 204.263 396.709 204.955C396.393 208.638 391.777 213.082 384.062 217.151H384.04C367.818 225.698 339.945 232.159 306.755 235.559C308.203 234.619 309.798 233.791 311.517 233.088L312.06 232.873C321.596 228.985 332.411 224.587 332.92 208.786C332.999 206.281 333.135 198.561 334.515 195.807C336.291 192.27 340.85 186.784 344.865 185.333C344.922 185.299 338.157 183.984 338.157 183.984C337.795 183.95 337.456 183.928 337.105 183.928C339.379 182.273 340.997 180.301 342.184 178.226C369.141 183.848 387.275 191.511 394.062 199.004ZM427.173 179.156C412.92 163.411 381.494 150.637 341.008 142.906C341.189 138.247 344.017 136.275 349.062 132.784C351.698 130.959 354.673 128.884 357.671 126.039C370.736 113.605 355.397 94.5615 354.741 93.7568L346.302 83.4418L348.327 96.6358C349.707 105.67 346.404 108.867 336.608 115.724C335.352 116.586 334.289 117.549 333.35 118.569C333.757 112.539 334.04 105.817 332.015 97.3954C329.979 88.962 325.85 85.5501 325.85 85.5501L324.775 97.7808C324.764 97.8488 323.825 107.325 311.2 118.785C312.286 117.561 313.304 116.291 314.209 114.965C320.397 105.942 318.61 95.6725 316.54 83.7933L316.11 81.2882C313.983 68.8989 317.286 61.1683 319.413 59.8988C321.483 57.3711 325.601 53.1658 325.601 53.1658C325.601 53.1658 323.418 52.1909 317.343 52.9844C309.447 54.0725 296.178 58.8106 296.528 69.6357C296.675 74.3964 298.214 78.9192 299.56 82.9091C301.008 87.1711 302.377 91.2178 301.166 93.2921C300.194 94.9357 297.264 96.2392 292.682 97.0781C274.074 100.467 259.82 109.195 252.547 121.641C250.137 125.756 248.531 130.165 247.728 134.79C201.574 134.926 157.875 140.696 123.995 151.203C86.0193 162.981 65.0917 179.008 63.4515 197.553C62.5805 207.312 66.9809 221.391 91.3587 234.925L91.189 235.106L98.112 238.416C98.1179 238.422 98.126 238.426 98.1347 238.427L101.777 240.184L101.834 240.127C113.067 245.16 126.246 249.513 140.929 253.095C135.703 256.053 130.884 259.454 126.562 263.308C102.942 282.736 89.3338 311.539 89.3338 342.234C89.3338 369.552 99.9447 395.237 119.221 414.553C138.497 433.868 164.119 444.5 191.381 444.5C239.628 444.5 281.619 410.234 291.325 362.966C299.56 338.267 298.61 311.777 298.248 301.791C297.433 279.086 308.553 266.527 315.623 260.871C347.863 256.779 376.393 249.706 397.637 240.218L397.671 240.252L401.11 238.62L401.133 238.597L408.485 235.095L408.282 234.902C425.375 225.335 434.922 214.091 435.985 202.109C436.687 194.129 433.723 186.41 427.173 179.156" fill="#2D2925"/>
<path d="M93.2681 349.471C95.9378 362.925 103.619 379.044 118.879 389.801C123.494 393.043 128.517 395.673 133.845 397.702C130.542 392.068 126.707 386.389 122.804 380.608C115.497 369.828 107.951 358.663 103.166 346.671C98.2115 334.259 96.8541 321.28 99.0147 308.233C95.1233 318.832 92.974 330.28 92.974 342.239C92.974 344.676 93.0871 347.09 93.2681 349.471Z" fill="#8B2231"/>
<path d="M109.709 344.038C114.223 355.339 121.553 366.164 128.635 376.649C134.121 384.742 139.472 392.666 143.544 400.668C148.024 401.722 152.673 402.391 157.413 402.674C152.515 395.681 148.261 387.723 144.619 378.621C130.456 343.346 132.503 299.74 150.06 274.508C159.144 261.495 169.992 252.643 183.963 245.014C195.976 238.428 203.499 236.467 211.146 231.899C219.46 226.935 223.906 218.626 218.442 199.991C216.836 194.55 216.553 190.254 216.881 186.91C214.981 190.594 213.499 194.867 212.809 199.844L212.854 199.798C211.994 205.069 211.632 210.861 209.392 216.767C202.039 236.059 166.44 246.771 161.745 248.199C148.239 252.28 137.413 258.514 128.985 266.041C104.607 287.77 100.252 320.37 109.709 344.038" fill="#8B2231"/>
<path d="M258.196 169.696C258.558 170.886 258.852 172.065 258.999 173.221C259.926 179.965 257.89 185.406 249.644 186.732C241.148 188.104 238.252 180.702 237.596 174.66C237.528 172.563 237.687 170.886 237.856 169.673C236.431 169.696 235.017 169.718 233.603 169.764C230.877 171.316 227.336 173.742 223.931 177.222C222.234 180.872 220.187 185.916 223.331 197.75C228.874 218.618 226.521 231.211 209.802 238.42C188.478 247.613 174.859 253.009 156.578 276.042C147.879 287.003 143.128 305.162 142.347 323.445C141.589 341.185 145.232 360.137 151.465 375.666C155.639 386.061 160.515 395.095 166.239 402.769C171.951 402.553 177.732 401.816 183.512 400.547C177.166 393.088 173.512 384.02 172.856 373.841C170.673 340.006 188.863 325.769 216.849 303.291L229.372 292.761C279.349 250.232 264.768 206.977 270.266 170.047C266.318 169.888 262.291 169.775 258.196 169.696Z" fill="#8B2231"/>
<path d="M278.218 170.407C276.691 177.786 276.001 185.483 275.515 193.452C273.535 225.621 274.497 262.041 233.863 298.211L221.567 308.174C194.372 330.029 178.818 343.676 179.893 373.397C180.243 383.202 184.372 391.782 191.261 398.527C198.863 396.237 206.386 393.041 213.614 388.915C248.965 368.817 271.205 338.768 279.7 300.217C285.085 275.847 284.972 256.022 284.881 240.084C284.836 232.025 285.877 216.224 285.877 216.224C287.008 206.249 288.614 192.261 300.164 173.932C300.537 173.343 300.945 172.742 301.329 172.141C293.965 171.416 286.261 170.838 278.218 170.407Z" fill="#8B2231"/>
<path d="M290.114 273.825V273.7C290.114 273.757 290.103 273.825 290.103 273.881C288.994 279.651 288.711 286.135 288.01 292.596C287.671 295.067 287.343 297.459 286.981 299.782C286.856 300.44 286.732 301.097 286.585 301.743C277.659 342.334 254.56 373.937 217.411 395.065C211.031 398.693 204.549 401.674 198.044 403.986C208.938 411.229 221.641 413.462 230.374 412.147C263.734 407.126 279.99 385.317 287.818 361.989C295.849 338.05 294.99 312.5 294.605 301.925C293.338 266.593 320.612 253.558 320.612 253.558C299.402 252.401 292.445 261.662 290.114 273.825" fill="#8B2231"/>
<path d="M267.838 404.148C254.196 415.574 239.49 418.079 232.804 419.111C219.671 421.128 204.117 418 190.361 407.129C190.135 406.948 189.92 406.755 189.705 406.574C183.811 408.15 177.906 409.204 172.024 409.691C185.485 424.177 203.212 432.407 226.979 434.028C227.08 434.028 227.194 434.039 227.284 434.039H227.307C243.483 427.68 257.578 417.161 268.268 403.774C268.121 403.91 267.985 404.024 267.838 404.148ZM143.692 428.481C143.953 421.034 141.86 413.712 138.443 406.389C130.287 404.031 122.29 400.518 114.597 395.836C110.265 393.195 106.362 389.16 102.912 385.408C102.901 385.385 102.878 385.385 102.867 385.363C111.735 403.601 126.045 418.688 143.692 428.493V428.481ZM211.722 438.634C198.419 435.551 187.039 430.824 177.05 423.241C171.948 419.353 167.299 414.978 163.068 410.013C157.683 409.945 152.333 409.424 147.039 408.426C149.98 416.032 151.462 423.785 150.511 431.924V431.935C162.966 437.637 176.79 440.845 191.382 440.845C198.407 440.845 205.262 440.097 211.869 438.691C211.812 438.68 211.767 438.646 211.722 438.634L211.722 438.634ZM326.046 196.469C323.75 204.155 316.205 203.248 314.021 199.099C310.549 192.547 311.861 187.481 315.481 184.023C319.089 180.566 325.006 178.718 330.741 176.123C330.766 176.106 330.793 176.091 330.82 176.077C324.191 174.944 317.132 173.924 309.666 173.04C309.564 173.164 309.463 173.278 309.361 173.391C308.693 174.15 308.037 174.899 307.393 175.681C295.526 193.567 294.044 206.818 292.879 217.009L292.517 220.148C291.861 225.499 291.895 232.243 291.929 240.042C291.94 241.107 291.951 242.218 291.951 243.351C291.861 246.072 291.759 248.758 291.635 251.377C291.703 251.399 291.748 251.411 291.804 251.422C291.895 250.334 291.94 249.914 291.929 250.47C295.289 239.758 301.454 233.24 310.141 229.704C319.553 225.884 328.84 222.359 329.27 208.666C329.463 202.953 329.881 197.229 331.182 194.316C333.558 189.022 337.811 187.617 337.811 187.617C333.241 187.175 328.252 189.09 326.046 196.469Z" fill="#8B2231"/>
<path d="M337.435 142.236C338.125 133.078 346.78 131.366 355.151 123.386C365.908 113.162 351.927 96.0797 351.927 96.0797C353.691 107.562 348.386 111.949 338.68 118.716C335.603 120.87 333.363 123.885 333.058 127.682C332.718 131.944 332.436 136.546 331.508 141.205C333.51 141.534 335.478 141.885 337.435 142.236ZM307.825 126.275C305.234 128.202 302.813 130.186 300.551 132.215C298.945 133.757 297.372 135.298 295.924 136.772C305.37 137.588 314.555 138.653 323.413 139.946C329.069 129.631 331.773 117.921 328.413 97.9942C328.413 97.9942 327.632 111.494 307.825 126.275ZM255.024 134.81C265.827 134.912 276.427 135.354 286.766 136.056C287.117 135.716 287.433 135.365 287.795 135.025C294.741 127.566 305.465 121.264 311.211 112.899C316.947 104.522 314.639 94.2978 312.513 81.9085C308.859 60.5531 317.841 56.5972 317.841 56.5972C317.841 56.5972 299.832 59.0796 300.171 69.5192C300.635 83.5295 315.046 96.7122 293.338 100.668C269.515 105.009 254.707 117.92 251.449 134.798C252.637 134.81 253.825 134.798 255.024 134.81Z" fill="#F9A11A"/>
<path d="M254.961 140.403C155.165 139.417 71.9072 165.227 69.0113 198.054C67.8575 211.123 79.6335 223.343 100.527 233.374C113.446 239.574 129.837 244.925 148.808 249.141C152.597 247.452 156.568 245.945 160.753 244.675C164.057 243.678 170.154 241.671 176.873 238.747C148.932 234.655 126.308 228.375 112.394 220.837C102.122 215.261 96.5905 209.004 97.1787 202.429C99.1244 180.394 168.989 163.198 253.242 164.026C337.484 164.865 404.215 183.398 402.269 205.444C401.738 211.441 396.172 217.086 386.647 222.107C369.045 231.368 337.959 238.498 300.199 241.819C298.898 243.61 297.744 245.593 296.805 247.849C313.977 241.32 333.762 250.966 333.762 250.966C333.762 250.966 335.086 251.476 336.014 252.111C361.07 247.634 382.597 241.263 398.729 233.555C417.812 224.453 429.385 213.492 430.425 201.613C433.321 168.798 354.769 141.378 254.961 140.403Z" fill="#FEFEFE"/>
</svg>