<svg width="500" height="500" viewBox="0 0 500 500" fill="none" xmlns="http://www.w3.org/2000/svg">
<path d="M168.869 414.696C166.831 413.02 165.979 410.31 166.696 407.772L190.767 322.375C190.901 321.877 191.096 321.397 191.347 320.946L180.293 303.29C179.281 301.676 179.021 299.717 179.552 297.894L181.096 292.707L165.954 291.733C151.714 290.686 146.638 288.813 143.254 286.953C128.977 279.08 125.247 256.483 124.432 249.743L123.531 242.154C123.086 239.074 123.889 236.067 125.741 233.899C127.186 232.223 129.175 231.151 131.324 230.905C98.3973 201.187 68.6326 164.261 79.0317 112.217C90.5053 54.74 137.067 37.4167 139.043 36.7021C139.784 36.4311 140.549 36.3078 141.291 36.3078C143.687 36.3078 145.971 37.6015 147.157 39.8193C147.984 41.3717 148.145 43.109 147.713 44.6983C163.089 31.6875 177.786 26.0075 183.949 24.0362C184.616 23.8144 185.308 23.7158 185.975 23.7158C188.531 23.7158 190.927 25.182 192.039 27.6093C193.434 30.6649 192.31 34.2995 189.42 36.0368C175.378 44.5013 163.151 56.0213 153.925 69.2787C165.139 66.6667 172.661 66.3832 175.291 66.3832C176.193 66.3832 176.65 66.4202 176.65 66.4202C179.935 66.6173 182.603 69.1924 182.887 72.4575C183.183 75.7225 181.059 78.7165 177.86 79.4927C177.687 79.542 159.384 84.1623 139.179 98.6271C135.362 110.233 133.436 122.357 133.436 134.666C133.436 158.002 140.92 181.966 153.975 200.398C157.087 204.797 160.162 208.628 163.386 212.128C162.138 188.163 169.017 150.72 212.429 133.348C213.245 133.015 214.084 132.867 214.912 132.867C217.357 132.867 219.704 134.222 220.852 136.539C222.409 139.619 221.322 143.377 218.37 145.176L218.049 145.36C211.355 149.71 205.723 155.328 201.425 161.834C206.143 160.38 210.206 159.899 212.948 159.579L213.467 159.517C213.726 159.48 213.998 159.468 214.257 159.468C217.036 159.468 219.568 161.205 220.519 163.879C221.569 166.799 220.433 170.052 217.814 171.715L217.592 171.85C217.502 171.915 217.407 171.973 217.308 172.023C203.414 180.019 195.682 189.322 194.336 199.696C192.854 211.031 199.14 221.701 203.648 227.726C215.332 214.247 222.94 191.219 225.064 182.545C225.805 179.539 228.497 177.481 231.523 177.481C231.783 177.481 232.042 177.493 232.301 177.53C235.636 177.912 238.168 180.722 238.18 184.073C238.353 212.374 230.733 231.706 222.927 244.051C234.623 249.965 246.085 250.31 248.567 250.31C248.851 250.31 249.246 250.298 249.333 250.298C249.407 250.298 249.827 250.31 250.123 250.31C252.606 250.31 264.067 249.965 275.763 244.051C267.957 231.706 260.337 212.374 260.51 184.073C260.522 180.722 263.042 177.912 266.376 177.53C266.648 177.493 266.907 177.481 267.167 177.481C270.193 177.481 272.885 179.539 273.614 182.545C275.75 191.219 283.358 214.247 295.042 227.726C299.537 221.713 305.824 211.031 304.354 199.696C303.008 189.322 295.277 180.019 281.382 172.023C281.296 171.974 280.962 171.764 280.962 171.764C278.332 170.101 277.171 166.824 278.208 163.903C279.159 161.23 281.654 159.468 284.445 159.468C284.705 159.468 284.964 159.48 285.223 159.517L285.742 159.579C288.471 159.899 292.547 160.38 297.265 161.834C292.967 155.328 287.335 149.71 280.641 145.373L280.332 145.176C277.368 143.377 276.281 139.619 277.825 136.539C278.986 134.222 281.333 132.867 283.778 132.867C284.606 132.867 285.446 133.015 286.261 133.348C329.673 150.72 336.552 188.163 335.292 212.128C338.528 208.629 341.603 204.797 344.716 200.398C357.77 181.966 365.255 158.002 365.255 134.666C365.255 122.345 363.328 110.233 359.499 98.6271C339.183 84.0515 321.015 79.542 320.83 79.4927C317.631 78.7165 315.507 75.7225 315.791 72.4575C316.087 69.1925 318.755 66.6173 322.028 66.4202C322.028 66.4202 322.497 66.3832 323.399 66.3832C326.017 66.3832 333.551 66.6666 344.753 69.2787C335.539 56.0213 323.312 44.5013 309.27 36.0367C306.38 34.2995 305.256 30.6772 306.651 27.6093C307.181 26.4486 308.033 25.4645 309.106 24.7742C310.179 24.0839 311.427 23.7166 312.703 23.7158C313.382 23.7158 314.062 23.8144 314.741 24.0362C320.904 26.0075 335.601 31.6875 350.977 44.6984C350.545 43.109 350.693 41.3717 351.521 39.8193C352.706 37.6015 355.004 36.3078 357.4 36.3078C358.141 36.3078 358.906 36.431 359.647 36.7021C361.623 37.4167 408.172 54.74 419.658 112.217C430.058 164.261 400.293 201.187 367.366 230.905C369.515 231.151 371.504 232.211 372.936 233.899C374.801 236.067 375.604 239.074 375.16 242.154L374.246 249.743C373.443 256.483 369.713 279.08 355.436 286.953C352.052 288.813 346.963 290.686 332.797 291.733L317.594 292.707L319.138 297.893C319.669 299.717 319.397 301.676 318.397 303.29L307.343 320.946C307.59 321.39 307.788 321.87 307.923 322.375L331.995 407.772C332.711 410.31 331.859 413.02 329.821 414.696L249.345 479.948L168.869 414.696V414.696Z" fill="#EDE0C5"/>
<path d="M117.037 181.635C117.037 181.635 107.293 137.563 114.53 111.479C112.603 113.561 110.639 115.705 108.836 118.046C91.1751 140.84 117.037 181.635 117.037 181.635ZM381.646 181.635C381.646 181.635 407.521 140.84 389.86 118.046C388.044 115.705 386.08 113.561 384.154 111.479C391.403 137.563 381.646 181.635 381.646 181.635ZM85.5556 113.512C96.4364 59.0534 141.293 42.9499 141.293 42.9499C124.867 55.0491 108.108 77.8182 101.179 109.779C107.922 101.425 114.172 95.1661 121.52 90.1637C139.713 51.0817 170.749 35.2247 185.978 30.358C166.229 42.2723 149.704 60.0021 139.663 80.418C162.499 72.2861 176.295 73.0377 176.295 73.0377C176.295 73.0377 155.867 77.9907 133.55 94.5007C129.178 107.08 126.782 120.597 126.782 134.655C126.782 159.407 134.772 184.776 148.543 204.231C156.287 215.172 163.784 222.737 173.096 229.624C170.008 221.887 158.288 162.167 214.902 139.509L214.507 139.743C201.132 148.393 191.276 161.847 187.274 177.692C197.612 167.81 208.517 166.788 214.26 166.098C214.161 166.159 214.075 166.221 213.988 166.27C161.425 196.518 203.219 237.473 203.219 237.473C219.793 223.624 229.451 192.6 231.526 184.111C231.736 216.897 220.806 236.524 213.371 246.11C230.316 257.716 249.323 256.94 249.323 256.94H249.36C249.373 256.94 268.368 257.716 285.313 246.11C277.878 236.524 266.96 216.897 267.157 184.111C269.232 192.6 278.903 223.624 295.465 237.473C295.465 237.473 337.271 196.518 284.707 166.27C284.609 166.221 284.522 166.159 284.436 166.098C290.166 166.788 301.072 167.81 311.409 177.692C307.408 161.847 297.552 148.393 284.176 139.743L283.781 139.509C340.396 162.167 328.675 221.887 325.588 229.624C334.912 222.737 342.397 215.172 350.14 204.231C363.924 184.776 371.914 159.407 371.914 134.655C371.914 120.597 369.518 107.08 365.134 94.5007C342.817 77.9907 322.401 73.0377 322.401 73.0377C322.401 73.0377 336.184 72.2861 359.02 80.4179C348.979 60.0021 332.467 42.2723 312.706 30.3579C327.934 35.2247 358.971 51.0818 377.163 90.1638C384.512 95.1661 390.774 101.425 397.517 109.779C390.588 77.8182 373.816 55.0491 357.39 42.95C357.39 42.95 402.259 59.0534 413.128 113.512C425.8 176.903 375.051 216.49 334.122 250.398L365.369 237.695C367.481 236.795 368.95 238.828 368.555 241.268L367.641 248.956C367.135 253.194 364.022 274.645 352.215 281.138C349.659 282.555 345.262 284.157 332.306 285.118L308.853 286.621L312.755 299.78L289.734 336.558L301.516 324.163L325.588 409.572L259.55 463.772L280.15 370.527L249.348 407.908L218.533 370.527L239.134 463.772L173.096 409.572L197.167 324.163L208.962 336.558L185.94 299.78L189.831 286.621L166.377 285.118C153.422 284.157 149.025 282.555 146.468 281.138C134.661 274.645 131.549 253.194 131.043 248.956L130.129 241.268C129.733 238.828 131.203 236.795 133.315 237.695L164.562 250.398C123.645 216.49 72.8963 176.903 85.5556 113.512Z" fill="#00471A"/>
<path d="M141.298 248.816C141.298 248.816 143.57 267.938 151.623 272.374C157.045 275.355 170.309 275.072 181.894 275.959C169.062 270.994 150.165 257.453 141.298 248.816ZM212.35 289.241C219.365 294.638 225.306 291.631 228.492 288.514C229.542 287.504 229.221 285.754 227.9 285.15C224.553 283.623 218.229 280.727 211.943 277.844C210.683 277.277 209.238 278.054 209.016 279.421C208.571 282.132 208.633 286.37 212.35 289.241ZM225.096 326.352L221.317 342.96L230.604 355.466H240.46L231.333 342.061L232.778 333.793C236.915 338.204 242.807 340.964 249.34 340.989C255.886 340.964 261.765 338.204 265.914 333.793L267.359 342.061L258.22 355.466H268.088L277.376 342.96L273.596 326.352C264.729 320.696 262.679 312.675 262.679 312.675L256.491 292.469L249.34 295.931L242.189 292.469L236.014 312.675C236.014 312.675 233.964 320.696 225.096 326.352ZM270.188 288.514C273.374 291.631 279.327 294.638 286.33 289.241C290.047 286.37 290.121 282.132 289.677 279.421C289.442 278.054 287.997 277.277 286.737 277.844C280.451 280.727 274.14 283.623 270.793 285.15C269.471 285.754 269.15 287.504 270.188 288.514ZM262.728 363.167H235.952L242.387 371.878H256.306L262.728 363.167ZM316.798 275.959C328.383 275.072 341.648 275.355 347.069 272.374C355.11 267.938 357.394 248.816 357.394 248.816C348.514 257.453 329.618 270.994 316.798 275.959Z" fill="#FEFEFE"/>
</svg>