<svg width="500" height="500" viewBox="0 0 500 500" fill="none" xmlns="http://www.w3.org/2000/svg">
<mask id="mask0" mask-type="alpha" maskUnits="userSpaceOnUse" x="0" y="150" width="500" height="199">
<path d="M0.00292969 348.741H499.246V150.629H0.00292969V348.741Z" fill="white"/>
</mask>
<g mask="url(#mask0)">
<path d="M492.242 208.485C426.76 170.276 331.594 151.377 287.262 150.629C276.508 150.629 271.539 155.703 269.253 159.976C268.338 161.7 267.721 163.501 267.401 165.362C264.954 163.829 262.942 162.814 262.82 162.745L256.22 159.411L256.8 163.234C254.148 161.792 251.648 160.296 251.625 160.281L249.682 159.106L247.731 160.266C247.731 160.266 245.147 161.792 242.464 163.241L243.059 159.388L236.443 162.745C236.314 162.814 234.302 163.829 231.855 165.362C231.535 163.501 230.91 161.692 229.996 159.968C227.725 155.703 222.756 150.629 211.362 150.629C167.654 151.377 72.4959 170.276 6.93823 208.531L0.00292969 212.819L1.16143 215.787C1.42043 216.443 7.02213 230.36 20.5954 236.937L21.4338 238.31C21.7844 238.867 28.9331 250.296 40.6926 255.53L41.5081 256.85C41.8968 257.476 50.0971 270.477 66.0255 275.97L67.8089 277.901C68.3119 278.442 78.6919 289.49 95.3519 293.587L95.1995 293.702L99.6427 296.67C100.153 297.013 110.777 304.002 127.14 307.412L125.12 309.213L131.111 311.403C132.574 311.944 166.008 323.954 196.15 314.729C205.806 335.207 226.864 348.743 249.636 348.743C272.4 348.743 293.45 335.207 303.106 314.729C333.225 323.954 366.682 311.944 368.146 311.403L374.128 309.213L372.116 307.42C388.471 304.002 399.095 297.013 399.606 296.67L404.049 293.702L403.904 293.587C420.557 289.49 430.937 278.442 431.44 277.901L433.208 275.978C449.152 270.485 457.352 257.476 457.733 256.85L458.548 255.538C470.316 250.304 477.472 238.867 477.815 238.31L478.661 236.937C492.234 230.36 497.828 216.443 498.087 215.787L499.246 212.819L492.242 208.485V208.485Z" fill="#FEFEFE"/>
</g>
<path d="M494.541 214.394L490.319 211.777C425.387 173.888 331.112 155.18 287.831 154.447H287.26C280.142 154.447 275.211 156.912 272.619 161.764C270.432 165.892 270.684 170.027 271.751 173.529C271.004 172.675 269.922 171.767 268.74 170.897C265.227 168.242 261.096 166.151 261.096 166.151C261.096 166.151 261.637 169.569 260.38 169.15C259.793 168.967 259.069 168.654 258.269 168.288C254.755 166.601 249.664 163.55 249.664 163.55C249.664 163.55 244.497 166.601 240.991 168.288C240.191 168.654 239.459 168.967 238.873 169.15C237.615 169.569 238.164 166.151 238.164 166.151C238.164 166.151 234.033 168.242 230.512 170.897C229.331 171.767 228.249 172.675 227.502 173.529C228.569 170.027 228.828 165.892 226.633 161.764C224.042 156.912 219.111 154.447 211.993 154.447H211.421C168.14 155.18 73.8657 173.888 8.94064 211.777L4.71094 214.394C4.71094 214.394 11.0822 230.645 26.82 235.269L24.6784 236.307C24.6784 236.307 33.5724 250.75 47.3973 253.748L44.7527 254.847C44.7527 254.847 54.5003 270.617 73.3932 273.952L70.6039 275.302C70.6039 275.302 84.0858 289.89 104.762 291.195L101.759 293.491C101.759 293.491 115.462 302.632 135.666 304.928L132.42 307.82C132.42 307.82 168.247 320.935 198.252 310.002C206.528 330.839 226.869 344.923 249.619 344.923H249.634C272.383 344.923 292.724 330.839 301.001 310.002C331.005 320.935 366.833 307.82 366.833 307.82L363.586 304.928C383.79 302.632 397.493 293.491 397.493 293.491L394.49 291.195C415.167 289.89 428.641 275.302 428.641 275.302L425.859 273.952C444.752 270.617 454.492 254.847 454.492 254.847L451.855 253.748C465.68 250.75 474.574 236.307 474.574 236.307L472.432 235.269C488.17 230.645 494.541 214.394 494.541 214.394Z" fill="#B49759"/>
<path d="M487.709 216.264C424.193 179.222 330.879 160.377 287.759 159.644C282.561 159.56 279.025 160.827 277.211 164.214C274.208 169.86 278.445 176.162 280.252 178.879C284.161 184.708 289.336 193.833 289.336 204.804C289.336 226.084 272.15 241.824 250.986 241.824C250.529 241.824 250.079 241.831 249.63 241.831C249.172 241.831 248.723 241.824 248.265 241.824C227.109 241.824 209.915 226.084 209.923 204.804C209.923 193.833 215.098 184.708 219 178.879C220.806 176.162 225.051 169.86 222.041 164.214C220.235 160.827 216.698 159.56 211.493 159.644C168.372 160.377 75.0658 179.222 11.543 216.264C11.5963 216.424 21.725 233.774 41.944 232.294C38.827 233.813 35.7175 235.369 32.6233 236.971C32.6766 237.162 41.8983 252.353 64.1675 250.155C60.4559 251.91 56.7673 253.696 53.0862 255.55C53.1319 255.756 63.7712 270.687 87.2292 270.298C81.8258 273.037 78.5563 274.777 78.5792 274.769C78.5944 274.883 94.0807 289.883 119.116 285.756C116.411 287.732 113.682 289.83 110.451 292.088C110.459 292.127 128.841 302.182 150.47 299.054C147.671 301.174 144.884 303.311 142.11 305.463C142.056 305.181 175.231 314.558 198.827 304.159C219.13 295.201 230.409 273.258 232.985 267.734C236.994 268.619 240.492 269.131 243.159 269.443C243.152 269.733 247.458 270.107 249.63 270.016C251.794 270.107 256.108 269.733 256.1 269.443C258.76 269.131 262.266 268.619 266.267 267.734C268.835 273.258 280.122 295.201 300.425 304.159C324.02 314.558 357.188 305.181 357.142 305.463C354.37 303.307 351.584 301.171 348.782 299.054C370.411 302.182 388.793 292.127 388.793 292.088C385.577 289.83 382.841 287.732 380.135 285.756C405.171 289.883 420.657 274.883 420.672 274.769C420.695 274.777 417.426 273.037 412.022 270.298C435.48 270.687 446.12 255.756 446.165 255.55C442.492 253.696 438.796 251.91 435.092 250.155C457.353 252.353 466.575 237.162 466.621 236.971C463.536 235.374 460.431 233.815 457.308 232.294C477.527 233.774 487.655 216.424 487.709 216.264Z" fill="#002A5B"/>
<path d="M231.349 256.529C231.349 256.529 174.586 237.508 199.248 176.989C199.248 176.989 139.239 179.484 56.9753 212.712C56.9753 212.712 51.2061 215.115 47.8451 216.32C44.4765 217.526 39.0655 219.678 31.3071 215.954C31.3071 215.954 106.544 176.577 203.211 167.445C215.954 166.239 217.638 168.169 214.27 172.984C211.511 176.928 176.994 220.898 231.349 256.529Z" fill="#FEFEFE"/>
<path d="M180.921 194.128C132.283 200.461 84.7188 217.422 84.7188 217.422C92.8202 231.842 114.784 225.791 114.784 225.791C155.992 214.11 174.382 210.15 180.281 209.006C180.053 204.413 180.243 199.454 180.921 194.128V194.128ZM181.283 217.837C173.158 219.408 139.107 226.405 104.758 239.291C104.758 239.291 115.588 251.636 137.072 245.532C155.142 240.405 178.31 233.004 185.223 230.784C183.493 226.885 182.144 222.575 181.283 217.837ZM188.829 237.611C181.49 239.984 144.794 251.887 129.3 257.838C129.3 257.838 138.186 269.771 163.847 259.661C181.719 252.619 191.565 248.507 195.909 246.645C193.326 243.967 190.933 240.961 188.829 237.611ZM201.575 251.835C195.165 254.619 171.349 265.034 157.578 271.68C157.578 271.68 174.908 280.21 196.713 266.72L210.271 257.816C207.321 256.092 204.387 254.108 201.575 251.835ZM216.865 261.283C212.506 264.006 194.444 275.382 185.626 281.906C185.626 281.906 200.594 288.101 215.951 273.62C220.95 268.912 223.679 266.242 225.18 264.716C222.535 263.762 219.738 262.633 216.865 261.283Z" fill="#B49759"/>
<path d="M267.907 256.529C267.907 256.529 324.67 237.508 300.007 176.989C300.007 176.989 360.017 179.484 442.273 212.712C442.273 212.712 448.042 215.115 451.41 216.32C454.779 217.526 460.19 219.678 467.941 215.954C467.941 215.954 392.704 176.577 296.044 167.445C283.294 166.239 281.617 168.169 284.978 172.984C287.745 176.928 322.261 220.898 267.907 256.529" fill="#FEFEFE"/>
<path d="M318.331 194.128C366.969 200.461 414.533 217.422 414.533 217.422C406.439 231.842 384.467 225.791 384.467 225.791C343.259 214.11 324.877 210.15 318.978 209.006C319.207 204.413 319.009 199.454 318.331 194.128V194.128ZM317.973 217.837C326.09 219.408 360.141 226.405 394.498 239.291C394.498 239.291 383.66 251.636 362.184 245.532C344.114 240.405 320.945 233.004 314.033 230.784C315.755 226.885 317.104 222.575 317.973 217.837ZM310.426 237.611C317.758 239.984 354.462 251.887 369.948 257.838C369.948 257.838 361.07 269.771 335.409 259.661C317.537 252.619 307.691 248.507 303.346 246.645C305.93 243.967 308.323 240.961 310.427 237.611H310.426ZM297.681 251.835C304.09 254.619 327.907 265.034 341.678 271.68C341.678 271.68 324.347 280.21 302.535 266.72L288.985 257.816C291.934 256.092 294.861 254.108 297.681 251.835ZM282.39 261.283C286.75 264.006 304.812 275.382 313.63 281.906C313.63 281.906 298.654 288.101 283.29 273.62C278.305 268.912 275.577 266.242 274.076 264.716C276.72 263.762 279.517 262.633 282.39 261.283Z" fill="#B49759"/>
<path d="M296.107 289.566C296.107 315.278 275.301 336.115 249.625 336.115C223.949 336.115 203.144 315.278 203.144 289.566C203.144 263.869 223.95 243.025 249.625 243.025C275.301 243.025 296.107 263.869 296.107 289.566Z" fill="#FEFEFE"/>
<path d="M286.491 299.193C286.491 319.595 269.984 336.113 249.627 336.113C229.263 336.113 212.764 319.595 212.764 299.193C212.764 278.814 229.264 262.288 249.627 262.288C269.984 262.288 286.491 278.814 286.491 299.193Z" fill="#B49759"/>
<path d="M274.092 324.787C272.224 323.322 269.572 320.728 269.1 317.524C269.054 317.241 269.031 316.959 268.993 316.669C278.443 312.702 286.423 305.865 291.819 297.106C289.784 308.528 283.237 318.393 274.091 324.787H274.092ZM207.429 297.068C212.825 305.85 220.804 312.694 230.27 316.669C230.232 316.959 230.209 317.241 230.163 317.531C229.683 320.743 227.038 323.33 225.171 324.787C216.01 318.393 209.456 308.513 207.429 297.068ZM217.306 261.422C215.393 272.02 219.783 282.007 223.807 291.14C226.604 297.503 229.286 303.607 230.148 309.787C219.082 304.255 210.676 294.131 207.543 281.443C208.999 273.874 212.444 267.007 217.306 261.422ZM262.66 312.305C259.474 313.327 256.144 313.999 252.722 314.25V246.773C259.596 247.269 266.021 249.383 271.622 252.747C280.128 265.046 275.334 276.026 269.778 288.637C266.448 296.206 263.033 303.988 262.66 312.305ZM252.722 320.453C256.273 320.24 259.718 319.668 263.033 318.76C263.727 322.75 266.188 325.924 268.475 328.098C263.658 330.479 258.338 331.967 252.722 332.371V320.453ZM236.229 318.76C239.545 319.668 242.989 320.24 246.526 320.453V332.371C240.916 331.967 235.597 330.479 230.78 328.098C233.074 325.924 235.536 322.75 236.229 318.76ZM227.64 252.747C233.234 249.383 239.667 247.269 246.526 246.773V314.25C243.104 314.014 239.781 313.365 236.603 312.381C236.252 304.034 232.823 296.237 229.477 288.637C223.914 276.025 219.127 265.046 227.64 252.747ZM291.719 281.481C288.625 293.902 280.128 304.042 269.13 309.642C270.014 303.508 272.674 297.45 275.448 291.14C279.472 282 283.862 272.012 281.941 261.422C286.819 267.022 290.264 273.897 291.719 281.481ZM249.627 239.403C222.008 239.403 199.533 261.911 199.533 289.568C199.533 317.226 222.008 339.726 249.628 339.726C277.254 339.726 299.729 317.226 299.729 289.568C299.729 261.911 277.254 239.403 249.628 239.403H249.627Z" fill="#002A5B"/>
<path d="M264.51 174.293C264.51 174.293 264.136 175.873 263.176 175.873C262.216 175.873 256.202 172.981 253.314 171.409C252.079 170.745 250.349 169.738 249.747 169.387C249.747 169.387 247.171 170.745 245.937 171.409C243.048 172.981 237.043 175.873 236.075 175.873C235.115 175.873 234.741 174.293 234.741 174.293C234.741 174.293 218.958 183.83 218.958 210.183C218.958 229.799 229.155 238.703 229.155 238.703L230.542 244.25H268.701L270.088 238.703C270.088 238.703 280.293 229.799 280.293 210.183C280.293 183.83 264.51 174.293 264.51 174.293Z" fill="#002A5B"/>
<path d="M272.03 203.523C272.03 195.383 268.723 188.745 265.156 184.792C265.156 184.792 265.034 187.127 261.147 184.525C257.794 182.214 253.846 180.863 249.609 180.863C245.348 180.863 241.393 182.221 238.032 184.541C234.282 187.097 234.099 184.793 234.099 184.793C230.54 188.745 227.225 195.383 227.225 203.524C227.225 210.291 228.879 213.618 229.458 214.571C232.804 223.185 240.562 229.228 249.609 229.228C258.541 229.228 266.223 223.315 269.637 214.838C269.835 214.564 272.03 211.321 272.03 203.523Z" fill="#FEFEFE"/>
<path d="M258.056 221.92C258.034 221.874 257.995 221.828 257.973 221.782C257.973 221.782 255.755 217.616 259.405 214.732C259.405 214.732 267.667 216.457 267.865 205.493C267.865 205.493 267.667 204.325 268.825 202.029C268.825 202.029 266.707 200.099 262.096 203.57C257.477 207.019 254.985 216.838 252.485 214.534C250.016 212.245 250.923 199.465 249.635 198.977H249.589C248.317 199.473 249.223 212.245 246.747 214.534C244.255 216.838 241.747 207.019 237.136 203.57C232.518 200.099 230.414 202.029 230.414 202.029C231.565 204.325 231.367 205.493 231.367 205.493C231.565 216.457 239.827 214.732 239.827 214.732C243.485 217.616 241.275 221.798 241.275 221.798C241.252 221.843 241.221 221.889 241.198 221.927C231.337 211.322 225.605 212.764 228.433 224.643C231.215 236.317 241.884 286.414 243.576 298.034C243.348 308.486 242.136 312.217 241.823 313.018L240.741 315.178L241.93 317.55C243.812 320.289 245.108 323.349 245.573 324.516L249.643 334.862L253.674 324.539C254.154 323.349 255.458 320.29 257.325 317.55L258.567 315.292L257.447 313.026C257.127 312.24 255.953 308.647 255.686 298.568C257.089 288.153 267.995 236.515 270.822 224.643C273.642 212.764 267.918 211.322 258.056 221.92Z" fill="#002A5B"/>
<path d="M242.941 274.15C239.397 255.511 236.608 241.716 234.352 231.714C232.637 224.076 237.225 227.128 239.694 231.904L242.941 274.15ZM256.315 274.15C259.859 255.511 262.648 241.716 264.904 231.714C266.619 224.076 262.031 227.128 259.562 231.904L256.315 274.15H256.315ZM237.341 211.011C236.647 210.82 236.228 210.096 236.434 209.386C236.51 209.119 236.678 208.905 236.883 208.73C236.418 208.211 235.877 207.685 235.222 207.219C235.222 207.219 234.071 212.613 238.88 212.034C238.88 212.034 238.713 211.553 238.354 210.866C238.057 211.042 237.699 211.103 237.341 211.011V211.011ZM264.026 207.219C263.37 207.685 262.829 208.211 262.364 208.73C262.578 208.905 262.745 209.119 262.829 209.394C263.02 210.096 262.6 210.82 261.907 211.011C261.549 211.103 261.191 211.049 260.901 210.874C260.543 211.545 260.375 212.034 260.375 212.034C265.184 212.613 264.026 207.219 264.026 207.219ZM251.88 281.065C253.404 252.27 255.698 231.869 255.698 229.32C255.698 228.42 255.599 227.245 255.218 225.963L253.549 231.441L253.03 221.759C252.192 220.676 251.049 219.592 249.601 218.555H249.509C248.069 219.592 247.055 220.676 246.209 221.759L245.714 231.441L244.03 225.956C243.656 227.245 243.55 228.42 243.55 229.32C243.55 231.869 245.836 252.27 247.36 281.065C248.892 309.867 245.325 315.223 245.325 315.223C247.391 318.214 249.624 323.54 249.624 323.54C249.624 323.54 251.857 318.214 253.922 315.223C253.922 315.223 250.355 309.867 251.88 281.065Z" fill="#E21836"/>
<path d="M487.709 216.264C424.193 179.222 330.879 160.377 287.759 159.644C282.561 159.56 279.025 160.827 277.211 164.214C274.208 169.86 278.445 176.162 280.252 178.879C284.161 184.708 289.336 193.833 289.336 204.804C289.336 226.084 272.15 241.824 250.986 241.824C250.529 241.824 250.079 241.831 249.63 241.831C249.172 241.831 248.723 241.824 248.265 241.824C227.109 241.824 209.915 226.084 209.923 204.804C209.923 193.833 215.098 184.708 219 178.879C220.806 176.162 225.051 169.86 222.041 164.214C220.235 160.827 216.698 159.56 211.493 159.644C168.372 160.377 75.0658 179.222 11.543 216.264C11.5963 216.424 21.725 233.774 41.944 232.294C38.827 233.813 35.7175 235.369 32.6233 236.971C32.6766 237.162 41.8983 252.353 64.1675 250.155C60.4559 251.91 56.7673 253.696 53.0862 255.55C53.1319 255.756 63.7712 270.687 87.2292 270.298C81.8258 273.037 78.5563 274.777 78.5792 274.769C78.5944 274.883 94.0807 289.883 119.116 285.756C116.411 287.732 113.682 289.83 110.451 292.088C110.459 292.127 128.841 302.182 150.47 299.054C147.671 301.174 144.884 303.311 142.11 305.463C142.056 305.181 175.231 314.558 198.827 304.159C219.13 295.201 230.409 273.258 232.985 267.734C236.994 268.619 240.492 269.131 243.159 269.443C243.152 269.733 247.458 270.107 249.63 270.016C251.794 270.107 256.108 269.733 256.1 269.443C258.76 269.131 262.266 268.619 266.267 267.734C268.835 273.258 280.122 295.201 300.425 304.159C324.02 314.558 357.188 305.181 357.142 305.463C354.37 303.307 351.584 301.171 348.782 299.054C370.411 302.182 388.793 292.127 388.793 292.088C385.577 289.83 382.841 287.732 380.135 285.756C405.171 289.883 420.657 274.883 420.672 274.769C420.695 274.777 417.426 273.037 412.022 270.298C435.48 270.687 446.12 255.756 446.165 255.55C442.492 253.696 438.796 251.91 435.092 250.155C457.353 252.353 466.575 237.162 466.621 236.971C463.536 235.374 460.431 233.815 457.308 232.294C477.527 233.774 487.655 216.424 487.709 216.264Z" fill="#002A5B"/>
<path d="M231.349 256.529C231.349 256.529 174.586 237.508 199.248 176.989C199.248 176.989 139.239 179.484 56.9753 212.712C56.9753 212.712 51.2061 215.115 47.8451 216.32C44.4765 217.526 39.0655 219.678 31.3071 215.954C31.3071 215.954 106.544 176.577 203.211 167.445C215.954 166.239 217.638 168.169 214.27 172.984C211.511 176.928 176.994 220.898 231.349 256.529Z" fill="#FEFEFE"/>
<path d="M180.921 194.128C132.283 200.461 84.7188 217.422 84.7188 217.422C92.8202 231.842 114.784 225.791 114.784 225.791C155.992 214.11 174.382 210.15 180.281 209.006C180.053 204.413 180.243 199.454 180.921 194.128V194.128ZM181.283 217.837C173.158 219.408 139.107 226.405 104.758 239.291C104.758 239.291 115.588 251.636 137.072 245.532C155.142 240.405 178.31 233.004 185.223 230.784C183.493 226.885 182.144 222.575 181.283 217.837ZM188.829 237.611C181.49 239.984 144.794 251.887 129.3 257.838C129.3 257.838 138.186 269.771 163.847 259.661C181.719 252.619 191.565 248.507 195.909 246.645C193.326 243.967 190.933 240.961 188.829 237.611ZM201.575 251.835C195.165 254.619 171.349 265.034 157.578 271.68C157.578 271.68 174.908 280.21 196.713 266.72L210.271 257.816C207.321 256.092 204.387 254.108 201.575 251.835ZM216.865 261.283C212.506 264.006 194.444 275.382 185.626 281.906C185.626 281.906 200.594 288.101 215.951 273.62C220.95 268.912 223.679 266.242 225.18 264.716C222.535 263.762 219.738 262.633 216.865 261.283Z" fill="#B49759"/>
<path d="M267.907 256.529C267.907 256.529 324.67 237.508 300.007 176.989C300.007 176.989 360.017 179.484 442.273 212.712C442.273 212.712 448.042 215.115 451.41 216.32C454.779 217.526 460.19 219.678 467.941 215.954C467.941 215.954 392.704 176.577 296.044 167.445C283.294 166.239 281.617 168.169 284.978 172.984C287.745 176.928 322.261 220.898 267.907 256.529" fill="#FEFEFE"/>
<path d="M318.331 194.128C366.969 200.461 414.533 217.422 414.533 217.422C406.439 231.842 384.467 225.791 384.467 225.791C343.259 214.11 324.877 210.15 318.978 209.006C319.207 204.413 319.009 199.454 318.331 194.128V194.128ZM317.973 217.837C326.09 219.408 360.141 226.405 394.498 239.291C394.498 239.291 383.66 251.636 362.184 245.532C344.114 240.405 320.945 233.004 314.033 230.784C315.755 226.885 317.104 222.575 317.973 217.837ZM310.426 237.611C317.758 239.984 354.462 251.887 369.948 257.838C369.948 257.838 361.07 269.771 335.409 259.661C317.537 252.619 307.691 248.507 303.346 246.645C305.93 243.967 308.323 240.961 310.427 237.611H310.426ZM297.681 251.835C304.09 254.619 327.907 265.034 341.678 271.68C341.678 271.68 324.347 280.21 302.535 266.72L288.985 257.816C291.934 256.092 294.861 254.108 297.681 251.835ZM282.39 261.283C286.75 264.006 304.812 275.382 313.63 281.906C313.63 281.906 298.654 288.101 283.29 273.62C278.305 268.912 275.577 266.242 274.076 264.716C276.72 263.762 279.517 262.633 282.39 261.283Z" fill="#B49759"/>
<path d="M296.107 289.566C296.107 315.278 275.301 336.115 249.625 336.115C223.949 336.115 203.144 315.278 203.144 289.566C203.144 263.869 223.95 243.025 249.625 243.025C275.301 243.025 296.107 263.869 296.107 289.566Z" fill="#FEFEFE"/>
<path d="M286.491 299.193C286.491 319.595 269.984 336.113 249.627 336.113C229.263 336.113 212.764 319.595 212.764 299.193C212.764 278.814 229.264 262.288 249.627 262.288C269.984 262.288 286.491 278.814 286.491 299.193Z" fill="#B49759"/>
<path d="M274.092 324.787C272.224 323.322 269.572 320.728 269.1 317.524C269.054 317.241 269.031 316.959 268.993 316.669C278.443 312.702 286.423 305.865 291.819 297.106C289.784 308.528 283.237 318.393 274.091 324.787H274.092ZM207.429 297.068C212.825 305.85 220.804 312.694 230.27 316.669C230.232 316.959 230.209 317.241 230.163 317.531C229.683 320.743 227.038 323.33 225.171 324.787C216.01 318.393 209.456 308.513 207.429 297.068ZM217.306 261.422C215.393 272.02 219.783 282.007 223.807 291.14C226.604 297.503 229.286 303.607 230.148 309.787C219.082 304.255 210.676 294.131 207.543 281.443C208.999 273.874 212.444 267.007 217.306 261.422ZM262.66 312.305C259.474 313.327 256.144 313.999 252.722 314.25V246.773C259.596 247.269 266.021 249.383 271.622 252.747C280.128 265.046 275.334 276.026 269.778 288.637C266.448 296.206 263.033 303.988 262.66 312.305ZM252.722 320.453C256.273 320.24 259.718 319.668 263.033 318.76C263.727 322.75 266.188 325.924 268.475 328.098C263.658 330.479 258.338 331.967 252.722 332.371V320.453ZM236.229 318.76C239.545 319.668 242.989 320.24 246.526 320.453V332.371C240.916 331.967 235.597 330.479 230.78 328.098C233.074 325.924 235.536 322.75 236.229 318.76ZM227.64 252.747C233.234 249.383 239.667 247.269 246.526 246.773V314.25C243.104 314.014 239.781 313.365 236.603 312.381C236.252 304.034 232.823 296.237 229.477 288.637C223.914 276.025 219.127 265.046 227.64 252.747ZM291.719 281.481C288.625 293.902 280.128 304.042 269.13 309.642C270.014 303.508 272.674 297.45 275.448 291.14C279.472 282 283.862 272.012 281.941 261.422C286.819 267.022 290.264 273.897 291.719 281.481ZM249.627 239.403C222.008 239.403 199.533 261.911 199.533 289.568C199.533 317.226 222.008 339.726 249.628 339.726C277.254 339.726 299.729 317.226 299.729 289.568C299.729 261.911 277.254 239.403 249.628 239.403H249.627Z" fill="#002A5B"/>
<path d="M264.51 174.293C264.51 174.293 264.136 175.873 263.176 175.873C262.216 175.873 256.202 172.981 253.314 171.409C252.079 170.745 250.349 169.738 249.747 169.387C249.747 169.387 247.171 170.745 245.937 171.409C243.048 172.981 237.043 175.873 236.075 175.873C235.115 175.873 234.741 174.293 234.741 174.293C234.741 174.293 218.958 183.83 218.958 210.183C218.958 229.799 229.155 238.703 229.155 238.703L230.542 244.25H268.701L270.088 238.703C270.088 238.703 280.293 229.799 280.293 210.183C280.293 183.83 264.51 174.293 264.51 174.293Z" fill="#002A5B"/>
<path d="M272.03 203.523C272.03 195.383 268.723 188.745 265.156 184.792C265.156 184.792 265.034 187.127 261.147 184.525C257.794 182.214 253.846 180.863 249.609 180.863C245.348 180.863 241.393 182.221 238.032 184.541C234.282 187.097 234.099 184.793 234.099 184.793C230.54 188.745 227.225 195.383 227.225 203.524C227.225 210.291 228.879 213.618 229.458 214.571C232.804 223.185 240.562 229.228 249.609 229.228C258.541 229.228 266.223 223.315 269.637 214.838C269.835 214.564 272.03 211.321 272.03 203.523Z" fill="#FEFEFE"/>
<path d="M258.056 221.92C258.034 221.874 257.995 221.828 257.973 221.782C257.973 221.782 255.755 217.616 259.405 214.732C259.405 214.732 267.667 216.457 267.865 205.493C267.865 205.493 267.667 204.325 268.825 202.029C268.825 202.029 266.707 200.099 262.096 203.57C257.477 207.019 254.985 216.838 252.485 214.534C250.016 212.245 250.923 199.465 249.635 198.977H249.589C248.317 199.473 249.223 212.245 246.747 214.534C244.255 216.838 241.747 207.019 237.136 203.57C232.518 200.099 230.414 202.029 230.414 202.029C231.565 204.325 231.367 205.493 231.367 205.493C231.565 216.457 239.827 214.732 239.827 214.732C243.485 217.616 241.275 221.798 241.275 221.798C241.252 221.843 241.221 221.889 241.198 221.927C231.337 211.322 225.605 212.764 228.433 224.643C231.215 236.317 241.884 286.414 243.576 298.034C243.348 308.486 242.136 312.217 241.823 313.018L240.741 315.178L241.93 317.55C243.812 320.289 245.108 323.349 245.573 324.516L249.643 334.862L253.674 324.539C254.154 323.349 255.458 320.29 257.325 317.55L258.567 315.292L257.447 313.026C257.127 312.24 255.953 308.647 255.686 298.568C257.089 288.153 267.995 236.515 270.822 224.643C273.642 212.764 267.918 211.322 258.056 221.92Z" fill="#002A5B"/>
<path d="M242.941 274.15C239.397 255.511 236.608 241.716 234.352 231.714C232.637 224.076 237.225 227.128 239.694 231.904L242.941 274.15ZM256.315 274.15C259.859 255.511 262.648 241.716 264.904 231.714C266.619 224.076 262.031 227.128 259.562 231.904L256.315 274.15H256.315ZM237.341 211.011C236.647 210.82 236.228 210.096 236.434 209.386C236.51 209.119 236.678 208.905 236.883 208.73C236.418 208.211 235.877 207.685 235.222 207.219C235.222 207.219 234.071 212.613 238.88 212.034C238.88 212.034 238.713 211.553 238.354 210.866C238.057 211.042 237.699 211.103 237.341 211.011V211.011ZM264.026 207.219C263.37 207.685 262.829 208.211 262.364 208.73C262.578 208.905 262.745 209.119 262.829 209.394C263.02 210.096 262.6 210.82 261.907 211.011C261.549 211.103 261.191 211.049 260.901 210.874C260.543 211.545 260.375 212.034 260.375 212.034C265.184 212.613 264.026 207.219 264.026 207.219ZM251.88 281.065C253.404 252.27 255.698 231.869 255.698 229.32C255.698 228.42 255.599 227.245 255.218 225.963L253.549 231.441L253.03 221.759C252.192 220.676 251.049 219.592 249.601 218.555H249.509C248.069 219.592 247.055 220.676 246.209 221.759L245.714 231.441L244.03 225.956C243.656 227.245 243.55 228.42 243.55 229.32C243.55 231.869 245.836 252.27 247.36 281.065C248.892 309.867 245.325 315.223 245.325 315.223C247.391 318.214 249.624 323.54 249.624 323.54C249.624 323.54 251.857 318.214 253.922 315.223C253.922 315.223 250.355 309.867 251.88 281.065Z" fill="#E21836"/>
</svg>