<svg width="500" height="500" viewBox="0 0 500 500" fill="none" xmlns="http://www.w3.org/2000/svg">
<path d="M247.233 441.534L215.89 400.837C176.007 387.687 148.25 351.662 145.683 309.746L126.236 284.504C107.748 292.472 89.2296 305.093 89.2296 305.093L30.9086 246.582L55.4896 192.715L11.5415 135.652H81.4688L95.0028 106.177L129.632 92.2082L133.467 81.7742L161.534 94.5846L168.206 71.2702L172.781 69.7525C194.985 62.3538 220.554 58.3799 246.743 58.2301C247.492 58.1802 255.813 58.33 256.013 58.33C256.991 58.33 261.077 58.5497 261.077 58.5497C283.22 59.618 304.036 63.3024 322.933 69.5129L327.578 71.0407L333.711 93.2666L343.819 85.6382L400.532 105.797L414.225 135.662H484.503L440.075 192.954L464.286 246.043L405.056 307.01C405.056 307.01 383.342 291.174 368.45 285.273L350.601 308.288C348.563 351.202 319.358 388.845 278.296 401.476L247.233 441.534Z" fill="#FEFEFE"/>
<path d="M247.286 413.334L449.337 152.912L46.5732 152.902L247.286 413.334Z" fill="#B3B1B1"/>
<path d="M449.337 152.906L247.286 413.328L46.5731 152.896L449.337 152.906ZM29.9727 144.729L247.266 426.678L466.007 144.739L29.9727 144.729Z" fill="#0F4B90"/>
<path d="M420.166 171.023L420.096 170.853L419.936 170.753L407.012 162.066L411.826 152.87L411.966 152.591L411.836 152.301L394.047 113.311L393.927 113.071L393.678 112.982L345.714 95.9075L345.375 95.7877L345.095 95.9974L332.38 105.703L332.24 105.812L332.17 105.972L329.993 111.304C329.993 111.304 310.106 106.312 280.901 103.396C277.924 103.097 269.974 102.448 257.289 101.449L256.06 101.349L254.782 101.259L254.482 101.229L254.272 101.439L244.794 110.885L244.804 101.19C244.804 101.19 217.915 102.707 200.306 105.104C182.697 107.49 165.387 111.853 165.387 111.853L162.201 105.034L162.101 104.824L161.882 104.714L139.248 94.3599L138.609 94.0803L138.369 94.7293L135.742 101.898L135.143 100.461L134.893 99.8715L134.304 100.111L101.912 113.091L101.673 113.191L101.563 113.431L41.8135 244.65L90.8655 293.765L93.1528 292.457C94.631 291.618 96.7286 290.39 99.0858 288.992C105.019 285.498 113.149 280.715 117.035 278.838L117.824 278.459C122.848 276.032 125.375 274.804 149.217 264.61L151.204 263.861C151.234 263.861 153.891 262.822 158.795 261.195C171.89 256.852 205.909 246.727 238.881 246.727H239.25C240.569 246.727 241.877 246.747 243.195 246.787C265.589 247.406 291.758 252.159 309.767 256.033C327.106 259.767 340.141 263.362 343.846 264.4L346.343 265.169C362.744 271.509 382.79 281.963 401.368 293.855L403.726 295.373L453.377 244.251L420.166 171.023V171.023Z" fill="#0F4B90"/>
<path d="M414.83 175.571L367.106 143.73L358.806 120.435L373.588 125.687L379.561 140.245L402.025 147.444L388.92 118.488L346.52 103.431L338.74 109.452L352.833 155.242L398.209 187.303L409.846 216.279L390.978 207.772L384.496 189.739L361.343 182.92L373.718 223.677C377.534 225.085 381.329 226.533 385.085 228.051C395.383 232.224 405.481 236.837 415.339 241.889C422.171 245.374 428.893 249.088 435.495 252.992L445.364 242.868L414.83 175.571H414.83ZM92.9842 197.16L108.885 182.962L112.681 187.385L96.9795 232.526C105.578 228.734 114.317 225.27 123.178 222.142L134.555 184.919L124.737 168.703L145.073 149.383L156.959 109.793L142.356 103.233L129.231 140.556L108.196 158.659L127.373 110.283L106.758 118.5L49.9551 243.07L58.8445 251.976C64.1183 248.911 69.462 245.955 74.8756 243.14L92.9842 197.16ZM236.923 108.331L219.504 109.249L211.313 202.686C218.715 201.988 226.176 201.508 233.687 201.249L236.923 108.331L236.923 108.331ZM288.607 183.293L268.381 182.085L265.135 124.862L282.274 125.691L280.267 109.925L257.224 108.288L246.906 118.572L246.886 190.143L257.703 201.216C268.87 201.555 279.927 202.394 290.844 203.712L288.607 183.293V183.293ZM173.998 145.212L181.3 180.738L176.575 207.657C183.647 206.299 190.769 205.131 197.96 204.182L198.01 204.172L209.267 110.475L193.096 112.832L187.782 143.505L181.769 114.629L162.752 119.392L136.293 217.771C143.941 215.38 151.666 213.242 159.456 211.361L173.998 145.212V145.212ZM314.572 178.123L320.266 170.435L328.576 177.284L336.227 212.121C344.257 214.138 352.198 216.414 360.029 218.951L345.755 167.849L331.033 155.817L339.413 144.644L332.451 118.704L314.682 114.75L321.674 140.87L310.607 155.657L302.437 112.703L285.986 110.616C285.986 110.616 294.236 173.62 298.132 204.652C305.583 205.711 312.964 206.999 320.275 208.487L314.572 178.123Z" fill="#F26729"/>
<path d="M213.869 220.432C213.869 220.432 220.721 216.418 234.435 214.901L233.995 204.107C226.475 204.357 219.003 204.826 211.592 205.525C212.241 209.749 213.21 216.039 213.869 220.432ZM257.446 214.247C263.019 214.896 268.982 216.723 274.226 218.201C278.96 219.339 284.064 221.376 288.239 223.233L290.547 206.608C279.52 205.251 269.102 204.432 257.825 204.082C257.666 207.307 257.656 211.86 257.446 214.247ZM185.297 240.589C191.68 235.846 195.515 230.963 202.237 226.87C200.959 220.839 199.261 213.021 198.022 207.05C190.711 208.018 183.469 209.226 176.298 210.614C179.045 219.561 182.55 231.552 185.297 240.589H185.297ZM293.806 226.579C300.028 230.183 304.883 234.257 310.446 239.659L311.545 240.498L320.315 211.492C312.764 209.924 305.422 208.566 297.711 207.478L293.806 226.579V226.579ZM321.477 251.781L342.382 256.704L359.972 221.937C351.861 219.291 344.04 217.114 335.72 215.028L321.477 251.781ZM153.299 256.7C158.753 254.693 166.374 251.937 173.485 250.04L159.911 214.165C151.711 216.152 144.559 218.239 136.569 220.765C141.623 232.786 147.286 245.168 153.299 256.7V256.7ZM121.767 269.613C122.976 268.575 134.842 263.453 142.962 260.018C136.789 248.855 129.368 236.534 123.175 225.171C114.326 228.326 106.265 231.601 97.7056 235.405L121.767 269.613ZM92.1632 285.31C95.9387 283.044 99.944 280.717 104.349 278.171L76.6115 245.461C71.3378 248.197 66.1339 251.063 61 254.038L92.1632 285.31ZM353.451 261.002C370.102 267.462 393.384 280.513 402.643 286.723C406.918 282.639 430.081 258.326 433.267 254.992C414.01 243.699 393.774 234.094 372.719 226.355L353.451 261.002ZM254.244 213.703L246.293 213.423L246.153 194.113L254.423 202.69L254.244 213.703Z" fill="#B3B1B1"/>
<path d="M248.107 209.879C196.428 209.879 154.548 251.755 154.538 303.416C154.548 355.068 196.428 396.944 248.107 396.944C299.776 396.944 341.676 355.068 341.676 303.417C341.676 251.756 299.776 209.88 248.107 209.88" fill="#0F4B90"/>
<path d="M253.86 216.881C246.678 219.387 239.767 223.031 232.915 226.206C228.24 223.411 225.563 222.702 222.407 220.665C232.245 217.09 242.833 216.551 253.86 216.881ZM320.888 256.59C298.844 234.384 265.773 235.991 237.716 228.133C237.716 228.133 254.226 220.275 262.746 218.099C285.669 222.003 307.863 235.722 320.888 256.59ZM196.958 259.928C175.783 292.408 172.917 332.427 189.777 367.493C167.982 349.191 154.998 313.756 164.776 279.348C172.787 268.155 183.095 258.26 196.958 259.928" fill="#F26729"/>
<path d="M219.631 283.057C231.047 316.985 233.574 354.537 263.129 388.705C240.086 393.378 217.253 386.479 199.055 374.946C176.502 342.056 178.629 292.991 201.172 261.1C212.159 264.265 218.142 278.623 219.631 283.057Z" fill="#F26729"/>
<path d="M203.789 257.518C207.215 252.685 211.08 248.122 215.425 243.868C263.359 257.398 309.065 307.082 316.895 355.907C314.608 359.592 309.135 364.734 305.459 368.408C293.543 379.112 280.419 384.653 267.823 387.659C245.44 364.444 238.069 334.31 230.158 304.606C224.095 281.81 219.88 264.617 203.809 257.637L203.789 257.518Z" fill="#F26729"/>
<path d="M315.783 257.303C292.63 236.884 260.378 239.5 233.32 229.985C228.097 233.19 222.983 236.974 218.618 240.888C266.551 255.915 310.05 302.763 320.408 351.179C327.919 340.326 332.463 327.725 334.291 314.356C335.46 293.827 335.26 275.146 315.783 257.303V257.303ZM211.475 242.371C206.851 246.814 203.385 251.187 199.779 256.289L199.669 256.259C186.984 253.424 176.976 259.984 168.936 268.161C172.771 258.476 180.812 246.984 189.322 239.475C197.172 239.815 202.885 239.695 211.475 242.371ZM214.874 239.4C219.409 235.366 223.804 231.842 229.257 228.567L216.962 222.476C208.781 225.821 200.022 230.174 194.009 235.676C203.308 236.764 207.283 237.333 214.874 239.4Z" fill="#F26729"/>
<path d="M234.854 95.2196L231.068 98.9838L224.586 99.3733L222.169 97.2765L219.122 99.8625L212.061 100.522L208.954 97.566L213.03 69.9283L218.373 69.1993L215.487 93.6021L219.322 93.1827L222.299 68.7301L227.582 68.2109L225.375 92.4938L229.131 92.1443L231.058 67.9813C233.306 67.7416 234.464 67.7616 236.432 67.6517L234.854 95.2196H234.854ZM252.191 67.2763L252.241 84.6697L255.647 84.6497L255.437 67.3562C255.437 67.3562 259.023 67.466 260.631 67.6058L261.32 87.106L258.034 90.391L256.956 90.441L257.115 98.7881L251.312 98.6184L251.242 90.2612L250.084 90.1713L246.568 86.5868L246.788 67.1865C248.665 67.1865 252.191 67.2763 252.191 67.2763ZM209.14 70.4994L208.231 76.2107L201.769 77.4287L200.6 84.1086C202.967 83.6792 204.416 83.4496 207.232 83.0702C206.843 85.5564 206.723 86.4151 206.293 88.7615L199.801 89.6901L198.583 96.0803L205.235 95.1217C205.235 95.1217 204.576 99.4252 204.236 101.342C199.581 101.921 194.897 102.59 190.432 103.369C190.432 103.369 195.436 80.1846 196.675 73.0355L209.14 70.4994ZM184.777 104.392L178.035 105.72L181.131 93.0789L179.034 88.5458L173.74 106.738L167.158 108.236C169.895 98.3907 172.701 88.5358 175.438 78.6909C177.705 77.932 179.393 77.4129 181.391 76.8237C182.12 78.4812 183.898 81.8261 183.898 81.8261L185.496 75.6555C185.496 75.6555 189.671 74.5572 191.769 74.0779L184.777 104.392ZM270.667 73.9711L272.355 92.8422L275.701 93.1118L273.924 74.3305L270.667 73.9711ZM279.547 72.6331C280.216 80.5511 281.525 88.1294 282.324 95.5181L279.377 100.011L269.848 99.3823L266.412 95.638C265.803 87.5603 265.384 79.4128 264.884 71.3052C265.763 70.1469 267.102 69.2483 268.15 68.12L276.091 68.8888L279.547 72.6331ZM310.334 75.4628C311.522 79.9958 313.839 89.3416 313.839 89.3416L316.097 89.8009L317.195 88.2932L314.369 76.6809C314.369 76.6809 317.165 77.4597 320.162 78.3684L323.158 89.6112L321.75 91.6381L324.367 94.5137L328.322 108.213L321.81 106.755L319.253 97.1497L315.198 96.241L317.415 105.806L310.813 104.508C308.506 94.2042 304.331 73.9152 304.331 73.9152C304.331 73.9152 307.687 74.6141 310.334 75.4628ZM290.863 76.9635L291.991 84.8315L295.577 85.2309L294.059 77.5426L290.863 76.9636V76.9635ZM300.022 76.5641L302.199 87.8668L300.941 89.6042L303.158 92.2502L305.076 103.473L298.733 102.365L297.005 93.019L293.19 92.5996L294.538 101.716L288.206 100.917L284.001 69.9143L296.106 72.051L300.022 76.5641Z" fill="#0F4B90"/>
</svg>