<svg width="500" height="500" viewBox="0 0 500 500" fill="none" xmlns="http://www.w3.org/2000/svg">
<mask id="mask0" mask-type="alpha" maskUnits="userSpaceOnUse" x="0" y="101" width="500" height="294">
<path d="M499.962 394.278H0V101.04H499.962V394.278Z" fill="white"/>
</mask>
<g mask="url(#mask0)">
<path d="M268.555 170.68V170.69L268.545 170.701L268.555 170.68ZM284.121 244.861V244.85H284.131C284.121 244.85 284.121 244.861 284.121 244.861ZM499.848 190.547C499.827 190.454 499.858 190.36 499.837 190.267C499.775 190.028 499.63 189.841 499.547 189.612C499.423 189.29 499.319 188.968 499.143 188.677C498.977 188.417 498.77 188.209 498.563 187.981C498.335 187.742 498.138 187.492 497.868 187.284C497.589 187.087 497.288 186.952 496.977 186.806C496.718 186.682 496.469 186.536 496.19 186.453C495.837 186.36 495.475 186.349 495.101 186.329C494.853 186.308 494.625 186.214 494.366 186.235C464.261 188.656 433.307 193.29 402.218 199.826C404.037 194.934 405.764 190.008 407.399 185.05C436.841 179.72 466.468 174.919 495.516 170.794C495.744 170.763 495.92 170.638 496.138 170.576C496.449 170.493 496.749 170.41 497.029 170.275C497.33 170.119 497.589 169.932 497.858 169.734C498.107 169.547 498.335 169.371 498.542 169.152C498.77 168.903 498.946 168.633 499.122 168.342C499.278 168.082 499.444 167.833 499.558 167.542C499.682 167.23 499.734 166.898 499.796 166.555C499.837 166.326 499.951 166.129 499.962 165.89C499.962 165.796 499.92 165.703 499.92 165.609C499.92 165.516 499.962 165.422 499.951 165.318C499.941 165.058 499.817 164.83 499.765 164.58C499.703 164.269 499.651 163.957 499.537 163.666C499.402 163.354 499.205 163.084 499.019 162.804C498.853 162.544 498.708 162.294 498.49 162.076C498.262 161.827 497.972 161.65 497.692 161.453C497.444 161.276 497.226 161.089 496.946 160.964C496.615 160.808 496.262 160.746 495.91 160.673C495.661 160.611 495.443 160.486 495.184 160.466C469.36 158.45 442.478 157.961 415.203 158.865C415.938 156.101 416.664 153.306 417.369 150.47C417.949 148.132 416.85 145.7 414.716 144.599C354.797 113.655 307.075 101.04 250.016 101.04C192.947 101.04 145.225 113.655 85.275 144.599C83.1403 145.7 82.0418 148.132 82.6118 150.47L86.2388 165.121C91.6898 187.098 99.2858 208.098 108.664 227.903C70.8394 244.133 35.0662 262.837 2.40185 283.66C0.173855 285.084 -0.634445 287.962 0.526155 290.342C1.42775 292.16 3.26205 293.241 5.17915 293.241C5.76985 293.241 6.37095 293.137 6.95125 292.929C38.1233 281.572 70.5906 270.682 103.452 260.343C97.4308 273.103 91.5032 285.926 85.8036 298.8L84.8813 300.857C81.7309 307.798 77.4095 317.316 80.477 325.307C81.9278 329.089 84.7673 331.916 89.6793 333.983C90.2803 334.139 90.8711 334.274 91.4721 334.378C68.5077 350.463 46.8801 367.473 26.8898 385.19C24.9104 386.946 24.5685 389.918 26.0918 392.079C27.097 393.503 28.6929 394.282 30.3303 394.282C31.2086 394.283 32.0723 394.057 32.8381 393.627C78.2178 368.44 126.178 343.959 175.413 320.839C196.211 341.039 220.316 359.41 247.353 375.651C248.99 376.628 251.032 376.628 252.679 375.651C316.412 337.34 359.678 291.734 388.352 232.527C424.55 219.434 460.862 207.287 496.304 196.387C496.532 196.314 496.697 196.158 496.915 196.065C497.195 195.94 497.454 195.816 497.703 195.649C497.993 195.441 498.231 195.202 498.48 194.953C498.677 194.735 498.874 194.537 499.039 194.288C499.236 193.997 499.361 193.696 499.495 193.374C499.609 193.104 499.734 192.833 499.796 192.532C499.868 192.189 499.868 191.846 499.879 191.493C499.879 191.264 499.962 191.046 499.931 190.818C499.92 190.724 499.858 190.641 499.848 190.547V190.547Z" fill="#FEFEFE"/>
</g>
<path d="M494.784 191.421C458.71 202.508 421.973 214.811 384.749 228.309C388.065 221.358 391.174 214.188 394.117 206.8L494.784 191.421ZM394.119 206.8C428.524 199.131 462.246 194.029 494.786 191.421L394.119 206.8ZM30.3252 389.082C59.1033 363.573 91.55 339.3 127.105 316.959C133.79 313.561 140.484 310.195 147.21 306.859C149.977 305.488 155.396 302.848 162.215 299.565C166.796 304.729 171.542 309.737 176.454 314.621C125.396 338.499 76.5443 363.427 30.3252 389.082Z" fill="#0070B9"/>
<path d="M494.784 165.648C464.886 169.898 434.43 174.833 403.517 180.476C405.227 175.176 406.833 169.763 408.387 164.255" fill="#EF5133"/>
<path d="M408.388 164.252C438.13 162.995 467.032 163.483 494.784 165.645L408.388 164.252Z" fill="#ED2A37"/>
<path d="M5.18164 288.045C38.5816 266.754 75.5776 247.365 115.527 230.521C116.854 233.202 118.232 235.873 119.621 238.501C117.486 242.907 115.341 247.302 113.227 251.729C76.0855 263.221 40.0325 275.348 5.18164 288.045Z" fill="#EF5133"/>
<path d="M250.008 116.58C306.31 116.58 350.467 129.786 400.313 154.704C375.929 246.871 331.296 308.78 250.018 359.083C219.479 340.14 193.519 319.026 171.829 294.96C181.477 290.368 192.359 285.193 201.913 280.662C205.779 281.016 209.489 281.203 212.94 281.296C212.722 286.606 211.054 290.503 208.38 293.298C209.934 295.075 211.52 296.862 213.105 298.608C217.323 294.825 220.028 289.256 220.245 281.317C230.132 281.161 239.676 280.143 248.537 278.262C248.039 292.778 246.018 303.471 241.894 307.71C241.749 307.845 241.676 307.949 241.604 308.094C240.578 309.175 239.655 310.089 238.857 310.786C242.847 310.058 246.754 309.134 250.619 308.042C255.594 297.724 255.656 279.654 255.728 276.516C264.962 274.189 273.169 271.851 280.558 269.316C280.848 277.805 284.227 285.91 290.693 288.902C293.605 286.845 296.424 284.653 299.15 282.387C297.512 282.637 287.294 283.343 287.439 266.853C309.067 258.675 323.15 248.825 335.544 234.101C338.819 226.692 341.462 218.92 343.327 210.867C328.508 234.319 314.85 248.004 288.185 258.738C288.942 254.01 290.31 248.357 292.517 241.582C300.289 238.319 308.404 234.423 313.295 232.407L324.953 220.125C327.886 208.778 330.798 197.421 333.71 186.074L324.591 188.921L335.306 177.626C337.565 168.742 339.773 159.837 341.98 150.953C336.612 151.742 331.233 152.543 325.855 153.384C326.757 148.937 327.399 144.542 327.741 140.146C325.15 139.492 322.56 138.858 319.948 138.276C319.399 143.212 318.435 148.687 316.974 154.787L316.238 154.901C311.202 155.753 306.041 157.416 301.554 161.209L302.994 156.834C294.351 158.403 285.74 159.993 277.128 161.666L268.548 170.706L268.827 169.979L271.605 162.736C263.086 164.492 254.589 166.29 246.081 168.15C244.308 156.626 242.526 146.214 240.982 137.787C238.567 138.068 236.153 138.411 233.759 138.754C235.313 147.274 237.127 157.946 238.94 169.729L232.909 171.09L225.251 179.185C219.883 173.491 208.991 177.086 202.121 178.821C194.68 180.702 187.25 182.655 179.819 184.661C177.602 185.274 175.394 185.949 173.228 186.698C167.663 178.655 162.43 170.353 158.109 161.416L157.332 159.764C155.082 160.679 152.847 161.628 150.627 162.611L151.58 164.586C155.787 173.324 160.855 181.492 166.316 189.42C158.306 192.994 150.907 197.951 144.492 205.037C144.492 205.037 134.077 215.969 132.854 217.309C130.149 220.426 127.818 223.741 125.755 227.118C114.822 205.048 106.149 181.035 99.6406 154.714C149.497 129.797 193.675 116.569 250.008 116.58H250.008ZM255.511 256.098C260.692 253.812 265.874 251.547 271.035 249.272L273.46 246.747C274.475 246.913 275.646 246.944 276.962 246.819C278.983 246.476 281.45 245.78 284.123 244.845C282.382 251.215 281.325 256.722 280.848 261.512C273.48 264.12 265.211 266.583 255.811 268.962C255.801 264.847 255.697 260.546 255.511 256.098V256.098ZM219.655 272.298L224.515 270.033L236.992 259.974L239.769 252.285C241.573 255.942 242.547 257.376 244.339 261.065L248.443 259.257C248.588 263.216 248.651 267.071 248.651 270.75C239.645 272.817 229.914 273.929 219.872 274.085L219.655 272.298Z" fill="#FEFEFE"/>
<path d="M280.339 135.443C292.235 135.443 303.977 136.067 315.552 137.314C324.361 139.163 333.086 141.408 341.74 144.026C345.035 155.612 346.817 167.853 346.817 180.488C346.817 190.952 345.615 201.104 343.325 210.861C328.506 234.313 314.847 248.008 288.183 258.742C288.94 254.014 290.318 248.351 292.515 241.586C300.288 238.313 308.402 234.427 313.283 232.401L324.951 220.119C327.884 208.772 330.796 197.415 333.708 186.068L324.589 188.915L335.314 177.62C337.563 168.736 339.781 159.841 341.978 150.957C336.61 151.736 331.232 152.536 325.853 153.378C326.755 148.941 327.397 144.535 327.739 140.14C325.15 139.483 322.552 138.863 319.946 138.28C319.407 143.205 318.433 148.692 316.972 154.791L316.236 154.906C311.189 155.758 306.039 157.42 301.552 161.202L302.992 156.828C294.35 158.397 285.738 159.997 277.126 161.66L268.545 170.7L268.836 169.972L271.603 162.74C263.095 164.486 254.586 166.294 246.078 168.154C244.306 156.63 242.534 146.219 240.98 137.792C253.882 136.223 267.001 135.443 280.339 135.443ZM335.542 234.095C327.242 252.902 314.703 269.393 299.158 282.381C297.51 282.631 287.282 283.337 287.437 266.847C309.075 258.669 323.148 248.819 335.542 234.095ZM290.691 288.896C278.639 297.406 265.146 303.942 250.628 308.036C255.592 297.718 255.654 279.648 255.737 276.521C264.96 274.193 273.167 271.845 280.556 269.32C280.846 277.799 284.225 285.904 290.691 288.896ZM238.866 310.79C234.793 311.548 230.669 312.11 226.492 312.484C221.89 307.992 217.425 303.363 213.103 298.601C217.311 294.819 220.026 289.25 220.243 281.321C230.13 281.155 239.674 280.147 248.535 278.256C248.037 292.772 246.016 303.464 241.902 307.704C241.747 307.839 241.674 307.953 241.612 308.088C240.565 309.179 239.653 310.083 238.866 310.79ZM208.388 293.292C205.186 289.613 202.067 285.852 199.03 282.028L201.911 280.656C205.777 281.02 209.487 281.207 212.938 281.29C212.73 286.6 211.051 290.507 208.388 293.292ZM151.143 198.693C147.112 188.437 143.547 177.932 140.5 167.198C143.847 165.608 147.236 164.081 150.635 162.605L151.578 164.59C155.786 173.329 160.853 181.485 166.314 189.414C160.946 191.804 155.848 194.827 151.143 198.693V198.693ZM157.33 159.758C182.159 149.565 207.549 142.54 233.767 138.758C235.311 147.279 237.125 157.94 238.938 169.733L232.907 171.084L225.249 179.189C219.87 173.495 208.979 177.09 202.118 178.815C194.678 180.717 187.237 182.649 179.817 184.655C177.6 185.268 175.392 185.943 173.226 186.691C167.661 178.649 162.428 170.346 158.107 161.41L157.33 159.758ZM255.519 256.092C260.69 253.806 265.872 251.541 271.033 249.276L273.458 246.751C274.473 246.907 275.644 246.959 276.96 246.813C278.971 246.47 281.437 245.774 284.131 244.849C282.38 251.208 281.334 256.716 280.847 261.506C273.478 264.124 265.209 266.577 255.809 268.967C255.799 264.841 255.695 260.55 255.519 256.092ZM219.653 272.292L224.513 270.037L236.99 259.968L239.768 252.279C241.571 255.947 242.555 257.37 244.338 261.069L248.441 259.251C248.586 263.22 248.649 267.075 248.649 270.764C239.643 272.811 229.912 273.923 219.87 274.079L219.653 272.292L219.653 272.292Z" fill="#EF5133"/>
<path d="M252.441 343.749C228.513 327.497 207.186 308.368 188.75 286.9L199.03 282.027C202.066 285.851 205.186 289.602 208.388 293.291C209.943 295.079 211.514 296.852 213.103 298.611C226.761 313.646 241.881 327.414 258.358 339.78C256.398 341.121 254.425 342.444 252.441 343.749V343.749ZM139.702 210.08C132.707 194.733 126.82 178.772 122.126 162.261C163.847 142.518 207.051 131.868 252.907 130.631C274.348 130.818 295.188 133.063 315.562 137.313C303.976 136.076 292.235 135.442 280.338 135.442C266.991 135.442 253.881 136.232 240.979 137.791C238.565 138.071 236.161 138.404 233.767 138.757C207.538 142.539 182.159 149.563 157.329 159.757C155.08 160.682 152.852 161.627 150.624 162.614C147.236 164.08 143.847 165.607 140.5 167.197C143.546 177.931 147.101 188.436 151.142 198.692C148.831 200.583 146.603 202.703 144.5 205.03L139.702 210.08H139.702Z" fill="#FCB424"/>
<path d="M87.6455 149.219C141.575 121.381 188.882 106.231 250.013 106.231C311.114 106.231 358.431 121.381 412.34 149.219C387.292 250.405 339.467 317.416 250.013 371.189C216.251 350.906 186.747 327.142 162.218 299.565C155.399 302.848 149.979 305.477 147.202 306.849C138.756 311.067 130.31 315.307 121.906 319.598C112.423 324.451 101.895 331.787 90.972 328.95C79.0338 323.755 86.8993 309.176 90.5471 300.895C99.8324 279.916 109.522 259.113 119.626 238.497C107.491 215.658 97.9463 190.824 91.2622 163.87L87.6455 149.219ZM250.013 116.581C193.67 116.57 149.502 129.798 99.6355 154.715C106.154 181.015 114.817 205.07 125.761 227.119C127.813 223.742 130.144 220.428 132.859 217.3C134.072 215.97 144.497 205.039 144.497 205.039C150.901 197.942 158.311 192.985 166.311 189.421C160.85 181.493 155.793 173.326 151.575 164.587L150.632 162.613C152.86 161.625 155.088 160.68 157.337 159.755L158.114 161.418C162.435 170.343 167.658 178.646 173.234 186.699C175.4 185.951 177.596 185.275 179.825 184.662C187.244 182.646 194.675 180.703 202.126 178.812C208.986 177.087 219.878 173.492 225.246 179.186L232.914 171.092L238.935 169.73C237.132 157.947 235.308 147.276 233.764 138.755C236.158 138.412 238.572 138.069 240.977 137.789C242.531 146.216 244.303 156.627 246.075 168.151C254.583 166.291 263.091 164.493 271.61 162.737L268.833 169.969L268.542 170.697L277.123 161.657C285.735 159.994 294.357 158.394 302.989 156.825L301.549 161.21C306.036 157.417 311.197 155.755 316.233 154.903L316.979 154.788C318.43 148.689 319.404 143.213 319.943 138.277C322.554 138.859 325.156 139.493 327.746 140.137C327.394 144.532 326.751 148.938 325.85 153.375C331.228 152.544 336.617 151.744 341.975 150.954C339.778 159.838 337.56 168.733 335.311 177.627L324.586 188.912L333.705 186.065C330.803 197.422 327.881 208.769 324.959 220.126L313.29 232.398C308.409 234.424 300.284 238.321 292.512 241.583C290.315 248.348 288.937 254.011 288.18 258.739C314.844 248.005 328.503 234.31 343.322 210.858C341.457 218.921 338.814 226.693 335.539 234.102C323.145 248.826 309.072 258.677 287.445 266.854C287.289 283.345 297.517 282.628 299.155 282.378C296.429 284.654 293.6 286.846 290.688 288.893C284.222 285.911 280.843 277.806 280.553 269.317C273.164 271.852 264.967 274.19 255.734 276.518C255.651 279.645 255.589 297.726 250.625 308.044C246.748 309.138 242.823 310.053 238.863 310.787C239.65 310.091 240.573 309.176 241.609 308.085C241.671 307.95 241.744 307.846 241.899 307.711C246.013 303.472 248.034 292.779 248.531 278.263C239.671 280.144 230.127 281.152 220.251 281.318C220.033 289.247 217.318 294.826 213.111 298.598C211.515 296.874 209.94 295.076 208.385 293.289C211.059 290.504 212.727 286.607 212.934 281.287C209.483 281.204 205.784 281.017 201.908 280.653C192.353 285.184 181.483 290.379 171.824 294.962C193.514 319.027 219.484 340.141 250.013 359.074C331.29 308.782 375.924 246.862 400.319 154.705C350.462 129.788 306.316 116.581 250.013 116.581ZM255.516 256.089C255.703 260.547 255.796 264.849 255.806 268.964C265.216 266.574 273.475 264.121 280.843 261.503C281.33 256.713 282.377 251.205 284.128 244.846C281.444 245.792 278.978 246.478 276.968 246.81C275.651 246.945 274.48 246.904 273.454 246.737L271.04 249.273C265.869 251.538 260.687 253.803 255.516 256.089ZM219.65 272.299L219.867 274.086C229.909 273.941 239.64 272.819 248.656 270.751C248.656 267.072 248.594 263.217 248.438 259.248L244.334 261.066C242.552 257.378 241.567 255.944 239.775 252.286L236.987 259.975L224.51 270.044L219.65 272.299Z" fill="#081E3F"/>
<path d="M180.762 188.905C168.077 192.365 156.761 197.799 147.704 207.847C142.501 213.822 138.791 220.67 135.33 227.673C125.195 248.341 115.475 269.185 106.169 290.216C103.744 295.702 96.2822 309.044 104.22 312.494C113.008 314.78 123.993 307.382 131.745 303.423C140.17 299.131 148.605 294.871 157.072 290.663C171.487 283.493 184.409 274.796 193.177 260.82C196.669 254.918 199.27 248.59 201.83 242.272C207.332 228.691 212.939 215.11 218.649 201.581C220.794 196.511 224.535 190.12 223.343 184.582C220.939 177.152 208.421 181.693 202.97 183.054C195.57 184.946 188.161 186.889 180.762 188.905H180.762ZM164.73 266.504C158.025 269.507 151.351 272.52 144.667 275.606C154.357 253.079 164.409 230.707 174.907 208.512C180.772 206.642 186.658 204.823 192.576 203.005C182.969 224.036 173.704 245.213 164.73 266.504ZM279.449 165.629C270.163 177.797 260.992 190.058 251.935 202.402C256.163 191.107 260.453 179.823 264.775 168.58C255.147 170.554 245.551 172.664 235.965 174.846C233.489 180.665 231.002 186.473 228.556 192.302C230.629 191.72 232.711 191.149 234.774 190.577C227.219 208.886 219.872 227.257 212.659 245.66C209.709 253.145 206.766 260.634 203.83 268.125C213.457 263.574 223.084 259.054 232.743 254.606C237.116 242.501 241.52 230.406 245.987 218.342C250.08 226.572 254.153 234.822 258.194 243.093C264.402 240.298 270.64 237.555 276.889 234.832C273.086 226.146 269.231 217.48 265.345 208.814C272.257 198.298 279.221 187.824 286.257 177.391C288.234 176.914 290.214 176.446 292.195 175.989L296.641 162.397C290.91 163.447 285.169 164.507 279.449 165.629V165.629ZM316.714 159.239C311.543 160.101 306.869 161.764 303.014 165.65C299.854 169.079 298.175 173.142 296.765 177.485C292.651 190.453 288.506 203.431 284.371 216.409C282.755 221.542 280.112 230.884 288.309 230.188C291.107 229.73 293.739 228.577 296.361 227.444C304.652 223.901 312.963 220.399 321.295 216.95C323.419 208.814 325.533 200.657 327.616 192.489C323.232 193.861 318.87 195.264 314.496 196.667C313.46 200.345 312.445 204.034 311.419 207.702C308.382 208.824 305.346 209.925 302.31 211.058C306.154 197.893 309.999 184.738 313.813 171.562C316.507 170.98 319.191 170.409 321.896 169.848C321.253 172.154 320.631 174.461 319.989 176.778C323.916 175.833 327.854 174.898 331.782 174.004C333.276 168.069 334.764 162.132 336.248 156.194C329.74 157.16 323.222 158.168 316.714 159.239Z" fill="#FEFEFE"/>
<path d="M351.71 147.205C355.658 148.504 359.347 149.823 363.037 151.205C372.28 154.655 380.457 158.167 387.214 161.42C366.342 233.252 323.595 293.488 263.272 336.361L258.349 339.78C240.691 326.521 230.266 316.109 230.266 316.109L238.577 314.737C263.8 310.519 288.112 299.058 308.216 280.26C342.476 248.204 356.384 202.453 349.326 159.341C349.15 158.365 348.953 157.388 348.798 156.411L348.715 155.985L348.632 155.528L348.528 155.05L348.435 154.603L348.352 154.104L348.249 153.637L348.135 153.117L348.021 152.629L347.917 152.161L347.844 151.766L347.699 151.216L347.596 150.696L347.492 150.312L347.42 149.927L347.326 149.553C346.943 148.005 346.601 146.685 346.228 145.407C348.057 146.002 349.884 146.601 351.71 147.205ZM352.373 148.046C356.062 149.314 359.866 150.655 363.493 152.016C359.803 150.603 356.093 149.293 352.373 148.046Z" fill="#0070B9"/>
</svg>