<svg width="500" height="500" viewBox="0 0 500 500" fill="none" xmlns="http://www.w3.org/2000/svg">
<mask id="mask0" mask-type="alpha" maskUnits="userSpaceOnUse" x="0" y="103" width="500" height="293">
<path d="M499.169 395.032V103.993H0.00201416V395.032L499.169 395.032Z" fill="white"/>
</mask>
<g mask="url(#mask0)">
<path d="M432.68 175.364C436.356 173.746 440.661 171.891 444.627 170.232L457.449 164.863L415.418 151.229L405.315 103.989L379.897 142.005L336.805 131.03L351.285 149.848C297.019 142.953 236.749 148.044 182.616 164.162L186.19 152.929L176.942 155.588C103.231 176.724 38.7165 234.125 8.56071 305.386L0.00201416 325.626L16.6557 311.301C52.6821 280.354 89.8621 248.408 143.83 231.301L128.793 266.277L141.904 259.095C153.748 252.602 167.116 247.614 181.38 244.172L200.64 250.788C230.796 261.125 256.966 270.08 282.672 286.527C282.477 314.578 293.857 342.403 314.157 363.292C334.086 383.789 360.091 395.032 387.466 395.032H388.28C451.125 394.558 488.182 348.277 497.029 302.645C504.98 261.619 492.363 205.074 432.68 175.364" fill="#FEFEFE"/>
</g>
<path d="M194.277 243.167C229.994 237.684 265.64 239.292 296.846 252.472L300.647 244.104C250.16 227.842 186.697 228.677 139.424 254.575L152.885 223.267C93.4689 239.333 53.4877 272.866 13.3003 307.4C42.6014 238.138 106.312 181.201 178.365 160.538L174.698 172.029C237.791 151.428 307.042 147.523 363.111 156.787L349.98 139.691L382.144 147.894L402.835 116.978L411.012 155.211L442.641 165.475C442.641 165.475 419.602 175.131 420.704 175.584C540.493 224.957 502.15 389.008 388.241 389.883C330.628 390.357 285.929 338.264 287.876 283.769C258.585 264.478 229.191 255.193 194.277 243.166" fill="#C4CDD3"/>
<path d="M408.856 175.63C415.447 172.755 427.755 167.385 427.755 167.385L428.671 166.984L427.713 166.664C427.713 166.664 407.918 160.151 403.665 158.77C403.026 154.287 399.895 132.749 399.895 132.749L399.751 131.708L392.552 143.426C392.552 143.426 388.422 150.073 386.198 153.7C381.511 152.505 361.057 147.29 361.057 147.29L359.976 147.022L360.656 147.898C360.676 147.919 368.988 158.626 374.024 165.139C353.436 160.666 329.686 158.162 302.455 158.162C293.516 158.162 284.205 158.43 274.524 158.987C237.395 161.11 200.885 168.035 165.847 180.7L169.854 168.777L169.143 168.993C114.31 186.131 54.3486 237.565 27.8386 288.422L28.436 288.875C65.9146 253.703 116.638 225.611 162.109 215.388L150.162 243.243L151.089 242.8C172.243 232.577 200.02 228.053 228.054 228.053C256.727 228.053 285.667 232.793 308.037 240.945L299.458 259.649C279.066 250.292 249.569 243.985 225.098 243.985C220.742 243.985 216.54 244.181 212.574 244.603L212.513 245.356C241.412 253.517 271.341 262.741 295.06 281.764C294.917 283.778 294.844 285.795 294.844 287.814C294.854 337.877 338.049 383.189 388.731 383.2C389.071 383.2 389.421 383.189 389.761 383.189C445.624 382.53 487.016 331.281 487.026 277.848C487.037 238.492 464.523 197.93 408.856 175.63Z" fill="#120C0D"/>
<path d="M378.384 267.333C357.754 267.333 337.115 259.768 316.383 252.143C310.924 263.705 308.143 275.824 308.143 288.149C308.143 294.703 308.926 301.33 310.522 307.946C312.232 307.987 313.952 308.008 315.672 308.008C355.695 308.008 398.168 296.878 432.475 276.525C428.52 269.167 423.618 262.293 418.53 255.677C405.172 264.128 391.783 267.333 378.384 267.333Z" fill="#C4CDD3"/>
<path d="M314.23 315.785H312.881C325.395 348.175 354.098 369.641 389.105 370.125C400.311 342.507 412.742 312.333 441.157 298.225C439.674 293.248 437.851 288.404 435.843 283.633C399.25 305.027 356.529 315.785 314.23 315.785ZM400.738 214.139C388.296 209.388 380.366 207.914 379.625 207.78C376.144 208.254 371.416 208.718 367.595 209.481C388.75 217.911 404.363 228.133 420.059 245.642C428.123 239.263 435.209 232.039 440.122 223.166C425.734 209.161 398.637 192.003 331.054 186.685C359.593 193.477 385.835 202.638 401.088 213.469L400.738 214.139ZM211.253 204.758C215.445 204.665 219.966 204.614 224.755 204.614C272.77 204.634 346.872 210.282 375.607 244.423L375.123 245C365.184 239.456 345.296 230.274 332.896 230.284C332.495 230.284 332.103 230.294 331.722 230.315C327.458 235.025 323.689 240.239 320.311 245.639C339.519 252.719 358.963 259.757 378.233 259.747C390.335 259.747 402.364 256.985 414.28 249.72C380.973 213.404 324.605 197.565 271.431 197.565C250.318 197.565 229.699 200.059 211.253 204.758V204.758ZM438.462 272.728C447.751 266.4 455.774 259.794 463.056 251.303C458.473 242.585 450.553 232.795 444.868 227.755C439.574 237.092 432.797 244.8 424.558 251.581C429.409 258.053 434.538 265.607 438.462 272.728" fill="#C4CDD3"/>
<path d="M397.249 369.788C414.119 367.727 429.629 361.967 442.668 350.888C444.676 343.417 445.531 335.688 445.531 327.938C445.531 320.539 444.748 313.109 443.42 305.885C417.97 318.117 407.404 344.983 397.249 369.788H397.249ZM453.043 332.915C453.043 335.471 452.981 338.026 452.858 340.582C462.755 327.185 468.059 315.55 470.995 298.433C463.775 299.072 456.617 300.288 449.809 302.545C452.034 312.634 453.043 322.733 453.043 332.915ZM441.966 279.811C444.191 284.923 446.179 290.106 447.909 295.414C455.839 292.827 463.502 291.498 471.772 290.993C471.783 290.405 471.783 289.828 471.783 289.241C471.783 278.286 470.166 269.856 466.602 259.376C459.012 267.146 450.999 273.762 441.966 279.811Z" fill="#C4CDD3"/>
<path d="M471.77 290.997C463.5 291.502 455.848 292.831 447.907 295.418C446.177 290.1 444.199 284.927 441.964 279.815C450.997 273.756 459.02 267.14 466.6 259.37C470.163 269.861 471.78 278.29 471.78 289.245C471.78 289.822 471.78 290.409 471.77 290.997Z" fill="#C4CDD3"/>
<path d="M471.77 290.997C463.5 291.502 455.848 292.831 447.907 295.418C446.177 290.1 444.199 284.927 441.964 279.816C450.997 273.756 459.02 267.14 466.6 259.37C470.163 269.861 471.78 278.29 471.78 289.245C471.78 289.822 471.78 290.409 471.77 290.997ZM444.865 227.753C450.55 232.792 458.48 242.593 463.063 251.301C455.771 259.792 447.748 266.408 438.458 272.725C434.534 265.604 429.405 258.051 424.555 251.579C432.794 244.798 439.571 237.09 444.865 227.753" fill="#C4CDD3"/>
<path d="M444.865 227.753C450.55 232.792 458.48 242.593 463.063 251.301C455.771 259.792 447.748 266.408 438.458 272.725C434.534 265.604 429.405 258.051 424.555 251.579C432.794 244.798 439.571 237.09 444.865 227.753L444.865 227.753ZM331.05 186.682C398.633 192.01 425.73 209.168 440.128 223.163C435.205 232.036 428.119 239.26 420.065 245.639C404.369 228.141 388.746 217.907 367.601 209.478C371.412 208.725 376.139 208.251 379.62 207.777C380.362 207.911 388.292 209.385 400.734 214.136L401.094 213.466C385.831 202.635 359.589 193.484 331.05 186.682Z" fill="#C4CDD3"/>
<path d="M331.05 186.682C398.633 192.01 425.73 209.168 440.128 223.163C435.205 232.036 428.119 239.26 420.065 245.639C404.369 228.141 388.746 217.907 367.601 209.478C371.412 208.725 376.139 208.251 379.621 207.777C380.362 207.911 388.292 209.385 400.734 214.136L401.094 213.466C385.831 202.635 359.589 193.484 331.05 186.682ZM315.671 308.011C313.951 308.011 312.231 307.99 310.522 307.949C308.925 301.323 308.142 294.707 308.142 288.153C308.142 275.817 310.923 263.698 316.392 252.146C337.114 259.761 357.753 267.336 378.383 267.336C391.782 267.336 405.171 264.131 418.529 255.67C423.616 262.296 428.519 269.17 432.474 276.528C398.167 296.881 355.693 308.011 315.671 308.011Z" fill="#C4CDD3"/>
<path d="M315.671 308.011C313.951 308.011 312.231 307.99 310.522 307.949C308.925 301.323 308.142 294.707 308.142 288.153C308.142 275.817 310.923 263.698 316.392 252.146C337.114 259.761 357.753 267.336 378.383 267.336C391.782 267.336 405.171 264.131 418.529 255.67C423.616 262.296 428.519 269.17 432.474 276.528C398.167 296.881 355.693 308.011 315.671 308.011Z" fill="#C4CDD3"/>
<path d="M389.106 370.122C354.099 369.638 325.395 348.172 312.882 315.782H314.231C356.53 315.782 399.251 305.023 435.844 283.629C437.852 288.411 439.675 293.244 441.158 298.222C412.743 312.33 400.311 342.504 389.106 370.122Z" fill="#C4CDD3"/>
<path d="M389.106 370.122C354.099 369.638 325.395 348.172 312.882 315.782H314.231C356.53 315.782 399.251 305.023 435.844 283.629C437.852 288.411 439.675 293.244 441.158 298.222C412.743 312.33 400.311 342.504 389.106 370.122ZM452.858 340.585C452.981 338.019 453.043 335.463 453.043 332.918C453.043 322.736 452.034 312.627 449.809 302.538C456.617 300.281 463.775 299.075 470.995 298.426C468.059 315.553 462.755 327.188 452.858 340.585Z" fill="#C4CDD3"/>
<path d="M452.858 340.585C452.981 338.019 453.043 335.463 453.043 332.918C453.043 322.736 452.034 312.627 449.809 302.538C456.617 300.281 463.775 299.075 470.995 298.426C468.059 315.553 462.755 327.188 452.858 340.585ZM414.276 249.715C402.36 256.98 390.341 259.752 378.229 259.752C358.959 259.752 339.515 252.724 320.307 245.634C323.685 240.234 327.454 235.03 331.718 230.31C332.099 230.3 332.491 230.279 332.892 230.279C345.292 230.269 365.18 239.461 375.119 245.005L375.603 244.418C346.879 210.276 272.766 204.629 224.751 204.608C219.972 204.608 215.441 204.67 211.249 204.753C229.705 200.064 250.314 197.57 271.437 197.57C324.612 197.56 380.979 213.399 414.276 249.715" fill="#C4CDD3"/>
<path d="M414.276 249.715C402.36 256.98 390.341 259.752 378.229 259.752C358.959 259.752 339.515 252.724 320.307 245.634C323.685 240.234 327.454 235.03 331.718 230.31C332.099 230.3 332.491 230.279 332.892 230.279C345.292 230.269 365.18 239.461 375.119 245.005L375.603 244.418C346.879 210.276 272.766 204.629 224.751 204.608C219.972 204.608 215.441 204.67 211.249 204.753C229.705 200.064 250.314 197.57 271.437 197.57C324.612 197.56 380.979 213.399 414.276 249.715H414.276ZM442.667 350.884C429.628 361.963 414.118 367.733 397.248 369.784C407.403 344.979 417.969 318.124 443.419 305.881C444.747 313.105 445.53 320.535 445.53 327.934C445.53 335.684 444.675 343.413 442.667 350.884" fill="#C4CDD3"/>
<path d="M442.667 350.884C429.628 361.962 414.118 367.733 397.248 369.784C407.403 344.979 417.969 318.124 443.419 305.881C444.747 313.105 445.53 320.535 445.53 327.934C445.53 335.684 444.675 343.413 442.667 350.884V350.884ZM375.896 182.86L390.593 177.718L401.747 190.383L400.45 173.853L414.683 167.639L399.193 162.558L396.793 146.049L388.523 159.457L372.838 155.448L383.24 168.824L375.896 182.86Z" fill="#C4CDD3"/>
<path d="M297.6 194.768L307.807 189.728L316.314 197.292L314.656 186.039L324.481 180.32L313.265 178.403L310.845 167.304L305.582 177.393L294.243 176.239L302.204 184.37L297.6 194.768ZM182.831 217.357L189.556 214.039L195.138 219.016L194.046 211.617L200.504 207.845L193.13 206.578L191.533 199.281L188.063 205.887L180.616 205.155L185.848 210.504L182.831 217.357Z" fill="#FEFEFE"/>
<path d="M436.932 318.923L436.922 317.553L427.447 333.433L430.166 319.449L429.496 319.129C415.613 335.979 410.309 348.087 405.994 363.009L405.788 363.721L406.488 363.484C422.07 358.073 430.114 351.818 433.41 349.2L433.482 349.138L433.523 349.056C435.84 344.027 436.932 333.835 436.942 321.345C436.942 320.541 436.932 319.737 436.932 318.923ZM405.253 282.151C390.093 285.232 372.399 287.046 356.188 287.046C353.747 287.046 351.347 287.005 348.999 286.922L383.779 276.627L383.687 275.875C360.72 274.793 342.995 274.36 320.553 263.838L320.234 263.684L320.058 263.993C316.721 269.99 314.816 278.389 314.816 286.901C314.816 291.735 315.434 296.609 316.752 301.082L316.835 301.35L317.103 301.36C317.123 301.36 317.916 301.38 319.389 301.38C329.42 301.38 370.627 300.278 405.5 282.872L405.253 282.151ZM412.924 310.379C395.384 323.415 382.181 333.958 356.32 338.832C380.265 326.383 396.332 317.82 411.43 302.516L410.967 301.918C384.189 317.521 349.316 324.198 324.712 325.126L324.042 325.147L324.403 325.714C344.661 357.784 370.285 360.659 378.617 360.659H378.669C380.399 360.659 381.367 360.546 381.388 360.546L381.563 360.514L381.656 360.37C392.532 343.171 399.442 326.61 413.439 310.946L412.924 310.379H412.924Z" fill="#0077C0"/>
<path d="M394.966 203.507C393.7 202.838 392.402 202.209 391.053 201.601C411.764 207.753 425.73 215.75 433.537 221.83C432.332 223.613 430.993 225.334 429.623 227.004C420.034 217.059 408.324 208.959 394.966 203.507H394.966ZM458.77 319.556L458.697 318.206C459.82 312.631 460.448 307.035 460.644 301.511C462.106 301.12 463.61 300.821 465.114 300.542C463.507 307.395 461.509 313.63 458.77 319.556ZM467.421 283.199C464.722 283.559 462.22 283.951 459.748 284.487C459.192 280.478 458.388 276.51 457.369 272.605C460.057 270.348 462.632 268.05 465.237 265.597C466.731 271.358 467.359 276.768 467.421 283.199ZM458.182 249.17C455.886 251.644 453.661 253.839 451.406 255.889C448.893 250.489 445.957 245.306 442.559 240.411C444.33 238.278 446.04 236.072 447.646 233.764C451.972 238.556 455.731 244.162 458.182 249.17Z" fill="#FEFEFE"/>
</svg>