<svg width="500" height="500" viewBox="0 0 500 500" fill="none" xmlns="http://www.w3.org/2000/svg">
<path d="M448.887 249.924C448.887 359.808 359.808 448.887 249.924 448.887C140.04 448.887 50.9614 359.808 50.9614 249.924C50.9614 140.04 140.04 50.9614 249.924 50.9614C302.695 50.9516 353.308 71.9105 390.623 109.225C427.938 146.54 448.897 197.153 448.887 249.924" fill="white"/>
<path d="M441.564 249.924C441.564 327.435 394.872 397.314 323.262 426.976C251.651 456.639 169.223 440.243 114.414 385.434C59.6058 330.626 43.2099 248.198 72.8721 176.587C102.534 104.976 172.413 58.2847 249.924 58.2847C355.763 58.2865 441.562 144.085 441.564 249.924" fill="#006BB6"/>
<path d="M87.8525 282.601L91.7899 295.106H105.055L94.3466 302.912L98.2152 315.209L87.8525 307.679L77.3523 315.208L81.2897 302.911L70.5127 295.106H83.7758L87.8525 282.601ZM412.064 282.601L416.004 295.106H429.336L418.559 302.912L422.498 315.209L412.064 307.679L401.633 315.208L405.572 302.911L394.793 295.106H407.99L412.064 282.601ZM134.415 349.613L138.354 362.048H151.617L140.84 369.924L144.777 382.221L134.415 374.69L123.915 382.221L127.852 369.924L117.075 362.048H130.34L134.415 349.613ZM369.856 349.613L373.793 362.048H387.056L376.348 369.924L380.287 382.221L369.856 374.69L359.354 382.221L363.362 369.924L352.585 362.048H365.779L369.856 349.613ZM207.022 393.204L210.893 405.709H224.225L213.448 413.515L217.385 425.812L207.022 418.283L196.522 425.812L200.459 413.515L189.682 405.709H202.947L207.022 393.204ZM295.243 393.204L299.181 405.709H312.446L301.669 413.515L305.606 425.812L295.243 418.283L284.743 425.812L288.68 413.515L277.904 405.709H291.168L295.243 393.204Z" fill="white"/>
<path d="M393.62 250.822C393.62 330.183 329.285 394.518 249.924 394.518C170.564 394.518 106.229 330.183 106.229 250.822C106.229 171.462 170.564 107.127 249.924 107.127C288.036 107.121 324.589 122.259 351.539 149.208C378.488 176.157 393.625 212.71 393.62 250.822" fill="white"/>
<path d="M114.796 279.078C130.417 353.696 203.554 401.537 278.18 385.951C314.128 378.735 345.613 357.247 365.433 326.401C385.237 295.662 392.276 258.413 385.053 222.567C369.418 147.984 296.352 100.139 221.738 115.624C185.877 123.11 154.46 144.539 134.403 175.195C114.345 205.851 107.292 243.22 114.796 279.078" fill="#006BB6"/>
<path d="M296.902 143.258C297.385 148.646 294.829 153.897 289.441 158.871C263.534 139.873 238.871 130.546 214.691 130.408C209.625 130.411 204.567 130.803 199.562 131.583C207.274 128.342 215.278 125.844 223.465 124.122C244.732 119.65 266.785 120.624 287.575 126.954C292.066 131.306 296.418 136.971 296.902 143.258H296.902ZM269.89 366.262C297.109 341.254 309.751 287.713 317.281 255.727L318.456 250.753C322.325 234.449 329.164 222.29 336.556 215.036C363.844 257.454 360.183 301.254 353.274 328.749C328.775 361.177 290.497 380.253 249.855 380.286C257.15 376.56 263.892 371.841 269.89 366.262ZM319.354 184.57C330.407 175.313 339.25 168.267 345.537 163.638C359.229 178.606 369.194 196.595 374.621 216.142C369.509 209.303 363.015 202.809 355.969 201.358C349.889 200.114 343.672 201.841 337.799 205.987C332.231 198.368 326.063 191.207 319.354 184.57ZM123.016 245.019C135.59 211.306 181.669 197.489 199.009 192.308L199.769 192.1C207.458 190.096 215.254 188.528 223.12 187.403C245.434 183.603 272.998 178.905 289.648 166.47C296.894 172.01 303.836 177.936 310.442 184.225C272.791 216.211 214.553 269.958 152.446 335.934C137.816 319.236 127.77 299.026 123.293 277.282C121.452 268.606 120.525 259.76 120.529 250.891C121.98 247.437 123.016 245.019 123.016 245.019Z" fill="white"/>
<path d="M315.002 180.357C308.41 174.056 301.492 168.107 294.276 162.533C300.563 156.384 303.465 149.752 302.843 142.706C302.413 138.496 300.941 134.459 298.56 130.961C314.528 137.518 329.056 147.14 341.323 159.286C334.829 164.122 325.917 171.238 315.002 180.357ZM284.605 162.74C268.992 173.517 243.154 177.939 222.083 181.462C213.991 182.654 205.966 184.269 198.042 186.298L197.282 186.505C180.633 191.479 138.768 203.983 121.497 234.173C124.021 214.811 130.893 196.271 141.6 179.942C150.803 165.8 162.565 153.5 176.28 143.673C206.954 130.754 241.358 131.652 284.604 162.74L284.605 162.74ZM354.725 207.231C363.775 209.096 373.447 224.294 378.076 232.999C382.11 261.25 376.59 290.039 362.393 314.795C363.084 310.442 363.637 305.814 364.051 300.978C366.618 269.289 358.574 237.646 341.185 211.03C345.882 207.714 350.58 206.401 354.725 207.23V207.231ZM314.794 188.439C321.516 195.025 327.642 202.192 333.102 209.856C324.259 218.284 316.729 232.239 312.653 249.372L311.478 254.415C304.086 285.779 291.72 338.214 265.883 361.91C257.251 370.092 246.814 376.127 235.417 379.527C215.287 377.249 195.976 370.268 179.044 359.147C170.84 353.767 163.263 347.487 156.453 340.425C219.182 273.69 277.627 220.011 314.794 188.439Z" fill="white"/>
<path d="M285.641 289.233L289.164 288.266C291.306 287.714 292.688 287.023 292.688 283.914C292.688 281.358 291.997 276.729 288.888 276.729C285.641 276.729 285.641 282.256 285.641 285.227V289.233H285.641ZM243.569 287.299C243.569 276.246 243.154 266.712 235.693 266.712C229.614 266.712 228.508 276.246 228.508 287.299C228.508 298.353 228.163 307.955 235.693 307.955C241.98 307.886 243.569 298.353 243.569 287.299Z" fill="white"/>
<path d="M285.641 289.233L289.164 288.266C291.306 287.713 292.687 287.023 292.687 283.914C292.687 281.358 291.996 276.729 288.888 276.729C285.641 276.729 285.641 282.256 285.641 285.226V289.233H285.641ZM227.61 261.945H227.748C231.34 256.349 238.18 253.655 244.881 253.655C260.08 253.655 269.406 266.781 269.406 284.397C269.406 305.261 255.244 317.696 237.765 317.696C210.891 317.696 201.082 296.004 201.082 270.857C201.082 241.911 213.655 218.007 244.95 218.007C257.178 218.007 267.195 225.883 267.195 237.904C267.243 239.458 266.969 241.006 266.39 242.45C265.81 243.894 264.938 245.202 263.829 246.292C262.719 247.382 261.396 248.231 259.942 248.785C258.488 249.339 256.936 249.585 255.382 249.51C246.954 249.51 244.259 242.463 243.016 236.246C242.532 233.62 243.499 227.817 239.147 227.817C230.028 227.817 228.577 245.641 228.163 252.204L227.61 261.945L227.61 261.945Z" fill="white"/>
<path d="M243.568 287.299C243.568 276.246 243.154 266.712 235.693 266.712C229.613 266.712 228.508 276.246 228.508 287.299C228.508 298.353 228.163 307.955 235.693 307.955C241.979 307.886 243.568 298.353 243.568 287.299ZM80.5985 219.113C85.7107 219.735 87.7833 223.327 87.0233 229.959L86.4707 234.795L89.234 235.14C92.7573 235.555 94.07 235.486 94.4844 232.653L97.7314 233.068L96.2116 246.194L92.9646 245.779C93.2409 242.878 91.9283 242.532 88.405 242.118L78.1806 240.943C74.6572 240.529 73.3446 240.598 72.9301 243.43L69.6831 243.016L71.4103 228.646C72.2393 221.6 75.3481 218.491 80.5985 219.113ZM83.3619 233.068C83.8455 228.716 82.6019 226.367 79.4932 226.021C76.7989 225.676 74.8645 227.403 74.45 230.65C74.1737 232.93 75.0027 233.413 77.4897 233.69L83.1547 234.38C83.2237 233.966 83.2927 233.551 83.3619 233.068ZM99.8039 204.605C100.84 201.911 99.7349 201.22 96.4879 199.838L87.0233 195.901C83.7763 194.519 82.4638 194.243 81.2893 196.868L78.2496 195.624L83.3619 183.465L86.3325 184.709C85.2962 187.403 86.4015 188.094 89.6485 189.476L92.0665 190.512L95.8661 181.393L93.4481 180.357C90.2012 178.975 88.8886 178.699 87.7141 181.324L84.7436 180.08L89.8558 167.921L92.8955 169.165C91.8593 171.859 92.9646 172.55 96.2115 173.932L105.676 177.87C108.923 179.251 110.236 179.528 111.41 176.902L114.45 178.146L109.338 190.305L106.367 189.061C107.403 186.367 106.298 185.676 103.051 184.294L98.9058 182.567L95.1063 191.686L99.2513 193.413C102.498 194.795 103.811 195.071 104.985 192.446L107.956 193.69L102.844 205.849L99.8039 204.605ZM112.515 140.011C110.857 142.36 111.755 143.327 114.588 145.469L122.809 151.617C125.642 153.759 126.816 154.312 128.612 152.101L131.237 154.035L123.362 164.536L120.737 162.602C122.395 160.253 121.497 159.286 118.595 157.144L110.374 150.996C107.541 148.854 106.367 148.232 104.571 150.512L101.946 148.578L109.821 138.077L112.515 140.011ZM142.222 141.531L140.149 139.044C142.291 137.11 141.6 136.004 139.32 133.31L132.688 125.435C130.408 122.74 129.441 121.842 127.161 123.638L125.089 121.151L135.175 112.723L137.248 115.21C135.106 117.144 135.728 118.25 138.008 121.013L145.4 129.787C147.127 131.79 147.887 132.136 149.959 130.409C152.723 128.06 153.897 123.915 152.93 118.664L155.831 118.043L158.802 127.714L142.222 141.531ZM173.517 117.421L172.135 114.45C174.622 112.93 174.484 111.272 174.415 108.371L173.724 87.9908L179.251 85.5038L194.449 100.357C196.177 102.015 197.144 102.844 199.354 102.084L200.736 105.055L188.715 110.512L187.403 107.611C187.507 107.594 187.603 107.546 187.679 107.473C189.337 106.713 189.959 106.022 189.475 104.986C189.309 104.622 189.075 104.294 188.785 104.019L186.021 101.255L178.284 104.778L178.767 108.578C178.795 108.863 178.865 109.142 178.975 109.407C179.527 110.582 180.633 110.651 182.498 109.822L183.811 112.723L173.517 117.421H173.517ZM183.327 98.837L177.662 92.7576L178.146 101.255L183.327 98.837ZM214.139 97.7317C216.971 97.2481 217.04 95.9355 216.557 92.4122L215.106 82.2568C214.622 78.7335 214.208 77.49 211.306 77.8354L210.822 74.5884L224.087 72.7232C234.311 71.2724 240.391 75.2793 241.634 83.7076C242.809 92.205 238.111 97.6626 227.886 99.1825L214.622 101.048L214.139 97.7317ZM223.672 93.034C224.018 95.6592 224.501 96.35 227.264 95.9355C232.515 95.1755 235.417 91.0305 234.449 84.6748C233.551 78.319 229.683 75.1411 224.363 75.9011C221.6 76.3156 221.392 77.0755 221.738 79.7007L223.672 93.034ZM260.494 93.863C263.326 94.2084 263.81 92.9649 264.294 89.4416L265.744 79.2862C266.228 75.7629 266.228 74.4502 263.396 73.9667L263.879 70.7197L285.779 73.8977L288.197 82.395L285.572 83.2931C283.43 78.8717 280.39 76.3156 276.314 75.7629C273.689 75.3484 273.206 76.1083 272.86 78.6644L272.308 82.464L273.551 82.6713C276.314 83.0858 277.143 82.3258 277.765 79.0789L280.529 79.4934L278.802 91.376L276.038 90.9615C276.107 87.8527 275.209 86.2637 273.067 85.9875L271.824 85.7801L270.926 91.9286C270.58 94.4847 270.788 95.3137 273.482 95.6592C277.351 96.2118 281.91 94.3466 285.503 90.0633L287.782 91.7905L282.463 100.288L260.011 96.9718L260.494 93.863ZM301.806 105.538L303.119 102.568C305.813 103.673 306.504 102.568 307.955 99.2516L312.1 89.8561C313.551 86.6091 313.896 85.3656 311.271 84.1221L312.584 81.1515L324.604 86.4019L323.292 89.3725C320.597 88.2671 319.907 89.3725 318.456 92.6195L313.827 103.12C312.791 105.538 312.86 106.367 315.347 107.473C318.663 108.923 322.946 108.163 327.16 104.917L329.026 107.196L321.703 114.174L301.806 105.538ZM369.44 125.089C366.193 129.096 362.048 128.958 356.798 124.744L352.998 121.704L351.271 123.846C349.06 126.609 348.369 127.783 350.58 129.649L348.507 132.205L338.283 123.915L340.355 121.359C342.635 123.086 343.671 122.257 345.882 119.493L352.307 111.48C354.518 108.716 355.14 107.542 352.998 105.677L355.07 103.12L366.331 112.239C371.789 116.592 372.756 120.944 369.44 125.089ZM356.107 119.908C359.492 122.671 362.186 122.809 364.12 120.391C365.848 118.25 365.433 115.763 362.877 113.69C361.081 112.239 360.252 112.654 358.663 114.588L355.07 119.01C355.485 119.355 355.83 119.631 356.107 119.908V119.908ZM371.443 149.061C373.17 151.41 374.345 150.858 377.246 148.785L385.675 142.913C388.576 140.909 389.544 139.942 387.955 137.524L390.649 135.659L398.179 146.436L395.554 148.302C393.827 145.953 392.652 146.505 389.751 148.578L387.609 150.098L393.274 158.181L395.416 156.661C398.317 154.657 399.284 153.69 397.695 151.272L400.321 149.407L407.851 160.184L405.157 162.049C403.43 159.7 402.255 160.253 399.354 162.326L390.925 168.198C388.024 170.201 387.056 171.168 388.645 173.586L385.951 175.452L378.421 164.674L381.046 162.809C382.773 165.158 383.948 164.605 386.849 162.533L390.511 159.977L384.846 151.894L381.184 154.45C378.283 156.453 377.316 157.421 378.905 159.838L376.279 161.704L368.749 150.927L371.443 149.061ZM419.319 194.312C418.213 191.617 416.901 191.894 413.585 193.137L403.982 196.799C400.666 198.042 399.561 198.733 400.459 201.496L397.419 202.671L392.721 190.374L395.761 189.199C396.866 191.894 398.179 191.548 401.495 190.305L411.098 186.643C414.414 185.4 415.588 184.709 414.621 182.015L417.661 180.84L422.359 193.137L419.319 194.312ZM402.117 217.109L405.364 216.695C406.055 219.527 407.713 219.873 410.476 220.633L430.165 225.952L430.925 231.963L412.272 242.118C410.131 243.292 409.094 243.914 409.163 246.332L405.916 246.747L404.189 233.69L407.367 233.275V233.552C407.575 235.348 408.127 236.177 409.233 236.039C409.643 235.963 410.04 235.823 410.407 235.624L413.861 233.759L412.756 225.331L408.956 224.64C408.66 224.582 408.359 224.559 408.058 224.571C406.815 224.709 406.4 225.814 406.607 227.818L403.43 228.232L402.117 217.109ZM417.039 231.893L424.5 228.232L416.279 226.229L417.039 231.893H417.039ZM330.684 267.61C329.371 267.611 328.074 267.895 326.882 268.444C325.69 268.992 324.63 269.792 323.775 270.788C323.568 270.373 323.43 269.959 323.223 269.613L321.772 266.781L301.116 272.86V284.19H304.915C305.261 284.19 305.468 284.259 305.537 284.19C306.027 285.752 306.191 287.398 306.021 289.026V302.152L302.221 302.705V315.14H330.822V302.705L327.091 302.152V298.283C327.179 295.288 327.526 292.307 328.128 289.371C329.335 289.749 330.593 289.936 331.858 289.924C336.97 289.924 340.563 285.295 340.563 278.732C340.632 272.1 336.625 267.61 330.684 267.61L330.684 267.61Z" fill="white"/>
<path d="M366.538 280.805C366.331 280.227 366.215 279.622 366.193 279.009C366.193 275.623 364.811 267.748 352.307 267.748C345.399 267.748 331.789 273.067 331.789 285.433C331.673 289.166 332.844 292.824 335.105 295.796C333.68 296.709 332.52 297.981 331.744 299.486C330.968 300.99 330.602 302.672 330.684 304.362C330.684 308.784 332.894 316.245 347.886 316.245C360.735 316.245 368.058 309.613 368.058 298.007C368.127 286.953 367.16 283.292 366.538 280.805ZM215.382 214.346C214.997 213.896 214.521 213.534 213.984 213.284C213.448 213.034 212.865 212.901 212.273 212.895C210.408 212.895 208.888 214.069 207.092 216.004C204.021 219.213 200.317 221.748 196.214 223.449C192.11 225.15 187.698 225.979 183.258 225.883C170.823 225.883 157.697 220.149 147.265 210.201C146.865 209.804 146.39 209.49 145.869 209.276C145.347 209.063 144.789 208.954 144.225 208.957C139.113 208.957 137.8 217.109 137.8 217.247V258.214L141.047 258.698C151.927 260.572 163.076 260.173 173.793 257.523C163.292 266.919 139.666 292.48 140.011 316.798C140.08 321.288 142.843 321.772 144.018 321.772C145.185 321.753 146.299 321.283 147.127 320.459C147.334 320.321 147.541 320.114 147.748 319.976C152.232 317.176 157.459 315.803 162.74 316.038C167.518 315.971 172.255 316.937 176.626 318.87C177.41 319.303 178.286 319.54 179.182 319.561C179.751 319.564 180.316 319.449 180.839 319.223C181.362 318.997 181.833 318.666 182.221 318.248C182.711 317.634 183.058 316.919 183.237 316.154C183.416 315.39 183.423 314.595 183.258 313.827C181.531 296.141 185.399 276.867 192.929 265.744L194.035 264.086C200.46 254.622 213.793 234.864 216.28 218.56C216.458 217.835 216.469 217.08 216.314 216.35C216.158 215.62 215.84 214.935 215.382 214.346ZM310.511 292.618L310.304 289.509C310.195 287.55 309.894 285.607 309.406 283.706L309.268 280.114L308.577 281.15C305.919 273.004 298.285 267.523 289.717 267.61C276.453 267.61 267.195 278.11 267.195 293.102C267.195 304.639 273.965 316.245 288.957 316.245C297.355 316.36 305.197 312.059 309.613 304.915L310.166 303.948L309.751 292.825L310.511 292.618H310.511ZM294.414 299.803C293.772 299.784 293.147 299.587 292.61 299.233C292.073 298.879 291.645 298.383 291.375 297.799L298.698 295.796C297.565 297.416 296.106 298.781 294.414 299.803H294.414Z" fill="white"/>
<path d="M261.116 256.349C260.356 255.313 259.527 254.069 258.836 253.033C266.101 251.771 271.321 245.342 271.064 237.973C271.064 224.432 259.873 214.277 245.019 214.277C215.175 214.277 197.282 235.486 197.282 270.926C197.282 303.119 212.066 321.565 237.766 321.565C258.629 321.565 273.206 306.297 273.206 284.466C273.275 273.551 265.952 263.188 261.116 256.349Z" fill="white"/>
<path d="M294.484 303.672C289.855 303.672 287.092 299.458 286.677 295.174L306.573 289.786C306.021 280.045 300.356 271.479 289.786 271.479C278.525 271.479 271.064 280.252 271.064 293.171C271.064 303.257 276.867 312.445 289.026 312.445C296.077 312.595 302.678 308.992 306.366 302.981L302.428 298.283C300.563 301.323 298.283 303.672 294.484 303.672ZM285.71 285.295C285.71 282.325 285.71 276.798 288.957 276.798C291.996 276.798 292.756 281.427 292.756 283.983C292.823 284.502 292.784 285.029 292.642 285.533C292.499 286.036 292.255 286.506 291.926 286.913C291.597 287.32 291.188 287.655 290.725 287.9C290.262 288.144 289.755 288.292 289.233 288.335L285.71 289.302V285.295Z" fill="#006BB6"/>
<path d="M327.16 311.34H306.159V306.021L309.958 305.468V289.026C309.958 283.154 309.198 280.321 304.984 280.321V275.693L319.907 271.34C321.461 274.75 322.307 278.44 322.394 282.187H322.532C324.052 277.696 325.917 271.409 330.753 271.409C335.036 271.409 336.901 274.725 336.901 278.732C336.901 282.808 335.105 286.124 331.996 286.124C330.277 286.012 328.592 285.591 327.022 284.881C324.328 283.983 323.43 295.796 323.43 298.283V305.468L327.16 306.021V311.34H327.16H327.16Z" fill="#006BB6"/>
<path d="M362.462 279.078C362.462 282.325 359.63 283.983 356.66 283.983C353.122 283.786 350.238 281.076 349.82 277.558C348.3 277.558 347.195 278.318 347.195 280.943C347.195 287.023 364.397 282.67 364.397 298.076C364.397 309.613 356.038 312.515 348.024 312.515C343.119 312.515 334.622 311.893 334.622 304.432C334.622 301.047 336.487 298.49 339.872 298.49C345.053 298.49 345.951 303.257 346.85 306.642C346.968 306.992 347.207 307.287 347.523 307.477C347.839 307.667 348.213 307.738 348.577 307.679C351.34 307.679 353.343 306.573 353.343 304.708C353.343 297.8 335.727 300.494 335.727 285.434C335.727 275.9 346.988 271.617 352.445 271.617C358.594 271.617 362.462 273.689 362.462 279.078ZM245.019 253.724C238.318 253.724 231.479 256.418 227.886 262.014H227.748L228.439 252.342C228.854 245.779 230.304 227.955 239.423 227.955C243.776 227.955 242.809 233.758 243.292 236.384C244.467 242.532 247.161 249.648 255.658 249.648C257.211 249.718 258.761 249.467 260.212 248.912C261.663 248.356 262.984 247.507 264.093 246.418C265.201 245.329 266.073 244.023 266.655 242.582C267.236 241.141 267.514 239.595 267.472 238.042C267.472 226.021 257.454 218.146 245.227 218.146C213.931 218.146 201.358 242.049 201.358 270.995C201.358 296.142 211.099 317.834 238.042 317.834C255.52 317.834 269.682 305.399 269.682 284.536C269.544 266.85 260.218 253.724 245.019 253.724L245.019 253.724ZM235.693 307.955C228.232 307.955 228.508 298.352 228.508 287.299C228.508 276.245 229.544 266.712 235.693 266.712C243.223 266.712 243.568 276.245 243.568 287.299C243.638 298.352 242.049 307.955 235.693 307.955Z" fill="#006BB6"/>
<path d="M141.6 217.593V254.898C162.464 258.007 187.403 255.935 205.089 230.166C205.849 229.061 206.263 229.821 205.779 230.788C200.874 240.805 189.199 250.063 179.113 258.007C169.441 265.607 143.465 292.826 143.811 316.798C143.811 318.663 143.88 318.111 145.538 316.936C153.414 311.064 168.819 310.926 178.284 315.416C179.597 316.038 179.735 315.831 179.527 314.173C177.731 295.589 181.876 275.347 189.821 263.534C195.279 255.382 210.063 234.38 212.619 217.938C212.895 216.211 211.997 216.488 209.855 218.767C193.137 236.453 162.947 235.969 143.396 217.317C142.222 216.004 141.669 216.557 141.6 217.593" fill="#ED174C"/>
<path d="M177.816 231.011C197.579 231.011 213.6 214.99 213.6 195.227C213.6 175.464 197.579 159.443 177.816 159.443C158.053 159.443 142.032 175.464 142.032 195.227C142.032 214.99 158.053 231.011 177.816 231.011Z" fill="white"/>
<path d="M177.8 160.737L178.974 164.537H183.051L179.734 166.885L180.908 170.616L177.8 168.336L174.554 170.616L175.797 166.885L172.48 164.537H176.557L177.8 160.737ZM201.565 174.622L202.808 178.353H206.885L203.568 180.771L204.742 184.502L201.565 182.222L198.387 184.502L199.631 180.771L196.316 178.354H200.391L201.565 174.622ZM191.342 163.914L192.585 167.645H196.659L193.345 170.063L194.519 173.794L191.41 171.514L188.231 173.794L189.407 170.063L186.091 167.645H190.167L191.342 163.914ZM205.502 187.679L206.678 191.479H210.753L207.438 193.897L208.681 197.628L205.502 195.348L202.325 197.628L203.499 193.897L200.253 191.479H204.259L205.502 187.679ZM203.776 201.565L205.019 205.365H209.027L205.779 207.782L206.953 211.513L203.776 209.165L200.599 211.513L201.773 207.714L198.525 205.365H202.602L203.776 201.565ZM196.108 212.619L197.282 216.419H201.359L198.111 218.836L199.285 222.567L196.176 220.287L192.93 222.567L194.173 218.836L190.857 216.419H194.933L196.108 212.619ZM184.087 218.836L185.33 222.636H189.337L186.022 225.053L187.265 228.784L184.087 226.505L180.908 228.785L182.083 225.053L178.837 222.636H182.843L184.087 218.836ZM153.551 173.379L152.308 177.179H148.302L151.548 179.528L150.374 183.259L153.483 180.979L156.729 183.259L155.486 179.528L158.802 177.179H154.726L153.551 173.379ZM163.5 163.914L162.257 167.645H158.249L161.497 170.063L160.322 173.794L163.5 171.514L166.677 173.794L165.503 170.063L168.751 167.645H164.743L163.5 163.914ZM148.854 186.022L147.68 189.822H143.603L146.92 192.17L145.745 195.97L148.854 193.622L152.031 195.97L150.857 192.17L154.174 189.822H150.166L148.854 186.022ZM150.166 199.839L148.923 203.639H144.848L148.163 206.056L146.988 209.787L150.097 207.507L153.274 209.787L152.1 206.056L155.348 203.639H151.34L150.166 199.839ZM157.766 211.168L156.591 214.968H152.515L155.831 217.385L154.588 221.116L157.766 218.767L161.014 221.116L159.769 217.385L163.017 214.968H159.009L157.766 211.168ZM169.786 218.353L168.611 222.153H164.536L167.851 224.57L166.677 228.301L169.786 226.021L173.034 228.301L171.791 224.502L175.105 222.153H171.031L169.786 218.353Z" fill="#006BB6"/>
</svg>