<svg width="500" height="500" viewBox="0 0 500 500" fill="none" xmlns="http://www.w3.org/2000/svg">
<path d="M388.211 159.573C382.28 150.796 375.469 142.546 367.969 135.043C364.715 131.789 361.319 128.666 357.803 125.685L431.565 51.9233H216.672L133.73 134.869H133.742C133.684 134.928 133.625 134.986 133.565 135.042C126.065 142.546 119.257 150.796 113.326 159.573C107.342 168.435 102.199 177.908 98.0456 187.727C89.3994 208.162 85.0186 229.869 85.0186 252.246C85.0186 274.623 89.3994 296.327 98.0456 316.762C102.199 326.581 107.342 336.054 113.326 344.916C119.257 353.693 126.065 361.95 133.565 369.446C136.833 372.714 140.236 375.844 143.765 378.827L70.0264 452.566H284.857L368.134 369.285H368.126C375.565 361.827 382.322 353.635 388.211 344.916C394.196 336.054 399.338 326.581 403.492 316.762C412.134 296.327 416.511 274.623 416.511 252.246C416.511 229.869 412.134 208.162 403.492 187.727C399.338 177.908 394.196 168.435 388.211 159.573Z" fill="#061922"/>
<path d="M388.211 159.573C382.28 150.796 375.469 142.546 367.969 135.043C364.715 131.789 361.319 128.666 357.803 125.685L431.565 51.9233H216.672L133.73 134.869H133.742C133.684 134.928 133.625 134.986 133.565 135.042C126.065 142.546 119.257 150.796 113.326 159.573C107.342 168.435 102.199 177.908 98.0456 187.727C89.3994 208.162 85.0186 229.869 85.0186 252.246C85.0186 274.623 89.3994 296.327 98.0456 316.762C102.199 326.581 107.342 336.054 113.326 344.916C119.257 353.693 126.065 361.95 133.565 369.446C136.833 372.714 140.236 375.844 143.765 378.827L70.0264 452.566H284.857L368.134 369.285H368.126C375.565 361.827 382.322 353.635 388.211 344.916C394.196 336.054 399.338 326.581 403.492 316.762C412.134 296.327 416.511 274.623 416.511 252.246C416.511 229.869 412.134 208.162 403.492 187.727C399.338 177.908 394.196 168.435 388.211 159.573" stroke="white" stroke-width="3.8462"/>
<path d="M358.256 144.576C355.006 141.326 351.649 138.253 348.191 135.36L257.999 225.549C262.441 226.799 266.633 229.168 270.129 232.653L270.152 232.68C281.045 243.572 281.045 261.23 270.152 272.122L103.095 439.18H122.668L279.941 281.907C296.191 265.66 296.237 239.349 280.087 223.037L289.872 213.253C311.426 234.964 311.379 270.041 289.726 291.691L142.233 439.18H161.81L299.514 301.476C326.572 274.422 326.618 230.583 299.66 203.468L309.449 193.68C341.814 226.203 341.76 278.803 309.299 311.264L181.383 439.18H200.96L319.083 321.053C356.952 283.187 357.002 221.818 319.233 183.891L329.022 174.106C372.199 217.437 372.149 287.568 328.872 330.841L220.533 439.18H240.106L338.66 340.626C387.341 291.953 387.387 213.056 338.806 164.318L348.656 154.464C402.679 208.645 402.629 296.356 348.514 350.48L259.806 439.18H279.383L358.302 360.268L358.256 360.222C417.806 300.672 417.806 204.122 358.256 144.576Z" fill="white"/>
<path d="M143.366 360.052C146.616 363.302 149.973 366.375 153.431 369.268L243.623 279.075C239.185 277.825 234.992 275.46 231.496 271.975L231.469 271.948C220.577 261.056 220.577 243.395 231.469 232.506L398.758 65.2178H379.185L221.681 222.718C205.435 238.968 205.385 265.279 221.539 281.591L211.754 291.375C190.2 269.66 190.242 234.583 211.896 212.937L359.616 65.2178H340.039L202.108 203.149C175.054 230.202 175.008 274.045 201.966 301.156L192.181 310.945C159.812 278.422 159.862 225.822 192.323 193.36L320.466 65.2178H300.892L182.539 183.572C144.669 221.441 144.619 282.806 182.392 320.733L172.604 330.522C129.427 287.191 129.473 217.056 172.75 173.783L281.316 65.2178H261.742L162.962 163.999C114.281 212.679 114.235 291.568 162.816 340.31L152.966 350.16C98.9424 295.983 98.9924 208.268 153.112 154.149L242.042 65.2178H222.465L143.323 144.36L143.366 144.402C83.8156 203.952 83.8156 300.502 143.366 360.052" fill="#E03A3E"/>
</svg>