<svg width="500" height="500" viewBox="0 0 500 500" fill="none" xmlns="http://www.w3.org/2000/svg">
<path d="M370.074 38.4639L343.68 85.2679L338.809 121.349L296.91 196.017H252.495L291.46 127.07V38.4639H237.43L212.103 84.9662L207.557 121.372L143.879 234.941L156.914 267.598H191.472L180.166 296.24L141.769 254.705L146.489 318.302L77.6152 321.191L132.92 360.127L93.9551 418.258L157.726 397.403L183.761 460.014L203.406 392.517L274.9 410.958L228.571 357.342L284.629 311.037L232.444 314.275L273.74 267.598H343.367L421.297 129.391L422.039 128.056V38.464L370.074 38.4639Z" fill="#FEFEFE"/>
<path d="M373.466 44.2607L348.719 88.1287L344.416 123.188L300.302 201.814H242.539L285.655 125.532V44.2607H240.869L217.188 87.7457L213.187 123.188L150.286 235.353L160.851 261.79H200.002L182.177 306.946L148.79 270.83L152.722 323.843L94.9116 326.269L140.893 358.648L108.144 407.506L161.013 390.214L182.804 442.577L199.41 385.502L258.38 400.693L220.296 356.651L267.159 317.948L218.812 320.942L271.136 261.79H339.986L416.247 126.542V44.2607H373.466ZM373.466 48.4073V44.2642V48.4072V48.4073Z" fill="#FEFEFE"/>
<path d="M373.466 44.2607L348.719 88.1287L344.416 123.188L300.302 201.814H242.539L285.655 125.532V44.2607H240.869L217.188 87.7457L213.187 123.188L150.286 235.353L160.851 261.79H200.002L182.177 306.946L148.79 270.83L152.722 323.843L94.9116 326.269L140.893 358.648L108.144 407.506L161.013 390.214L182.804 442.577L199.41 385.502L258.38 400.693L220.296 356.651L267.159 317.948L218.812 320.942L271.136 261.79H339.986L416.247 126.542V44.2607H373.466Z" fill="#2D2925"/>
<path d="M364.201 83.3868H385.086L399.629 56.068H379.497L364.201 83.3868ZM232.859 83.4321L255.357 83.3741L269.69 56.0552L248.004 56.0668L232.859 83.4321ZM227.508 117.839L247.779 117.897L249.67 94.4199H230.06L227.508 117.839ZM358.413 117.839L378.695 117.897L380.609 94.4199H360.952L358.413 117.839ZM174.524 362.468C169.386 362.468 165.223 358.313 165.223 353.184C165.223 348.043 169.386 343.888 174.524 343.888C179.661 343.888 183.813 348.043 183.813 353.184C183.813 358.313 179.661 362.468 174.524 362.468V362.468ZM354.065 131.883L308.339 212.447H198.587L244.336 131.883H222.813L167.635 229.39H228.843L182.421 333.281L163.205 311.927L164.272 337.099L133.332 338.805L158.254 356.364L140.499 382.824L169.143 373.458L180.937 401.856L189.948 370.917L221.897 379.145L201.266 355.273L226.663 334.29L187.477 336.02L259.644 229.39H320.979L375.229 131.883H354.065H354.065Z" fill="#C4CDD3"/>
</svg>