<svg version="1.1" id="Layer_1" xmlns="http://www.w3.org/2000/svg" xmlns:xlink="http://www.w3.org/1999/xlink" x="0px" y="0px"
	 width="400px" height="400px" viewBox="0 0 400 400" enable-background="new 0 0 400 400" xml:space="preserve">
<g>
	<path fill="#CD1141" d="M362,200c0,88.923-72.084,161-161,161c-88.924,0-161-72.077-161-161c0-88.918,72.076-161,161-161
		C289.916,39,362,111.082,362,200"/>
	<path fill="#070B0C" d="M200.968,352.632c-40.415,0-78.512-15.651-107.266-44.075c-28.784-28.446-44.875-66.402-45.325-106.87
		c-0.449-40.763,15-79.268,43.509-108.413c28.51-29.141,66.659-45.442,107.423-45.891c0.573-0.006,1.151-0.015,1.724-0.015
		c40.414,0,78.505,15.657,107.266,44.081c28.783,28.445,44.875,66.397,45.325,106.865c0.448,40.768-15.005,79.271-43.51,108.418
		c-28.508,29.147-66.659,45.441-107.433,45.892C202.113,352.628,201.536,352.632,200.968,352.632"/>
	<g>
		<path fill="#FFFFFF" d="M215.994,95.2l-5.291,5.342h-14.881l-5.346-5.342V65.722l5.346-5.347h14.829l5.343,5.347V95.2z
			 M200.522,69.099l-1.599,1.601v19.452l1.599,1.6h5.424l1.601-1.6V70.7l-1.601-1.601H200.522z"/>
		<path fill="#FFFFFF" d="M302.154,164.724l-7.098-2.458l-6.423-13.425l2.515-7.125l26.588-12.722l7.125,2.514l6.397,13.366
			l-2.517,7.136L302.154,164.724z M319.026,139.511l-2.136-0.749l-17.547,8.393l-0.755,2.136l2.34,4.887l2.135,0.749l17.553-8.392
			l0.75-2.136L319.026,139.511z"/>
		<path fill="#FFFFFF" d="M137.128,117.479l0.15,7.515l-10.368,10.673l-7.564,0.102l-21.133-20.544l-0.108-7.558l10.337-10.625
			l7.553-0.108L137.128,117.479z M107.634,110.376l0.032,2.257l13.951,13.565l2.259-0.032l3.784-3.892l-0.032-2.259l-13.949-13.558
			l-2.259,0.032L107.634,110.376z"/>
		<polygon fill="#FFFFFF" points="270.705,77.385 255.053,114.305 248.636,111.564 246.939,85.368 237.796,106.965 230.783,104.011 
			246.447,67.104 255.117,70.779 255.226,93.766 263.474,74.308 		"/>
		<path fill="#FFFFFF" d="M167.501,85.8l-1.783,6.242l11.193,11.049l-7.799,3.393l-10.39-9.967l-3.791,1.681l5.284,12.156
			l-7.146,3.105L137.096,76.61l17.178-7.474l7.259,2.943L167.501,85.8z M151.126,89.456l6.333-2.757
			c0.055-0.021,0.834-2.091,0.834-2.091l-2.183-5.016l-2.104-0.83l-6.333,2.75L151.126,89.456z"/>
		<polygon fill="#FFFFFF" points="302.11,113.33 296.892,108.203 274.784,130.689 268.789,124.797 290.896,102.309 285.673,97.175 
			291.731,91.014 308.172,107.169 		"/>
		<polygon fill="#FFFFFF" points="88.032,136.225 85.044,142.9 113.828,155.785 110.391,163.455 81.608,150.582 78.621,157.257 
			70.736,153.729 80.153,132.697 		"/>
		<path fill="#FFFFFF" d="M308.031,238.679l-3.968,7.543l-2.782-1.46l-0.781,1.476l-2.511,4.771l0.69,2.136l3.94,2.083l-0.498-0.273
			l2.157-0.647l4.716-8.972l7.403-2.223l12.053,6.338l2.244,7.222l-6.92,13.174c0,0-7.276,2.221-7.323,2.195l-6.032-3.175
			l3.928-7.479l3.052,1.606l3.27-6.231l-0.674-2.162l-3.169-1.677l-2.194,0.665l-4.626,8.806l-7.471,2.27l-0.027,0.049
			l-12.061-6.338l-2.354-7.355l6.92-13.174l7.338-2.113L308.031,238.679z"/>
		<path fill="#FFFFFF" d="M101.772,266.317l-6.344-1.343L85.19,276.91l-3.924-7.54l9.207-11.066l-1.937-3.663L76.78,260.76
			l-3.602-6.909l35.649-18.505l8.651,16.615l-2.43,7.445L101.772,266.317z M96.986,250.236l3.19,6.125
			c0.028,0.053,2.153,0.685,2.153,0.685l4.849-2.525l0.68-2.153l-3.191-6.13L96.986,250.236z"/>
		<path fill="#FFFFFF" d="M154.338,314.83l-5.787,13.854l-6.974-2.896l15.416-37.09l16.963,7.05l2.816,7.275l-5.615,13.51
			l-5.604,2.978L154.338,314.83z M157.321,307.652l5.672,2.354c0.048,0.022,2.067-0.861,2.067-0.861l2.097-5.054l-0.84-2.081
			l-5.673-2.355L157.321,307.652z"/>
		<polygon fill="#FFFFFF" points="215.206,307.919 207.889,308.005 208.242,339.535 199.832,339.625 199.479,308.097 
			192.167,308.171 192.071,299.537 215.115,299.281 		"/>
		<path fill="#FFFFFF" d="M261.853,321.041l-3.041,6.872l-13.912,5.278l-6.896-3.105l-10.459-27.552l3.104-6.894l13.854-5.262
			l6.895,3.099L261.853,321.041z M238.132,302.121l-0.924,2.063l6.903,18.194l2.056,0.926l5.076-1.927l0.926-2.06l-6.9-18.19
			l-2.062-0.932L238.132,302.121z"/>
		<path fill="#FFFFFF" d="M291.271,282.183l0.107,6.483l13.911,7.327l-6.477,5.515l-12.835-6.521l-3.144,2.702l8.585,10.098
			l-5.935,5.047l-25.973-30.635l14.266-12.13l7.805,0.712L291.271,282.183z M276.663,290.426l5.262-4.475
			c0.043-0.037,0.187-2.243,0.187-2.243l-3.543-4.169l-2.247-0.182l-5.262,4.469L276.663,290.426z"/>
		<path fill="#FFFFFF" d="M121.182,315.125l-6.277-5.78l2.911-5.921l-8.592-7.907l-5.669,3.389l-6.279-5.781l36.299-21.755
			l6.278,5.777L121.182,315.125z M121.406,296.079l5.498-11.123l-10.663,6.366L121.406,296.079z"/>
	</g>
	<g>
		<path fill="#A0A0A3" d="M232.287,280.668c0.134,0.165,0.23,0.374,0.317,0.37c0.448-0.026,1.343-0.167,1.343-0.167l0.899-0.386
			l2.525-0.984c0,0,6.307-3.003,6.327-3.023c0.027-0.021,1.11-0.589,1.11-0.589l0.572-0.252l0.678-0.46l1.12-0.697l1.332-0.731
			l1.713-1.119l2.977-2.095l1.456-1.148l2.093-1.517l1.907-1.417l0.898-0.661l1.257-1.17l1.313-1.302l2.104-2.253l2.456-2.361
			l2.837-3.271l1.553-2.083l0.546-0.744l1.666-2.06l3.252-4.674l0.91-1.53l2.189-4.303l1.232-2.346l2.109-4.271l1.14-2.598
			l1.236-3.981c0,0,1.461-5.258,2.254-8.008c0.09-0.316,0.127-0.6-0.075-0.883c-0.45-0.634-0.782-1.435-1.204-2.147
			c-0.22-0.374-0.536-0.744-0.74-1.056c-0.207-0.304-0.76-0.999-0.973-1.252c-0.229-0.267-0.51-0.497-0.793-0.712
			c-0.679-0.637-1.273-1.272-1.847-1.69c-0.269-0.146-0.514-0.343-0.761-0.53c-1.771-1.36-3.569-2.456-5.587-3.334
			c-0.842-0.365-1.714-0.677-2.591-0.975c-0.622-0.209-1.602-0.45-2.249-0.558c-0.369-0.064-0.668-0.074-0.948,0.118
			c-0.276,0.188-0.289,0.615-0.337,1.033c-0.117,1.093-0.16,2.303-0.252,3.398c-0.101,1.141-0.182,2.28-0.272,3.421
			c-0.085,1.028-0.134,2.065-0.268,3.088c-0.16,1.355-0.347,2.711-0.604,4.054c-0.476,2.511-1.013,5.009-1.536,7.515
			c-0.145,0.686-0.242,1.402-0.514,2.044c-0.46,1.056-0.787,2.158-1.002,3.282c-0.46,2.377-1.333,4.615-2.142,6.867
			c-0.663,1.837-1.316,3.7-2.359,5.375c-0.076,0.106-0.113,0.242-0.16,0.358c-0.492,1.158-0.96,2.323-1.489,3.469
			c-0.332,0.743-0.808,1.424-1.124,2.168c-0.396,0.947-0.926,1.804-1.472,2.66c-0.878,1.35-1.799,2.672-2.553,4.097
			c-0.53,0.993-1.13,1.932-1.789,2.842c-0.171,0.234-0.321,0.476-0.481,0.712c-0.525,0.766-1.012,1.563-1.584,2.285
			c-1.103,1.403-2.243,2.783-3.403,4.139c-0.729,0.849-1.532,1.632-2.298,2.446c-0.696,0.733-1.391,1.473-2.094,2.209
			c-0.148,0.156-0.336,0.278-0.501,0.418c-0.419,0.359-0.863,0.691-1.248,1.082c-0.911,0.905-1.843,1.776-2.912,2.488
			c-0.461,0.307-0.925,0.615-1.345,0.964C234.981,279.202,233.705,279.935,232.287,280.668"/>
		<path fill="#A0A0A3" d="M288.653,213.174c0.044,0,0.063-0.081,0.074-0.183c0.028-0.22,0.061-0.6,0.061-0.6l0.617-5.486
			l0.367-5.145l0.017-5.096l-0.011-0.798l-0.606-5.78c0,0-0.705-5.209-1.246-7.886c-0.197-0.958-0.782-1.439-1.558-1.814
			c-0.251-0.124-0.535-0.263-0.813-0.342c-0.567-0.178-1.194-0.45-1.767-0.601c-1.3-0.325-2.537-0.753-3.86-0.979
			c-1.557-0.267-3.143-0.434-4.719-0.573c-1.292-0.118-2.593-0.165-3.894-0.181c-1.038-0.017-1.658-0.033-2.698-0.033
			c-0.556,0-1.146,0.022-1.396,0.357c-0.254,0.349-0.071,0.969,0.02,1.586c0.194,1.263,0.414,1.894,0.622,3.146
			c0.621,3.717,1.29,7.424,1.429,11.199c0.065,1.691,0.166,3.389,0.235,5.08c0.022,0.482,0.017,0.798,0.026,1.285
			c0.013,0.29,0.076,0.609,0.21,0.817c0.15,0.235,0.386,0.274,0.663,0.359c0.321,0.103,0.633,0.133,0.954,0.208
			c0.319,0.081,0.925,0.204,1.337,0.333c1.505,0.487,3.104,1.022,4.562,1.615c1.038,0.413,2.001,1.013,2.996,1.532
			c0.119,0.065,0.226,0.14,0.334,0.221c0.576,0.433,1.16,0.865,1.739,1.295c1.359,1.001,2.766,1.975,3.815,3.351
			c0.199,0.262,0.434,0.503,0.681,0.723c0.412,0.364,1.103,1.665,1.6,2.254C288.531,213.142,288.611,213.174,288.653,213.174"/>
		<path fill="#A0A0A3" d="M249.973,151.513c0.514-0.038,0.98-0.048,1.376-0.096c0.296-0.038,0.574-0.048,0.708-0.354
			c0.121-0.305-0.114-0.638-0.178-0.781c-0.112-0.251-1.103-2.002-1.103-2.002l-0.962-1.503l-4.069-5.873l-0.846-0.995l-0.788-1.066
			l-1.333-1.472l-3.297-3.613l-1.412-1.391l-5.103-4.722l-4.19-3.229l-1.503-0.797l-4.911-2.999l-3.436-1.861l-0.669-0.274
			l-2.794-1.022l-4.154-1.552l-0.327-0.075l-1.332-0.332l-0.358-0.059l-1.168-0.301l-2.473-0.455l-1.179-0.043l-2.205-0.406
			l-2.638-0.17l-0.92-0.113l-1.655-0.027l-2.767,0.08l-2.735,0.306l-2.114,0.049l-1.875,0.208l-1.92,0.386l-1.451,0.45l-2.366,0.454
			l-0.531-0.009l-2.205,0.787l-1.301,0.364l-0.796,0.481l-1.922,0.525l-0.926,0.535l-1.161,0.443l-2.854,1.195l-3.63,1.414
			l-1.193,0.572l-2.542,1.37l-2.206,1.45l-2.06,1.065l-0.75,0.434l-2.259,1.2l-0.363,0.236l-2.564,2.012l-2.125,1.44l-0.419,0.273
			l-2.408,1.9l-0.878,0.728c0,0-1.29,1.108-1.327,1.264l0.91-0.269c0,0,1.654-0.61,1.687-0.599c0.032,0.01,0.32,0.021,0.32,0.021
			l2.389-0.963h0.347l2.612-1.034c0,0,1.366-0.449,1.366-0.417s1.392-0.515,1.392-0.515l1.942-0.69l4.695-1.804l0.428-0.021
			l2.408-0.834l1.906-0.787l0.267,0.202c0,0,3.656,0.087,3.689,0.087c0.01,0,2.351,0.182,2.351,0.182l0.074,0.048l4.738,0.369
			l0.048-0.036l6.551,0.342l0.033,0.159l2.323,1.994l0.17-0.006l2.367,2.286l0.219-0.107l3.26,0.097l0.16-0.119l8.185,0.478
			l0.049,0.187l3.646,2.114l0.158-0.027l6.441,3.137l0.047,0.342l3.652-1.422l5.353,1.803l0.909,1.482l1.96,0.129l1.89,2.135
			l0.198,0.012l1.52,1.734l0.022,0.113h0.212l4.225,0.963l1.556,2.398l3.909,1.424c0,0,4.187,1.066,6.331,1.338
			C246.227,151.706,248.49,151.604,249.973,151.513"/>
		<path fill="#A0A0A3" d="M286.4,176.292c-0.123-0.621-0.567-1.889-0.567-1.889l-0.242-0.675l-0.219-0.824l-0.696-2.06l-0.635-1.805
			l-2.009-4.469l-0.91-2.195l-1.146-2.538l-1.369-2.249l-0.321-0.647l-0.915-1.843l-0.852-1.385l-0.355-0.478l-5.849-7.921
			c0,0-0.567-0.669-0.852-1.006c-0.135-0.172-0.183-0.306-0.365-0.306c-0.015,0-0.026,0.006-0.043,0.006
			c0,0-1.798,2.949-2.553,3.783c-0.748,0.825-2.253,2.206-2.253,2.206s-1.27,1.044-1.483,1.204
			c-0.213,0.167-1.183,0.804-1.183,0.804l-1.333,0.765c0,0-1.011,0.471-1.177,0.53c-0.167,0.064-0.354,0.138-0.454,0.267
			c-0.104,0.135-0.141,0.237-0.099,0.461c0.044,0.176,0.103,0.348,0.172,0.503c0.541,1.134,1.032,2.291,1.622,3.393
			c0.889,1.638,1.456,3.405,2.19,5.108c0.244,0.56,0.492,1.134,0.684,1.712c0.499,1.51,0.964,3.024,1.445,4.539
			c0.208,0.671,0.434,1.34,0.628,2.014c0.192,0.679,0.347,1.359,0.528,2.045c0.119,0.449,0.418,0.653,0.874,0.647
			c0.438-0.005,0.882-0.027,1.32-0.043c1.568-0.042,3.133-0.097,4.701-0.117c0.448-0.012,3.582,0.277,3.582,0.277
			s1.122,0.113,1.658,0.205c1.194,0.219,2.377,0.486,3.565,0.733c0.99,0.204,2.018,0.551,2.95,0.974
			c0.448,0.203,0.937,0.336,1.434,0.482c0.155,0.042,0.401,0.074,0.438,0.058C286.354,176.543,286.416,176.367,286.4,176.292"/>
		<path fill="#A0A0A3" d="M265.937,141.353c-0.043-0.23-0.461-0.862-0.461-0.862l-0.299-0.531l-0.848-0.973l-0.571-0.824
			l-1.065-1.049c0,0-0.235-0.204-0.357-0.295c-1.865-1.52-5.594-4.534-5.6-4.544c0-0.012-1.033-0.826-1.033-0.826l-1.934-1.691
			l-9.694-5.813l-7.644-3.625c0,0-4.058-1.59-4.063-1.578c-0.006,0.005-1.472-0.53-1.488-0.52c-0.027,0.006-4.994-1.718-4.994-1.718
			l-3.527-0.895l-3.421-0.74l-0.535-0.046l-0.306,0.299l0.135,0.149c0,0,0.348,0.172,0.509,0.241c1.06,0.417,2.136,0.81,3.189,1.237
			c0.697,0.272,1.353,0.647,2.065,0.856c0.504,0.139,0.965,0.321,1.393,0.573c1.628,0.941,3.245,1.883,4.855,2.847
			c0.962,0.573,1.857,1.252,2.683,2.024c0.625,0.577,1.284,1.134,2.038,1.546c0.342,0.188,0.621,0.498,0.927,0.75
			c0.165,0.135,0.331,0.278,0.503,0.418c0.946,0.781,1.975,1.456,2.821,2.371c0.898,0.969,1.846,1.889,2.794,2.81
			c0.899,0.878,1.809,1.74,2.579,2.741c0.628,0.825,1.286,1.633,2.013,2.367c1.407,1.392,2.479,3.045,3.76,4.527
			c0.154,0.183,0.256,0.413,0.39,0.617c0.824,1.305,1.564,2.661,2.559,3.854c0.696,0.829,1.316,1.702,1.787,2.696
			c0.274,0.59,0.686,1.131,1.056,1.671c0.215,0.322,0.577,0.471,0.77,0.46c0.188-0.016,0.548-0.176,0.548-0.176l0.684-0.273
			c0,0,0.906-0.407,1.211-0.541c0.31-0.146,0.908-0.481,1.129-0.679c0.219-0.199,1.129-0.825,1.643-1.296
			c0.515-0.471,1.554-1.692,1.554-1.692l0.744-1.001l1.296-2.151C265.729,142.071,265.979,141.583,265.937,141.353"/>
		<path fill="#A0A0A3" d="M261.895,173.625c-0.524-1.616-0.938-3.142-1.509-4.737c-0.471-1.295-0.836-2.638-1.441-3.896
			c-0.363-0.744-0.562-1.574-0.838-2.354c-0.151-0.397-0.35-0.768-0.482-1.162c-0.707-2.035-1.682-3.684-2.651-5.594
			c-0.048-0.103-0.096-0.198-0.186-0.363c-0.093-0.178-0.172-0.343-0.414-0.477c-0.24-0.14-0.443-0.049-0.877,0.01
			c-0.835,0.096-1.875,0.209-2.307,0.209c-0.386,0-2.023,0.123-3.319,0.229l-0.306-0.091h-0.818h-0.766l-4.181-0.541
			c-1.525-0.225-5.031-1.108-5.031-1.108l-2.564-0.878l-3.164-1.086l-0.246,0.134l-4.92-0.391l-0.159,0.091l-2.768-2.115
			l-0.32-0.016l-1.73-1.557l-0.064-0.311l-1.921-0.295l-0.182,0.081l-1.58-0.541l-0.176-0.166l-3.619,0.262l-3.281-1.333
			l-11.375,0.6l-0.182-0.117l-2.146,0.161l-0.226,0.171l-5.598,0.423l-0.155-0.139l-7.986,4.608l-0.091,0.342l-0.37,0.328
			l-0.182-0.134l-4.008-0.375l-0.219,0.097l-7.099,0.042l-0.151-0.074l-2.021-0.065l-0.617-0.359l-7.44,5.755l-0.026,0.138
			l-2.608,2.056l-2.918-1.38l-0.17,0.085l-1.081-0.326c0,0-5.358,1.365-5.305,1.402c0.047,0.038-5.011-0.792-5.011-0.792
			l-0.348-0.284l-0.948,0.975l-2.002,0.957l-0.053,0.172l-3.999,3.051l-5.68,4.094l-6.39,4.755l-2.88,2.093l-0.145,1.23
			l-1.209,2.806l-0.524,2.413l-0.804,4.882l-0.471,2.109l-0.176,2.532l-0.695,5.273l-0.3,11.541l0.311,0.679l0.208,3.175
			c0,0,0.048,0.552,0.177,0.576c0.005,0.007,0.01,0,0.01,0.007l14.147-14.628l4.641-1.869l3.903-0.203l2.356-2.704l0.225-0.509
			l0.288,0.134l6.365-0.716l0.278-0.205h2.376l0.359,0.146l0.76-1.013l2.853-1.761l3.057-2.092l8.575,0.112l0.06,0.187l3.361,0.305
			l2.623-0.518l4.808-4.903l0.091,0.004l3.822-3.634l5.737-0.734l0.225-0.156l0.252,0.247l2.981,1.407l0.214-0.197l2.644-0.315
			l0.128-0.15l2.474-0.413l0.226-0.138l2.697,2.301l0.149-0.177l5.53-0.102l0.465-0.347l4.449,0.214l0.24,0.095l0.686-0.171
			l0.118-0.203l1.771-0.798l0.209,0.021l2.044-0.926l0.172-0.177l2.185-0.829l0.159-0.251l6.055-2.319l0.05-0.09l1.063-0.333
			l0.236-0.235l0.305,0.327l1.755,0.861l0.542,0.016l1.97,1.104l0.129-0.189l0.605-0.282l0.063,0.026l0.982-0.46l0.045-0.07
			l1.412-0.336l3.626,0.941l0.766-0.17l0.662,0.439l2.66,0.4l2.602,1.008c0,0,1.506-0.112,1.52-0.112
			c0.022,0,0.488,0.331,0.488,0.331l0.381-0.225c0,0,5.121-0.636,7.697-0.845c1.67-0.134,3.328-0.312,5-0.477
			c0.941-0.092,1.885-0.177,2.827-0.29C261.82,174.402,262.078,174.21,261.895,173.625"/>
		<path fill="#A0A0A3" d="M265.637,199.904c0-0.354-0.064-0.585-0.087-0.933c-0.058-0.991-0.101-1.974-0.154-2.971
			c-0.016-0.326-0.06-0.652-0.08-0.985c-0.08-1.23-0.106-2.467-0.23-3.693c-0.16-1.558-0.385-3.105-0.616-4.646
			c-0.181-1.2-0.411-2.393-0.626-3.582c-0.23-1.251-0.434-2.393-0.701-3.634c-0.272-1.262-0.541-1.429-1.835-1.279
			c-0.107,0.021-0.221,0.037-0.328,0.06c-0.477,0.096-1.145,0.16-1.627,0.224c-2.511,0.326-4.882,0.465-7.397,0.759l-7.21,2.511
			l-10.428-0.273l-1.13-0.369l-0.005,0.182l-3.073,2.27l-0.428,0.038l-2.43,2.258l-0.134,0.311l-6.241,0.836l-5.696,4.393
			l-0.593-0.016l-3.037,1.788l-1.193,0.135l-1.193,1.005l-0.311-0.245l-5.807-0.392l-1.009,1.134l0.022,0.184l-5.02,5.48
			l-0.065,0.317l-0.192,0.042l-6.404,7.307l-1.755,0.017l-0.144,0.182l-5.252,0.91l-0.407-0.022c0,0-0.106,0.24-0.133,0.257
			c-0.026,0.017-8.656,4.807-8.656,4.807l-3.886-0.459l-0.818,0.293l-3.876-0.234l-3.838,4.147l-2.296,0.467l-1.296-0.058
			l-1.359,0.572l-0.813-0.086l0.042,0.16l-4.774,3.699l-0.455,0.091l-7.451,5.791l0.063,0.349l-4.608,11.155l0.187,0.47l-7.605,0.69
			l-2.5,2.153l-0.235,0.809l3.383,4.699l2.504,3.834l2.159,2.751l3.51,3.822c0,0,0.022,0.267,0.098,0.282
			c0.064,0.022,0.465,0.049,0.481,0.07c0.022,0.011,2.104,0.706,2.12,0.717c0.01,0.011,2.586,0.81,2.586,0.81
			s0.025,0.128,0.059,0.128c0.021,0,0.257-0.039,0.257-0.039l4.299,1.665l0.325-0.014l0.236,0.283c0,0,0.364,0,0.386,0.004
			c0.027,0.005,1.012,0.67,1.012,0.67l1.797-0.985l0.086,0.006l0.809-0.521l6.52,1.649l4.779-2.446l10.622-1.055l4.351-7.001
			c0.69-0.691,1.927-1.944,1.927-1.944l0.165-0.016c0,0,1.499-1.375,1.526-1.402c0.021-0.031,0-0.192,0-0.192l2.736-2.489
			l1.278-1.339c0,0,0.284-0.165,0.321-0.171c0.038-0.005,1.473-1.525,1.473-1.525l1.182-1.22l0.312-0.069l-0.305-1.082l1.231-4.49
			l2.376-0.712l0.091-0.091l0.712-0.161l0.011-0.392l3.191-5.182l0.299-0.128l1.305-2.553l2.175-1.226l0.288-0.354l0.427,0.058
			c0,0,1.266-0.743,1.302-0.732h0.15l2.344-1.033l0.192-0.278l7.802-3.575l0.47-0.049l0.086-0.429l0.306-0.229l0.802-2.725
			l2.467-1.061l2.848-0.348l2.593-1.794l3.693,0.155l0.369,0.307l0.176-0.231l5.16-2.307l-0.027-0.664l1.238-2.366l2.532-0.674
			l0.127-0.161l3.476-0.733l1.332-1.578l0.172-0.038c0,0,0.803-0.782,0.825-0.799c0.03-0.005,2.386,0.328,2.386,0.328l0.122,0.086
			l1.302,0.187l0.81,0.092c0,0,3.506-1.645,4.972-2.201c0.622-0.241,1.226-0.396,1.804-0.605c0.809-0.289,1.617-0.572,2.438-0.845
			c0.41-0.134,0.807-0.241,1.213-0.359l1.634-0.299l1.9-0.321l1.155-0.07c0,0,0.563-0.069,0.771-0.106
			c0.216-0.032,0.536-0.032,0.787-0.256c0.251-0.225,0.241-0.462,0.268-0.67C265.631,200.326,265.637,200.219,265.637,199.904"/>
		<path fill="#A0A0A3" d="M265.556,206.728c0.012-0.271,0.048-0.731-0.176-0.979c-0.226-0.24-0.51-0.279-0.696-0.272
			c-0.182,0-1.082,0.117-1.082,0.117l-1.508,0.229c-0.173,0.027-0.339,0.054-0.504,0.096c-0.905,0.221-1.81,0.402-2.698,0.653
			c-0.996,0.285-2.012,0.547-2.949,0.965c-0.996,0.442-2.109,0.791-3.104,1.269c-0.358,0.166-3.704,1.803-5.236,2.563l-1.954,2.082
			l-0.074,0.45l-0.258-0.113l-1.227,0.07l-0.057,0.096l-3.987,1.322l0.048,0.44l-0.418,0.406l-0.005,0.257l-1.863,3.265
			l-0.251,0.018l-0.049,0.341c0,0-0.38,0.62-0.797,1.324l-8.389,5.384l-0.184-0.015l-1.268,1.063l-0.889,3.534l-0.819,0.788
			l-3.271,12.108l0.438,1.362l-4.849,2.324H216.7l-0.926,4.218l-0.157,0.145l-1.197,3.827l0.069,0.198l-0.498,3.305l-0.176,0.229
			l0.16,0.3l-4.652,7.392l-0.353,0.108l-1.142,1.788l-0.026,0.357c0,0-3.971,5.61-3.977,5.594c-0.005-0.021-4.196,2.484-4.196,2.484
			l0.229,0.357c0,0.037-0.219,1.691-0.219,1.691l0.364,0.628l-0.604,0.186l-3.025,1.794l-0.331-0.069l-4.454,2.633l-0.525,0.83
			c0,0.074,1.74,0.264,1.74,0.264l2.89,0.229l1.964,0.102l2.287,0.037l1.059,0.042l1.724,0.044l1.719-0.044l6.231-0.75l3.703-0.652
			l2.8-0.759l3.04-0.89l3.864-1.53l0.284-0.171l1.093-0.611c0,0,3.12-1.653,4.528-2.714c2.414-1.819,4.849-3.625,7.044-5.713
			c0.755-0.715,1.499-1.434,2.237-2.166c0.707-0.696,1.402-1.402,2.104-2.104c0.124-0.123,0.282-0.246,0.342-0.401
			c0.237-0.567,0.691-0.952,1.109-1.387c0.283-0.306,0.594-0.593,0.819-0.947c0.48-0.754,1.184-1.301,1.804-1.922
			c0.492-0.491,0.952-1.037,1.354-1.611c0.737-1.044,1.425-2.124,2.125-3.188c0.933-1.424,1.954-2.8,2.751-4.288
			c0.857-1.591,1.702-3.191,2.602-4.759c0.767-1.339,1.547-2.688,2.137-4.106c0.969-2.339,1.986-4.662,2.885-7.033
			c0.958-2.522,1.724-5.09,2.409-7.692c0.52-1.942,0.818-3.935,1.525-5.818c0.091-0.248,0.133-0.514,0.176-0.771
			c0.269-1.583,0.541-3.169,0.788-4.757c0.235-1.507,0.449-3.011,0.663-4.514c0.151-1.021,0.316-2.05,0.402-3.078
			c0.116-1.43,0.188-2.859,0.247-4.288c0.003-0.161,0.019-0.465,0.019-0.465S265.547,207.002,265.556,206.728"/>
	</g>
</g>
</svg>