<svg width="500" height="500" viewBox="0 0 500 500" fill="none" xmlns="http://www.w3.org/2000/svg">
<mask id="mask0" mask-type="alpha" maskUnits="userSpaceOnUse" x="19" y="93" width="464" height="308">
<path d="M482.098 400.95V93.3899H19.2314V400.95L482.098 400.95Z" fill="white"/>
</mask>
<g mask="url(#mask0)">
<path d="M186.937 260.934L260.025 93.3853H482.099L441.862 185.665H254.29C246.146 204.296 205.817 296.805 201.148 307.533V311.841C201.148 350.664 168.378 400.95 110.167 400.95C60.0309 400.95 19.2314 360.071 19.2314 309.877C19.2314 259.648 60.0309 218.814 110.167 218.814C141.825 218.814 171.475 235.906 186.937 260.934" fill="#FEFEFE"/>
</g>
<path d="M24.6748 313.935C25.7301 336.516 35.5027 356.743 50.6318 371.48C66.7359 357.237 77.277 336.815 78.4011 313.935H24.6748Z" fill="#0B223E"/>
<path d="M85.9456 313.935C84.8216 338.745 73.5922 360.947 56.3066 376.511C70.0823 387.722 87.4367 394.774 106.443 395.601V313.935H85.9456Z" fill="#F9A11A"/>
<path d="M24.6416 306.43H78.4252C77.4617 283.285 66.9092 262.598 50.633 248.275C35.3662 263.138 25.5592 283.629 24.6416 306.43Z" fill="#0B223E"/>
<path d="M56.3076 243.245C73.7537 258.924 84.9946 281.356 85.9466 306.431H106.444V224.121C87.4377 224.948 70.1062 232 56.3077 243.245" fill="#F9A11A"/>
<path d="M195.703 313.935H141.988C143.112 336.815 153.642 357.237 169.746 371.48C184.898 356.743 194.648 336.516 195.703 313.935Z" fill="#0B223E"/>
<path d="M134.459 313.935H113.95V395.601C132.945 394.774 150.288 387.722 164.098 376.511C146.812 360.947 135.571 338.745 134.459 313.935H134.459ZM164.098 243.245C150.288 232 132.945 224.948 113.95 224.121V306.431H134.436C135.388 281.356 146.663 258.924 164.098 243.245" fill="#2B5134"/>
<path d="M263.566 98.8047L187.519 273.222C183.08 263.849 177.069 255.407 169.751 248.285C153.487 262.609 142.923 283.295 141.971 306.44H195.731L250.719 180.253H411.371L446.871 98.8047H263.566H263.566Z" fill="#0B223E"/>
<path d="M438.323 180.245L473.835 98.7966H458.694L423.194 180.245H438.323Z" fill="#2B5134"/>
</svg>