<svg width="500" height="500" viewBox="0 0 500 500" fill="none" xmlns="http://www.w3.org/2000/svg">
<path d="M249.384 62.6235H249.057C145.85 62.6356 62.1361 146.272 61.9548 249.559V249.886C61.9668 353.197 145.584 436.991 248.851 437.112H249.105C352.336 437.075 436.038 353.415 436.171 250.091V249.85C436.147 146.587 352.59 62.8171 249.384 62.6235Z" fill="#FEFEFE"/>
<path d="M436.168 249.987V250.096C436.047 353.42 352.345 437.08 249.114 437.104H248.86C145.593 436.995 61.9633 353.19 61.9512 249.891V249.564C62.1326 146.277 145.859 62.6283 249.053 62.6283H249.38C352.599 62.8219 436.144 146.579 436.168 249.854V249.987L436.168 249.987ZM440.412 249.443C440.17 143.857 354.57 58.369 249.066 58.3569H248.654C143.126 58.5989 57.731 144.268 57.7068 249.77L57.6948 249.975V250.096C57.8278 355.755 143.428 441.315 249.005 441.364H249.271C354.848 441.231 440.34 355.61 440.412 249.987C440.412 249.915 440.424 249.842 440.424 249.733C440.412 249.733 440.424 249.661 440.412 249.443Z" fill="#C4CDD3"/>
<path d="M186.509 207.34C205.953 187.895 214.128 165.159 214.128 165.159L218.469 149.368L219.497 145.69L199.581 134.534C199.581 134.534 187.972 126.463 161.998 141.54C131.574 159.484 106.834 182.692 94.0402 207.316C86.9421 220.953 81.3192 236.659 78.405 254.507C79.312 288.303 89.9772 319.654 107.741 345.803C102.674 297.111 149.701 243.774 186.509 207.34H186.509ZM336.398 141.535C310.424 126.458 298.803 134.529 298.803 134.529L278.899 145.685L279.915 149.376L284.256 165.166C284.256 165.166 292.431 187.89 311.887 207.335C348.587 243.66 395.444 296.78 390.716 345.362C408.552 318.899 419.144 287.172 419.761 252.989C416.774 235.759 411.248 220.561 404.356 207.311C391.55 182.699 366.797 159.479 336.398 141.535Z" fill="#002A5B"/>
<path d="M273.922 112.348C342.171 120.068 387.02 158.825 410.189 193.201C392.764 143.591 353.102 104.471 303.173 87.7846C292.157 91.0396 279.944 97.8883 273.922 112.348ZM224.47 112.348C218.412 97.8157 206.102 90.967 195.05 87.7362C144.807 104.495 104.963 143.978 87.6712 194.012C110.671 159.442 155.69 120.116 224.47 112.348ZM235.642 110.422L249.185 90.4684L262.753 110.422C268.194 95.5505 276.767 87.3466 285.365 82.8816C273.72 80.3648 261.64 78.9975 249.246 78.9854C236.791 78.9733 224.65 80.3406 212.945 82.8574C221.567 87.3224 230.176 95.49 235.642 110.422Z" fill="#E21836"/>
<path d="M341.944 260.113C314.193 215.173 251.168 169.797 249.197 168.381C247.226 169.797 184.202 215.173 156.45 260.113C118.989 320.759 123.85 355.74 133.548 375.706C157.684 397.922 188.241 413.252 222.111 418.625L236.718 211.482L248.895 199.261L249.052 199.092V199.104L249.064 199.092L249.221 199.261L261.386 211.482L276.102 418.468L275.897 418.577C310.033 413.18 340.82 397.716 365.077 375.234C374.617 355.196 379.14 320.299 341.944 260.113Z" fill="#002A5B"/>
<path d="M261.389 211.477L249.224 199.256L249.357 433.709L275.899 418.571L276.093 418.462L261.389 211.477ZM249.121 152.652L243.813 156.573L221.551 173.005L227.379 151.817L228.383 148.151L230.342 141.048L223.873 137.551L202.929 126.262C213.498 123.926 224.296 122.414 235.203 121.712L240.536 121.385L240.753 120.938L242.882 116.569L243.22 115.892L249.194 103.743L255.361 116.303L255.494 116.569L257.646 120.938L257.852 121.385L263.197 121.712C274.092 122.414 284.902 123.926 295.458 126.262L274.527 137.551L268.045 141.048L270.004 148.151L271.02 151.817L276.849 173.005L254.587 156.573L249.278 152.652V152.543L249.194 152.604L249.121 152.543V152.652V152.652Z" fill="#C4CDD3"/>
<path d="M249.276 152.545V152.654L254.584 156.574L276.846 173.006L271.018 151.819L270.014 148.14L268.055 141.05L274.524 137.565L295.468 126.263C284.887 123.94 274.101 122.415 263.194 121.714L257.861 121.375L257.644 120.939L255.491 116.583L255.358 116.305L249.191 103.757L243.23 115.893H243.218L242.879 116.583L240.751 120.939L240.533 121.375L235.201 121.714C224.294 122.415 213.495 123.94 202.927 126.263L223.87 137.565L230.352 141.05L228.381 148.14L227.377 151.819L221.549 173.006L243.81 156.574L249.119 152.654V152.545L249.191 152.605L249.276 152.545H249.276Z" fill="#C4CDD3"/>
</svg>